G04*
G04 #@! TF.GenerationSoftware,Altium Limited,Altium Designer,20.1.8 (145)*
G04*
G04 Layer_Physical_Order=3*
G04 Layer_Color=16440176*
%FSLAX25Y25*%
%MOIN*%
G70*
G04*
G04 #@! TF.SameCoordinates,21FBFEBA-D07F-42F0-8C11-0AAD296DAF8C*
G04*
G04*
G04 #@! TF.FilePolarity,Positive*
G04*
G01*
G75*
%ADD14C,0.01000*%
%ADD15C,0.00500*%
%ADD40C,0.00600*%
%ADD41C,0.01200*%
%ADD46C,0.01772*%
%ADD47C,0.02362*%
G36*
X576520Y251109D02*
X576900Y250800D01*
Y250800D01*
X577246Y250454D01*
X577715Y249985D01*
X577953Y249629D01*
X577976Y249574D01*
Y230933D01*
X577476Y230628D01*
X577296Y230696D01*
X577296Y230696D01*
X576579Y231174D01*
X575734Y231342D01*
Y231316D01*
X574622D01*
X574499Y231499D01*
X574041Y231805D01*
X573500Y231913D01*
X572959Y231805D01*
X572532Y231520D01*
X564007D01*
Y231537D01*
X563960Y231546D01*
X563540Y231740D01*
X563540Y231740D01*
X562757Y232263D01*
X561834Y232446D01*
Y232420D01*
X556669D01*
X556241Y232705D01*
X555700Y232813D01*
X555159Y232705D01*
X554732Y232420D01*
X522197D01*
Y232444D01*
X520866Y232269D01*
X519627Y231755D01*
X518562Y230938D01*
X518570Y230930D01*
X517490Y229666D01*
X517071Y228982D01*
X516571Y229123D01*
Y249932D01*
X516624Y250201D01*
X516729Y250453D01*
X516881Y250681D01*
X516978Y250778D01*
X516978D01*
X517100Y250900D01*
X517243Y251043D01*
X517484Y251204D01*
X521665D01*
X521835Y250704D01*
X521434Y250396D01*
X520873Y249665D01*
X520520Y248814D01*
X520400Y247900D01*
Y238900D01*
X520520Y237986D01*
X520873Y237135D01*
X521434Y236404D01*
X522165Y235843D01*
X523016Y235490D01*
X523930Y235370D01*
X524844Y235490D01*
X525695Y235843D01*
X526426Y236404D01*
X526987Y237135D01*
X527340Y237986D01*
X527460Y238900D01*
Y247900D01*
X527340Y248814D01*
X526987Y249665D01*
X526426Y250396D01*
X526025Y250704D01*
X526195Y251204D01*
X568121D01*
X568291Y250704D01*
X567890Y250396D01*
X567329Y249665D01*
X566977Y248814D01*
X566856Y247900D01*
Y238900D01*
X566977Y237986D01*
X567329Y237135D01*
X567890Y236404D01*
X568621Y235843D01*
X569473Y235490D01*
X570387Y235370D01*
X571300Y235490D01*
X572152Y235843D01*
X572883Y236404D01*
X573444Y237135D01*
X573797Y237986D01*
X573917Y238900D01*
Y247900D01*
X573797Y248814D01*
X573444Y249665D01*
X572883Y250396D01*
X572482Y250704D01*
X572652Y251204D01*
X576378D01*
X576520Y251109D01*
D02*
G37*
G36*
X556360Y231997D02*
X556395Y231977D01*
X556439Y231959D01*
X556490Y231943D01*
X556549Y231930D01*
X556616Y231919D01*
X556774Y231905D01*
X556963Y231900D01*
Y230900D01*
X556864Y230899D01*
X556616Y230881D01*
X556549Y230870D01*
X556490Y230857D01*
X556439Y230841D01*
X556395Y230823D01*
X556360Y230803D01*
X556333Y230780D01*
Y232020D01*
X556360Y231997D01*
D02*
G37*
G36*
X555067Y230780D02*
X555040Y230803D01*
X555005Y230823D01*
X554961Y230841D01*
X554910Y230857D01*
X554851Y230870D01*
X554784Y230881D01*
X554627Y230895D01*
X554437Y230900D01*
Y231900D01*
X554536Y231901D01*
X554784Y231919D01*
X554851Y231930D01*
X554910Y231943D01*
X554961Y231959D01*
X555005Y231977D01*
X555040Y231997D01*
X555067Y232020D01*
Y230780D01*
D02*
G37*
G36*
X573874Y230844D02*
X573912Y230834D01*
X573970Y230826D01*
X574142Y230813D01*
X574900Y230800D01*
Y230200D01*
X573853Y230146D01*
Y230854D01*
X573874Y230844D01*
D02*
G37*
G36*
X572867Y229880D02*
X572840Y229903D01*
X572804Y229923D01*
X572761Y229941D01*
X572710Y229957D01*
X572651Y229970D01*
X572584Y229981D01*
X572427Y229995D01*
X572237Y230000D01*
Y231000D01*
X572336Y231001D01*
X572584Y231019D01*
X572651Y231030D01*
X572710Y231043D01*
X572761Y231059D01*
X572804Y231077D01*
X572840Y231097D01*
X572867Y231120D01*
Y229880D01*
D02*
G37*
G36*
X561834Y230376D02*
X562076Y230276D01*
X562076Y230276D01*
X562642Y229842D01*
X563300Y229570D01*
X564007Y229477D01*
Y229480D01*
X572532D01*
X572959Y229195D01*
X573500Y229087D01*
X574041Y229195D01*
X574499Y229501D01*
X574622Y229684D01*
X575734D01*
X575748Y229687D01*
X576116Y229535D01*
X576123Y229523D01*
X576142Y229511D01*
X576613Y228805D01*
X576779Y227973D01*
X576775Y227951D01*
Y220256D01*
X576274Y220021D01*
X575813Y220113D01*
X575272Y220005D01*
X574814Y219699D01*
X574688Y219512D01*
X547236Y219416D01*
X542587D01*
Y219436D01*
X541504Y219293D01*
X540820Y219010D01*
X540300Y219113D01*
X539759Y219005D01*
X539301Y218699D01*
X538995Y218241D01*
X538887Y217700D01*
X538995Y217159D01*
X539301Y216701D01*
X539759Y216395D01*
X540300Y216287D01*
X540841Y216395D01*
X541299Y216701D01*
X541605Y217159D01*
X541698Y217622D01*
X542550Y217792D01*
X542587Y217784D01*
X544827D01*
X544974Y217375D01*
X544991Y217284D01*
X544695Y216841D01*
X544587Y216300D01*
X544695Y215759D01*
X545001Y215301D01*
X545459Y214995D01*
X546000Y214887D01*
X546541Y214995D01*
X546999Y215301D01*
X547305Y215759D01*
X547413Y216300D01*
X547852Y216563D01*
X547903Y216574D01*
X547906Y216587D01*
X551603Y216600D01*
X571732D01*
X571741Y216601D01*
X572486Y216453D01*
X573118Y216031D01*
X573123Y216023D01*
X573255Y215891D01*
X573557Y215516D01*
X574094Y214815D01*
X574616Y213554D01*
X574451Y213394D01*
X573907Y213565D01*
X573883Y213683D01*
X573596Y214114D01*
X573440Y214347D01*
X573440Y214347D01*
X573286Y214486D01*
X573286Y214486D01*
X572584Y215025D01*
X571767Y215364D01*
X570889Y215479D01*
Y215466D01*
X569872D01*
X569749Y215649D01*
X569291Y215955D01*
X568750Y216063D01*
X568209Y215955D01*
X567751Y215649D01*
X567445Y215191D01*
X567337Y214650D01*
X567445Y214109D01*
X567751Y213651D01*
X568209Y213345D01*
X568750Y213237D01*
X569291Y213345D01*
X569749Y213651D01*
X569872Y213834D01*
X570889D01*
Y213833D01*
X571557Y213701D01*
X571892Y213477D01*
X572120Y213292D01*
X572379Y212900D01*
X572384Y212895D01*
Y207717D01*
X572211Y207289D01*
X571927Y207100D01*
X571593Y207033D01*
Y207016D01*
X568793D01*
X568744Y207516D01*
X568928Y207552D01*
X569141Y207595D01*
X569599Y207901D01*
X569905Y208359D01*
X570013Y208900D01*
X569905Y209441D01*
X569599Y209899D01*
X569141Y210205D01*
X568600Y210313D01*
X568059Y210205D01*
X567601Y209899D01*
X567295Y209441D01*
X567187Y208900D01*
X567295Y208359D01*
X567601Y207901D01*
X568059Y207595D01*
X568456Y207516D01*
X568407Y207016D01*
X559100D01*
Y211693D01*
X559092Y211860D01*
X559026Y212188D01*
X558898Y212498D01*
X558712Y212776D01*
X558600Y212900D01*
X558600Y212900D01*
X558377Y213103D01*
X558226Y213203D01*
X558226Y213203D01*
X558223Y213205D01*
X558217Y213209D01*
X557876Y213437D01*
X557319Y213668D01*
X556728Y213785D01*
X556427Y213800D01*
X544538D01*
X544103Y213779D01*
X543250Y213609D01*
X542446Y213276D01*
X541723Y212792D01*
X541400Y212500D01*
X541332Y212425D01*
X541221Y212259D01*
X541144Y212073D01*
X541105Y211876D01*
X541100Y211776D01*
Y207821D01*
X540600Y207533D01*
X540200Y207613D01*
X539659Y207505D01*
X539201Y207199D01*
X538895Y206741D01*
X538787Y206200D01*
X538895Y205659D01*
X539201Y205201D01*
X539384Y205078D01*
Y204066D01*
X539358D01*
X539526Y203221D01*
X540004Y202504D01*
X539800Y202300D01*
X539586Y202086D01*
X539083Y201750D01*
X538523Y201518D01*
X538124Y201439D01*
X537929Y201909D01*
X538026Y201974D01*
X538401Y202537D01*
X538533Y203200D01*
X538401Y203863D01*
X538026Y204426D01*
X537463Y204801D01*
X536800Y204933D01*
X536137Y204801D01*
X535574Y204426D01*
X535199Y203863D01*
X535067Y203200D01*
X535199Y202537D01*
X535574Y201974D01*
X535686Y201900D01*
X535534Y201400D01*
X534054D01*
X533381Y202072D01*
X533383Y201945D01*
X533392Y201809D01*
X533408Y201681D01*
X533432Y201561D01*
X533462Y201448D01*
X533500Y201344D01*
X533544Y201247D01*
X533596Y201158D01*
X533655Y201077D01*
X533721Y201003D01*
X533297Y200579D01*
X533223Y200645D01*
X533142Y200704D01*
X533053Y200756D01*
X532956Y200800D01*
X532852Y200838D01*
X532739Y200868D01*
X532619Y200891D01*
X532491Y200908D01*
X532355Y200917D01*
X532212Y200919D01*
X533373Y202080D01*
X533314Y202140D01*
X533236Y202529D01*
X532993Y202893D01*
X532663Y203113D01*
X532629Y203136D01*
X532200Y203222D01*
X531718Y203265D01*
X530735Y203394D01*
X529371Y203960D01*
X528585Y204563D01*
X528213Y204873D01*
X528213Y204873D01*
X521597Y211489D01*
X521598Y211489D01*
X521086Y212157D01*
X520764Y212934D01*
X520654Y213769D01*
X520653D01*
X520568Y214198D01*
X520325Y214562D01*
X519961Y214805D01*
X519531Y214890D01*
X519102Y214805D01*
X518738Y214562D01*
X518618Y214381D01*
X518118Y214532D01*
Y226574D01*
X518160Y226712D01*
X518950Y228191D01*
X519703Y229109D01*
X520024Y229476D01*
X520660Y229964D01*
X521402Y230272D01*
X522197Y230376D01*
Y230380D01*
X554732D01*
X555159Y230095D01*
X555223Y230082D01*
X555317Y229828D01*
X555364Y229544D01*
X555095Y229141D01*
X554987Y228600D01*
X555095Y228059D01*
X555401Y227601D01*
X555859Y227295D01*
X556400Y227187D01*
X556941Y227295D01*
X557399Y227601D01*
X557705Y228059D01*
X557813Y228600D01*
X557705Y229141D01*
X557399Y229599D01*
X556978Y229880D01*
X556974Y229917D01*
X557281Y230380D01*
X561336D01*
X561834Y230376D01*
D02*
G37*
G36*
X547246Y216964D02*
X547177Y216929D01*
X547115Y216887D01*
X547061Y216838D01*
X547014Y216782D01*
X546975Y216720D01*
X546942Y216650D01*
X546917Y216574D01*
X546899Y216491D01*
X546889Y216401D01*
X546886Y216305D01*
X546013Y217186D01*
X546089Y217187D01*
X546166Y217193D01*
X546243Y217204D01*
X546321Y217220D01*
X546400Y217240D01*
X546480Y217265D01*
X546642Y217330D01*
X546724Y217370D01*
X546806Y217414D01*
X547246Y216964D01*
D02*
G37*
G36*
X575770Y213492D02*
X575796Y213413D01*
X575826Y213336D01*
X575862Y213262D01*
X575901Y213190D01*
X575946Y213122D01*
X575995Y213056D01*
X576050Y212994D01*
X576108Y212934D01*
X576172Y212876D01*
X574935Y212785D01*
X574992Y212855D01*
X575041Y212926D01*
X575081Y212998D01*
X575114Y213071D01*
X575139Y213145D01*
X575156Y213220D01*
X575165Y213296D01*
X575166Y213374D01*
X575158Y213453D01*
X575143Y213532D01*
X575749Y213575D01*
X575770Y213492D01*
D02*
G37*
G36*
X520422Y212980D02*
X520389Y212910D01*
X520366Y212835D01*
X520353Y212755D01*
X520351Y212669D01*
X520359Y212579D01*
X520376Y212483D01*
X520405Y212383D01*
X520443Y212277D01*
X520492Y212166D01*
X519254Y212012D01*
X519203Y212143D01*
X518975Y212632D01*
X518935Y212696D01*
X518897Y212749D01*
X518861Y212790D01*
X518827Y212821D01*
X520465Y213045D01*
X520422Y212980D01*
D02*
G37*
G36*
X576259Y208504D02*
X576205Y208438D01*
X576157Y208370D01*
X576115Y208300D01*
X576080Y208227D01*
X576051Y208153D01*
X576029Y208077D01*
X576013Y207998D01*
X576003Y207918D01*
X576000Y207835D01*
X575400D01*
X575397Y207918D01*
X575387Y207998D01*
X575371Y208077D01*
X575349Y208153D01*
X575320Y208227D01*
X575285Y208300D01*
X575243Y208370D01*
X575195Y208438D01*
X575141Y208504D01*
X575080Y208567D01*
X576320D01*
X576259Y208504D01*
D02*
G37*
G36*
X546789Y207052D02*
X546767Y207029D01*
X546751Y207004D01*
X546741Y206979D01*
X546738Y206953D01*
X546740Y206927D01*
X546749Y206899D01*
X546764Y206871D01*
X546785Y206842D01*
X546812Y206812D01*
X546142Y206728D01*
X546120Y206769D01*
X546056Y206873D01*
X546035Y206900D01*
X546014Y206925D01*
X545994Y206946D01*
X545973Y206963D01*
X545953Y206978D01*
X545932Y206989D01*
X546817Y207075D01*
X546789Y207052D01*
D02*
G37*
G36*
X518664Y202834D02*
X518624Y202904D01*
X518458Y203164D01*
X518430Y203197D01*
X518404Y203224D01*
X518380Y203246D01*
X518358Y203261D01*
X518631Y204287D01*
X518653Y204273D01*
X518681Y204266D01*
X518715Y204265D01*
X518755Y204270D01*
X518800Y204280D01*
X518851Y204297D01*
X518908Y204320D01*
X519039Y204384D01*
X519113Y204425D01*
X518664Y202834D01*
D02*
G37*
G36*
X576775Y205220D02*
Y204010D01*
X576525Y203407D01*
X576025Y202756D01*
X575726Y202380D01*
X575295Y202212D01*
X574759Y202105D01*
X574301Y201799D01*
X573995Y201341D01*
X573887Y200800D01*
X573995Y200259D01*
X574301Y199801D01*
X574759Y199495D01*
X575300Y199387D01*
X575841Y199495D01*
X576299Y199801D01*
X576605Y200259D01*
X576711Y200789D01*
X576891Y201215D01*
Y201215D01*
X577372Y201801D01*
X577871Y201620D01*
X577800Y191500D01*
X560857D01*
X560577Y191556D01*
X560360Y191646D01*
X559976Y191924D01*
X559968Y192087D01*
X560405Y192542D01*
X561253Y192458D01*
Y192484D01*
X568700D01*
X569012Y192546D01*
X569277Y192723D01*
X569454Y192988D01*
X569516Y193300D01*
X569454Y193612D01*
X569277Y193877D01*
X569012Y194054D01*
X568700Y194116D01*
X561253D01*
Y194116D01*
X559880Y194251D01*
X559100Y194488D01*
Y198184D01*
X571486D01*
X571502Y198188D01*
X572298Y198029D01*
X572972Y197579D01*
X572981Y197565D01*
X572982Y197565D01*
X572982Y197565D01*
X573143Y197403D01*
X573480Y197053D01*
Y197053D01*
X573480D01*
X573480Y197053D01*
X574101Y196576D01*
X574287Y196499D01*
X574295Y196459D01*
X574601Y196001D01*
X575059Y195695D01*
X575600Y195587D01*
X576141Y195695D01*
X576599Y196001D01*
X576905Y196459D01*
X577013Y197000D01*
X576905Y197541D01*
X576599Y197999D01*
X576141Y198305D01*
X575600Y198413D01*
X575059Y198305D01*
X574788Y198124D01*
X574646Y198219D01*
X574492Y198368D01*
X574147Y198730D01*
X573763Y199025D01*
X573762Y199025D01*
X573757Y199029D01*
X573368Y199328D01*
X572460Y199704D01*
X572167Y199743D01*
X572045Y200263D01*
X572100Y200300D01*
X572091Y200309D01*
X572494Y200912D01*
X572628Y201587D01*
X572799Y201701D01*
X573105Y202159D01*
X573213Y202700D01*
X573105Y203241D01*
X572809Y203684D01*
X572826Y203775D01*
X572973Y204184D01*
X574334D01*
Y204158D01*
X575179Y204326D01*
X575896Y204804D01*
X576274Y205371D01*
X576775Y205220D01*
D02*
G37*
G36*
X531287Y201350D02*
X531250Y201389D01*
X531203Y201427D01*
X531145Y201465D01*
X531076Y201501D01*
X530997Y201538D01*
X530808Y201609D01*
X530698Y201644D01*
X530446Y201712D01*
X530540Y202928D01*
X530659Y202898D01*
X530771Y202876D01*
X530877Y202862D01*
X530976Y202857D01*
X531069Y202860D01*
X531154Y202871D01*
X531234Y202890D01*
X531306Y202918D01*
X531372Y202953D01*
X531432Y202997D01*
X531287Y201350D01*
D02*
G37*
G36*
X546331Y201675D02*
X546324Y201662D01*
X546319Y201642D01*
X546314Y201617D01*
X546310Y201584D01*
X546303Y201500D01*
X546300Y201324D01*
X545700D01*
X545700Y201389D01*
X545686Y201617D01*
X545681Y201642D01*
X545676Y201662D01*
X545669Y201675D01*
X545662Y201681D01*
X546338D01*
X546331Y201675D01*
D02*
G37*
G36*
X576477Y201553D02*
X576421Y201492D01*
X576371Y201429D01*
X576327Y201362D01*
X576289Y201292D01*
X576256Y201219D01*
X576230Y201143D01*
X576210Y201064D01*
X576196Y200982D01*
X576188Y200897D01*
X576186Y200809D01*
X575309Y201686D01*
X575397Y201688D01*
X575482Y201696D01*
X575564Y201710D01*
X575643Y201730D01*
X575719Y201756D01*
X575792Y201789D01*
X575862Y201827D01*
X575929Y201871D01*
X575992Y201921D01*
X576053Y201977D01*
X576477Y201553D01*
D02*
G37*
G36*
X526059Y200804D02*
X526005Y200738D01*
X525957Y200670D01*
X525915Y200600D01*
X525880Y200527D01*
X525851Y200453D01*
X525829Y200377D01*
X525813Y200298D01*
X525803Y200218D01*
X525800Y200135D01*
X525200D01*
X525197Y200218D01*
X525187Y200298D01*
X525171Y200377D01*
X525149Y200453D01*
X525120Y200527D01*
X525085Y200600D01*
X525043Y200670D01*
X524995Y200738D01*
X524941Y200804D01*
X524880Y200867D01*
X526120D01*
X526059Y200804D01*
D02*
G37*
G36*
X548956Y194432D02*
X548929Y194502D01*
X548896Y194565D01*
X548856Y194620D01*
X548809Y194668D01*
X548756Y194708D01*
X548695Y194741D01*
X548629Y194767D01*
X548555Y194785D01*
X548475Y194796D01*
X548388Y194800D01*
X548478Y195400D01*
X548607Y195401D01*
X549061Y195433D01*
X549160Y195447D01*
X549339Y195484D01*
X549420Y195507D01*
X549495Y195532D01*
X548956Y194432D01*
D02*
G37*
G36*
X568067Y192680D02*
X568004Y192741D01*
X567938Y192795D01*
X567870Y192843D01*
X567800Y192885D01*
X567727Y192920D01*
X567653Y192949D01*
X567577Y192971D01*
X567498Y192987D01*
X567418Y192997D01*
X567335Y193000D01*
Y193600D01*
X567418Y193603D01*
X567498Y193613D01*
X567577Y193629D01*
X567653Y193651D01*
X567727Y193680D01*
X567800Y193715D01*
X567870Y193757D01*
X567938Y193805D01*
X568004Y193859D01*
X568067Y193920D01*
Y192680D01*
D02*
G37*
%LPC*%
G36*
X556016Y246088D02*
X555321Y245997D01*
X554672Y245728D01*
X554116Y245301D01*
X553688Y244744D01*
X553420Y244096D01*
X553328Y243400D01*
X553420Y242704D01*
X553688Y242056D01*
X554116Y241499D01*
X554672Y241072D01*
X555321Y240803D01*
X556016Y240712D01*
X556712Y240803D01*
X557361Y241072D01*
X557917Y241499D01*
X558345Y242056D01*
X558613Y242704D01*
X558705Y243400D01*
X558613Y244096D01*
X558345Y244744D01*
X557917Y245301D01*
X557361Y245728D01*
X556712Y245997D01*
X556016Y246088D01*
D02*
G37*
G36*
X538300D02*
X537604Y245997D01*
X536956Y245728D01*
X536399Y245301D01*
X535972Y244744D01*
X535703Y244096D01*
X535612Y243400D01*
X535703Y242704D01*
X535972Y242056D01*
X536399Y241499D01*
X536956Y241072D01*
X537604Y240803D01*
X538300Y240712D01*
X538996Y240803D01*
X539644Y241072D01*
X540201Y241499D01*
X540628Y242056D01*
X540897Y242704D01*
X540988Y243400D01*
X540897Y244096D01*
X540628Y244744D01*
X540201Y245301D01*
X539644Y245728D01*
X538996Y245997D01*
X538300Y246088D01*
D02*
G37*
G36*
X551600Y241913D02*
X551059Y241805D01*
X550601Y241499D01*
X550295Y241041D01*
X550187Y240500D01*
X550295Y239959D01*
X550601Y239501D01*
X551059Y239195D01*
X551600Y239087D01*
X552141Y239195D01*
X552599Y239501D01*
X552905Y239959D01*
X553013Y240500D01*
X552905Y241041D01*
X552599Y241499D01*
X552141Y241805D01*
X551600Y241913D01*
D02*
G37*
G36*
X550000Y238613D02*
X549459Y238505D01*
X549001Y238199D01*
X548695Y237741D01*
X548587Y237200D01*
X548695Y236659D01*
X549001Y236201D01*
X549459Y235895D01*
X550000Y235787D01*
X550541Y235895D01*
X550999Y236201D01*
X551305Y236659D01*
X551413Y237200D01*
X551305Y237741D01*
X550999Y238199D01*
X550541Y238505D01*
X550000Y238613D01*
D02*
G37*
G36*
X544400D02*
X543859Y238505D01*
X543401Y238199D01*
X543095Y237741D01*
X542987Y237200D01*
X543095Y236659D01*
X543401Y236201D01*
X543859Y235895D01*
X544400Y235787D01*
X544941Y235895D01*
X545399Y236201D01*
X545705Y236659D01*
X545813Y237200D01*
X545705Y237741D01*
X545399Y238199D01*
X544941Y238505D01*
X544400Y238613D01*
D02*
G37*
G36*
X533000Y238513D02*
X532459Y238405D01*
X532001Y238099D01*
X531695Y237641D01*
X531587Y237100D01*
X531695Y236559D01*
X532001Y236101D01*
X532459Y235795D01*
X533000Y235687D01*
X533541Y235795D01*
X533999Y236101D01*
X534305Y236559D01*
X534413Y237100D01*
X534305Y237641D01*
X533999Y238099D01*
X533541Y238405D01*
X533000Y238513D01*
D02*
G37*
G36*
X549900Y227133D02*
X549237Y227001D01*
X548674Y226626D01*
X548299Y226063D01*
X548167Y225400D01*
X548299Y224737D01*
X548674Y224174D01*
X549237Y223799D01*
X549900Y223667D01*
X550563Y223799D01*
X551126Y224174D01*
X551501Y224737D01*
X551633Y225400D01*
X551501Y226063D01*
X551126Y226626D01*
X550563Y227001D01*
X549900Y227133D01*
D02*
G37*
G36*
X571900Y226233D02*
X571237Y226101D01*
X570674Y225726D01*
X570299Y225163D01*
X570167Y224500D01*
X570299Y223837D01*
X570674Y223274D01*
X571237Y222899D01*
X571900Y222767D01*
X572563Y222899D01*
X573126Y223274D01*
X573501Y223837D01*
X573633Y224500D01*
X573501Y225163D01*
X573126Y225726D01*
X572563Y226101D01*
X571900Y226233D01*
D02*
G37*
G36*
X537200Y213713D02*
X536659Y213605D01*
X536201Y213299D01*
X535895Y212841D01*
X535787Y212300D01*
X535895Y211759D01*
X536201Y211301D01*
X536659Y210995D01*
X537200Y210887D01*
X537741Y210995D01*
X538199Y211301D01*
X538505Y211759D01*
X538613Y212300D01*
X538505Y212841D01*
X538199Y213299D01*
X537741Y213605D01*
X537200Y213713D01*
D02*
G37*
%LPD*%
D14*
X562800Y231000D02*
X564007Y230500D01*
X562800Y231000D02*
X561834Y231400D01*
X522197D02*
X521137Y231260D01*
X520149Y230851D01*
X519300Y230200D01*
X518614Y229436D01*
X518014Y228603D01*
X517507Y227710D01*
X517098Y226768D01*
X518164Y204036D02*
X518868Y203565D01*
X519700Y203400D01*
X517098Y205800D02*
X517592Y204608D01*
X564007Y230500D02*
X573500D01*
X555700Y231400D02*
X561834D01*
X522197D02*
X555700D01*
X517098Y205800D02*
Y226768D01*
X517592Y204608D02*
X518164Y204036D01*
D15*
X515158Y252559D02*
X579331D01*
X515158Y190110D02*
X579331D01*
X515158D02*
Y252559D01*
X579331Y190110D02*
Y252559D01*
D40*
X533871Y200429D02*
X534598Y199770D01*
X535386Y199185D01*
X536228Y198681D01*
X537115Y198261D01*
X538039Y197931D01*
X538991Y197692D01*
X539962Y197548D01*
X540942Y197500D01*
X555700Y195600D02*
X554926Y196261D01*
X554058Y196793D01*
X553118Y197183D01*
X552128Y197420D01*
X551113Y197500D01*
X555700Y195600D02*
X556472Y194923D01*
X557326Y194352D01*
X558248Y193898D01*
X559220Y193568D01*
X560228Y193367D01*
X561253Y193300D01*
X549528Y194972D02*
X549218Y195100D01*
X549529Y194971D02*
X549528Y194972D01*
X525500Y198373D02*
X525734Y197197D01*
X526400Y196200D01*
X527206Y195493D01*
X528097Y194898D01*
X529058Y194424D01*
X530073Y194079D01*
X531125Y193870D01*
X532194Y193800D01*
X544307Y195100D02*
X543100Y194600D01*
X542795Y194295D02*
X542795Y194295D01*
X541600Y193800D02*
X542795Y194295D01*
X572700Y213900D02*
X571869Y214455D01*
X570889Y214650D01*
X573200Y212900D02*
X572847Y213754D01*
X571593Y206200D02*
X572800Y206700D01*
X546300Y207324D02*
X546600Y206600D01*
X547072Y206200D01*
X572800Y206700D02*
X573200Y207666D01*
X547903Y217402D02*
X547163Y217255D01*
X546536Y216836D01*
X542587Y218600D02*
X541720Y218486D01*
X540913Y218151D01*
X540219Y217619D01*
X576700Y230100D02*
X575734Y230500D01*
X577590Y227951D02*
X577359Y229114D01*
X576700Y230100D01*
X576303Y201803D02*
X577046Y202716D01*
X577590Y203760D01*
X573559Y198142D02*
X573558Y198142D01*
X543188Y200512D02*
X543970Y199870D01*
X544863Y199393D01*
X545831Y199099D01*
X546839Y199000D01*
X540200Y204066D02*
X540600Y203100D01*
X575600Y212200D02*
X575526Y213144D01*
X575305Y214065D01*
X574942Y214940D01*
X574447Y215748D01*
X573832Y216468D01*
X573700Y216600D02*
X572797Y217203D01*
X571732Y217415D01*
X542900Y209600D02*
X542400Y208393D01*
X543000Y206400D02*
X543724Y205806D01*
X544551Y205364D01*
X545447Y205092D01*
X546380Y205000D01*
X542400Y207500D02*
X542754Y206646D01*
X570293Y200400D02*
X571500Y200900D01*
X574064Y197636D02*
X574768Y197165D01*
X575600Y197000D01*
X571500Y200900D02*
X571800Y201624D01*
X573558Y198142D02*
X572607Y198777D01*
X571486Y199000D01*
X574334Y205000D02*
X575300Y205400D01*
X575700Y206366D01*
X546000Y201324D02*
X546300Y200600D01*
X546783Y200400D01*
X532200Y202100D02*
X533871Y200429D01*
X540942Y197500D02*
X551113D01*
X561253Y193300D02*
X568700D01*
X549529Y194971D02*
X549800Y194700D01*
X549528Y194972D02*
X549529Y194971D01*
X525500Y198373D02*
Y201500D01*
X544307Y195100D02*
X549218D01*
X532194Y193800D02*
X541600D01*
X542795Y194295D02*
X543100Y194600D01*
X542795Y194295D02*
X542795Y194295D01*
X568750Y214650D02*
X570889D01*
X573200Y207666D02*
Y212900D01*
X572700Y213900D02*
X572847Y213754D01*
X546300Y207324D02*
Y207794D01*
X547072Y206200D02*
X571593D01*
X547903Y217402D02*
X551600Y217415D01*
X547903Y217402D02*
X547903D01*
X546000Y216300D02*
X546536Y216836D01*
X540300Y217700D02*
X540470Y217870D01*
X540219Y217619D02*
X540300Y217700D01*
Y217700D02*
Y217700D01*
X542587Y218600D02*
X547238D01*
X573500Y230500D02*
X575734D01*
X577590Y203760D02*
Y227951D01*
X575300Y200800D02*
X576303Y201803D01*
X540600Y203100D02*
X543188Y200512D01*
X546839Y199000D02*
X571486D01*
X571800Y201624D02*
Y202700D01*
X573700Y216600D02*
X573832Y216468D01*
X551600Y217415D02*
X571732D01*
X546070Y208025D02*
X546300Y207794D01*
X542400Y207500D02*
Y208393D01*
X546380Y205000D02*
X574334D01*
X542754Y206646D02*
X543000Y206400D01*
X547238Y218600D02*
X575813Y218700D01*
X575700Y206366D02*
Y209200D01*
X573558Y198142D02*
X573559Y198142D01*
X574064Y197636D01*
X546000Y201324D02*
Y202500D01*
X546783Y200400D02*
X570293D01*
X540200Y204066D02*
Y206200D01*
D41*
X527420Y204080D02*
X528227Y203391D01*
X529131Y202837D01*
X530111Y202431D01*
X531143Y202183D01*
X532200Y202100D01*
X519531Y213769D02*
X519680Y212644D01*
X520114Y211596D01*
X520804Y210696D01*
X527420Y204080D01*
D46*
X529500Y217050D02*
D03*
X518400Y248900D02*
D03*
X543000Y242000D02*
D03*
X556222Y234583D02*
D03*
X520600Y217200D02*
D03*
X576100Y248000D02*
D03*
X575700Y236100D02*
D03*
X519100Y234700D02*
D03*
X540300Y217700D02*
D03*
X549800Y194700D02*
D03*
X575300Y200800D02*
D03*
X568700Y193300D02*
D03*
X575100Y203300D02*
D03*
X571800Y202700D02*
D03*
X553600Y215200D02*
D03*
X568750Y214650D02*
D03*
X546300Y207794D02*
D03*
X542900Y209600D02*
D03*
X573500Y230500D02*
D03*
X525500Y201500D02*
D03*
X575813Y218700D02*
D03*
X575700Y209200D02*
D03*
X555700Y231400D02*
D03*
X546000Y202500D02*
D03*
X575600Y197000D02*
D03*
Y212200D02*
D03*
X546000Y216300D02*
D03*
X540200Y206200D02*
D03*
D47*
X532200Y202100D02*
D03*
X567000Y233500D02*
D03*
X531200Y241700D02*
D03*
X532070Y246610D02*
D03*
X537357Y248800D02*
D03*
X519531Y213769D02*
D03*
X519700Y203400D02*
D03*
M02*
