G04*
G04 #@! TF.GenerationSoftware,Altium Limited,Altium Designer,20.1.8 (145)*
G04*
G04 Layer_Physical_Order=1*
G04 Layer_Color=255*
%FSLAX25Y25*%
%MOIN*%
G70*
G04*
G04 #@! TF.SameCoordinates,21FBFEBA-D07F-42F0-8C11-0AAD296DAF8C*
G04*
G04*
G04 #@! TF.FilePolarity,Positive*
G04*
G01*
G75*
%ADD14C,0.01000*%
%ADD15C,0.00500*%
%ADD16R,0.01968X0.05118*%
%ADD17R,0.01968X0.02362*%
%ADD18R,0.02500X0.03000*%
%ADD19O,0.01181X0.04331*%
%ADD20O,0.04331X0.01181*%
%ADD21R,0.04331X0.01181*%
%ADD22R,0.03937X0.03937*%
%ADD23R,0.02362X0.01968*%
%ADD24R,0.03937X0.04331*%
%ADD25R,0.03937X0.08661*%
%ADD26R,0.04724X0.09843*%
%ADD40C,0.00600*%
%ADD41C,0.01200*%
%ADD42C,0.02500*%
%ADD43C,0.02000*%
%ADD44C,0.04331*%
%ADD45O,0.06000X0.15000*%
%ADD46C,0.01772*%
%ADD47C,0.02362*%
%ADD48C,0.02400*%
G36*
X562471Y240460D02*
X562504Y240035D01*
X562559Y239660D01*
X562636Y239335D01*
X562735Y239060D01*
X562856Y238835D01*
X562999Y238660D01*
X563164Y238535D01*
X563351Y238460D01*
X563560Y238435D01*
X558860D01*
X559069Y238460D01*
X559256Y238535D01*
X559421Y238660D01*
X559564Y238835D01*
X559685Y239060D01*
X559784Y239335D01*
X559861Y239660D01*
X559916Y240035D01*
X559949Y240460D01*
X559960Y240935D01*
X562460D01*
X562471Y240460D01*
D02*
G37*
G36*
X563574Y235788D02*
X563649Y235576D01*
X563774Y235388D01*
X563950Y235226D01*
X564176Y235088D01*
X564453Y234976D01*
X564779Y234889D01*
X565156Y234826D01*
X565583Y234788D01*
X566060Y234776D01*
Y232276D01*
X565583Y232263D01*
X565156Y232226D01*
X564779Y232164D01*
X564453Y232076D01*
X564176Y231963D01*
X563950Y231826D01*
X563774Y231663D01*
X563649Y231476D01*
X563574Y231263D01*
X563548Y231026D01*
Y236026D01*
X563574Y235788D01*
D02*
G37*
G36*
X557289Y228556D02*
X557300Y228516D01*
X557317Y228473D01*
X557343Y228426D01*
X557375Y228375D01*
X557415Y228320D01*
X557516Y228198D01*
X557646Y228061D01*
X556939Y227354D01*
X556869Y227422D01*
X556680Y227585D01*
X556626Y227625D01*
X556574Y227657D01*
X556527Y227682D01*
X556484Y227700D01*
X556444Y227711D01*
X556409Y227714D01*
X557286Y228591D01*
X557289Y228556D01*
D02*
G37*
G36*
X548840Y222400D02*
X548830Y222495D01*
X548799Y222580D01*
X548749Y222655D01*
X548678Y222720D01*
X548587Y222775D01*
X548475Y222820D01*
X548344Y222855D01*
X548250Y222870D01*
X548156Y222855D01*
X548025Y222820D01*
X547913Y222775D01*
X547822Y222720D01*
X547751Y222655D01*
X547701Y222580D01*
X547670Y222495D01*
X547660Y222400D01*
Y224400D01*
X547670Y224305D01*
X547701Y224220D01*
X547751Y224145D01*
X547822Y224080D01*
X547913Y224025D01*
X548025Y223980D01*
X548156Y223945D01*
X548250Y223930D01*
X548344Y223945D01*
X548475Y223980D01*
X548587Y224025D01*
X548678Y224080D01*
X548749Y224145D01*
X548799Y224220D01*
X548830Y224305D01*
X548840Y224400D01*
Y222400D01*
D02*
G37*
G36*
X563904Y221860D02*
X563903Y221844D01*
X563900Y221349D01*
X562900D01*
X562896Y221865D01*
X563904D01*
X563904Y221860D01*
D02*
G37*
G36*
X555297Y223473D02*
X555291Y223361D01*
X555318Y223230D01*
X555376Y223081D01*
X555467Y222914D01*
X555591Y222728D01*
X555747Y222523D01*
X556155Y222059D01*
X556409Y221799D01*
X555647Y221146D01*
X555428Y221358D01*
X555041Y221690D01*
X554873Y221809D01*
X554723Y221896D01*
X554590Y221952D01*
X554475Y221977D01*
X554377Y221971D01*
X554296Y221934D01*
X554233Y221865D01*
X555336Y223566D01*
X555297Y223473D01*
D02*
G37*
G36*
X548828Y220600D02*
X548872Y220600D01*
Y219400D01*
X548836Y219399D01*
X548840Y218800D01*
X548827Y218914D01*
X548790Y219016D01*
X548729Y219106D01*
X548644Y219184D01*
X548535Y219250D01*
X548401Y219304D01*
X548250Y219344D01*
X548099Y219304D01*
X547965Y219250D01*
X547856Y219184D01*
X547771Y219106D01*
X547710Y219016D01*
X547673Y218914D01*
X547660Y218800D01*
X547664Y219399D01*
X547628Y219400D01*
Y220600D01*
X547672Y220601D01*
X547672Y220632D01*
X547684Y220626D01*
X547720Y220620D01*
X547780Y220616D01*
X547998Y220610D01*
X548828Y220632D01*
X548828Y220600D01*
D02*
G37*
G36*
X566814Y218875D02*
X565724D01*
X565732Y218897D01*
X565740Y218939D01*
X565746Y218999D01*
X565761Y219291D01*
X565768Y219942D01*
X566769D01*
X566814Y218875D01*
D02*
G37*
G36*
X550784Y220626D02*
X550820Y220620D01*
X550880Y220616D01*
X551360Y220603D01*
X551972Y220600D01*
Y219400D01*
X551743Y219394D01*
X551537Y219376D01*
X551356Y219346D01*
X551198Y219304D01*
X551065Y219250D01*
X550956Y219184D01*
X550871Y219106D01*
X550810Y219016D01*
X550773Y218914D01*
X550760Y218800D01*
X550772Y220632D01*
X550784Y220626D01*
D02*
G37*
G36*
X544038Y221086D02*
X544074Y220984D01*
X544135Y220894D01*
X544220Y220816D01*
X544329Y220750D01*
X544462Y220696D01*
X544620Y220654D01*
X544802Y220624D01*
X544948Y220611D01*
X545728Y220632D01*
X545740Y218800D01*
X545727Y218914D01*
X545690Y219016D01*
X545629Y219106D01*
X545544Y219184D01*
X545435Y219250D01*
X545301Y219304D01*
X545144Y219346D01*
X544963Y219376D01*
X544882Y219383D01*
X544802Y219376D01*
X544620Y219346D01*
X544462Y219304D01*
X544329Y219250D01*
X544220Y219184D01*
X544135Y219106D01*
X544074Y219016D01*
X544038Y218914D01*
X544026Y218800D01*
Y221200D01*
X544038Y221086D01*
D02*
G37*
G36*
X563154Y219546D02*
X563096Y219444D01*
X563003Y219249D01*
X562969Y219155D01*
X562942Y219064D01*
X562922Y218975D01*
X562911Y218890D01*
X562906Y218807D01*
X562910Y218726D01*
X562921Y218649D01*
X561914Y219066D01*
X561842Y219024D01*
X561791Y219010D01*
X561762Y219024D01*
X561754Y219065D01*
X561768Y219134D01*
X561803Y219231D01*
X561859Y219355D01*
X562037Y219686D01*
X562157Y219892D01*
X563154Y219546D01*
D02*
G37*
G36*
X576614Y218309D02*
X576569Y218139D01*
X576551Y218045D01*
X576523Y217842D01*
X576506Y217618D01*
X576500Y217372D01*
X575900Y217287D01*
X575896Y217374D01*
X575885Y217454D01*
X575867Y217527D01*
X575841Y217595D01*
X575808Y217655D01*
X575767Y217709D01*
X575719Y217757D01*
X575664Y217798D01*
X575602Y217832D01*
X575532Y217860D01*
X576641Y218387D01*
X576614Y218309D01*
D02*
G37*
G36*
X568547Y215749D02*
X568562Y215717D01*
X568584Y215686D01*
X568615Y215657D01*
X568653Y215629D01*
X568700Y215602D01*
X568754Y215577D01*
X568817Y215553D01*
X568887Y215531D01*
X568965Y215509D01*
X568035Y214964D01*
X568771Y215280D01*
X568754Y215267D01*
X568746Y215249D01*
X568745Y215224D01*
X568752Y215192D01*
X568767Y215153D01*
X568790Y215108D01*
X568821Y215057D01*
X568907Y214933D01*
X568962Y214862D01*
X568535Y214440D01*
X568461Y214533D01*
X568213Y214812D01*
X568163Y214859D01*
X568118Y214896D01*
X568078Y214925D01*
X568042Y214944D01*
X568015Y214953D01*
X567895Y214883D01*
X567917Y214966D01*
X567984Y215297D01*
X567988Y215346D01*
X567989Y215388D01*
X567988Y215425D01*
X567983Y215456D01*
X568541Y215782D01*
X568547Y215749D01*
D02*
G37*
G36*
X564836Y215251D02*
X564829Y215209D01*
X564822Y215149D01*
X564807Y214857D01*
X564800Y214206D01*
X563800D01*
X563755Y215273D01*
X564845D01*
X564836Y215251D01*
D02*
G37*
G36*
X557032Y214697D02*
X557050Y214491D01*
X557080Y214309D01*
X557122Y214151D01*
X557176Y214018D01*
X557242Y213909D01*
X557320Y213824D01*
X557410Y213763D01*
X557512Y213727D01*
X557626Y213715D01*
X555226D01*
X555340Y213727D01*
X555442Y213763D01*
X555532Y213824D01*
X555610Y213909D01*
X555676Y214018D01*
X555730Y214151D01*
X555772Y214309D01*
X555802Y214491D01*
X555820Y214697D01*
X555826Y214927D01*
X557026D01*
X557032Y214697D01*
D02*
G37*
G36*
X574808Y213635D02*
X574665Y213540D01*
X574441Y213367D01*
X574359Y213290D01*
X574297Y213219D01*
X574256Y213154D01*
X574234Y213095D01*
X574233Y213043D01*
X574252Y212996D01*
X574290Y212956D01*
X573291Y213715D01*
X573347Y213683D01*
X573413Y213665D01*
X573489Y213660D01*
X573575Y213669D01*
X573671Y213692D01*
X573778Y213729D01*
X573894Y213779D01*
X574020Y213843D01*
X574303Y214011D01*
X574808Y213635D01*
D02*
G37*
G36*
X544038Y213512D02*
X544031Y213505D01*
X544024Y213484D01*
X544019Y213448D01*
X544014Y213398D01*
X544003Y213163D01*
X544000Y212800D01*
X542800D01*
X542799Y212937D01*
X542772Y213342D01*
X542760Y213408D01*
X542745Y213458D01*
X542728Y213495D01*
X542709Y213517D01*
X542688Y213524D01*
X544038Y213512D01*
D02*
G37*
G36*
X537554Y211947D02*
X537538Y211925D01*
X537512Y211882D01*
X537502Y211861D01*
X537493Y211840D01*
X537486Y211819D01*
X537480Y211798D01*
X537476Y211778D01*
X537473Y211757D01*
X537473Y211737D01*
X536854Y211733D01*
X537311Y211421D01*
X537271Y211412D01*
X537235Y211394D01*
X537200Y211367D01*
X537169Y211331D01*
X537139Y211287D01*
X537112Y211234D01*
X537088Y211173D01*
X537066Y211103D01*
X537046Y211024D01*
X537029Y210936D01*
X536158Y211553D01*
X536219Y211728D01*
X535910Y211725D01*
X535960Y211734D01*
X536019Y211760D01*
X536085Y211802D01*
X536159Y211862D01*
X536240Y211938D01*
X536320Y212020D01*
X536341Y212083D01*
X536362Y212068D01*
X536534Y212268D01*
X536769Y212573D01*
X537554Y211947D01*
D02*
G37*
G36*
X550542Y213184D02*
X551838Y214559D01*
X551772Y214463D01*
X551740Y214351D01*
X551741Y214223D01*
X551776Y214078D01*
X551844Y213916D01*
X551946Y213738D01*
X552081Y213544D01*
X552249Y213333D01*
X552687Y212862D01*
X551888Y211964D01*
X551640Y212203D01*
X551195Y212580D01*
X550999Y212716D01*
X550821Y212818D01*
X550660Y212886D01*
X550517Y212919D01*
X550391Y212918D01*
X550294Y212886D01*
X550279Y212880D01*
X550191Y212812D01*
X550239Y212863D01*
X550207Y212849D01*
X550027Y212745D01*
X549828Y212604D01*
X549609Y212427D01*
X549112Y211964D01*
X548514Y213062D01*
X548741Y213298D01*
X549102Y213726D01*
X549235Y213918D01*
X549337Y214095D01*
X549407Y214257D01*
X549446Y214405D01*
X549454Y214538D01*
X549430Y214656D01*
X549374Y214759D01*
X550542Y213184D01*
D02*
G37*
G36*
X520135Y212925D02*
X520358D01*
X520315Y212876D01*
X520277Y212819D01*
X520243Y212752D01*
X520213Y212677D01*
X520188Y212593D01*
X520173Y212523D01*
X520183Y212460D01*
X520223Y212304D01*
X520274Y212172D01*
X520336Y212064D01*
X520410Y211980D01*
X520496Y211920D01*
X520592Y211884D01*
X520701Y211872D01*
X518362D01*
X518470Y211884D01*
X518567Y211920D01*
X518653Y211980D01*
X518727Y212064D01*
X518789Y212172D01*
X518840Y212304D01*
X518880Y212460D01*
X518890Y212523D01*
X518875Y212593D01*
X518850Y212677D01*
X518820Y212752D01*
X518786Y212819D01*
X518748Y212876D01*
X518705Y212925D01*
X518928D01*
X518931Y213072D01*
X520131D01*
X520135Y212925D01*
D02*
G37*
G36*
X575480Y211322D02*
X575398Y211331D01*
X575316Y211335D01*
X575234Y211335D01*
X575152Y211330D01*
X575070Y211320D01*
X574988Y211305D01*
X574907Y211285D01*
X574826Y211261D01*
X574744Y211232D01*
X574724Y211224D01*
X574602Y211155D01*
X574523Y211103D01*
X574382Y210994D01*
X574320Y210936D01*
X574263Y210877D01*
X574212Y210815D01*
X574166Y210751D01*
X573749Y211758D01*
X573843Y211742D01*
X573936Y211733D01*
X574029Y211728D01*
X574120Y211730D01*
X574211Y211738D01*
X574302Y211751D01*
X574391Y211770D01*
X574459Y211790D01*
X574483Y211807D01*
X574536Y211859D01*
X574584Y211918D01*
X574624Y211982D01*
X574658Y212053D01*
X574685Y212130D01*
X574706Y212213D01*
X574720Y212303D01*
X575480Y211322D01*
D02*
G37*
G36*
X526443Y209847D02*
X526432Y209933D01*
X526396Y210010D01*
X526335Y210078D01*
X526252Y210137D01*
X526144Y210187D01*
X526012Y210227D01*
X525855Y210259D01*
X525675Y210282D01*
X525540Y210291D01*
X525226Y210266D01*
X525070Y210241D01*
X524938Y210207D01*
X524830Y210166D01*
X524746Y210118D01*
X524686Y210062D01*
X524650Y209998D01*
X524638Y209928D01*
Y211872D01*
X524650Y211802D01*
X524686Y211738D01*
X524746Y211682D01*
X524830Y211634D01*
X524938Y211593D01*
X525070Y211560D01*
X525226Y211533D01*
X525406Y211515D01*
X525527Y211511D01*
X525679Y211524D01*
X525860Y211554D01*
X526018Y211596D01*
X526151Y211650D01*
X526260Y211716D01*
X526345Y211794D01*
X526406Y211884D01*
X526443Y211986D01*
X526455Y212100D01*
X526443Y209847D01*
D02*
G37*
G36*
X533784Y211718D02*
X533820Y211672D01*
X533880Y211632D01*
X533964Y211597D01*
X534072Y211567D01*
X534204Y211543D01*
X534360Y211524D01*
X534645Y211508D01*
X535096Y211538D01*
X535228Y211559D01*
X535336Y211585D01*
X535420Y211616D01*
X535480Y211652D01*
X535516Y211692D01*
X535528Y211737D01*
X535540Y209700D01*
X535527Y209814D01*
X535491Y209916D01*
X535429Y210006D01*
X535345Y210084D01*
X535235Y210150D01*
X535102Y210204D01*
X534945Y210246D01*
X534763Y210276D01*
X534650Y210286D01*
X534537Y210276D01*
X534356Y210246D01*
X534198Y210204D01*
X534065Y210150D01*
X533956Y210084D01*
X533871Y210006D01*
X533810Y209916D01*
X533773Y209814D01*
X533760Y209700D01*
X533772Y211769D01*
X533784Y211718D01*
D02*
G37*
G36*
X530357Y211986D02*
X530394Y211884D01*
X530455Y211794D01*
X530540Y211716D01*
X530649Y211650D01*
X530782Y211596D01*
X530940Y211554D01*
X531121Y211524D01*
X531130Y211523D01*
X531396Y211543D01*
X531528Y211567D01*
X531636Y211597D01*
X531720Y211632D01*
X531780Y211672D01*
X531816Y211718D01*
X531828Y211769D01*
X531840Y209700D01*
X531827Y209814D01*
X531790Y209916D01*
X531729Y210006D01*
X531644Y210084D01*
X531535Y210150D01*
X531402Y210204D01*
X531244Y210246D01*
X531085Y210272D01*
X530944Y210259D01*
X530789Y210227D01*
X530656Y210187D01*
X530548Y210137D01*
X530465Y210078D01*
X530405Y210010D01*
X530369Y209933D01*
X530357Y209847D01*
X530344Y212100D01*
X530357Y211986D01*
D02*
G37*
G36*
X575067Y208580D02*
X575004Y208641D01*
X574938Y208695D01*
X574870Y208743D01*
X574800Y208785D01*
X574727Y208820D01*
X574653Y208849D01*
X574577Y208871D01*
X574549Y208877D01*
X574464Y208861D01*
X574375Y208839D01*
X574290Y208812D01*
X574207Y208780D01*
X574127Y208743D01*
X574049Y208702D01*
X573975Y208655D01*
Y209745D01*
X574049Y209698D01*
X574127Y209657D01*
X574207Y209620D01*
X574290Y209588D01*
X574375Y209561D01*
X574464Y209539D01*
X574549Y209523D01*
X574577Y209529D01*
X574653Y209551D01*
X574727Y209580D01*
X574800Y209615D01*
X574870Y209657D01*
X574938Y209705D01*
X575004Y209759D01*
X575067Y209820D01*
Y208580D01*
D02*
G37*
G36*
X551850Y210286D02*
X551886Y210184D01*
X551946Y210094D01*
X552030Y210016D01*
X552138Y209950D01*
X552270Y209896D01*
X552426Y209854D01*
X552606Y209824D01*
X552810Y209806D01*
X553038Y209800D01*
Y208600D01*
X552810Y208594D01*
X552606Y208576D01*
X552426Y208546D01*
X552270Y208504D01*
X552138Y208450D01*
X552030Y208384D01*
X551946Y208306D01*
X551886Y208216D01*
X551850Y208114D01*
X551838Y208000D01*
Y210400D01*
X551850Y210286D01*
D02*
G37*
G36*
X549353Y210977D02*
X549362Y210788D01*
X551563Y207824D01*
X551412Y207989D01*
X551265Y208075D01*
X551121Y208082D01*
X550980Y208010D01*
X550887Y207907D01*
X550438Y206388D01*
X550305D01*
X550200Y205920D01*
X549721Y206388D01*
X547962D01*
X547996Y206407D01*
X548039Y206465D01*
X548091Y206561D01*
X548153Y206696D01*
X548305Y207081D01*
X548480Y207602D01*
X548457Y207624D01*
X548629Y208445D01*
X549326Y211053D01*
X549353Y210977D01*
D02*
G37*
G36*
X531828Y205494D02*
X531816Y205552D01*
X531780Y205604D01*
X531720Y205650D01*
X531636Y205690D01*
X531528Y205724D01*
X531396Y205751D01*
X531240Y205772D01*
X531148Y205778D01*
X531121Y205776D01*
X530940Y205746D01*
X530782Y205704D01*
X530649Y205650D01*
X530540Y205584D01*
X530455Y205506D01*
X530394Y205416D01*
X530357Y205314D01*
X530344Y205200D01*
X530357Y207460D01*
X530369Y207373D01*
X530405Y207295D01*
X530465Y207226D01*
X530548Y207166D01*
X530656Y207115D01*
X530789Y207074D01*
X530944Y207041D01*
X531071Y207025D01*
X531244Y207054D01*
X531402Y207096D01*
X531535Y207150D01*
X531644Y207216D01*
X531729Y207294D01*
X531790Y207384D01*
X531827Y207486D01*
X531840Y207600D01*
X531828Y205494D01*
D02*
G37*
G36*
X535528Y205462D02*
X535516Y205526D01*
X535480Y205584D01*
X535420Y205634D01*
X535336Y205678D01*
X535228Y205715D01*
X535096Y205746D01*
X534940Y205770D01*
X534760Y205786D01*
X534659Y205790D01*
X534204Y205751D01*
X534072Y205724D01*
X533964Y205690D01*
X533880Y205650D01*
X533820Y205604D01*
X533784Y205552D01*
X533772Y205494D01*
X533760Y207600D01*
X533773Y207486D01*
X533810Y207384D01*
X533871Y207294D01*
X533956Y207216D01*
X534065Y207150D01*
X534198Y207096D01*
X534356Y207054D01*
X534537Y207024D01*
X534650Y207014D01*
X534763Y207024D01*
X534945Y207054D01*
X535102Y207096D01*
X535235Y207150D01*
X535345Y207216D01*
X535430Y207294D01*
X535491Y207384D01*
X535527Y207486D01*
X535540Y207600D01*
X535528Y205462D01*
D02*
G37*
G36*
X526455Y205200D02*
X526443Y205314D01*
X526406Y205416D01*
X526345Y205506D01*
X526260Y205584D01*
X526151Y205650D01*
X526018Y205704D01*
X525860Y205746D01*
X525679Y205776D01*
X525570Y205785D01*
X525326Y205767D01*
X525170Y205740D01*
X525038Y205707D01*
X524930Y205666D01*
X524846Y205618D01*
X524786Y205562D01*
X524750Y205499D01*
X524738Y205428D01*
Y207372D01*
X524750Y207301D01*
X524786Y207238D01*
X524846Y207182D01*
X524930Y207134D01*
X525038Y207093D01*
X525170Y207060D01*
X525326Y207033D01*
X525506Y207015D01*
X525559Y207013D01*
X525855Y207041D01*
X526012Y207074D01*
X526144Y207115D01*
X526252Y207166D01*
X526335Y207226D01*
X526396Y207295D01*
X526432Y207373D01*
X526443Y207460D01*
X526455Y205200D01*
D02*
G37*
G36*
X558249Y207768D02*
X558291Y207760D01*
X558351Y207753D01*
X558643Y207739D01*
X559294Y207732D01*
Y206732D01*
X558226Y206686D01*
Y207776D01*
X558249Y207768D01*
D02*
G37*
G36*
X574171Y207544D02*
X574176Y207489D01*
X574199Y207434D01*
X574242Y207376D01*
X574303Y207317D01*
X574383Y207257D01*
X574483Y207196D01*
X574601Y207133D01*
X574895Y207003D01*
X574561Y206495D01*
X574460Y206534D01*
X574184Y206617D01*
X574101Y206635D01*
X574022Y206647D01*
X573947Y206653D01*
X573877Y206655D01*
X573810Y206651D01*
X573749Y206642D01*
X574186Y207597D01*
X574171Y207544D01*
D02*
G37*
G36*
X568237Y206247D02*
X567253Y205263D01*
X560363D01*
Y213137D01*
X568237D01*
Y206247D01*
D02*
G37*
G36*
X554446Y205708D02*
X554434Y205680D01*
X555581Y204685D01*
X555490Y204745D01*
X555381Y204782D01*
X555252Y204797D01*
X555105Y204790D01*
X554938Y204760D01*
X554753Y204709D01*
X554549Y204635D01*
X554326Y204539D01*
X553824Y204280D01*
X553497Y205264D01*
X553696Y205375D01*
X554399Y205717D01*
X554434Y205720D01*
X554446Y205708D01*
D02*
G37*
G36*
X520801Y205428D02*
X520706Y205416D01*
X520620Y205380D01*
X520545Y205320D01*
X520480Y205236D01*
X520425Y205128D01*
X520380Y204996D01*
X520345Y204840D01*
X520328Y204719D01*
X520336Y204668D01*
X520357Y204575D01*
X520382Y204491D01*
X520411Y204416D01*
X520445Y204350D01*
X520484Y204292D01*
X520527Y204243D01*
X520300D01*
X520300Y204228D01*
X519100D01*
X519100Y204243D01*
X518873D01*
X518916Y204292D01*
X518955Y204350D01*
X518989Y204416D01*
X519018Y204491D01*
X519043Y204575D01*
X519064Y204668D01*
X519069Y204704D01*
X519046Y204845D01*
X519004Y205002D01*
X518950Y205135D01*
X518884Y205244D01*
X518806Y205329D01*
X518716Y205390D01*
X518614Y205427D01*
X518500Y205440D01*
X520801Y205428D01*
D02*
G37*
G36*
X572717Y204690D02*
X572666Y204672D01*
X572621Y204641D01*
X572582Y204598D01*
X572549Y204543D01*
X572522Y204476D01*
X572501Y204397D01*
X572486Y204305D01*
X572477Y204201D01*
X572474Y204084D01*
X571874D01*
X571871Y204201D01*
X571862Y204305D01*
X571847Y204397D01*
X571826Y204476D01*
X571799Y204543D01*
X571766Y204598D01*
X571727Y204641D01*
X571682Y204672D01*
X571631Y204690D01*
X571574Y204696D01*
X572774D01*
X572717Y204690D01*
D02*
G37*
G36*
X537440Y205452D02*
X537410Y205422D01*
X537385Y205372D01*
X537362Y205302D01*
X537343Y205212D01*
X537328Y205102D01*
X537308Y204837D01*
X537314Y204774D01*
X537331Y204664D01*
X537354Y204560D01*
X537385Y204462D01*
X537422Y204370D01*
X537467Y204283D01*
X537518Y204202D01*
X537575Y204127D01*
X537640Y204057D01*
X535960D01*
X536025Y204127D01*
X536082Y204202D01*
X536133Y204283D01*
X536178Y204370D01*
X536215Y204462D01*
X536246Y204560D01*
X536269Y204664D01*
X536285Y204765D01*
X536280Y204822D01*
X536255Y204972D01*
X536220Y205102D01*
X536175Y205212D01*
X536120Y205302D01*
X536055Y205372D01*
X535980Y205422D01*
X535895Y205452D01*
X535800Y205462D01*
X537473D01*
X537440Y205452D01*
D02*
G37*
G36*
X562877Y203127D02*
X561787D01*
X561795Y203149D01*
X561803Y203191D01*
X561809Y203251D01*
X561824Y203543D01*
X561832Y204194D01*
X562831D01*
X562877Y203127D01*
D02*
G37*
G36*
X571859Y203621D02*
X571870Y203614D01*
X571874Y203603D01*
X572473Y203536D01*
X572473Y203512D01*
X572477Y203483D01*
X572485Y203446D01*
X572509Y203355D01*
X572571Y203170D01*
X572628Y203015D01*
X571501Y203534D01*
X571572Y203559D01*
X571781Y203618D01*
X571814Y203623D01*
X571840Y203624D01*
X571859Y203621D01*
D02*
G37*
G36*
X568315Y204188D02*
X568602Y203385D01*
X568630Y203342D01*
X568654Y203318D01*
X567647Y202901D01*
X567645Y202906D01*
X567639Y202925D01*
X567452Y203575D01*
X568261Y204375D01*
X568315Y204188D01*
D02*
G37*
G36*
X560581Y199217D02*
X560540Y199259D01*
X560494Y199280D01*
X560445Y199278D01*
X560392Y199254D01*
X560334Y199207D01*
X560273Y199139D01*
X560208Y199048D01*
X560139Y198935D01*
X560065Y198800D01*
X559988Y198642D01*
X559560Y199123D01*
X559639Y199298D01*
X559759Y199609D01*
X559800Y199746D01*
X559829Y199870D01*
X559845Y199982D01*
X559849Y200080D01*
X559840Y200167D01*
X559819Y200240D01*
X559785Y200301D01*
X560581Y199217D01*
D02*
G37*
G36*
X566805Y199503D02*
X566797Y199461D01*
X566790Y199401D01*
X566776Y199109D01*
X566769Y198458D01*
X565768D01*
X565724Y199525D01*
X566814D01*
X566805Y199503D01*
D02*
G37*
G36*
X564836D02*
X564829Y199461D01*
X564822Y199401D01*
X564807Y199109D01*
X564800Y198458D01*
X563800D01*
X563755Y199525D01*
X564845D01*
X564836Y199503D01*
D02*
G37*
G36*
X562868D02*
X562860Y199461D01*
X562853Y199401D01*
X562839Y199109D01*
X562831Y198458D01*
X561832D01*
X561787Y199525D01*
X562877D01*
X562868Y199503D01*
D02*
G37*
G36*
X568765Y201048D02*
X568732Y200919D01*
X568717Y200776D01*
X568719Y200619D01*
X568739Y200449D01*
X568776Y200264D01*
X568831Y200066D01*
X568903Y199854D01*
X569100Y199388D01*
X568517Y198276D01*
X568437Y198442D01*
X568140Y198972D01*
X568071Y199071D01*
X568005Y199157D01*
X567941Y199230D01*
X567879Y199288D01*
X567820Y199334D01*
X568815Y201163D01*
X568765Y201048D01*
D02*
G37*
G36*
X562820Y198089D02*
X562775Y197616D01*
X562772Y197536D01*
X562769Y197372D01*
X561387Y197360D01*
X561448Y197369D01*
X561505Y197393D01*
X561559Y197434D01*
X561609Y197491D01*
X561655Y197563D01*
X561697Y197652D01*
X561736Y197756D01*
X561772Y197877D01*
X561803Y198013D01*
X561832Y198166D01*
X562831D01*
X562820Y198089D01*
D02*
G37*
G36*
X566783Y197717D02*
X566865Y197311D01*
X566878Y197283D01*
X566890Y197266D01*
X566902Y197260D01*
X565779D01*
X565790Y197266D01*
X565799Y197283D01*
X565804Y197311D01*
X565807Y197351D01*
X565808Y197401D01*
X565800Y197537D01*
X565768Y197825D01*
X566769D01*
X566783Y197717D01*
D02*
G37*
G36*
X543904Y198292D02*
X543992Y197172D01*
X544033Y196992D01*
X544081Y196852D01*
X544136Y196752D01*
X544199Y196692D01*
X544269Y196672D01*
X542556D01*
Y194700D01*
X542174Y194690D01*
X541832Y194660D01*
X541530Y194610D01*
X541269Y194540D01*
X541047Y194450D01*
X540866Y194340D01*
X540726Y194210D01*
X540625Y194060D01*
X540565Y193890D01*
X540545Y193700D01*
Y197700D01*
X540565Y197510D01*
X540625Y197340D01*
X540726Y197190D01*
X540866Y197060D01*
X541047Y196950D01*
X541269Y196860D01*
X541530Y196790D01*
X541832Y196740D01*
X541930Y196731D01*
X541900Y198672D01*
X543900D01*
X543904Y198292D01*
D02*
G37*
G36*
X548939Y198412D02*
X550438D01*
X550384Y198394D01*
X550315Y198339D01*
X550230Y198249D01*
X550129Y198122D01*
X549880Y197759D01*
X549388Y196942D01*
X549192Y196597D01*
X549160Y196605D01*
X548206Y194728D01*
X545868Y196672D01*
X546069Y196693D01*
X546274Y196754D01*
X546481Y196855D01*
X546692Y196998D01*
X546905Y197181D01*
X547121Y197405D01*
X547340Y197670D01*
X547562Y197975D01*
X548014Y198708D01*
X548939Y198412D01*
D02*
G37*
G36*
X576117Y197725D02*
X576292Y197641D01*
X576339Y197624D01*
X576381Y197613D01*
X576417Y197607D01*
X576448Y197607D01*
X576473Y197613D01*
X576493Y197625D01*
X576659Y197005D01*
X576645Y196994D01*
X576627Y196975D01*
X576607Y196949D01*
X576556Y196876D01*
X576456Y196712D01*
X576373Y196567D01*
X576048Y197764D01*
X576117Y197725D01*
D02*
G37*
G36*
X570069Y197791D02*
X570378Y197474D01*
X570518Y197359D01*
X570647Y197271D01*
X570768Y197212D01*
X570878Y197181D01*
X570978Y197179D01*
X571069Y197205D01*
X571150Y197260D01*
X569680Y195928D01*
X569736Y196001D01*
X569765Y196093D01*
X569767Y196204D01*
X569741Y196334D01*
X569687Y196483D01*
X569606Y196651D01*
X569498Y196838D01*
X569362Y197044D01*
X569008Y197513D01*
X569901Y197993D01*
X570069Y197791D01*
D02*
G37*
G36*
X553210Y194060D02*
X553240Y193890D01*
X553290Y193740D01*
X553360Y193610D01*
X553450Y193500D01*
X553560Y193410D01*
X553690Y193340D01*
X553840Y193290D01*
X554010Y193260D01*
X554200Y193250D01*
X552700Y192250D01*
X551200Y193250D01*
X551390Y193260D01*
X551560Y193290D01*
X551710Y193340D01*
X551840Y193410D01*
X551950Y193500D01*
X552040Y193610D01*
X552110Y193740D01*
X552160Y193890D01*
X552190Y194060D01*
X552200Y194250D01*
X553200D01*
X553210Y194060D01*
D02*
G37*
G36*
X546027Y193525D02*
X546102Y193468D01*
X546183Y193417D01*
X546270Y193372D01*
X546362Y193335D01*
X546460Y193304D01*
X546564Y193281D01*
X546674Y193264D01*
X546790Y193253D01*
X546911Y193250D01*
Y192250D01*
X546790Y192247D01*
X546674Y192236D01*
X546564Y192219D01*
X546460Y192196D01*
X546362Y192165D01*
X546270Y192128D01*
X546183Y192083D01*
X546102Y192032D01*
X546027Y191975D01*
X545957Y191910D01*
Y193590D01*
X546027Y193525D01*
D02*
G37*
D14*
X559100Y224400D02*
X558977Y225337D01*
X558615Y226211D01*
X558039Y226961D01*
X536800Y205908D02*
X536500Y206631D01*
X537200Y212300D02*
X536682Y211525D01*
X536500Y210611D01*
X568237Y201326D02*
X568177Y202390D01*
X567999Y203441D01*
X567704Y204465D01*
X567296Y205450D01*
X566780Y206383D01*
X566163Y207252D01*
X565453Y208047D01*
X568237Y201326D02*
X568318Y200358D01*
X568557Y199417D01*
X568948Y198529D01*
X569481Y197717D01*
X570141Y197005D01*
X570909Y196411D01*
X566268Y197825D02*
X566433Y197000D01*
X566900Y196300D01*
X561600Y196400D02*
X562141Y197210D01*
X562331Y198166D01*
X562796Y206904D02*
X562539Y206106D01*
X562384Y205283D01*
X562331Y204448D01*
X553200Y204400D02*
X552700Y203193D01*
X555283Y205263D02*
X554156Y205039D01*
X553200Y204400D01*
X562455Y192750D02*
X563300Y193100D01*
X563843Y193807D01*
X564184Y194631D01*
X564300Y195514D01*
X570280Y224500D02*
X569347Y224408D01*
X568451Y224136D01*
X567624Y223694D01*
X566900Y223100D01*
X566433Y222400D01*
X566268Y221575D01*
X562800Y206900D02*
X562796Y206904D01*
X560363Y218624D02*
X560000Y219500D01*
X559678Y219822D02*
X558816Y220398D01*
X557800Y220600D01*
X556300Y221200D02*
X556965Y220756D01*
X557749Y220600D01*
X554376Y224400D02*
X554610Y223221D01*
X555278Y222222D01*
X563824Y224400D02*
X563400Y223375D01*
X562800Y219900D02*
X563244Y220565D01*
X563400Y221349D01*
X562800Y219900D02*
X562331Y218769D01*
X564300Y209200D02*
X563695Y208506D01*
X563191Y207736D01*
X562796Y206904D01*
X562000Y207231D01*
X556400Y228600D02*
X558039Y226961D01*
X536800Y203200D02*
Y205908D01*
X536500Y210568D02*
Y210611D01*
X546700Y223400D02*
X549800D01*
X566268Y197825D02*
Y201326D01*
X562331D02*
Y204448D01*
Y198166D02*
Y201326D01*
X552700Y192750D02*
X562455D01*
X545100D02*
X552700D01*
Y203193D01*
X555283Y205263D02*
X556426D01*
X564300Y195514D02*
Y201326D01*
X570280Y224500D02*
X571900D01*
X566268Y217074D02*
Y221575D01*
X564300Y209200D02*
X565453Y208047D01*
X556426Y207231D02*
X562000D01*
X564300Y211600D02*
Y217074D01*
X560363D02*
Y218624D01*
X559678Y219822D02*
X560000Y219500D01*
X557749Y220600D02*
X557800D01*
X555278Y222222D02*
X556300Y221200D01*
X563400Y221349D02*
Y223375D01*
X562331Y217074D02*
Y218769D01*
D15*
X515158Y252559D02*
X579331D01*
X515158Y190110D02*
X579331D01*
X515158D02*
Y252559D01*
X579331Y190110D02*
Y252559D01*
D16*
X559100Y224400D02*
D03*
X563824Y224400D02*
D03*
X554376D02*
D03*
D17*
X549800Y223400D02*
D03*
Y219463D02*
D03*
X546700Y223400D02*
D03*
Y219463D02*
D03*
X542900Y202937D02*
D03*
Y199000D02*
D03*
X536500Y210568D02*
D03*
Y206631D02*
D03*
X532800Y210600D02*
D03*
Y206663D02*
D03*
D18*
X542800Y215000D02*
D03*
Y220000D02*
D03*
X549200Y204900D02*
D03*
Y199900D02*
D03*
X550600Y209300D02*
D03*
Y214300D02*
D03*
D19*
X568237Y201326D02*
D03*
X566268D02*
D03*
X564300D02*
D03*
X562331D02*
D03*
X560363D02*
D03*
Y217074D02*
D03*
X562331D02*
D03*
X564300D02*
D03*
X566268D02*
D03*
X568237D02*
D03*
D20*
X556426Y205263D02*
D03*
Y207231D02*
D03*
Y209200D02*
D03*
Y211169D02*
D03*
Y213137D02*
D03*
X572174D02*
D03*
Y211169D02*
D03*
Y209200D02*
D03*
Y207231D02*
D03*
D21*
Y205263D02*
D03*
D22*
X564300Y209200D02*
D03*
D23*
X561600Y196400D02*
D03*
X557663D02*
D03*
X519531Y210900D02*
D03*
X523468D02*
D03*
X519631Y206400D02*
D03*
X523568D02*
D03*
X570837Y196300D02*
D03*
X566900D02*
D03*
X543100Y195700D02*
D03*
X547037D02*
D03*
D24*
X528400Y205307D02*
D03*
Y212000D02*
D03*
D25*
X518600Y195900D02*
D03*
X538600Y195900D02*
D03*
D26*
X561210Y233526D02*
D03*
X551147D02*
D03*
X543273D02*
D03*
X533210D02*
D03*
D40*
X568237Y215888D02*
X568750Y214650D01*
X576200Y218139D02*
X575813Y218700D01*
X575564Y214764D02*
X576035Y215469D01*
X576200Y216300D01*
X572434Y213137D02*
X573373Y213261D01*
X574248Y213623D01*
X575000Y214200D01*
X571800Y202700D02*
X572174Y203603D01*
X573110Y211169D02*
X574021Y211288D01*
X574871Y211640D01*
X575600Y212200D01*
X576200Y208800D02*
X575234Y209200D01*
X577200Y203669D02*
X576992Y204714D01*
X576400Y205600D01*
X576800Y197500D02*
X577200Y198466D01*
X575600Y197000D02*
X576795Y197495D01*
X576400Y205600D02*
X575556Y206293D01*
X574593Y206807D01*
X573548Y207124D01*
X572461Y207231D01*
X558789Y197526D02*
X559457Y198340D01*
X559954Y199269D01*
X560260Y200278D01*
X560363Y201326D01*
X576200Y218139D02*
Y218139D01*
X576200D02*
X576200Y218139D01*
X575813Y218700D02*
X575813Y218700D01*
X575000Y214200D02*
X575564Y214764D01*
X572174Y213137D02*
X572434D01*
X576200Y216300D02*
Y218139D01*
X568237Y215888D02*
Y217074D01*
X572174Y209200D02*
X575234D01*
X575700D02*
X575800D01*
X576200Y208800D01*
X577200Y198466D02*
Y203669D01*
X576795Y197495D02*
X576800Y197500D01*
X575234Y197000D02*
X575600D01*
X575200Y197034D02*
X575234Y197000D01*
X572174Y211169D02*
X573110D01*
X572174Y207231D02*
X572461D01*
X572174Y203603D02*
Y205263D01*
X557663Y196400D02*
X558789Y197526D01*
D41*
X519700Y206235D02*
X519631Y206400D01*
X535942D02*
X536500Y206631D01*
Y210611D02*
X535802Y210900D01*
X556426Y215616D02*
X556326Y216632D01*
X556029Y217610D01*
X555548Y218511D01*
X554900Y219300D01*
X554125Y219818D01*
X553210Y220000D01*
X548250Y211950D02*
X548248Y211948D01*
X549338Y212400D02*
X548250Y211950D01*
X546200Y211100D02*
X547309Y211320D01*
X548248Y211948D01*
X552900Y211800D02*
X553600Y211333D01*
X554425Y211169D01*
X552900Y211800D02*
X552235Y212244D01*
X551451Y212400D01*
X543400Y213551D02*
X543244Y214335D01*
X542800Y215000D01*
X543823Y211777D02*
X543824Y211776D01*
X543400Y212800D02*
X543823Y211777D01*
X543900Y211700D02*
X544565Y211256D01*
X545349Y211100D01*
X550600Y214300D02*
X550741Y213959D01*
X550600Y209300D02*
X550841Y209200D01*
X519700Y203400D02*
Y206235D01*
X523568Y206400D02*
X535942D01*
X519531Y210900D02*
Y213769D01*
X523468Y210900D02*
X535802D01*
X548250Y211950D02*
X550600Y214300D01*
X550741Y213959D02*
X552900Y211800D01*
X546700Y220000D02*
X549800D01*
X553210D01*
X556426Y213137D02*
Y215616D01*
X542800Y220000D02*
X546700D01*
X549338Y212400D02*
X551451D01*
X548248Y211948D02*
X548250Y211950D01*
X543400Y212800D02*
Y213551D01*
X543824Y211776D02*
X543900Y211700D01*
X543823Y211777D02*
X543824Y211776D01*
X545349Y211100D02*
X546200D01*
X554425Y211169D02*
X556426D01*
X550841Y209200D02*
X556426D01*
D42*
X561210Y244820D02*
X561081Y245801D01*
X560702Y246715D01*
X560100Y247500D01*
X559181Y248205D01*
X558110Y248649D01*
X556961Y248800D01*
X537357D02*
X536381Y248736D01*
X535422Y248545D01*
X534496Y248231D01*
X533618Y247798D01*
X532805Y247255D01*
X532070Y246610D01*
X531426Y245647D01*
X531200Y244510D01*
X561210Y233526D02*
Y244820D01*
X537357Y248800D02*
X556961D01*
X531200Y241700D02*
Y244510D01*
X566974Y233526D02*
X567000Y233500D01*
X561210Y233526D02*
X566974D01*
D43*
X542900Y196183D02*
X543100Y195700D01*
X538600Y195900D02*
X539083Y195700D01*
X547760Y196423D02*
X548371Y197168D01*
X548826Y198018D01*
X549106Y198941D01*
X549200Y199900D01*
X550600Y209300D02*
X550006Y208576D01*
X549564Y207749D01*
X549292Y206853D01*
X549200Y205920D01*
X539083Y195700D02*
X543100D01*
X542900Y196183D02*
Y199000D01*
X547037Y195700D02*
X547760Y196423D01*
X549200Y204900D02*
Y205920D01*
D44*
X538300Y243400D02*
D03*
X556016D02*
D03*
D45*
X523930D02*
D03*
X570387D02*
D03*
D46*
X529500Y217050D02*
D03*
X518400Y248900D02*
D03*
X543000Y242000D02*
D03*
X556222Y234583D02*
D03*
X520600Y217200D02*
D03*
X576100Y248000D02*
D03*
X575700Y236100D02*
D03*
X519100Y234700D02*
D03*
X540300Y217700D02*
D03*
X549800Y194700D02*
D03*
X575300Y200800D02*
D03*
X568700Y193300D02*
D03*
X575100Y203300D02*
D03*
X571800Y202700D02*
D03*
X553600Y215200D02*
D03*
X568750Y214650D02*
D03*
X546300Y207794D02*
D03*
X542900Y209600D02*
D03*
X573500Y230500D02*
D03*
X550000Y237200D02*
D03*
X525500Y201500D02*
D03*
X551600Y240500D02*
D03*
X575813Y218700D02*
D03*
X575700Y209200D02*
D03*
X568600Y208900D02*
D03*
X555700Y231400D02*
D03*
X546000Y202500D02*
D03*
X542500Y204200D02*
D03*
X556400Y228600D02*
D03*
X537200Y212300D02*
D03*
X575600Y197000D02*
D03*
Y212200D02*
D03*
X533000Y237100D02*
D03*
X546000Y216300D02*
D03*
X540200Y206200D02*
D03*
X544400Y237200D02*
D03*
D47*
X532200Y202100D02*
D03*
X567000Y233500D02*
D03*
X531200Y241700D02*
D03*
X532070Y246610D02*
D03*
X537357Y248800D02*
D03*
X519531Y213769D02*
D03*
X519700Y203400D02*
D03*
D48*
X536800Y203200D02*
D03*
X549900Y225400D02*
D03*
X545100Y192750D02*
D03*
X571900Y224500D02*
D03*
M02*
