G04*
G04 #@! TF.GenerationSoftware,Altium Limited,Altium Designer,20.1.8 (145)*
G04*
G04 Layer_Color=2752767*
%FSLAX25Y25*%
%MOIN*%
G70*
G04*
G04 #@! TF.SameCoordinates,21FBFEBA-D07F-42F0-8C11-0AAD296DAF8C*
G04*
G04*
G04 #@! TF.FilePolarity,Positive*
G04*
G01*
G75*
%ADD15C,0.00500*%
%ADD65C,0.00200*%
%ADD66C,0.00267*%
D15*
X515158Y252559D02*
X579331D01*
X515158Y190110D02*
X579331D01*
X515158D02*
Y252559D01*
X579331Y190110D02*
Y252559D01*
D65*
X537500Y242600D02*
Y244200D01*
X539100D01*
Y242600D01*
X537500D01*
X555217D02*
Y244200D01*
X556816D01*
Y242600D01*
X555217D01*
X529500Y216250D02*
X528700Y217850D01*
X530300D01*
X529500Y216250D01*
X518400Y248100D02*
X517600Y249700D01*
X519200D01*
X518400Y248100D01*
X543000Y241200D02*
X542200Y242800D01*
X543800D01*
X543000Y241200D01*
X556222Y233783D02*
X555422Y235383D01*
X557022D01*
X556222Y233783D01*
X520600Y216400D02*
X519800Y218000D01*
X521400D01*
X520600Y216400D01*
X576100Y247200D02*
X575300Y248800D01*
X576900D01*
X576100Y247200D01*
X575700Y235300D02*
X574900Y236900D01*
X576500D01*
X575700Y235300D01*
X519100Y233900D02*
X518300Y235500D01*
X519900D01*
X519100Y233900D01*
X540300Y216900D02*
X539500Y218500D01*
X541100D01*
X540300Y216900D01*
X549800Y193900D02*
X549000Y195500D01*
X550600D01*
X549800Y193900D01*
X532200Y201300D02*
X532600Y201700D01*
X533000D01*
X532600Y202100D01*
X533000Y202500D01*
X532600D01*
X532200Y202900D01*
X531800Y202500D01*
X531400D01*
X531800Y202100D01*
X531400Y201700D01*
X531800D01*
X532200Y201300D01*
X536000Y202400D02*
X536400Y203200D01*
X536000Y204000D01*
X536800Y203600D01*
X537600Y204000D01*
X537200Y203200D01*
X537600Y202400D01*
X536800Y202800D01*
X536000Y202400D01*
X575300Y200000D02*
X574500Y201600D01*
X576100D01*
X575300Y200000D01*
X568700Y192500D02*
X567900Y194100D01*
X569500D01*
X568700Y192500D01*
X575100Y202500D02*
X574300Y204100D01*
X575900D01*
X575100Y202500D01*
X571800Y201900D02*
X571000Y203500D01*
X572600D01*
X571800Y201900D01*
X553600Y214400D02*
X552800Y216000D01*
X554400D01*
X553600Y214400D01*
X568750Y213850D02*
X567950Y215450D01*
X569550D01*
X568750Y213850D01*
X546300Y206995D02*
X545500Y208594D01*
X547100D01*
X546300Y206995D01*
X542900Y208800D02*
X542100Y210400D01*
X543700D01*
X542900Y208800D01*
X573500Y229700D02*
X572700Y231300D01*
X574300D01*
X573500Y229700D01*
X567000Y232700D02*
X567400Y233100D01*
X567800D01*
X567400Y233500D01*
X567800Y233900D01*
X567400D01*
X567000Y234300D01*
X566600Y233900D01*
X566200D01*
X566600Y233500D01*
X566200Y233100D01*
X566600D01*
X567000Y232700D01*
X531200Y240900D02*
X531600Y241300D01*
X532000D01*
X531600Y241700D01*
X532000Y242100D01*
X531600D01*
X531200Y242500D01*
X530800Y242100D01*
X530400D01*
X530800Y241700D01*
X530400Y241300D01*
X530800D01*
X531200Y240900D01*
X532070Y245810D02*
X532470Y246210D01*
X532870D01*
X532470Y246610D01*
X532870Y247010D01*
X532470D01*
X532070Y247410D01*
X531670Y247010D01*
X531270D01*
X531670Y246610D01*
X531270Y246210D01*
X531670D01*
X532070Y245810D01*
X537357Y248000D02*
X537757Y248400D01*
X538157D01*
X537757Y248800D01*
X538157Y249200D01*
X537757D01*
X537357Y249600D01*
X536957Y249200D01*
X536557D01*
X536957Y248800D01*
X536557Y248400D01*
X536957D01*
X537357Y248000D01*
X519531Y212968D02*
X519932Y213369D01*
X520331D01*
X519932Y213769D01*
X520331Y214169D01*
X519932D01*
X519531Y214568D01*
X519132Y214169D01*
X518731D01*
X519132Y213769D01*
X518731Y213369D01*
X519132D01*
X519531Y212968D01*
X550000Y236400D02*
X549200Y238000D01*
X550800D01*
X550000Y236400D01*
X519700Y202600D02*
X520100Y203000D01*
X520500D01*
X520100Y203400D01*
X520500Y203800D01*
X520100D01*
X519700Y204200D01*
X519300Y203800D01*
X518900D01*
X519300Y203400D01*
X518900Y203000D01*
X519300D01*
X519700Y202600D01*
X525500Y200700D02*
X524700Y202300D01*
X526300D01*
X525500Y200700D01*
X551600Y239700D02*
X550800Y241300D01*
X552400D01*
X551600Y239700D01*
X575813Y217900D02*
X575013Y219500D01*
X576613D01*
X575813Y217900D01*
X575700Y208400D02*
X574900Y210000D01*
X576500D01*
X575700Y208400D01*
X568600Y208100D02*
X567800Y209700D01*
X569400D01*
X568600Y208100D01*
X555700Y230600D02*
X554900Y232200D01*
X556500D01*
X555700Y230600D01*
X549100Y224600D02*
X549500Y225400D01*
X549100Y226200D01*
X549900Y225800D01*
X550700Y226200D01*
X550300Y225400D01*
X550700Y224600D01*
X549900Y225000D01*
X549100Y224600D01*
X546000Y201700D02*
X545200Y203300D01*
X546800D01*
X546000Y201700D01*
X542500Y203400D02*
X541700Y205000D01*
X543300D01*
X542500Y203400D01*
X556400Y227800D02*
X555600Y229400D01*
X557200D01*
X556400Y227800D01*
X537200Y211500D02*
X536400Y213100D01*
X538000D01*
X537200Y211500D01*
X544300Y191950D02*
X544700Y192750D01*
X544300Y193550D01*
X545100Y193150D01*
X545900Y193550D01*
X545500Y192750D01*
X545900Y191950D01*
X545100Y192350D01*
X544300Y191950D01*
X571100Y223700D02*
X571500Y224500D01*
X571100Y225300D01*
X571900Y224900D01*
X572700Y225300D01*
X572300Y224500D01*
X572700Y223700D01*
X571900Y224100D01*
X571100Y223700D01*
X575600Y196200D02*
X574800Y197800D01*
X576400D01*
X575600Y196200D01*
Y211400D02*
X574800Y213000D01*
X576400D01*
X575600Y211400D01*
X533000Y236300D02*
X532200Y237900D01*
X533800D01*
X533000Y236300D01*
X546000Y215500D02*
X545200Y217100D01*
X546800D01*
X546000Y215500D01*
X540200Y205400D02*
X539400Y207000D01*
X541000D01*
X540200Y205400D01*
X544400Y236400D02*
X543600Y238000D01*
X545200D01*
X544400Y236400D01*
D66*
X524730Y243400D02*
X524177Y244161D01*
X523283Y243870D01*
Y242930D01*
X524177Y242639D01*
X524730Y243400D01*
X571187D02*
X570634Y244161D01*
X569739Y243870D01*
Y242930D01*
X570634Y242639D01*
X571187Y243400D01*
M02*
