M48
;Layer_Color=9474304
;FILE_FORMAT=2:5
INCH,LZ
;TYPE=PLATED
T1F00S00C0.00787
T2F00S00C0.01181
T3F00S00C0.01200
;TYPE=NON_PLATED
T5F00S00C0.04331
%
T01
X05255Y02015
X05402Y02062
X05425Y02042
X0546Y02025
X05463Y0207794
X05429Y02096
X05372Y02123
X05403Y02177
X0546Y02163
X05536Y02152
X056875Y021465
X05686Y02089
X05757Y02092
X05756Y02122
X0575813Y02187
X05735Y02305
X05757Y02361
X05761Y0248
X05516Y02405
X055Y02372
X05444
X0543Y0242
X0533Y02371
X05191Y02347
X05184Y02489
X05206Y02172
X05295Y021705
X05564Y02286
X05557Y02314
X0556222Y0234583
X05498Y01947
X05687Y01933
X05756Y0197
X05753Y02008
X05751Y02033
X05718Y02027
T02
X05197Y02034
X0519531Y0213769
X05322Y02021
X05312Y02417
X053207Y024661
X0537357Y02488
X0567Y02335
T03
X05451Y019275
X05368Y02032
X05499Y02254
X05719Y02245
T05
X05383Y02434
X0556016
M30
