G04*
G04 #@! TF.GenerationSoftware,Altium Limited,Altium Designer,20.1.8 (145)*
G04*
G04 Layer_Color=32896*
%FSLAX25Y25*%
%MOIN*%
G70*
G04*
G04 #@! TF.SameCoordinates,21FBFEBA-D07F-42F0-8C11-0AAD296DAF8C*
G04*
G04*
G04 #@! TF.FilePolarity,Positive*
G04*
G01*
G75*
%ADD10C,0.00984*%
%ADD13C,0.00591*%
%ADD15C,0.00500*%
%ADD40C,0.00600*%
%ADD63C,0.00787*%
%ADD64R,0.04724X0.00606*%
D10*
X573759Y198484D02*
X573021Y198910D01*
Y198057D01*
X573759Y198484D01*
X522806Y223524D02*
X522067Y223951D01*
Y223098D01*
X522806Y223524D01*
D13*
X513380Y212568D02*
Y209288D01*
X512724Y208632D01*
X511412D01*
X510756Y209288D01*
Y212568D01*
X506820Y208632D02*
X509444D01*
X506820Y211256D01*
Y211912D01*
X507476Y212568D01*
X508788D01*
X509444Y211912D01*
X546780Y217932D02*
Y221868D01*
X544812D01*
X544156Y221212D01*
Y219900D01*
X544812Y219244D01*
X546780D01*
X545468D02*
X544156Y217932D01*
X540220D02*
X542844D01*
X540220Y220556D01*
Y221212D01*
X540876Y221868D01*
X542188D01*
X542844Y221212D01*
X520156Y228312D02*
X520812Y228968D01*
X522124D01*
X522780Y228312D01*
Y225688D01*
X522124Y225032D01*
X520812D01*
X520156Y225688D01*
X518844Y228968D02*
X516220D01*
Y228312D01*
X518844Y225688D01*
Y225032D01*
X520556Y233312D02*
X521212Y233968D01*
X522524D01*
X523180Y233312D01*
Y230688D01*
X522524Y230032D01*
X521212D01*
X520556Y230688D01*
X516620Y233968D02*
X517932Y233312D01*
X519244Y232000D01*
Y230688D01*
X518588Y230032D01*
X517276D01*
X516620Y230688D01*
Y231344D01*
X517276Y232000D01*
X519244D01*
X545060Y255232D02*
Y259168D01*
X543092D01*
X542436Y258512D01*
Y257200D01*
X543092Y256544D01*
X545060D01*
X543748D02*
X542436Y255232D01*
X538500Y259168D02*
X541124D01*
Y255232D01*
X538500D01*
X541124Y257200D02*
X539812D01*
X537188Y259168D02*
Y255232D01*
X535220D01*
X534564Y255888D01*
Y258512D01*
X535220Y259168D01*
X537188D01*
X533252Y255232D02*
X531940D01*
X532596D01*
Y259168D01*
X533252Y258512D01*
X550556Y235412D02*
X551212Y236068D01*
X552524D01*
X553180Y235412D01*
Y232788D01*
X552524Y232132D01*
X551212D01*
X550556Y232788D01*
X549244Y235412D02*
X548588Y236068D01*
X547276D01*
X546620Y235412D01*
Y234756D01*
X547276Y234100D01*
X547932D01*
X547276D01*
X546620Y233444D01*
Y232788D01*
X547276Y232132D01*
X548588D01*
X549244Y232788D01*
X552780Y242832D02*
Y246768D01*
X550812D01*
X550156Y246112D01*
Y244800D01*
X550812Y244144D01*
X552780D01*
X551468D02*
X550156Y242832D01*
X546220Y246768D02*
X547532Y246112D01*
X548844Y244800D01*
Y243488D01*
X548188Y242832D01*
X546876D01*
X546220Y243488D01*
Y244144D01*
X546876Y244800D01*
X548844D01*
X565480Y245332D02*
Y249268D01*
X563512D01*
X562856Y248612D01*
Y247300D01*
X563512Y246644D01*
X565480D01*
X564168D02*
X562856Y245332D01*
X558920Y249268D02*
X561544D01*
Y247300D01*
X560232Y247956D01*
X559576D01*
X558920Y247300D01*
Y245988D01*
X559576Y245332D01*
X560888D01*
X561544Y245988D01*
X562432Y237220D02*
X566368D01*
Y239188D01*
X565712Y239844D01*
X564400D01*
X563744Y239188D01*
Y237220D01*
Y238532D02*
X562432Y239844D01*
Y243124D02*
X566368D01*
X564400Y241156D01*
Y243780D01*
X572856Y234412D02*
X573512Y235068D01*
X574824D01*
X575480Y234412D01*
Y231788D01*
X574824Y231132D01*
X573512D01*
X572856Y231788D01*
X568920Y231132D02*
X571544D01*
X568920Y233756D01*
Y234412D01*
X569576Y235068D01*
X570888D01*
X571544Y234412D01*
X585624Y233268D02*
Y229988D01*
X584968Y229332D01*
X583656D01*
X583000Y229988D01*
Y233268D01*
X581688Y229332D02*
X580376D01*
X581032D01*
Y233268D01*
X581688Y232612D01*
X538056Y210512D02*
X538712Y211168D01*
X540024D01*
X540680Y210512D01*
Y207888D01*
X540024Y207232D01*
X538712D01*
X538056Y207888D01*
X536744Y210512D02*
X536088Y211168D01*
X534776D01*
X534120Y210512D01*
Y209856D01*
X534776Y209200D01*
X534120Y208544D01*
Y207888D01*
X534776Y207232D01*
X536088D01*
X536744Y207888D01*
Y208544D01*
X536088Y209200D01*
X536744Y209856D01*
Y210512D01*
X536088Y209200D02*
X534776D01*
X520056Y208912D02*
X520712Y209568D01*
X522024D01*
X522680Y208912D01*
Y206288D01*
X522024Y205632D01*
X520712D01*
X520056Y206288D01*
X518744D02*
X518088Y205632D01*
X516776D01*
X516120Y206288D01*
Y208912D01*
X516776Y209568D01*
X518088D01*
X518744Y208912D01*
Y208256D01*
X518088Y207600D01*
X516120D01*
X510496Y221012D02*
X511152Y221668D01*
X512464D01*
X513120Y221012D01*
Y218388D01*
X512464Y217732D01*
X511152D01*
X510496Y218388D01*
X509184Y217732D02*
X507872D01*
X508528D01*
Y221668D01*
X509184Y221012D01*
X505904D02*
X505248Y221668D01*
X503936D01*
X503280Y221012D01*
Y218388D01*
X503936Y217732D01*
X505248D01*
X505904Y218388D01*
Y221012D01*
X549800Y188712D02*
X550456Y189368D01*
X551768D01*
X552424Y188712D01*
Y186088D01*
X551768Y185432D01*
X550456D01*
X549800Y186088D01*
X548488Y185432D02*
X547176D01*
X547832D01*
Y189368D01*
X548488Y188712D01*
X558156Y188912D02*
X558812Y189568D01*
X560124D01*
X560780Y188912D01*
Y186288D01*
X560124Y185632D01*
X558812D01*
X558156Y186288D01*
X554220Y189568D02*
X556844D01*
Y187600D01*
X555532Y188256D01*
X554876D01*
X554220Y187600D01*
Y186288D01*
X554876Y185632D01*
X556188D01*
X556844Y186288D01*
X560480Y180332D02*
Y184268D01*
X558512D01*
X557856Y183612D01*
Y182300D01*
X558512Y181644D01*
X560480D01*
X559168D02*
X557856Y180332D01*
X556544Y183612D02*
X555888Y184268D01*
X554576D01*
X553920Y183612D01*
Y182956D01*
X554576Y182300D01*
X555232D01*
X554576D01*
X553920Y181644D01*
Y180988D01*
X554576Y180332D01*
X555888D01*
X556544Y180988D01*
X570224Y188468D02*
X567600Y184532D01*
Y188468D02*
X570224Y184532D01*
X566288D02*
X564976D01*
X565632D01*
Y188468D01*
X566288Y187812D01*
X585624Y223432D02*
Y227368D01*
X583656D01*
X583000Y226712D01*
Y225400D01*
X583656Y224744D01*
X585624D01*
X584312D02*
X583000Y223432D01*
X581688D02*
X580376D01*
X581032D01*
Y227368D01*
X581688Y226712D01*
X584856Y203412D02*
X585512Y204068D01*
X586824D01*
X587480Y203412D01*
Y200788D01*
X586824Y200132D01*
X585512D01*
X584856Y200788D01*
X581576Y200132D02*
Y204068D01*
X583544Y202100D01*
X580920D01*
D15*
X515158Y252559D02*
X579331D01*
X515158Y190110D02*
X579331D01*
X515158D02*
Y252559D01*
X579331Y190110D02*
Y252559D01*
D40*
X541901Y225747D02*
Y229672D01*
Y232822D02*
Y236747D01*
X536501Y225747D02*
Y229672D01*
Y236747D02*
X541901D01*
X536501Y225747D02*
X541901D01*
X536501Y232822D02*
Y236747D01*
D63*
X548542Y201043D02*
Y203759D01*
Y201043D02*
X551259D01*
X548542Y223641D02*
Y226358D01*
X551259D01*
X571141D02*
X573857D01*
Y223641D02*
Y226358D01*
Y201043D02*
Y203759D01*
X571141Y201043D02*
X573857D01*
X523494Y217816D02*
Y219784D01*
X535306Y217816D02*
Y219784D01*
X523494D02*
X535306D01*
X523494Y217816D02*
X535306D01*
D64*
X539201Y237844D02*
D03*
M02*
