G04*
G04 #@! TF.GenerationSoftware,Altium Limited,Altium Designer,20.1.8 (145)*
G04*
G04 Layer_Color=65535*
%FSLAX25Y25*%
%MOIN*%
G70*
G04*
G04 #@! TF.SameCoordinates,21FBFEBA-D07F-42F0-8C11-0AAD296DAF8C*
G04*
G04*
G04 #@! TF.FilePolarity,Positive*
G04*
G01*
G75*
%ADD10C,0.00984*%
%ADD11C,0.00800*%
%ADD12C,0.00700*%
%ADD13C,0.00591*%
%ADD14C,0.01000*%
%ADD15C,0.00500*%
D10*
X574536Y202802D02*
X573749D01*
X574536D01*
X541600Y189900D02*
X540850Y190333D01*
Y189467D01*
X541600Y189900D01*
D11*
X540800Y213500D02*
Y215000D01*
Y212500D02*
Y213500D01*
Y212500D02*
X544800D01*
Y215000D01*
X540800Y220000D02*
Y222500D01*
X544800D01*
Y220000D02*
Y222500D01*
X540800Y216500D02*
Y218500D01*
X544800Y216500D02*
Y218500D01*
X551200Y204900D02*
Y206400D01*
Y207400D01*
X547200D02*
X551200D01*
X547200Y204900D02*
Y207400D01*
X551200Y197400D02*
Y199900D01*
X547200Y197400D02*
X551200D01*
X547200D02*
Y199900D01*
X551200Y201400D02*
Y203400D01*
X547200Y201400D02*
Y203400D01*
X548600Y210800D02*
Y212800D01*
X552600Y210800D02*
Y212800D01*
X548600Y206800D02*
Y209300D01*
Y206800D02*
X552600D01*
Y209300D01*
X548600Y214300D02*
Y216800D01*
X552600D01*
Y215800D02*
Y216800D01*
Y214300D02*
Y215800D01*
D12*
X572591Y200909D02*
Y203672D01*
X569828Y200909D02*
X572591D01*
Y214728D02*
Y217491D01*
X569828D02*
X572591D01*
X556009D02*
X558772D01*
X556009Y214728D02*
Y217491D01*
Y200909D02*
X558772D01*
X556009D02*
Y203672D01*
D13*
X517576Y201215D02*
X539624D01*
X517576Y190585D02*
X539624D01*
X562220Y259568D02*
X564844Y255632D01*
Y259568D02*
X562220Y255632D01*
X568780D02*
X566156D01*
X568780Y258256D01*
Y258912D01*
X568124Y259568D01*
X566812D01*
X566156Y258912D01*
X552704Y259012D02*
X552048Y259668D01*
X550736D01*
X550080Y259012D01*
Y256388D01*
X550736Y255732D01*
X552048D01*
X552704Y256388D01*
X554016Y255732D02*
X555328D01*
X554672D01*
Y259668D01*
X554016Y259012D01*
X557296Y259668D02*
X559920D01*
Y259012D01*
X557296Y256388D01*
Y255732D01*
X536120Y227468D02*
Y223532D01*
X538744D01*
X540056Y226812D02*
X540712Y227468D01*
X542024D01*
X542680Y226812D01*
Y226156D01*
X542024Y225500D01*
X541368D01*
X542024D01*
X542680Y224844D01*
Y224188D01*
X542024Y223532D01*
X540712D01*
X540056Y224188D01*
X540404Y259112D02*
X539748Y259768D01*
X538436D01*
X537780Y259112D01*
Y256488D01*
X538436Y255832D01*
X539748D01*
X540404Y256488D01*
X541716Y255832D02*
X543028D01*
X542372D01*
Y259768D01*
X541716Y259112D01*
X544996D02*
X545652Y259768D01*
X546964D01*
X547620Y259112D01*
Y258456D01*
X546964Y257800D01*
X547620Y257144D01*
Y256488D01*
X546964Y255832D01*
X545652D01*
X544996Y256488D01*
Y257144D01*
X545652Y257800D01*
X544996Y258456D01*
Y259112D01*
X545652Y257800D02*
X546964D01*
X570620Y225268D02*
Y221988D01*
X571276Y221332D01*
X572588D01*
X573244Y221988D01*
Y225268D01*
X574556Y224612D02*
X575212Y225268D01*
X576524D01*
X577180Y224612D01*
Y223956D01*
X576524Y223300D01*
X575868D01*
X576524D01*
X577180Y222644D01*
Y221988D01*
X576524Y221332D01*
X575212D01*
X574556Y221988D01*
X552020Y190632D02*
Y194568D01*
X553988D01*
X554644Y193912D01*
Y192600D01*
X553988Y191944D01*
X552020D01*
X553332D02*
X554644Y190632D01*
X555956Y194568D02*
X558580D01*
Y193912D01*
X555956Y191288D01*
Y190632D01*
X547976Y189268D02*
Y185332D01*
X550600D01*
X551912D02*
X553224D01*
X552568D01*
Y189268D01*
X551912Y188612D01*
X538704Y187412D02*
X538048Y188068D01*
X536736D01*
X536080Y187412D01*
Y184788D01*
X536736Y184132D01*
X538048D01*
X538704Y184788D01*
X540016Y184132D02*
X541328D01*
X540672D01*
Y188068D01*
X540016Y187412D01*
X543296D02*
X543952Y188068D01*
X545264D01*
X545920Y187412D01*
Y186756D01*
X545264Y186100D01*
X544608D01*
X545264D01*
X545920Y185444D01*
Y184788D01*
X545264Y184132D01*
X543952D01*
X543296Y184788D01*
X507004Y224512D02*
X506348Y225168D01*
X505036D01*
X504380Y224512D01*
Y221888D01*
X505036Y221232D01*
X506348D01*
X507004Y221888D01*
X508316Y221232D02*
X509628D01*
X508972D01*
Y225168D01*
X508316Y224512D01*
X514220Y225168D02*
X512908Y224512D01*
X511596Y223200D01*
Y221888D01*
X512252Y221232D01*
X513564D01*
X514220Y221888D01*
Y222544D01*
X513564Y223200D01*
X511596D01*
X528904Y218712D02*
X528248Y219368D01*
X526936D01*
X526280Y218712D01*
Y216088D01*
X526936Y215432D01*
X528248D01*
X528904Y216088D01*
X530216Y215432D02*
X531528D01*
X530872D01*
Y219368D01*
X530216Y218712D01*
X536120Y219368D02*
X533496D01*
Y217400D01*
X534808Y218056D01*
X535464D01*
X536120Y217400D01*
Y216088D01*
X535464Y215432D01*
X534152D01*
X533496Y216088D01*
X526604Y225512D02*
X525948Y226168D01*
X524636D01*
X523980Y225512D01*
Y222888D01*
X524636Y222232D01*
X525948D01*
X526604Y222888D01*
X527916Y222232D02*
X529228D01*
X528572D01*
Y226168D01*
X527916Y225512D01*
X533164Y222232D02*
Y226168D01*
X531196Y224200D01*
X533820D01*
X504120Y212832D02*
Y216768D01*
X506088D01*
X506744Y216112D01*
Y214800D01*
X506088Y214144D01*
X504120D01*
X505432D02*
X506744Y212832D01*
X508056Y213488D02*
X508712Y212832D01*
X510024D01*
X510680Y213488D01*
Y216112D01*
X510024Y216768D01*
X508712D01*
X508056Y216112D01*
Y215456D01*
X508712Y214800D01*
X510680D01*
X506420Y203932D02*
Y207868D01*
X508388D01*
X509044Y207212D01*
Y205900D01*
X508388Y205244D01*
X506420D01*
X507732D02*
X509044Y203932D01*
X510356Y207212D02*
X511012Y207868D01*
X512324D01*
X512980Y207212D01*
Y206556D01*
X512324Y205900D01*
X512980Y205244D01*
Y204588D01*
X512324Y203932D01*
X511012D01*
X510356Y204588D01*
Y205244D01*
X511012Y205900D01*
X510356Y206556D01*
Y207212D01*
X511012Y205900D02*
X512324D01*
X529100Y197468D02*
X526476D01*
Y193532D01*
X529100D01*
X526476Y195500D02*
X527788D01*
X530412Y193532D02*
X531724D01*
X531068D01*
Y197468D01*
X530412Y196812D01*
X572660Y194012D02*
X572004Y194668D01*
X570692D01*
X570036Y194012D01*
Y191388D01*
X570692Y190732D01*
X572004D01*
X572660Y191388D01*
X573972Y190732D02*
X575284D01*
X574628D01*
Y194668D01*
X573972Y194012D01*
X577252Y190732D02*
X578564D01*
X577908D01*
Y194668D01*
X577252Y194012D01*
X555100Y251036D02*
Y247756D01*
X555756Y247100D01*
X557068D01*
X557724Y247756D01*
Y251036D01*
X561660Y250380D02*
X561004Y251036D01*
X559692D01*
X559036Y250380D01*
Y249724D01*
X559692Y249068D01*
X561004D01*
X561660Y248412D01*
Y247756D01*
X561004Y247100D01*
X559692D01*
X559036Y247756D01*
X562971Y251036D02*
Y247100D01*
X564939D01*
X565595Y247756D01*
Y248412D01*
X564939Y249068D01*
X562971D01*
X564939D01*
X565595Y249724D01*
Y250380D01*
X564939Y251036D01*
X562971D01*
X521100Y320636D02*
Y317356D01*
X521756Y316700D01*
X523068D01*
X523724Y317356D01*
Y320636D01*
X527660Y319980D02*
X527004Y320636D01*
X525692D01*
X525036Y319980D01*
Y319324D01*
X525692Y318668D01*
X527004D01*
X527660Y318012D01*
Y317356D01*
X527004Y316700D01*
X525692D01*
X525036Y317356D01*
X528971Y320636D02*
Y316700D01*
X530939D01*
X531595Y317356D01*
Y318012D01*
X530939Y318668D01*
X528971D01*
X530939D01*
X531595Y319324D01*
Y319980D01*
X530939Y320636D01*
X528971D01*
X532907Y316700D02*
X534219D01*
X533563D01*
Y320636D01*
X532907Y319980D01*
X539620Y211568D02*
Y207632D01*
X542244D01*
X546180D02*
X543556D01*
X546180Y210256D01*
Y210912D01*
X545524Y211568D01*
X544212D01*
X543556Y210912D01*
X543604Y181712D02*
X542948Y182368D01*
X541636D01*
X540980Y181712D01*
Y179088D01*
X541636Y178432D01*
X542948D01*
X543604Y179088D01*
X544916Y178432D02*
X546228D01*
X545572D01*
Y182368D01*
X544916Y181712D01*
X550820Y178432D02*
X548196D01*
X550820Y181056D01*
Y181712D01*
X550164Y182368D01*
X548852D01*
X548196Y181712D01*
D14*
X572552Y250880D02*
Y253900D01*
X521765D02*
X572552D01*
X521765Y250093D02*
Y253900D01*
D15*
X515158Y252559D02*
X579331D01*
X515158Y190110D02*
X579331D01*
X515158D02*
Y252559D01*
X579331Y190110D02*
Y252559D01*
M02*
