G04*
G04 #@! TF.GenerationSoftware,Altium Limited,Altium Designer,20.1.8 (145)*
G04*
G04 Layer_Color=8421504*
%FSLAX25Y25*%
%MOIN*%
G70*
G04*
G04 #@! TF.SameCoordinates,21FBFEBA-D07F-42F0-8C11-0AAD296DAF8C*
G04*
G04*
G04 #@! TF.FilePolarity,Positive*
G04*
G01*
G75*
%ADD15C,0.00500*%
%ADD16R,0.01968X0.05118*%
%ADD17R,0.01968X0.02362*%
%ADD18R,0.02500X0.03000*%
%ADD19O,0.01181X0.04331*%
%ADD20O,0.04331X0.01181*%
%ADD21R,0.04331X0.01181*%
%ADD22R,0.03937X0.03937*%
%ADD23R,0.02362X0.01968*%
%ADD24R,0.03937X0.04331*%
%ADD25R,0.03937X0.08661*%
%ADD26R,0.04724X0.09843*%
D15*
X515158Y252559D02*
X579331D01*
X515158Y190110D02*
X579331D01*
X515158D02*
Y252559D01*
X579331Y190110D02*
Y252559D01*
D16*
X559100Y224400D02*
D03*
X563824Y224400D02*
D03*
X554376D02*
D03*
D17*
X549800Y223400D02*
D03*
Y219463D02*
D03*
X546700Y223400D02*
D03*
Y219463D02*
D03*
X542900Y202937D02*
D03*
Y199000D02*
D03*
X536500Y210568D02*
D03*
Y206631D02*
D03*
X532800Y210600D02*
D03*
Y206663D02*
D03*
D18*
X542800Y215000D02*
D03*
Y220000D02*
D03*
X549200Y204900D02*
D03*
Y199900D02*
D03*
X550600Y209300D02*
D03*
Y214300D02*
D03*
D19*
X568237Y201326D02*
D03*
X566268D02*
D03*
X564300D02*
D03*
X562331D02*
D03*
X560363D02*
D03*
Y217074D02*
D03*
X562331D02*
D03*
X564300D02*
D03*
X566268D02*
D03*
X568237D02*
D03*
D20*
X556426Y205263D02*
D03*
Y207231D02*
D03*
Y209200D02*
D03*
Y211169D02*
D03*
Y213137D02*
D03*
X572174D02*
D03*
Y211169D02*
D03*
Y209200D02*
D03*
Y207231D02*
D03*
D21*
Y205263D02*
D03*
D22*
X564300Y209200D02*
D03*
D23*
X561600Y196400D02*
D03*
X557663D02*
D03*
X519531Y210900D02*
D03*
X523468D02*
D03*
X519631Y206400D02*
D03*
X523568D02*
D03*
X570837Y196300D02*
D03*
X566900D02*
D03*
X543100Y195700D02*
D03*
X547037D02*
D03*
D24*
X528400Y205307D02*
D03*
Y212000D02*
D03*
D25*
X518600Y195900D02*
D03*
X538600Y195900D02*
D03*
D26*
X561210Y233526D02*
D03*
X551147D02*
D03*
X543273D02*
D03*
X533210D02*
D03*
M02*
