G04*
G04 #@! TF.GenerationSoftware,Altium Limited,Altium Designer,20.1.8 (145)*
G04*
G04 Layer_Color=128*
%FSLAX25Y25*%
%MOIN*%
G70*
G04*
G04 #@! TF.SameCoordinates,21FBFEBA-D07F-42F0-8C11-0AAD296DAF8C*
G04*
G04*
G04 #@! TF.FilePolarity,Positive*
G04*
G01*
G75*
%ADD15C,0.00500*%
%ADD16R,0.01968X0.05118*%
%ADD17R,0.01968X0.02362*%
%ADD23R,0.02362X0.01968*%
%ADD51R,0.04331X0.03937*%
%ADD52R,0.03937X0.02756*%
%ADD53R,0.11811X0.11811*%
%ADD54O,0.03740X0.00984*%
%ADD55O,0.00984X0.03740*%
%ADD56R,0.02362X0.04331*%
D15*
X515158Y252559D02*
X579331D01*
X515158Y190110D02*
X579331D01*
X515158D02*
Y252559D01*
X579331Y190110D02*
Y252559D01*
D16*
X567400Y194500D02*
D03*
X572124Y194500D02*
D03*
X562676D02*
D03*
D17*
X559800Y234637D02*
D03*
Y230700D02*
D03*
X563000Y234668D02*
D03*
Y230732D02*
D03*
X537800Y219237D02*
D03*
Y215300D02*
D03*
X551200Y197468D02*
D03*
Y193531D02*
D03*
X576600Y222800D02*
D03*
Y226737D02*
D03*
X576300Y204100D02*
D03*
Y200163D02*
D03*
D23*
X539032Y223900D02*
D03*
X542969D02*
D03*
X528800Y228800D02*
D03*
X532737D02*
D03*
X548032Y230400D02*
D03*
X551969D02*
D03*
X560368Y238100D02*
D03*
X556431D02*
D03*
X567932Y229500D02*
D03*
X571869D02*
D03*
X531037Y209600D02*
D03*
X527100D02*
D03*
X554632Y196600D02*
D03*
X558569D02*
D03*
X558669Y193000D02*
D03*
X554732D02*
D03*
D51*
X533146Y232900D02*
D03*
X526453D02*
D03*
X525500Y205600D02*
D03*
X532193D02*
D03*
D52*
X539200Y234593D02*
D03*
Y227900D02*
D03*
D53*
X561200Y213700D02*
D03*
D54*
X572322Y205826D02*
D03*
Y207794D02*
D03*
Y209763D02*
D03*
Y211732D02*
D03*
Y213700D02*
D03*
Y215669D02*
D03*
Y217637D02*
D03*
Y219605D02*
D03*
Y221574D02*
D03*
X550078D02*
D03*
Y219605D02*
D03*
Y217637D02*
D03*
Y215669D02*
D03*
Y213700D02*
D03*
Y211732D02*
D03*
Y209763D02*
D03*
Y207794D02*
D03*
Y205826D02*
D03*
D55*
X569074Y224822D02*
D03*
X567105D02*
D03*
X565137D02*
D03*
X563168D02*
D03*
X561200D02*
D03*
X559232D02*
D03*
X557263D02*
D03*
X555295D02*
D03*
X553326D02*
D03*
Y202578D02*
D03*
X555295D02*
D03*
X557263D02*
D03*
X559232D02*
D03*
X561200D02*
D03*
X563168D02*
D03*
X565137D02*
D03*
X567105D02*
D03*
X569074D02*
D03*
D56*
X525660Y223524D02*
D03*
X529400D02*
D03*
X533140D02*
D03*
Y214076D02*
D03*
X525660D02*
D03*
M02*
