G04*
G04 #@! TF.GenerationSoftware,Altium Limited,Altium Designer,20.1.8 (145)*
G04*
G04 Layer_Color=65535*
%FSLAX25Y25*%
%MOIN*%
G70*
G04*
G04 #@! TF.SameCoordinates,F81AAEC3-6A38-4882-98ED-ECA9077A9C2D*
G04*
G04*
G04 #@! TF.FilePolarity,Positive*
G04*
G01*
G75*
%ADD10C,0.00591*%
%ADD11C,0.00600*%
%ADD12C,0.00500*%
%ADD13C,0.00197*%
%ADD14C,0.01000*%
%ADD15C,0.00700*%
%ADD16R,0.00606X0.04724*%
D10*
X167480Y228700D02*
X167444Y229694D01*
X167336Y230683D01*
X167157Y231662D01*
X166909Y232626D01*
X166591Y233568D01*
X166206Y234486D01*
X165756Y235373D01*
X165243Y236226D01*
X164670Y237039D01*
X164040Y237809D01*
X163355Y238531D01*
X162621Y239202D01*
X161840Y239819D01*
X161016Y240377D01*
X160154Y240874D01*
X159259Y241308D01*
X158335Y241677D01*
X157386Y241977D01*
X156419Y242209D01*
X155437Y242370D01*
X154446Y242459D01*
X153451Y242477D01*
X152458Y242423D01*
X151471Y242298D01*
X150495Y242102D01*
X149537Y241835D01*
X148600Y241501D01*
X147689Y241100D01*
X146810Y240633D01*
X145967Y240105D01*
X145164Y239517D01*
X144406Y238873D01*
X143696Y238176D01*
X143038Y237430D01*
X142436Y236638D01*
X141893Y235804D01*
X141411Y234934D01*
X140993Y234031D01*
X140642Y233100D01*
X140358Y232146D01*
X140145Y231174D01*
X140001Y230190D01*
X139929Y229198D01*
Y228203D01*
X140001Y227210D01*
X140145Y226226D01*
X140358Y225254D01*
X140642Y224300D01*
X140993Y223369D01*
X141411Y222466D01*
X141893Y221596D01*
X142436Y220762D01*
X143038Y219970D01*
X143696Y219224D01*
X144406Y218527D01*
X145164Y217883D01*
X145967Y217295D01*
X146810Y216767D01*
X147689Y216301D01*
X148600Y215899D01*
X149537Y215564D01*
X150495Y215298D01*
X151471Y215102D01*
X152458Y214977D01*
X153451Y214923D01*
X154446Y214941D01*
X155437Y215030D01*
X156419Y215191D01*
X157386Y215423D01*
X158335Y215723D01*
X159259Y216092D01*
X160154Y216526D01*
X161016Y217023D01*
X161840Y217581D01*
X162621Y218198D01*
X163355Y218869D01*
X164040Y219591D01*
X164670Y220361D01*
X165243Y221174D01*
X165756Y222027D01*
X166206Y222914D01*
X166591Y223832D01*
X166909Y224775D01*
X167157Y225738D01*
X167336Y226717D01*
X167444Y227706D01*
X167480Y228700D01*
X167470Y378777D02*
X167434Y379772D01*
X167326Y380761D01*
X167148Y381740D01*
X166899Y382703D01*
X166581Y383646D01*
X166196Y384563D01*
X165746Y385451D01*
X165233Y386303D01*
X164660Y387116D01*
X164030Y387886D01*
X163346Y388609D01*
X162611Y389280D01*
X161830Y389896D01*
X161006Y390454D01*
X160145Y390952D01*
X159249Y391386D01*
X158325Y391754D01*
X157377Y392055D01*
X156409Y392286D01*
X155427Y392447D01*
X154436Y392537D01*
X153441Y392555D01*
X152448Y392501D01*
X151461Y392375D01*
X150486Y392179D01*
X149527Y391913D01*
X148590Y391578D01*
X147679Y391177D01*
X146800Y390711D01*
X145957Y390182D01*
X145155Y389595D01*
X144396Y388951D01*
X143686Y388253D01*
X143029Y387507D01*
X142427Y386715D01*
X141883Y385881D01*
X141401Y385011D01*
X140983Y384108D01*
X140632Y383177D01*
X140349Y382224D01*
X140135Y381252D01*
X139991Y380267D01*
X139920Y379275D01*
Y378280D01*
X139991Y377288D01*
X140135Y376303D01*
X140349Y375331D01*
X140632Y374378D01*
X140983Y373447D01*
X141401Y372544D01*
X141883Y371673D01*
X142427Y370840D01*
X143029Y370048D01*
X143686Y369301D01*
X144396Y368604D01*
X145155Y367960D01*
X145957Y367372D01*
X146800Y366844D01*
X147679Y366378D01*
X148590Y365977D01*
X149527Y365642D01*
X150486Y365376D01*
X151461Y365179D01*
X152448Y365054D01*
X153441Y365000D01*
X154436Y365018D01*
X155427Y365108D01*
X156409Y365269D01*
X157377Y365500D01*
X158325Y365801D01*
X159249Y366169D01*
X160145Y366603D01*
X161006Y367100D01*
X161830Y367659D01*
X162611Y368275D01*
X163345Y368946D01*
X164030Y369669D01*
X164660Y370438D01*
X165233Y371252D01*
X165746Y372104D01*
X166196Y372991D01*
X166581Y373909D01*
X166899Y374852D01*
X167148Y375815D01*
X167326Y376794D01*
X167434Y377783D01*
X167470Y378777D01*
X242379Y153600D02*
X242344Y154594D01*
X242236Y155583D01*
X242057Y156562D01*
X241809Y157526D01*
X241491Y158468D01*
X241106Y159386D01*
X240656Y160273D01*
X240143Y161126D01*
X239570Y161939D01*
X238939Y162709D01*
X238255Y163431D01*
X237521Y164102D01*
X236740Y164719D01*
X235916Y165277D01*
X235054Y165774D01*
X234159Y166208D01*
X233235Y166577D01*
X232286Y166877D01*
X231319Y167109D01*
X230337Y167270D01*
X229346Y167359D01*
X228351Y167377D01*
X227358Y167323D01*
X226371Y167198D01*
X225395Y167002D01*
X224437Y166735D01*
X223500Y166401D01*
X222589Y165999D01*
X221710Y165533D01*
X220867Y165005D01*
X220064Y164417D01*
X219306Y163773D01*
X218596Y163076D01*
X217938Y162330D01*
X217336Y161538D01*
X216793Y160704D01*
X216311Y159834D01*
X215893Y158931D01*
X215542Y158000D01*
X215258Y157046D01*
X215044Y156074D01*
X214901Y155090D01*
X214829Y154097D01*
Y153103D01*
X214901Y152110D01*
X215044Y151126D01*
X215258Y150154D01*
X215542Y149200D01*
X215893Y148269D01*
X216311Y147366D01*
X216793Y146496D01*
X217336Y145662D01*
X217938Y144870D01*
X218596Y144124D01*
X219306Y143427D01*
X220064Y142783D01*
X220867Y142195D01*
X221710Y141667D01*
X222589Y141200D01*
X223500Y140799D01*
X224437Y140464D01*
X225395Y140198D01*
X226371Y140002D01*
X227358Y139877D01*
X228351Y139823D01*
X229346Y139841D01*
X230337Y139930D01*
X231319Y140091D01*
X232286Y140323D01*
X233235Y140623D01*
X234159Y140992D01*
X235054Y141426D01*
X235916Y141923D01*
X236740Y142481D01*
X237521Y143098D01*
X238255Y143769D01*
X238939Y144491D01*
X239570Y145261D01*
X240143Y146074D01*
X240656Y146927D01*
X241106Y147814D01*
X241491Y148732D01*
X241809Y149674D01*
X242057Y150638D01*
X242236Y151617D01*
X242344Y152606D01*
X242379Y153600D01*
X373737Y336963D02*
Y364522D01*
X313737Y336963D02*
X373737D01*
X313737D02*
Y364522D01*
X373737D01*
Y242963D02*
Y270522D01*
X313737Y242963D02*
X373737D01*
X313737D02*
Y270522D01*
X373737D01*
Y186962D02*
Y214522D01*
X313737Y186962D02*
X373737D01*
X313737D02*
Y214522D01*
X373737D01*
X186958Y83743D02*
X214517D01*
X186958D02*
Y143743D01*
X214517D01*
Y83743D02*
Y143743D01*
X92958Y83743D02*
X120517D01*
X92958D02*
Y143743D01*
X120517D01*
Y83743D02*
Y143743D01*
X313737Y120126D02*
X373737D01*
X313737Y92567D02*
Y120126D01*
Y92567D02*
X373737D01*
Y120126D01*
D11*
X306900Y154800D02*
Y159400D01*
X301100Y147300D02*
X306900D01*
Y152600D01*
X301100Y147300D02*
Y152600D01*
Y154800D02*
Y159400D01*
X301800Y160100D01*
X306200D01*
X306900Y159400D01*
X301100Y162100D02*
Y166700D01*
Y174200D02*
X306900D01*
X301100Y168900D02*
Y174200D01*
X306900Y168900D02*
Y174200D01*
Y162100D02*
Y166700D01*
X306200Y161400D02*
X306900Y162100D01*
X301800Y161400D02*
X306200D01*
X301100Y162100D02*
X301800Y161400D01*
X305900Y223600D02*
X311100D01*
X305900Y218000D02*
X311100D01*
X305900D02*
Y223600D01*
X318500Y218000D02*
Y223600D01*
X313300D02*
X318500D01*
X313300Y218000D02*
X318500D01*
X306700Y246900D02*
Y251500D01*
X300900Y239400D02*
X306700D01*
Y244700D01*
X300900Y239400D02*
Y244700D01*
Y246900D02*
Y251500D01*
X301600Y252200D01*
X306000D01*
X306700Y251500D01*
X306500Y286300D02*
Y290900D01*
X300700Y278800D02*
X306500D01*
Y284100D01*
X300700Y278800D02*
Y284100D01*
Y286300D02*
Y290900D01*
X301400Y291600D01*
X305800D01*
X306500Y290900D01*
X306900Y230500D02*
X310825D01*
X313975D02*
X317900D01*
X306900Y225100D02*
X310825D01*
X317900D02*
Y230500D01*
X306900Y225100D02*
Y230500D01*
X313975Y225100D02*
X317900D01*
X372400Y230800D02*
Y236000D01*
X366800Y230800D02*
Y236000D01*
X372400D01*
X366800Y223400D02*
X372400D01*
Y228600D01*
X366800Y223400D02*
Y228600D01*
X374200Y223900D02*
Y228500D01*
Y236000D02*
X380000D01*
X374200Y230700D02*
Y236000D01*
X380000Y230700D02*
Y236000D01*
Y223900D02*
Y228500D01*
X379300Y223200D02*
X380000Y223900D01*
X374900Y223200D02*
X379300D01*
X374200Y223900D02*
X374900Y223200D01*
D12*
X323521Y167522D02*
Y181226D01*
X358954Y167442D02*
Y181226D01*
X349111Y167442D02*
X358954D01*
X323521Y167522D02*
X333363D01*
Y163585D02*
Y167442D01*
X349111Y163585D02*
Y167442D01*
X333363Y163585D02*
X349111D01*
X313678Y126183D02*
X368796D01*
Y181301D01*
X313678D02*
X368796D01*
X313678Y126183D02*
Y181301D01*
Y276184D02*
Y331302D01*
X368796D01*
Y276184D02*
Y331302D01*
X313678Y276184D02*
X368796D01*
X333363Y313586D02*
X349111D01*
Y317443D01*
X333363Y313586D02*
Y317443D01*
X323521Y317523D02*
X333363D01*
X349111Y317443D02*
X358954D01*
Y331227D01*
X323521Y317523D02*
Y331227D01*
X173521Y355023D02*
Y368727D01*
X208954Y354943D02*
Y368727D01*
X199111Y354943D02*
X208954D01*
X173521Y355023D02*
X183363D01*
Y351086D02*
Y354943D01*
X199111Y351086D02*
Y354943D01*
X183363Y351086D02*
X199111D01*
X163678Y313684D02*
X218796D01*
Y368802D01*
X163678D02*
X218796D01*
X163678Y313684D02*
Y368802D01*
X98520Y280023D02*
Y293727D01*
X133954Y279943D02*
Y293727D01*
X124111Y279943D02*
X133954D01*
X98520Y280023D02*
X108363D01*
Y276086D02*
Y279943D01*
X124111Y276086D02*
Y279943D01*
X108363Y276086D02*
X124111D01*
X88678Y238684D02*
X143796D01*
Y293802D01*
X88678D02*
X143796D01*
X88678Y238684D02*
Y293802D01*
X173521Y280023D02*
Y293727D01*
X208954Y279943D02*
Y293727D01*
X199111Y279943D02*
X208954D01*
X173521Y280023D02*
X183363D01*
Y276086D02*
Y279943D01*
X199111Y276086D02*
Y279943D01*
X183363Y276086D02*
X199111D01*
X163678Y238684D02*
X218796D01*
Y293802D01*
X163678D02*
X218796D01*
X163678Y238684D02*
Y293802D01*
X248521Y130022D02*
Y143726D01*
X283954Y129943D02*
Y143726D01*
X274111Y129943D02*
X283954D01*
X248521Y130022D02*
X258363D01*
Y126085D02*
Y129943D01*
X274111Y126085D02*
Y129943D01*
X258363Y126085D02*
X274111D01*
X238678Y88683D02*
X293796D01*
Y143802D01*
X238678D02*
X293796D01*
X238678Y88683D02*
Y143802D01*
X173521Y205022D02*
Y218726D01*
X208954Y204942D02*
Y218726D01*
X199111Y204942D02*
X208954D01*
X173521Y205022D02*
X183363D01*
Y201085D02*
Y204942D01*
X199111Y201085D02*
Y204942D01*
X183363Y201085D02*
X199111D01*
X163678Y163683D02*
X218796D01*
Y218801D01*
X163678D02*
X218796D01*
X163678Y163683D02*
Y218801D01*
X248521Y280023D02*
Y293727D01*
X283954Y279943D02*
Y293727D01*
X274111Y279943D02*
X283954D01*
X248521Y280023D02*
X258363D01*
Y276086D02*
Y279943D01*
X274111Y276086D02*
Y279943D01*
X258363Y276086D02*
X274111D01*
X238678Y238684D02*
X293796D01*
Y293802D01*
X238678D02*
X293796D01*
X238678Y238684D02*
Y293802D01*
X238678Y388684D02*
Y443802D01*
X293796D01*
Y388684D02*
Y443802D01*
X238678Y388684D02*
X293796D01*
X258363Y426086D02*
X274111D01*
Y429943D01*
X258363Y426086D02*
Y429943D01*
X248521Y430023D02*
X258363D01*
X274111Y429943D02*
X283954D01*
Y443727D01*
X248521Y430023D02*
Y443727D01*
X98522Y430023D02*
Y443727D01*
X133955Y429943D02*
Y443727D01*
X124112Y429943D02*
X133955D01*
X98522Y430023D02*
X108364D01*
Y426086D02*
Y429943D01*
X124112Y426086D02*
Y429943D01*
X108364Y426086D02*
X124112D01*
X88679Y388684D02*
X143797D01*
Y443802D01*
X88679D02*
X143797D01*
X88679Y388684D02*
Y443802D01*
X163678Y388684D02*
Y443802D01*
X218796D01*
Y388684D02*
Y443802D01*
X163678Y388684D02*
X218796D01*
X183363Y426086D02*
X199111D01*
Y429943D01*
X183363Y426086D02*
Y429943D01*
X173521Y430023D02*
X183363D01*
X199111Y429943D02*
X208954D01*
Y443727D01*
X173521Y430023D02*
Y443727D01*
X136021Y130022D02*
Y143726D01*
X171454Y129943D02*
Y143726D01*
X161612Y129943D02*
X171454D01*
X136021Y130022D02*
X145864D01*
Y126085D02*
Y129943D01*
X161612Y126085D02*
Y129943D01*
X145864Y126085D02*
X161612D01*
X126179Y88683D02*
X181297D01*
Y143802D01*
X126179D02*
X181297D01*
X126179Y88683D02*
Y143802D01*
X313678Y388684D02*
Y443802D01*
X368796D01*
Y388684D02*
Y443802D01*
X313678Y388684D02*
X368796D01*
X333363Y426086D02*
X349111D01*
Y429943D01*
X333363Y426086D02*
Y429943D01*
X323521Y430023D02*
X333363D01*
X349111Y429943D02*
X358954D01*
Y443727D01*
X323521Y430023D02*
Y443727D01*
X238678Y313684D02*
Y368802D01*
X293796D01*
Y313684D02*
Y368802D01*
X238678Y313684D02*
X293796D01*
X258363Y351086D02*
X274111D01*
Y354943D01*
X258363Y351086D02*
Y354943D01*
X248521Y355023D02*
X258363D01*
X274111Y354943D02*
X283954D01*
Y368727D01*
X248521Y355023D02*
Y368727D01*
X88652Y313734D02*
Y368852D01*
X143771D01*
Y313734D02*
Y368852D01*
X88652Y313734D02*
X143771D01*
X108337Y351135D02*
X124085D01*
Y354993D01*
X108337Y351135D02*
Y354993D01*
X98495Y355072D02*
X108337D01*
X124085Y354993D02*
X133928D01*
Y368776D01*
X98495Y355072D02*
Y368776D01*
X238678Y163683D02*
Y218801D01*
X293796D01*
Y163683D02*
Y218801D01*
X238678Y163683D02*
X293796D01*
X258363Y201085D02*
X274111D01*
Y204942D01*
X258363Y201085D02*
Y204942D01*
X248521Y205022D02*
X258363D01*
X274111Y204942D02*
X283954D01*
Y218726D01*
X248521Y205022D02*
Y218726D01*
X88678Y163684D02*
Y218802D01*
X143796D01*
Y163684D02*
Y218802D01*
X88678Y163684D02*
X143796D01*
X108363Y201085D02*
X124111D01*
Y204943D01*
X108363Y201085D02*
Y204943D01*
X98520Y205022D02*
X108363D01*
X124111Y204943D02*
X133954D01*
Y218726D01*
X98520Y205022D02*
Y218726D01*
D13*
X302060Y257663D02*
X306194D01*
Y256482D02*
Y261600D01*
X302060Y256482D02*
Y261600D01*
X301760Y297063D02*
X305894D01*
Y295882D02*
Y301000D01*
X301760Y295882D02*
Y301000D01*
X301660Y326263D02*
X305794D01*
Y325082D02*
Y330200D01*
X301660Y325082D02*
Y330200D01*
X301633Y406537D02*
X305767D01*
X301633Y402600D02*
Y407718D01*
X305767Y402600D02*
Y407718D01*
X223037Y376633D02*
Y380767D01*
X219100D02*
X224218D01*
X219100Y376633D02*
X224218D01*
X302033Y139563D02*
X306167D01*
Y138382D02*
Y143500D01*
X302033Y138382D02*
Y143500D01*
X302133Y129337D02*
X306267D01*
X302133Y125400D02*
Y130518D01*
X306267Y125400D02*
Y130518D01*
X302033Y177882D02*
Y183000D01*
X306167Y177882D02*
Y183000D01*
X302033Y179063D02*
X306167D01*
X226867Y108000D02*
Y113118D01*
X222733Y108000D02*
Y113118D01*
Y111937D02*
X226867D01*
X151860Y175082D02*
Y180200D01*
X155994Y175082D02*
Y180200D01*
X151860Y176263D02*
X155994D01*
X230567Y177600D02*
Y182718D01*
X226433Y177600D02*
Y182718D01*
Y181537D02*
X230567D01*
X217482Y230967D02*
X222600D01*
X217482Y226833D02*
X222600D01*
X218663D02*
Y230967D01*
X155967Y251100D02*
Y256218D01*
X151833Y251100D02*
Y256218D01*
Y255037D02*
X155967D01*
X301533Y413782D02*
Y418900D01*
X305667Y413782D02*
Y418900D01*
X301533Y414963D02*
X305667D01*
X229667Y329600D02*
Y334718D01*
X225533Y329600D02*
Y334718D01*
Y333537D02*
X229667D01*
X151833Y325182D02*
Y330300D01*
X155967Y325182D02*
Y330300D01*
X151833Y326363D02*
X155967D01*
D14*
X375900Y184200D02*
X384900D01*
X375900Y124188D02*
Y184200D01*
Y124188D02*
X384900D01*
Y184200D01*
D15*
X375800Y187400D02*
Y191399D01*
X377799D01*
X378466Y190732D01*
Y189399D01*
X377799Y188733D01*
X375800D01*
X379799Y187400D02*
X381132D01*
X380465D01*
Y191399D01*
X379799Y190732D01*
X92168Y451833D02*
X91502Y452499D01*
X90169D01*
X89502Y451833D01*
Y451166D01*
X90169Y450500D01*
X91502D01*
X92168Y449834D01*
Y449167D01*
X91502Y448501D01*
X90169D01*
X89502Y449167D01*
X93501Y452499D02*
Y448501D01*
X94834Y449834D01*
X96167Y448501D01*
Y452499D01*
X97500Y448501D02*
X98833D01*
X98166D01*
Y452499D01*
X97500Y451833D01*
X100832Y452499D02*
X103498D01*
Y451833D01*
X100832Y449167D01*
Y448501D01*
X316268Y185433D02*
X315602Y186099D01*
X314269D01*
X313602Y185433D01*
Y184766D01*
X314269Y184100D01*
X315602D01*
X316268Y183433D01*
Y182767D01*
X315602Y182101D01*
X314269D01*
X313602Y182767D01*
X317601Y186099D02*
Y182101D01*
X318934Y183433D01*
X320267Y182101D01*
Y186099D01*
X321600Y182101D02*
X322933D01*
X322266D01*
Y186099D01*
X321600Y185433D01*
X327598Y186099D02*
X326265Y185433D01*
X324932Y184100D01*
Y182767D01*
X325598Y182101D01*
X326931D01*
X327598Y182767D01*
Y183433D01*
X326931Y184100D01*
X324932D01*
X248268Y155733D02*
X247602Y156399D01*
X246269D01*
X245602Y155733D01*
Y155067D01*
X246269Y154400D01*
X247602D01*
X248268Y153734D01*
Y153067D01*
X247602Y152401D01*
X246269D01*
X245602Y153067D01*
X249601Y156399D02*
Y152401D01*
X250934Y153734D01*
X252267Y152401D01*
Y156399D01*
X253600Y152401D02*
X254933D01*
X254266D01*
Y156399D01*
X253600Y155733D01*
X259598Y156399D02*
X256932D01*
Y154400D01*
X258265Y155067D01*
X258931D01*
X259598Y154400D01*
Y153067D01*
X258931Y152401D01*
X257598D01*
X256932Y153067D01*
X121666Y157732D02*
X120999Y158399D01*
X119667D01*
X119000Y157732D01*
Y157066D01*
X119667Y156399D01*
X120999D01*
X121666Y155733D01*
Y155067D01*
X120999Y154400D01*
X119667D01*
X119000Y155067D01*
X122999Y158399D02*
Y154400D01*
X124332Y155733D01*
X125664Y154400D01*
Y158399D01*
X126997Y154400D02*
X128330D01*
X127664D01*
Y158399D01*
X126997Y157732D01*
X132329Y154400D02*
Y158399D01*
X130330Y156399D01*
X132995D01*
X84166Y232732D02*
X83499Y233399D01*
X82166D01*
X81500Y232732D01*
Y232066D01*
X82166Y231399D01*
X83499D01*
X84166Y230733D01*
Y230066D01*
X83499Y229400D01*
X82166D01*
X81500Y230066D01*
X85499Y233399D02*
Y229400D01*
X86832Y230733D01*
X88165Y229400D01*
Y233399D01*
X89497Y229400D02*
X90830D01*
X90164D01*
Y233399D01*
X89497Y232732D01*
X92830D02*
X93496Y233399D01*
X94829D01*
X95495Y232732D01*
Y232066D01*
X94829Y231399D01*
X94163D01*
X94829D01*
X95495Y230733D01*
Y230066D01*
X94829Y229400D01*
X93496D01*
X92830Y230066D01*
X234166Y232732D02*
X233499Y233399D01*
X232166D01*
X231500Y232732D01*
Y232066D01*
X232166Y231399D01*
X233499D01*
X234166Y230733D01*
Y230066D01*
X233499Y229400D01*
X232166D01*
X231500Y230066D01*
X235499Y233399D02*
Y229400D01*
X236832Y230733D01*
X238164Y229400D01*
Y233399D01*
X239497Y229400D02*
X240830D01*
X240164D01*
Y233399D01*
X239497Y232732D01*
X245496Y229400D02*
X242830D01*
X245496Y232066D01*
Y232732D01*
X244829Y233399D01*
X243496D01*
X242830Y232732D01*
X174335Y230533D02*
X173668Y231199D01*
X172335D01*
X171669Y230533D01*
Y229866D01*
X172335Y229200D01*
X173668D01*
X174335Y228534D01*
Y227867D01*
X173668Y227201D01*
X172335D01*
X171669Y227867D01*
X175667Y231199D02*
Y227201D01*
X177000Y228534D01*
X178333Y227201D01*
Y231199D01*
X179666Y227201D02*
X180999D01*
X180333D01*
Y231199D01*
X179666Y230533D01*
X182998Y227201D02*
X184331D01*
X183665D01*
Y231199D01*
X182998Y230533D01*
X158568Y304633D02*
X157902Y305299D01*
X156569D01*
X155902Y304633D01*
Y303966D01*
X156569Y303300D01*
X157902D01*
X158568Y302634D01*
Y301967D01*
X157902Y301301D01*
X156569D01*
X155902Y301967D01*
X159901Y305299D02*
Y301301D01*
X161234Y302634D01*
X162567Y301301D01*
Y305299D01*
X163900Y301301D02*
X165233D01*
X164566D01*
Y305299D01*
X163900Y304633D01*
X167232D02*
X167898Y305299D01*
X169231D01*
X169898Y304633D01*
Y301967D01*
X169231Y301301D01*
X167898D01*
X167232Y301967D01*
Y304633D01*
X85734Y304733D02*
X85068Y305399D01*
X83735D01*
X83068Y304733D01*
Y304066D01*
X83735Y303400D01*
X85068D01*
X85734Y302734D01*
Y302067D01*
X85068Y301401D01*
X83735D01*
X83068Y302067D01*
X87067Y305399D02*
Y301401D01*
X88400Y302734D01*
X89733Y301401D01*
Y305399D01*
X91066Y302067D02*
X91732Y301401D01*
X93065D01*
X93732Y302067D01*
Y304733D01*
X93065Y305399D01*
X91732D01*
X91066Y304733D01*
Y304066D01*
X91732Y303400D01*
X93732D01*
X239534Y304933D02*
X238868Y305599D01*
X237535D01*
X236868Y304933D01*
Y304266D01*
X237535Y303600D01*
X238868D01*
X239534Y302934D01*
Y302267D01*
X238868Y301601D01*
X237535D01*
X236868Y302267D01*
X240867Y305599D02*
Y301601D01*
X242200Y302934D01*
X243533Y301601D01*
Y305599D01*
X244866Y304933D02*
X245532Y305599D01*
X246865D01*
X247532Y304933D01*
Y304266D01*
X246865Y303600D01*
X247532Y302934D01*
Y302267D01*
X246865Y301601D01*
X245532D01*
X244866Y302267D01*
Y302934D01*
X245532Y303600D01*
X244866Y304266D01*
Y304933D01*
X245532Y303600D02*
X246865D01*
X234166Y382732D02*
X233499Y383399D01*
X232166D01*
X231500Y382732D01*
Y382066D01*
X232166Y381399D01*
X233499D01*
X234166Y380733D01*
Y380066D01*
X233499Y379400D01*
X232166D01*
X231500Y380066D01*
X235499Y383399D02*
Y379400D01*
X236832Y380733D01*
X238164Y379400D01*
Y383399D01*
X239497D02*
X242163D01*
Y382732D01*
X239497Y380066D01*
Y379400D01*
X167634Y380433D02*
X166968Y381099D01*
X165635D01*
X164968Y380433D01*
Y379766D01*
X165635Y379100D01*
X166968D01*
X167634Y378434D01*
Y377767D01*
X166968Y377101D01*
X165635D01*
X164968Y377767D01*
X168967Y381099D02*
Y377101D01*
X170300Y378434D01*
X171633Y377101D01*
Y381099D01*
X175632D02*
X174299Y380433D01*
X172966Y379100D01*
Y377767D01*
X173632Y377101D01*
X174965D01*
X175632Y377767D01*
Y378434D01*
X174965Y379100D01*
X172966D01*
X84166Y382832D02*
X83499Y383499D01*
X82166D01*
X81500Y382832D01*
Y382166D01*
X82166Y381499D01*
X83499D01*
X84166Y380833D01*
Y380166D01*
X83499Y379500D01*
X82166D01*
X81500Y380166D01*
X85499Y383499D02*
Y379500D01*
X86832Y380833D01*
X88165Y379500D01*
Y383499D01*
X92163D02*
X89497D01*
Y381499D01*
X90830Y382166D01*
X91497D01*
X92163Y381499D01*
Y380166D01*
X91497Y379500D01*
X90164D01*
X89497Y380166D01*
X309434Y335533D02*
X308768Y336199D01*
X307435D01*
X306768Y335533D01*
Y334866D01*
X307435Y334200D01*
X308768D01*
X309434Y333534D01*
Y332867D01*
X308768Y332201D01*
X307435D01*
X306768Y332867D01*
X310767Y336199D02*
Y332201D01*
X312100Y333534D01*
X313433Y332201D01*
Y336199D01*
X316765Y332201D02*
Y336199D01*
X314766Y334200D01*
X317432D01*
X309166Y457732D02*
X308499Y458399D01*
X307166D01*
X306500Y457732D01*
Y457066D01*
X307166Y456399D01*
X308499D01*
X309166Y455733D01*
Y455066D01*
X308499Y454400D01*
X307166D01*
X306500Y455066D01*
X310499Y458399D02*
Y454400D01*
X311832Y455733D01*
X313164Y454400D01*
Y458399D01*
X314497Y457732D02*
X315164Y458399D01*
X316497D01*
X317163Y457732D01*
Y457066D01*
X316497Y456399D01*
X315830D01*
X316497D01*
X317163Y455733D01*
Y455066D01*
X316497Y454400D01*
X315164D01*
X314497Y455066D01*
X264234Y452633D02*
X263568Y453299D01*
X262235D01*
X261568Y452633D01*
Y451966D01*
X262235Y451300D01*
X263568D01*
X264234Y450634D01*
Y449967D01*
X263568Y449301D01*
X262235D01*
X261568Y449967D01*
X265567Y453299D02*
Y449301D01*
X266900Y450634D01*
X268233Y449301D01*
Y453299D01*
X272232Y449301D02*
X269566D01*
X272232Y451966D01*
Y452633D01*
X271565Y453299D01*
X270232D01*
X269566Y452633D01*
X163201Y455233D02*
X162534Y455899D01*
X161201D01*
X160535Y455233D01*
Y454566D01*
X161201Y453900D01*
X162534D01*
X163201Y453234D01*
Y452567D01*
X162534Y451901D01*
X161201D01*
X160535Y452567D01*
X164533Y455899D02*
Y451901D01*
X165866Y453234D01*
X167199Y451901D01*
Y455899D01*
X168532Y451901D02*
X169865D01*
X169199D01*
Y455899D01*
X168532Y455233D01*
X296768Y218501D02*
Y222499D01*
X298767D01*
X299434Y221833D01*
Y220500D01*
X298767Y219834D01*
X296768D01*
X298101D02*
X299434Y218501D01*
X303432Y222499D02*
X302099Y221833D01*
X300766Y220500D01*
Y219167D01*
X301433Y218501D01*
X302766D01*
X303432Y219167D01*
Y219834D01*
X302766Y220500D01*
X300766D01*
X360668Y237401D02*
Y241399D01*
X362667D01*
X363334Y240733D01*
Y239400D01*
X362667Y238734D01*
X360668D01*
X362001D02*
X363334Y237401D01*
X367332Y241399D02*
X364667D01*
Y239400D01*
X365999Y240066D01*
X366666D01*
X367332Y239400D01*
Y238067D01*
X366666Y237401D01*
X365333D01*
X364667Y238067D01*
X281936Y230133D02*
X281270Y230799D01*
X279937D01*
X279270Y230133D01*
Y229466D01*
X279937Y228800D01*
X281270D01*
X281936Y228134D01*
Y227467D01*
X281270Y226801D01*
X279937D01*
X279270Y227467D01*
X283269Y230799D02*
Y230133D01*
X284602Y228800D01*
X285935Y230133D01*
Y230799D01*
X284602Y228800D02*
Y226801D01*
X289934Y230133D02*
X289267Y230799D01*
X287934D01*
X287268Y230133D01*
Y229466D01*
X287934Y228800D01*
X289267D01*
X289934Y228134D01*
Y227467D01*
X289267Y226801D01*
X287934D01*
X287268Y227467D01*
X291266Y230799D02*
X293932D01*
X292599D01*
Y226801D01*
X297931Y230799D02*
X295265D01*
Y226801D01*
X297931D01*
X295265Y228800D02*
X296598D01*
X299264Y226801D02*
Y230799D01*
X300597Y229466D01*
X301930Y230799D01*
Y226801D01*
X300599Y145398D02*
X296601D01*
Y143399D01*
X297267Y142733D01*
X299933D01*
X300599Y143399D01*
Y145398D01*
X296601Y141400D02*
Y140067D01*
Y140733D01*
X300599D01*
X299933Y141400D01*
X300599Y135402D02*
X299933Y136734D01*
X298600Y138067D01*
X297267D01*
X296601Y137401D01*
Y136068D01*
X297267Y135402D01*
X297934D01*
X298600Y136068D01*
Y138067D01*
X299102Y120599D02*
Y116601D01*
X301101D01*
X301767Y117267D01*
Y119933D01*
X301101Y120599D01*
X299102D01*
X303100Y116601D02*
X304433D01*
X303767D01*
Y120599D01*
X303100Y119933D01*
X309098Y120599D02*
X306433D01*
Y118600D01*
X307766Y119266D01*
X308432D01*
X309098Y118600D01*
Y117267D01*
X308432Y116601D01*
X307099D01*
X306433Y117267D01*
X223282Y122277D02*
Y118278D01*
X225281D01*
X225948Y118944D01*
Y121610D01*
X225281Y122277D01*
X223282D01*
X227281Y118278D02*
X228614D01*
X227947D01*
Y122277D01*
X227281Y121610D01*
X232612Y118278D02*
Y122277D01*
X230613Y120277D01*
X233279D01*
X152500Y189499D02*
Y185500D01*
X154499D01*
X155166Y186167D01*
Y188832D01*
X154499Y189499D01*
X152500D01*
X156499Y185500D02*
X157832D01*
X157165D01*
Y189499D01*
X156499Y188832D01*
X159831D02*
X160497Y189499D01*
X161830D01*
X162497Y188832D01*
Y188166D01*
X161830Y187499D01*
X161164D01*
X161830D01*
X162497Y186833D01*
Y186167D01*
X161830Y185500D01*
X160497D01*
X159831Y186167D01*
X299899Y179498D02*
X295901D01*
Y177499D01*
X296567Y176833D01*
X299233D01*
X299899Y177499D01*
Y179498D01*
X295901Y175500D02*
Y174167D01*
Y174833D01*
X299899D01*
X299233Y175500D01*
X295901Y169502D02*
Y172167D01*
X298566Y169502D01*
X299233D01*
X299899Y170168D01*
Y171501D01*
X299233Y172167D01*
X227027Y191899D02*
Y187900D01*
X229026D01*
X229693Y188567D01*
Y191232D01*
X229026Y191899D01*
X227027D01*
X231026Y187900D02*
X232358D01*
X231692D01*
Y191899D01*
X231026Y191232D01*
X234358Y187900D02*
X235691D01*
X235024D01*
Y191899D01*
X234358Y191232D01*
X215700Y237799D02*
Y233800D01*
X217699D01*
X218366Y234466D01*
Y237132D01*
X217699Y237799D01*
X215700D01*
X219699Y233800D02*
X221032D01*
X220365D01*
Y237799D01*
X219699Y237132D01*
X223031D02*
X223697Y237799D01*
X225030D01*
X225697Y237132D01*
Y234466D01*
X225030Y233800D01*
X223697D01*
X223031Y234466D01*
Y237132D01*
X152400Y265399D02*
Y261400D01*
X154399D01*
X155066Y262066D01*
Y264732D01*
X154399Y265399D01*
X152400D01*
X156399Y262066D02*
X157065Y261400D01*
X158398D01*
X159064Y262066D01*
Y264732D01*
X158398Y265399D01*
X157065D01*
X156399Y264732D01*
Y264066D01*
X157065Y263399D01*
X159064D01*
X300968Y269999D02*
Y266001D01*
X302967D01*
X303634Y266667D01*
Y269333D01*
X302967Y269999D01*
X300968D01*
X304966Y269333D02*
X305633Y269999D01*
X306966D01*
X307632Y269333D01*
Y268666D01*
X306966Y268000D01*
X307632Y267334D01*
Y266667D01*
X306966Y266001D01*
X305633D01*
X304966Y266667D01*
Y267334D01*
X305633Y268000D01*
X304966Y268666D01*
Y269333D01*
X305633Y268000D02*
X306966D01*
X294568Y324699D02*
Y320701D01*
X296567D01*
X297234Y321367D01*
Y324033D01*
X296567Y324699D01*
X294568D01*
X298567D02*
X301232D01*
Y324033D01*
X298567Y321367D01*
Y320701D01*
X226162Y343879D02*
Y339880D01*
X228161D01*
X228827Y340546D01*
Y343212D01*
X228161Y343879D01*
X226162D01*
X232826D02*
X231493Y343212D01*
X230160Y341879D01*
Y340546D01*
X230827Y339880D01*
X232160D01*
X232826Y340546D01*
Y341213D01*
X232160Y341879D01*
X230160D01*
X152473Y339599D02*
Y335600D01*
X154473D01*
X155139Y336266D01*
Y338932D01*
X154473Y339599D01*
X152473D01*
X159138D02*
X156472D01*
Y337599D01*
X157805Y338266D01*
X158471D01*
X159138Y337599D01*
Y336266D01*
X158471Y335600D01*
X157138D01*
X156472Y336266D01*
X301468Y309099D02*
Y305101D01*
X303467D01*
X304134Y305767D01*
Y308433D01*
X303467Y309099D01*
X301468D01*
X307466Y305101D02*
Y309099D01*
X305467Y307100D01*
X308132D01*
X302100Y428199D02*
Y424200D01*
X304099D01*
X304766Y424866D01*
Y427532D01*
X304099Y428199D01*
X302100D01*
X306099Y427532D02*
X306765Y428199D01*
X308098D01*
X308765Y427532D01*
Y426866D01*
X308098Y426199D01*
X307432D01*
X308098D01*
X308765Y425533D01*
Y424866D01*
X308098Y424200D01*
X306765D01*
X306099Y424866D01*
X307568Y408199D02*
Y404201D01*
X309567D01*
X310234Y404867D01*
Y407533D01*
X309567Y408199D01*
X307568D01*
X314232Y404201D02*
X311566D01*
X314232Y406866D01*
Y407533D01*
X313566Y408199D01*
X312233D01*
X311566Y407533D01*
X221034Y386899D02*
Y382901D01*
X223034D01*
X223700Y383567D01*
Y386233D01*
X223034Y386899D01*
X221034D01*
X225033Y382901D02*
X226366D01*
X225699D01*
Y386899D01*
X225033Y386233D01*
X311433Y155299D02*
X312099Y155966D01*
Y157299D01*
X311433Y157965D01*
X308767D01*
X308101Y157299D01*
Y155966D01*
X308767Y155299D01*
X308101Y151301D02*
Y153966D01*
X310766Y151301D01*
X311433D01*
X312099Y151967D01*
Y153300D01*
X311433Y153966D01*
X308101Y149968D02*
Y148635D01*
Y149301D01*
X312099D01*
X311433Y149968D01*
X311833Y171066D02*
X312499Y171732D01*
Y173065D01*
X311833Y173732D01*
X309167D01*
X308501Y173065D01*
Y171732D01*
X309167Y171066D01*
X308501Y167067D02*
Y169733D01*
X311166Y167067D01*
X311833D01*
X312499Y167734D01*
Y169067D01*
X311833Y169733D01*
Y165734D02*
X312499Y165068D01*
Y163735D01*
X311833Y163068D01*
X309167D01*
X308501Y163735D01*
Y165068D01*
X309167Y165734D01*
X311833D01*
X299333Y247433D02*
X299999Y248099D01*
Y249432D01*
X299333Y250098D01*
X296667D01*
X296001Y249432D01*
Y248099D01*
X296667Y247433D01*
X296001Y246100D02*
Y244767D01*
Y245433D01*
X299999D01*
X299333Y246100D01*
X296667Y242767D02*
X296001Y242101D01*
Y240768D01*
X296667Y240102D01*
X299333D01*
X299999Y240768D01*
Y242101D01*
X299333Y242767D01*
X298666D01*
X298000Y242101D01*
Y240102D01*
X311033Y292533D02*
X311699Y293199D01*
Y294532D01*
X311033Y295198D01*
X308367D01*
X307701Y294532D01*
Y293199D01*
X308367Y292533D01*
X307701Y291200D02*
Y289867D01*
Y290533D01*
X311699D01*
X311033Y291200D01*
Y287867D02*
X311699Y287201D01*
Y285868D01*
X311033Y285202D01*
X310366D01*
X309700Y285868D01*
X309034Y285202D01*
X308367D01*
X307701Y285868D01*
Y287201D01*
X308367Y287867D01*
X309034D01*
X309700Y287201D01*
X310366Y287867D01*
X311033D01*
X309700Y287201D02*
Y285868D01*
X377067Y241333D02*
X376401Y241999D01*
X375068D01*
X374402Y241333D01*
Y238667D01*
X375068Y238001D01*
X376401D01*
X377067Y238667D01*
X378400Y238001D02*
X379733D01*
X379067D01*
Y241999D01*
X378400Y241333D01*
X381733Y241999D02*
X384398D01*
Y241333D01*
X381733Y238667D01*
Y238001D01*
D16*
X318997Y227800D02*
D03*
M02*
