G04*
G04 #@! TF.GenerationSoftware,Altium Limited,Altium Designer,20.1.8 (145)*
G04*
G04 Layer_Color=8388736*
%FSLAX25Y25*%
%MOIN*%
G70*
G04*
G04 #@! TF.SameCoordinates,F81AAEC3-6A38-4882-98ED-ECA9077A9C2D*
G04*
G04*
G04 #@! TF.FilePolarity,Negative*
G04*
G01*
G75*
%ADD22R,0.26500X0.19900*%
%ADD23R,0.04737X0.05131*%
%ADD24R,0.05131X0.04737*%
%ADD25R,0.04343X0.03556*%
%ADD26R,0.03556X0.04343*%
%ADD27R,0.03556X0.04737*%
%ADD28C,0.07887*%
%ADD29C,0.12611*%
%ADD30C,0.16800*%
%ADD31R,0.07887X0.10642*%
%ADD32O,0.07887X0.10642*%
%ADD33O,0.04737X0.07099*%
%ADD34O,0.04737X0.09068*%
%ADD35C,0.03398*%
%ADD36C,0.07099*%
%ADD37C,0.08674*%
%ADD38C,0.00800*%
%ADD39R,0.07099X0.07099*%
D22*
X111950Y442950D02*
D03*
D23*
X304000Y157046D02*
D03*
Y150354D02*
D03*
Y164453D02*
D03*
Y171147D02*
D03*
X303800Y249147D02*
D03*
Y242454D02*
D03*
X303600Y288546D02*
D03*
Y281854D02*
D03*
X369600Y233047D02*
D03*
Y226354D02*
D03*
X377100Y226254D02*
D03*
Y232946D02*
D03*
D24*
X308854Y220800D02*
D03*
X315546D02*
D03*
D25*
X304127Y262400D02*
D03*
Y255800D02*
D03*
X303827Y301800D02*
D03*
Y295200D02*
D03*
X303727Y331000D02*
D03*
Y324400D02*
D03*
X303700Y401800D02*
D03*
Y408400D02*
D03*
X304100Y144300D02*
D03*
Y137700D02*
D03*
X304200Y124600D02*
D03*
Y131200D02*
D03*
X304100Y177200D02*
D03*
Y183800D02*
D03*
X224800Y113800D02*
D03*
Y107200D02*
D03*
X153927Y174400D02*
D03*
Y181000D02*
D03*
X228500Y183400D02*
D03*
Y176800D02*
D03*
X153900Y256900D02*
D03*
Y250300D02*
D03*
X303600Y413100D02*
D03*
Y419700D02*
D03*
X227600Y335400D02*
D03*
Y328800D02*
D03*
X153900Y324500D02*
D03*
Y331100D02*
D03*
D26*
X218300Y378700D02*
D03*
X224900D02*
D03*
X216800Y228900D02*
D03*
X223400D02*
D03*
D27*
X309053Y227799D02*
D03*
X315746D02*
D03*
D28*
X321237Y153742D02*
D03*
X361237D02*
D03*
Y303743D02*
D03*
X321237D02*
D03*
X171237Y341243D02*
D03*
X211237D02*
D03*
X96237Y266243D02*
D03*
X136237D02*
D03*
X171237D02*
D03*
X211237D02*
D03*
X246237Y116243D02*
D03*
X286237D02*
D03*
X171237Y191242D02*
D03*
X211237D02*
D03*
X246237Y266243D02*
D03*
X286237D02*
D03*
X286237Y416243D02*
D03*
X246237D02*
D03*
X96238D02*
D03*
X136238D02*
D03*
X211237D02*
D03*
X171237D02*
D03*
X133738Y116243D02*
D03*
X173738D02*
D03*
X361237Y416243D02*
D03*
X321237D02*
D03*
X286237Y341243D02*
D03*
X246237D02*
D03*
X136211Y341293D02*
D03*
X96211D02*
D03*
X286237Y191242D02*
D03*
X246237D02*
D03*
X136237Y191243D02*
D03*
X96237D02*
D03*
D29*
X331237Y133742D02*
D03*
X356237Y143742D02*
D03*
Y293743D02*
D03*
X331237Y283743D02*
D03*
X181237Y321243D02*
D03*
X206237Y331243D02*
D03*
X106237Y246243D02*
D03*
X131237Y256243D02*
D03*
X181237Y246243D02*
D03*
X206237Y256243D02*
D03*
X256237Y96242D02*
D03*
X281237Y106243D02*
D03*
X181237Y171242D02*
D03*
X206237Y181242D02*
D03*
X256237Y246243D02*
D03*
X281237Y256243D02*
D03*
X281237Y406243D02*
D03*
X256237Y396243D02*
D03*
X106238D02*
D03*
X131238Y406243D02*
D03*
X206237D02*
D03*
X181237Y396243D02*
D03*
X143738Y96242D02*
D03*
X168738Y106243D02*
D03*
X356237Y406243D02*
D03*
X331237Y396243D02*
D03*
X281237Y331243D02*
D03*
X256237Y321243D02*
D03*
X131211Y331293D02*
D03*
X106211Y321293D02*
D03*
X281237Y181242D02*
D03*
X256237Y171242D02*
D03*
X131237Y181243D02*
D03*
X106237Y171243D02*
D03*
D30*
X341237Y153742D02*
D03*
Y303743D02*
D03*
X191237Y341243D02*
D03*
X116237Y266243D02*
D03*
X191237D02*
D03*
X266237Y116243D02*
D03*
X191237Y191242D02*
D03*
X266237Y266243D02*
D03*
X266237Y416243D02*
D03*
X116238D02*
D03*
X191237D02*
D03*
X153738Y116243D02*
D03*
X341237Y416243D02*
D03*
X266237Y341243D02*
D03*
X116211Y341293D02*
D03*
X266237Y191242D02*
D03*
X116237Y191243D02*
D03*
D31*
X128400Y375300D02*
D03*
D32*
X118400D02*
D03*
D33*
X245716Y457400D02*
D03*
X211700D02*
D03*
D34*
X245716Y440943D02*
D03*
X211700D02*
D03*
D35*
X240086Y442912D02*
D03*
X217330D02*
D03*
D36*
X380400Y149700D02*
D03*
X380400Y139700D02*
D03*
X380400Y159700D02*
D03*
Y169700D02*
D03*
Y129700D02*
D03*
D37*
X153690Y378777D02*
D03*
X153700Y228700D02*
D03*
X228600Y153600D02*
D03*
D38*
X313737Y350743D02*
D03*
X373737Y256743D02*
D03*
X313737D02*
D03*
X373737Y350743D02*
D03*
X313737Y200742D02*
D03*
X373737Y106742D02*
D03*
X313737D02*
D03*
X373737Y200742D02*
D03*
X200737Y83743D02*
D03*
X106737Y143743D02*
D03*
Y83743D02*
D03*
X200737Y143743D02*
D03*
D39*
X380400Y179700D02*
D03*
M02*
