G04*
G04 #@! TF.GenerationSoftware,Altium Limited,Altium Designer,20.1.8 (145)*
G04*
G04 Layer_Color=8421504*
%FSLAX25Y25*%
%MOIN*%
G70*
G04*
G04 #@! TF.SameCoordinates,F81AAEC3-6A38-4882-98ED-ECA9077A9C2D*
G04*
G04*
G04 #@! TF.FilePolarity,Positive*
G04*
G01*
G75*
%ADD17R,0.03937X0.04331*%
%ADD18R,0.04331X0.03937*%
%ADD19R,0.03543X0.02756*%
%ADD20R,0.02756X0.03543*%
%ADD21R,0.02756X0.03937*%
D17*
X304000Y157046D02*
D03*
Y150354D02*
D03*
Y164453D02*
D03*
Y171147D02*
D03*
X303800Y249147D02*
D03*
Y242454D02*
D03*
X303600Y288546D02*
D03*
Y281854D02*
D03*
X369600Y233047D02*
D03*
Y226354D02*
D03*
X377100Y226254D02*
D03*
Y232946D02*
D03*
D18*
X308854Y220800D02*
D03*
X315546D02*
D03*
D19*
X304127Y262400D02*
D03*
Y255800D02*
D03*
X303827Y301800D02*
D03*
Y295200D02*
D03*
X303727Y331000D02*
D03*
Y324400D02*
D03*
X303700Y401800D02*
D03*
Y408400D02*
D03*
X304100Y144300D02*
D03*
Y137700D02*
D03*
X304200Y124600D02*
D03*
Y131200D02*
D03*
X304100Y177200D02*
D03*
Y183800D02*
D03*
X224800Y113800D02*
D03*
Y107200D02*
D03*
X153927Y174400D02*
D03*
Y181000D02*
D03*
X228500Y183400D02*
D03*
Y176800D02*
D03*
X153900Y256900D02*
D03*
Y250300D02*
D03*
X303600Y413100D02*
D03*
Y419700D02*
D03*
X227600Y335400D02*
D03*
Y328800D02*
D03*
X153900Y324500D02*
D03*
Y331100D02*
D03*
D20*
X218300Y378700D02*
D03*
X224900D02*
D03*
X216800Y228900D02*
D03*
X223400D02*
D03*
D21*
X309053Y227799D02*
D03*
X315746D02*
D03*
M02*
