G04*
G04 #@! TF.GenerationSoftware,Altium Limited,Altium Designer,20.1.8 (145)*
G04*
G04 Layer_Color=2752767*
%FSLAX25Y25*%
%MOIN*%
G70*
G04*
G04 #@! TF.SameCoordinates,F81AAEC3-6A38-4882-98ED-ECA9077A9C2D*
G04*
G04*
G04 #@! TF.FilePolarity,Positive*
G04*
G01*
G75*
%ADD129C,0.00200*%
%ADD130C,0.00267*%
%ADD131C,0.00133*%
D129*
X320437Y152942D02*
Y154542D01*
X322037D01*
Y152942D01*
X320437D01*
X360437D02*
Y154542D01*
X362037D01*
Y152942D01*
X360437D01*
X341237D02*
X340437Y154542D01*
X342037D01*
X341237Y152942D01*
Y302943D02*
X340437Y304543D01*
X342037D01*
X341237Y302943D01*
X360437D02*
Y304543D01*
X362037D01*
Y302943D01*
X360437D01*
X320437D02*
Y304543D01*
X322037D01*
Y302943D01*
X320437D01*
X170437Y340443D02*
Y342043D01*
X172037D01*
Y340443D01*
X170437D01*
X210437D02*
Y342043D01*
X212037D01*
Y340443D01*
X210437D01*
X191237D02*
X190437Y342043D01*
X192037D01*
X191237Y340443D01*
X95437Y265443D02*
Y267043D01*
X97037D01*
Y265443D01*
X95437D01*
X135437D02*
Y267043D01*
X137037D01*
Y265443D01*
X135437D01*
X116237D02*
X115437Y267043D01*
X117037D01*
X116237Y265443D01*
X170437D02*
Y267043D01*
X172037D01*
Y265443D01*
X170437D01*
X210437D02*
Y267043D01*
X212037D01*
Y265443D01*
X210437D01*
X191237D02*
X190437Y267043D01*
X192037D01*
X191237Y265443D01*
X245437Y115443D02*
Y117043D01*
X247037D01*
Y115443D01*
X245437D01*
X285437D02*
Y117043D01*
X287037D01*
Y115443D01*
X285437D01*
X266237D02*
X265437Y117043D01*
X267037D01*
X266237Y115443D01*
X170437Y190442D02*
Y192042D01*
X172037D01*
Y190442D01*
X170437D01*
X210437D02*
Y192042D01*
X212037D01*
Y190442D01*
X210437D01*
X191237D02*
X190437Y192042D01*
X192037D01*
X191237Y190442D01*
X245437Y265443D02*
Y267043D01*
X247037D01*
Y265443D01*
X245437D01*
X285437D02*
Y267043D01*
X287037D01*
Y265443D01*
X285437D01*
X266237D02*
X265437Y267043D01*
X267037D01*
X266237Y265443D01*
X128400Y374500D02*
X128800Y374900D01*
X129200D01*
X128800Y375300D01*
X129200Y375700D01*
X128800D01*
X128400Y376100D01*
X128000Y375700D01*
X127600D01*
X128000Y375300D01*
X127600Y374900D01*
X128000D01*
X128400Y374500D01*
X118400D02*
X118800Y374900D01*
X119200D01*
X118800Y375300D01*
X119200Y375700D01*
X118800D01*
X118400Y376100D01*
X118000Y375700D01*
X117600D01*
X118000Y375300D01*
X117600Y374900D01*
X118000D01*
X118400Y374500D01*
X266237Y415443D02*
X265437Y417043D01*
X267037D01*
X266237Y415443D01*
X285437D02*
Y417043D01*
X287037D01*
Y415443D01*
X285437D01*
X245437D02*
Y417043D01*
X247037D01*
Y415443D01*
X245437D01*
X244916Y456600D02*
X245316Y457400D01*
X244916Y458200D01*
X245716Y457800D01*
X246516Y458200D01*
X246116Y457400D01*
X246516Y456600D01*
X245716Y457000D01*
X244916Y456600D01*
X210900D02*
X211300Y457400D01*
X210900Y458200D01*
X211700Y457800D01*
X212500Y458200D01*
X212100Y457400D01*
X212500Y456600D01*
X211700Y457000D01*
X210900Y456600D01*
X245316Y440543D02*
Y440143D01*
X246116D01*
Y440543D01*
X246516D01*
Y441343D01*
X246116D01*
Y441743D01*
X245316D01*
Y441343D01*
X244916D01*
Y440543D01*
X245316D01*
X211300D02*
Y440143D01*
X212100D01*
Y440543D01*
X212500D01*
Y441343D01*
X212100D01*
Y441743D01*
X211300D01*
Y441343D01*
X210900D01*
Y440543D01*
X211300D01*
X239286Y442112D02*
X239686D01*
X240086Y442512D01*
X240486Y442112D01*
X240886D01*
Y442512D01*
X240486Y442912D01*
X240886Y443312D01*
Y443712D01*
X240486D01*
X240086Y443312D01*
X239686Y443712D01*
X239286D01*
Y443312D01*
X239686Y442912D01*
X239286Y442512D01*
Y442112D01*
X216530D02*
X216930D01*
X217330Y442512D01*
X217730Y442112D01*
X218130D01*
Y442512D01*
X217730Y442912D01*
X218130Y443312D01*
Y443712D01*
X217730D01*
X217330Y443312D01*
X216930Y443712D01*
X216530D01*
Y443312D01*
X216930Y442912D01*
X216530Y442512D01*
Y442112D01*
X95438Y415443D02*
Y417043D01*
X97038D01*
Y415443D01*
X95438D01*
X135438D02*
Y417043D01*
X137038D01*
Y415443D01*
X135438D01*
X116238D02*
X115438Y417043D01*
X117038D01*
X116238Y415443D01*
X191237D02*
X190437Y417043D01*
X192037D01*
X191237Y415443D01*
X210437D02*
Y417043D01*
X212037D01*
Y415443D01*
X210437D01*
X170437D02*
Y417043D01*
X172037D01*
Y415443D01*
X170437D01*
X379600Y149700D02*
X380400Y150500D01*
X381200Y149700D01*
X380400Y148900D01*
X379600Y149700D01*
X152890Y377977D02*
Y379577D01*
X154490D01*
Y377977D01*
X152890D01*
X153290Y378377D02*
Y379177D01*
X154090D01*
Y378377D01*
X153290D01*
X152900Y227900D02*
Y229500D01*
X154500D01*
Y227900D01*
X152900D01*
X153300Y228300D02*
Y229100D01*
X154100D01*
Y228300D01*
X153300D01*
X227800Y152800D02*
Y154400D01*
X229400D01*
Y152800D01*
X227800D01*
X228200Y153200D02*
Y154000D01*
X229000D01*
Y153200D01*
X228200D01*
X373737Y255943D02*
X372937Y257543D01*
X374537D01*
X373737Y255943D01*
Y256343D02*
X373337Y257143D01*
X374137D01*
X373737Y256343D01*
Y349943D02*
X372937Y351543D01*
X374537D01*
X373737Y349943D01*
Y350343D02*
X373337Y351143D01*
X374137D01*
X373737Y350343D01*
Y105942D02*
X372937Y107542D01*
X374537D01*
X373737Y105942D01*
Y106342D02*
X373337Y107142D01*
X374137D01*
X373737Y106342D01*
Y199942D02*
X372937Y201542D01*
X374537D01*
X373737Y199942D01*
Y200342D02*
X373337Y201142D01*
X374137D01*
X373737Y200342D01*
X200737Y82943D02*
X199937Y84543D01*
X201537D01*
X200737Y82943D01*
Y83343D02*
X200337Y84143D01*
X201137D01*
X200737Y83343D01*
X132938Y115443D02*
Y117043D01*
X134538D01*
Y115443D01*
X132938D01*
X172938D02*
Y117043D01*
X174538D01*
Y115443D01*
X172938D01*
X153738D02*
X152938Y117043D01*
X154538D01*
X153738Y115443D01*
X379600Y139700D02*
X380400Y140500D01*
X381200Y139700D01*
X380400Y138900D01*
X379600Y139700D01*
X379600Y159700D02*
X380400Y160500D01*
X381200Y159700D01*
X380400Y158900D01*
X379600Y159700D01*
Y169700D02*
X380400Y170500D01*
X381200Y169700D01*
X380400Y168900D01*
X379600Y169700D01*
Y179700D02*
X380400Y180500D01*
X381200Y179700D01*
X380400Y178900D01*
X379600Y179700D01*
Y129700D02*
X380400Y130500D01*
X381200Y129700D01*
X380400Y128900D01*
X379600Y129700D01*
X106737Y82943D02*
X105937Y84543D01*
X107537D01*
X106737Y82943D01*
Y83343D02*
X106337Y84143D01*
X107137D01*
X106737Y83343D01*
X341237Y415443D02*
X340437Y417043D01*
X342037D01*
X341237Y415443D01*
X360437D02*
Y417043D01*
X362037D01*
Y415443D01*
X360437D01*
X320437D02*
Y417043D01*
X322037D01*
Y415443D01*
X320437D01*
X266237Y340443D02*
X265437Y342043D01*
X267037D01*
X266237Y340443D01*
X285437D02*
Y342043D01*
X287037D01*
Y340443D01*
X285437D01*
X245437D02*
Y342043D01*
X247037D01*
Y340443D01*
X245437D01*
X116211Y340493D02*
X115411Y342093D01*
X117011D01*
X116211Y340493D01*
X135411D02*
Y342093D01*
X137011D01*
Y340493D01*
X135411D01*
X95411D02*
Y342093D01*
X97011D01*
Y340493D01*
X95411D01*
X266237Y190442D02*
X265437Y192042D01*
X267037D01*
X266237Y190442D01*
X285437D02*
Y192042D01*
X287037D01*
Y190442D01*
X285437D01*
X245437D02*
Y192042D01*
X247037D01*
Y190442D01*
X245437D01*
X116237Y190443D02*
X115437Y192043D01*
X117037D01*
X116237Y190443D01*
X135437D02*
Y192043D01*
X137037D01*
Y190443D01*
X135437D01*
X95437D02*
Y192043D01*
X97037D01*
Y190443D01*
X95437D01*
X81700Y367900D02*
X82100Y368300D01*
X82500D01*
X82100Y368700D01*
X82500Y369100D01*
X82100D01*
X81700Y369500D01*
X81300Y369100D01*
X80900D01*
X81300Y368700D01*
X80900Y368300D01*
X81300D01*
X81700Y367900D01*
Y368300D02*
X81900Y368500D01*
X82100D01*
X81900Y368700D01*
X82100Y368900D01*
X81900D01*
X81700Y369100D01*
X81500Y368900D01*
X81300D01*
X81500Y368700D01*
X81300Y368500D01*
X81500D01*
X81700Y368300D01*
X166300Y352400D02*
X166700Y352800D01*
X167100D01*
X166700Y353200D01*
X167100Y353600D01*
X166700D01*
X166300Y354000D01*
X165900Y353600D01*
X165500D01*
X165900Y353200D01*
X165500Y352800D01*
X165900D01*
X166300Y352400D01*
Y352800D02*
X166500Y353000D01*
X166700D01*
X166500Y353200D01*
X166700Y353400D01*
X166500D01*
X166300Y353600D01*
X166100Y353400D01*
X165900D01*
X166100Y353200D01*
X165900Y353000D01*
X166100D01*
X166300Y352800D01*
X244900Y356100D02*
X245300Y356500D01*
X245700D01*
X245300Y356900D01*
X245700Y357300D01*
X245300D01*
X244900Y357700D01*
X244500Y357300D01*
X244100D01*
X244500Y356900D01*
X244100Y356500D01*
X244500D01*
X244900Y356100D01*
Y356500D02*
X245100Y356700D01*
X245300D01*
X245100Y356900D01*
X245300Y357100D01*
X245100D01*
X244900Y357300D01*
X244700Y357100D01*
X244500D01*
X244700Y356900D01*
X244500Y356700D01*
X244700D01*
X244900Y356500D01*
X154800Y351600D02*
X155200Y352000D01*
X155600D01*
X155200Y352400D01*
X155600Y352800D01*
X155200D01*
X154800Y353200D01*
X154400Y352800D01*
X154000D01*
X154400Y352400D01*
X154000Y352000D01*
X154400D01*
X154800Y351600D01*
Y352000D02*
X155000Y352200D01*
X155200D01*
X155000Y352400D01*
X155200Y352600D01*
X155000D01*
X154800Y352800D01*
X154600Y352600D01*
X154400D01*
X154600Y352400D01*
X154400Y352200D01*
X154600D01*
X154800Y352000D01*
X130700Y274200D02*
X131100Y274600D01*
X131500D01*
X131100Y275000D01*
X131500Y275400D01*
X131100D01*
X130700Y275800D01*
X130300Y275400D01*
X129900D01*
X130300Y275000D01*
X129900Y274600D01*
X130300D01*
X130700Y274200D01*
Y274600D02*
X130900Y274800D01*
X131100D01*
X130900Y275000D01*
X131100Y275200D01*
X130900D01*
X130700Y275400D01*
X130500Y275200D01*
X130300D01*
X130500Y275000D01*
X130300Y274800D01*
X130500D01*
X130700Y274600D01*
X332800Y325100D02*
X333200Y325500D01*
X333600D01*
X333200Y325900D01*
X333600Y326300D01*
X333200D01*
X332800Y326700D01*
X332400Y326300D01*
X332000D01*
X332400Y325900D01*
X332000Y325500D01*
X332400D01*
X332800Y325100D01*
Y325500D02*
X333000Y325700D01*
X333200D01*
X333000Y325900D01*
X333200Y326100D01*
X333000D01*
X332800Y326300D01*
X332600Y326100D01*
X332400D01*
X332600Y325900D01*
X332400Y325700D01*
X332600D01*
X332800Y325500D01*
X348000Y323000D02*
X348400Y323400D01*
X348800D01*
X348400Y323800D01*
X348800Y324200D01*
X348400D01*
X348000Y324600D01*
X347600Y324200D01*
X347200D01*
X347600Y323800D01*
X347200Y323400D01*
X347600D01*
X348000Y323000D01*
Y323400D02*
X348200Y323600D01*
X348400D01*
X348200Y323800D01*
X348400Y324000D01*
X348200D01*
X348000Y324200D01*
X347800Y324000D01*
X347600D01*
X347800Y323800D01*
X347600Y323600D01*
X347800D01*
X348000Y323400D01*
X244500Y276900D02*
X244900Y277300D01*
X245300D01*
X244900Y277700D01*
X245300Y278100D01*
X244900D01*
X244500Y278500D01*
X244100Y278100D01*
X243700D01*
X244100Y277700D01*
X243700Y277300D01*
X244100D01*
X244500Y276900D01*
Y277300D02*
X244700Y277500D01*
X244900D01*
X244700Y277700D01*
X244900Y277900D01*
X244700D01*
X244500Y278100D01*
X244300Y277900D01*
X244100D01*
X244300Y277700D01*
X244100Y277500D01*
X244300D01*
X244500Y277300D01*
X272300Y92100D02*
X272700Y92500D01*
X273100D01*
X272700Y92900D01*
X273100Y93300D01*
X272700D01*
X272300Y93700D01*
X271900Y93300D01*
X271500D01*
X271900Y92900D01*
X271500Y92500D01*
X271900D01*
X272300Y92100D01*
Y92500D02*
X272500Y92700D01*
X272700D01*
X272500Y92900D01*
X272700Y93100D01*
X272500D01*
X272300Y93300D01*
X272100Y93100D01*
X271900D01*
X272100Y92900D01*
X271900Y92700D01*
X272100D01*
X272300Y92500D01*
X328500Y113300D02*
X328900Y113700D01*
X329300D01*
X328900Y114100D01*
X329300Y114500D01*
X328900D01*
X328500Y114900D01*
X328100Y114500D01*
X327700D01*
X328100Y114100D01*
X327700Y113700D01*
X328100D01*
X328500Y113300D01*
Y113700D02*
X328700Y113900D01*
X328900D01*
X328700Y114100D01*
X328900Y114300D01*
X328700D01*
X328500Y114500D01*
X328300Y114300D01*
X328100D01*
X328300Y114100D01*
X328100Y113900D01*
X328300D01*
X328500Y113700D01*
X110300Y126200D02*
X110700Y126600D01*
X111100D01*
X110700Y127000D01*
X111100Y127400D01*
X110700D01*
X110300Y127800D01*
X109900Y127400D01*
X109500D01*
X109900Y127000D01*
X109500Y126600D01*
X109900D01*
X110300Y126200D01*
Y126600D02*
X110500Y126800D01*
X110700D01*
X110500Y127000D01*
X110700Y127200D01*
X110500D01*
X110300Y127400D01*
X110100Y127200D01*
X109900D01*
X110100Y127000D01*
X109900Y126800D01*
X110100D01*
X110300Y126600D01*
X106500Y229700D02*
X106900Y230100D01*
X107300D01*
X106900Y230500D01*
X107300Y230900D01*
X106900D01*
X106500Y231300D01*
X106100Y230900D01*
X105700D01*
X106100Y230500D01*
X105700Y230100D01*
X106100D01*
X106500Y229700D01*
Y230100D02*
X106700Y230300D01*
X106900D01*
X106700Y230500D01*
X106900Y230700D01*
X106700D01*
X106500Y230900D01*
X106300Y230700D01*
X106100D01*
X106300Y230500D01*
X106100Y230300D01*
X106300D01*
X106500Y230100D01*
X74600Y232900D02*
X75000Y233300D01*
X75400D01*
X75000Y233700D01*
X75400Y234100D01*
X75000D01*
X74600Y234500D01*
X74200Y234100D01*
X73800D01*
X74200Y233700D01*
X73800Y233300D01*
X74200D01*
X74600Y232900D01*
Y233300D02*
X74800Y233500D01*
X75000D01*
X74800Y233700D01*
X75000Y233900D01*
X74800D01*
X74600Y234100D01*
X74400Y233900D01*
X74200D01*
X74400Y233700D01*
X74200Y233500D01*
X74400D01*
X74600Y233300D01*
X76500Y129000D02*
X76900Y129400D01*
X77300D01*
X76900Y129800D01*
X77300Y130200D01*
X76900D01*
X76500Y130600D01*
X76100Y130200D01*
X75700D01*
X76100Y129800D01*
X75700Y129400D01*
X76100D01*
X76500Y129000D01*
Y129400D02*
X76700Y129600D01*
X76900D01*
X76700Y129800D01*
X76900Y130000D01*
X76700D01*
X76500Y130200D01*
X76300Y130000D01*
X76100D01*
X76300Y129800D01*
X76100Y129600D01*
X76300D01*
X76500Y129400D01*
X123600Y74700D02*
X124000Y75100D01*
X124400D01*
X124000Y75500D01*
X124400Y75900D01*
X124000D01*
X123600Y76300D01*
X123200Y75900D01*
X122800D01*
X123200Y75500D01*
X122800Y75100D01*
X123200D01*
X123600Y74700D01*
Y75100D02*
X123800Y75300D01*
X124000D01*
X123800Y75500D01*
X124000Y75700D01*
X123800D01*
X123600Y75900D01*
X123400Y75700D01*
X123200D01*
X123400Y75500D01*
X123200Y75300D01*
X123400D01*
X123600Y75100D01*
X228800Y74800D02*
X229200Y75200D01*
X229600D01*
X229200Y75600D01*
X229600Y76000D01*
X229200D01*
X228800Y76400D01*
X228400Y76000D01*
X228000D01*
X228400Y75600D01*
X228000Y75200D01*
X228400D01*
X228800Y74800D01*
Y75200D02*
X229000Y75400D01*
X229200D01*
X229000Y75600D01*
X229200Y75800D01*
X229000D01*
X228800Y76000D01*
X228600Y75800D01*
X228400D01*
X228600Y75600D01*
X228400Y75400D01*
X228600D01*
X228800Y75200D01*
X291000Y75100D02*
X291400Y75500D01*
X291800D01*
X291400Y75900D01*
X291800Y76300D01*
X291400D01*
X291000Y76700D01*
X290600Y76300D01*
X290200D01*
X290600Y75900D01*
X290200Y75500D01*
X290600D01*
X291000Y75100D01*
Y75500D02*
X291200Y75700D01*
X291400D01*
X291200Y75900D01*
X291400Y76100D01*
X291200D01*
X291000Y76300D01*
X290800Y76100D01*
X290600D01*
X290800Y75900D01*
X290600Y75700D01*
X290800D01*
X291000Y75500D01*
X333400Y76200D02*
X333800Y76600D01*
X334200D01*
X333800Y77000D01*
X334200Y77400D01*
X333800D01*
X333400Y77800D01*
X333000Y77400D01*
X332600D01*
X333000Y77000D01*
X332600Y76600D01*
X333000D01*
X333400Y76200D01*
Y76600D02*
X333600Y76800D01*
X333800D01*
X333600Y77000D01*
X333800Y77200D01*
X333600D01*
X333400Y77400D01*
X333200Y77200D01*
X333000D01*
X333200Y77000D01*
X333000Y76800D01*
X333200D01*
X333400Y76600D01*
X221700Y131100D02*
X222100Y131500D01*
X222500D01*
X222100Y131900D01*
X222500Y132300D01*
X222100D01*
X221700Y132700D01*
X221300Y132300D01*
X220900D01*
X221300Y131900D01*
X220900Y131500D01*
X221300D01*
X221700Y131100D01*
Y131500D02*
X221900Y131700D01*
X222100D01*
X221900Y131900D01*
X222100Y132100D01*
X221900D01*
X221700Y132300D01*
X221500Y132100D01*
X221300D01*
X221500Y131900D01*
X221300Y131700D01*
X221500D01*
X221700Y131500D01*
X207500Y125700D02*
X207900Y126100D01*
X208300D01*
X207900Y126500D01*
X208300Y126900D01*
X207900D01*
X207500Y127300D01*
X207100Y126900D01*
X206700D01*
X207100Y126500D01*
X206700Y126100D01*
X207100D01*
X207500Y125700D01*
Y126100D02*
X207700Y126300D01*
X207900D01*
X207700Y126500D01*
X207900Y126700D01*
X207700D01*
X207500Y126900D01*
X207300Y126700D01*
X207100D01*
X207300Y126500D01*
X207100Y126300D01*
X207300D01*
X207500Y126100D01*
X131700Y220700D02*
X132100Y221100D01*
X132500D01*
X132100Y221500D01*
X132500Y221900D01*
X132100D01*
X131700Y222300D01*
X131300Y221900D01*
X130900D01*
X131300Y221500D01*
X130900Y221100D01*
X131300D01*
X131700Y220700D01*
Y221100D02*
X131900Y221300D01*
X132100D01*
X131900Y221500D01*
X132100Y221700D01*
X131900D01*
X131700Y221900D01*
X131500Y221700D01*
X131300D01*
X131500Y221500D01*
X131300Y221300D01*
X131500D01*
X131700Y221100D01*
X123000Y212400D02*
X123400Y212800D01*
X123800D01*
X123400Y213200D01*
X123800Y213600D01*
X123400D01*
X123000Y214000D01*
X122600Y213600D01*
X122200D01*
X122600Y213200D01*
X122200Y212800D01*
X122600D01*
X123000Y212400D01*
Y212800D02*
X123200Y213000D01*
X123400D01*
X123200Y213200D01*
X123400Y213400D01*
X123200D01*
X123000Y213600D01*
X122800Y213400D01*
X122600D01*
X122800Y213200D01*
X122600Y213000D01*
X122800D01*
X123000Y212800D01*
X118500Y230000D02*
X118900Y230400D01*
X119300D01*
X118900Y230800D01*
X119300Y231200D01*
X118900D01*
X118500Y231600D01*
X118100Y231200D01*
X117700D01*
X118100Y230800D01*
X117700Y230400D01*
X118100D01*
X118500Y230000D01*
Y230400D02*
X118700Y230600D01*
X118900D01*
X118700Y230800D01*
X118900Y231000D01*
X118700D01*
X118500Y231200D01*
X118300Y231000D01*
X118100D01*
X118300Y230800D01*
X118100Y230600D01*
X118300D01*
X118500Y230400D01*
X106953Y220139D02*
X107353Y220538D01*
X107753D01*
X107353Y220938D01*
X107753Y221339D01*
X107353D01*
X106953Y221739D01*
X106553Y221339D01*
X106153D01*
X106553Y220938D01*
X106153Y220538D01*
X106553D01*
X106953Y220139D01*
Y220538D02*
X107153Y220739D01*
X107353D01*
X107153Y220938D01*
X107353Y221139D01*
X107153D01*
X106953Y221339D01*
X106753Y221139D01*
X106553D01*
X106753Y220938D01*
X106553Y220739D01*
X106753D01*
X106953Y220538D01*
X193400Y224900D02*
X193800Y225300D01*
X194200D01*
X193800Y225700D01*
X194200Y226100D01*
X193800D01*
X193400Y226500D01*
X193000Y226100D01*
X192600D01*
X193000Y225700D01*
X192600Y225300D01*
X193000D01*
X193400Y224900D01*
Y225300D02*
X193600Y225500D01*
X193800D01*
X193600Y225700D01*
X193800Y225900D01*
X193600D01*
X193400Y226100D01*
X193200Y225900D01*
X193000D01*
X193200Y225700D01*
X193000Y225500D01*
X193200D01*
X193400Y225300D01*
X191600Y209400D02*
X192000Y209800D01*
X192400D01*
X192000Y210200D01*
X192400Y210600D01*
X192000D01*
X191600Y211000D01*
X191200Y210600D01*
X190800D01*
X191200Y210200D01*
X190800Y209800D01*
X191200D01*
X191600Y209400D01*
Y209800D02*
X191800Y210000D01*
X192000D01*
X191800Y210200D01*
X192000Y210400D01*
X191800D01*
X191600Y210600D01*
X191400Y210400D01*
X191200D01*
X191400Y210200D01*
X191200Y210000D01*
X191400D01*
X191600Y209800D01*
X195900Y156600D02*
X196300Y157000D01*
X196700D01*
X196300Y157400D01*
X196700Y157800D01*
X196300D01*
X195900Y158200D01*
X195500Y157800D01*
X195100D01*
X195500Y157400D01*
X195100Y157000D01*
X195500D01*
X195900Y156600D01*
Y157000D02*
X196100Y157200D01*
X196300D01*
X196100Y157400D01*
X196300Y157600D01*
X196100D01*
X195900Y157800D01*
X195700Y157600D01*
X195500D01*
X195700Y157400D01*
X195500Y157200D01*
X195700D01*
X195900Y157000D01*
X195700Y169000D02*
X196100Y169400D01*
X196500D01*
X196100Y169800D01*
X196500Y170200D01*
X196100D01*
X195700Y170600D01*
X195300Y170200D01*
X194900D01*
X195300Y169800D01*
X194900Y169400D01*
X195300D01*
X195700Y169000D01*
Y169400D02*
X195900Y169600D01*
X196100D01*
X195900Y169800D01*
X196100Y170000D01*
X195900D01*
X195700Y170200D01*
X195500Y170000D01*
X195300D01*
X195500Y169800D01*
X195300Y169600D01*
X195500D01*
X195700Y169400D01*
X265800Y152500D02*
X266200Y152900D01*
X266600D01*
X266200Y153300D01*
X266600Y153700D01*
X266200D01*
X265800Y154100D01*
X265400Y153700D01*
X265000D01*
X265400Y153300D01*
X265000Y152900D01*
X265400D01*
X265800Y152500D01*
Y152900D02*
X266000Y153100D01*
X266200D01*
X266000Y153300D01*
X266200Y153500D01*
X266000D01*
X265800Y153700D01*
X265600Y153500D01*
X265400D01*
X265600Y153300D01*
X265400Y153100D01*
X265600D01*
X265800Y152900D01*
X278700Y152700D02*
X279100Y153100D01*
X279500D01*
X279100Y153500D01*
X279500Y153900D01*
X279100D01*
X278700Y154300D01*
X278300Y153900D01*
X277900D01*
X278300Y153500D01*
X277900Y153100D01*
X278300D01*
X278700Y152700D01*
Y153100D02*
X278900Y153300D01*
X279100D01*
X278900Y153500D01*
X279100Y153700D01*
X278900D01*
X278700Y153900D01*
X278500Y153700D01*
X278300D01*
X278500Y153500D01*
X278300Y153300D01*
X278500D01*
X278700Y153100D01*
X292000Y152300D02*
X292400Y152700D01*
X292800D01*
X292400Y153100D01*
X292800Y153500D01*
X292400D01*
X292000Y153900D01*
X291600Y153500D01*
X291200D01*
X291600Y153100D01*
X291200Y152700D01*
X291600D01*
X292000Y152300D01*
Y152700D02*
X292200Y152900D01*
X292400D01*
X292200Y153100D01*
X292400Y153300D01*
X292200D01*
X292000Y153500D01*
X291800Y153300D01*
X291600D01*
X291800Y153100D01*
X291600Y152900D01*
X291800D01*
X292000Y152700D01*
X234500Y199900D02*
X234900Y200300D01*
X235300D01*
X234900Y200700D01*
X235300Y201100D01*
X234900D01*
X234500Y201500D01*
X234100Y201100D01*
X233700D01*
X234100Y200700D01*
X233700Y200300D01*
X234100D01*
X234500Y199900D01*
Y200300D02*
X234700Y200500D01*
X234900D01*
X234700Y200700D01*
X234900Y200900D01*
X234700D01*
X234500Y201100D01*
X234300Y200900D01*
X234100D01*
X234300Y200700D01*
X234100Y200500D01*
X234300D01*
X234500Y200300D01*
X221300Y200100D02*
X221700Y200500D01*
X222100D01*
X221700Y200900D01*
X222100Y201300D01*
X221700D01*
X221300Y201700D01*
X220900Y201300D01*
X220500D01*
X220900Y200900D01*
X220500Y200500D01*
X220900D01*
X221300Y200100D01*
Y200500D02*
X221500Y200700D01*
X221700D01*
X221500Y200900D01*
X221700Y201100D01*
X221500D01*
X221300Y201300D01*
X221100Y201100D01*
X220900D01*
X221100Y200900D01*
X220900Y200700D01*
X221100D01*
X221300Y200500D01*
X309966Y179523D02*
X310366Y179923D01*
X310766D01*
X310366Y180323D01*
X310766Y180723D01*
X310366D01*
X309966Y181123D01*
X309566Y180723D01*
X309166D01*
X309566Y180323D01*
X309166Y179923D01*
X309566D01*
X309966Y179523D01*
Y179923D02*
X310166Y180123D01*
X310366D01*
X310166Y180323D01*
X310366Y180523D01*
X310166D01*
X309966Y180723D01*
X309766Y180523D01*
X309566D01*
X309766Y180323D01*
X309566Y180123D01*
X309766D01*
X309966Y179923D01*
X317200Y165700D02*
X317600Y166100D01*
X318000D01*
X317600Y166500D01*
X318000Y166900D01*
X317600D01*
X317200Y167300D01*
X316800Y166900D01*
X316400D01*
X316800Y166500D01*
X316400Y166100D01*
X316800D01*
X317200Y165700D01*
Y166100D02*
X317400Y166300D01*
X317600D01*
X317400Y166500D01*
X317600Y166700D01*
X317400D01*
X317200Y166900D01*
X317000Y166700D01*
X316800D01*
X317000Y166500D01*
X316800Y166300D01*
X317000D01*
X317200Y166100D01*
X288700Y174400D02*
X289100Y174800D01*
X289500D01*
X289100Y175200D01*
X289500Y175600D01*
X289100D01*
X288700Y176000D01*
X288300Y175600D01*
X287900D01*
X288300Y175200D01*
X287900Y174800D01*
X288300D01*
X288700Y174400D01*
Y174800D02*
X288900Y175000D01*
X289100D01*
X288900Y175200D01*
X289100Y175400D01*
X288900D01*
X288700Y175600D01*
X288500Y175400D01*
X288300D01*
X288500Y175200D01*
X288300Y175000D01*
X288500D01*
X288700Y174800D01*
X295000Y166900D02*
X295400Y167300D01*
X295800D01*
X295400Y167700D01*
X295800Y168100D01*
X295400D01*
X295000Y168500D01*
X294600Y168100D01*
X294200D01*
X294600Y167700D01*
X294200Y167300D01*
X294600D01*
X295000Y166900D01*
Y167300D02*
X295200Y167500D01*
X295400D01*
X295200Y167700D01*
X295400Y167900D01*
X295200D01*
X295000Y168100D01*
X294800Y167900D01*
X294600D01*
X294800Y167700D01*
X294600Y167500D01*
X294800D01*
X295000Y167300D01*
X365700Y218000D02*
X366100Y218400D01*
X366500D01*
X366100Y218800D01*
X366500Y219200D01*
X366100D01*
X365700Y219600D01*
X365300Y219200D01*
X364900D01*
X365300Y218800D01*
X364900Y218400D01*
X365300D01*
X365700Y218000D01*
Y218400D02*
X365900Y218600D01*
X366100D01*
X365900Y218800D01*
X366100Y219000D01*
X365900D01*
X365700Y219200D01*
X365500Y219000D01*
X365300D01*
X365500Y218800D01*
X365300Y218600D01*
X365500D01*
X365700Y218400D01*
X353900Y218200D02*
X354300Y218600D01*
X354700D01*
X354300Y219000D01*
X354700Y219400D01*
X354300D01*
X353900Y219800D01*
X353500Y219400D01*
X353100D01*
X353500Y219000D01*
X353100Y218600D01*
X353500D01*
X353900Y218200D01*
Y218600D02*
X354100Y218800D01*
X354300D01*
X354100Y219000D01*
X354300Y219200D01*
X354100D01*
X353900Y219400D01*
X353700Y219200D01*
X353500D01*
X353700Y219000D01*
X353500Y218800D01*
X353700D01*
X353900Y218600D01*
X307500Y231600D02*
X307900Y232000D01*
X308300D01*
X307900Y232400D01*
X308300Y232800D01*
X307900D01*
X307500Y233200D01*
X307100Y232800D01*
X306700D01*
X307100Y232400D01*
X306700Y232000D01*
X307100D01*
X307500Y231600D01*
Y232000D02*
X307700Y232200D01*
X307900D01*
X307700Y232400D01*
X307900Y232600D01*
X307700D01*
X307500Y232800D01*
X307300Y232600D01*
X307100D01*
X307300Y232400D01*
X307100Y232200D01*
X307300D01*
X307500Y232000D01*
X302400Y205600D02*
X302800Y206000D01*
X303200D01*
X302800Y206400D01*
X303200Y206800D01*
X302800D01*
X302400Y207200D01*
X302000Y206800D01*
X301600D01*
X302000Y206400D01*
X301600Y206000D01*
X302000D01*
X302400Y205600D01*
Y206000D02*
X302600Y206200D01*
X302800D01*
X302600Y206400D01*
X302800Y206600D01*
X302600D01*
X302400Y206800D01*
X302200Y206600D01*
X302000D01*
X302200Y206400D01*
X302000Y206200D01*
X302200D01*
X302400Y206000D01*
X296778Y234515D02*
X297178Y234915D01*
X297578D01*
X297178Y235315D01*
X297578Y235715D01*
X297178D01*
X296778Y236115D01*
X296378Y235715D01*
X295978D01*
X296378Y235315D01*
X295978Y234915D01*
X296378D01*
X296778Y234515D01*
Y234915D02*
X296978Y235115D01*
X297178D01*
X296978Y235315D01*
X297178Y235515D01*
X296978D01*
X296778Y235715D01*
X296578Y235515D01*
X296378D01*
X296578Y235315D01*
X296378Y235115D01*
X296578D01*
X296778Y234915D01*
X267500Y227600D02*
X267900Y228000D01*
X268300D01*
X267900Y228400D01*
X268300Y228800D01*
X267900D01*
X267500Y229200D01*
X267100Y228800D01*
X266700D01*
X267100Y228400D01*
X266700Y228000D01*
X267100D01*
X267500Y227600D01*
Y228000D02*
X267700Y228200D01*
X267900D01*
X267700Y228400D01*
X267900Y228600D01*
X267700D01*
X267500Y228800D01*
X267300Y228600D01*
X267100D01*
X267300Y228400D01*
X267100Y228200D01*
X267300D01*
X267500Y228000D01*
X252100Y227600D02*
X252500Y228000D01*
X252900D01*
X252500Y228400D01*
X252900Y228800D01*
X252500D01*
X252100Y229200D01*
X251700Y228800D01*
X251300D01*
X251700Y228400D01*
X251300Y228000D01*
X251700D01*
X252100Y227600D01*
Y228000D02*
X252300Y228200D01*
X252500D01*
X252300Y228400D01*
X252500Y228600D01*
X252300D01*
X252100Y228800D01*
X251900Y228600D01*
X251700D01*
X251900Y228400D01*
X251700Y228200D01*
X251900D01*
X252100Y228000D01*
X313300Y272200D02*
X313700Y272600D01*
X314100D01*
X313700Y273000D01*
X314100Y273400D01*
X313700D01*
X313300Y273800D01*
X312900Y273400D01*
X312500D01*
X312900Y273000D01*
X312500Y272600D01*
X312900D01*
X313300Y272200D01*
Y272600D02*
X313500Y272800D01*
X313700D01*
X313500Y273000D01*
X313700Y273200D01*
X313500D01*
X313300Y273400D01*
X313100Y273200D01*
X312900D01*
X313100Y273000D01*
X312900Y272800D01*
X313100D01*
X313300Y272600D01*
X314100Y237000D02*
X314500Y237400D01*
X314900D01*
X314500Y237800D01*
X314900Y238200D01*
X314500D01*
X314100Y238600D01*
X313700Y238200D01*
X313300D01*
X313700Y237800D01*
X313300Y237400D01*
X313700D01*
X314100Y237000D01*
Y237400D02*
X314300Y237600D01*
X314500D01*
X314300Y237800D01*
X314500Y238000D01*
X314300D01*
X314100Y238200D01*
X313900Y238000D01*
X313700D01*
X313900Y237800D01*
X313700Y237600D01*
X313900D01*
X314100Y237400D01*
X359700Y113800D02*
X360100Y114200D01*
X360500D01*
X360100Y114600D01*
X360500Y115000D01*
X360100D01*
X359700Y115400D01*
X359300Y115000D01*
X358900D01*
X359300Y114600D01*
X358900Y114200D01*
X359300D01*
X359700Y113800D01*
Y114200D02*
X359900Y114400D01*
X360100D01*
X359900Y114600D01*
X360100Y114800D01*
X359900D01*
X359700Y115000D01*
X359500Y114800D01*
X359300D01*
X359500Y114600D01*
X359300Y114400D01*
X359500D01*
X359700Y114200D01*
X359800Y96100D02*
X360200Y96500D01*
X360600D01*
X360200Y96900D01*
X360600Y97300D01*
X360200D01*
X359800Y97700D01*
X359400Y97300D01*
X359000D01*
X359400Y96900D01*
X359000Y96500D01*
X359400D01*
X359800Y96100D01*
Y96500D02*
X360000Y96700D01*
X360200D01*
X360000Y96900D01*
X360200Y97100D01*
X360000D01*
X359800Y97300D01*
X359600Y97100D01*
X359400D01*
X359600Y96900D01*
X359400Y96700D01*
X359600D01*
X359800Y96500D01*
X343200Y78300D02*
X343600Y78700D01*
X344000D01*
X343600Y79100D01*
X344000Y79500D01*
X343600D01*
X343200Y79900D01*
X342800Y79500D01*
X342400D01*
X342800Y79100D01*
X342400Y78700D01*
X342800D01*
X343200Y78300D01*
Y78700D02*
X343400Y78900D01*
X343600D01*
X343400Y79100D01*
X343600Y79300D01*
X343400D01*
X343200Y79500D01*
X343000Y79300D01*
X342800D01*
X343000Y79100D01*
X342800Y78900D01*
X343000D01*
X343200Y78700D01*
X94300Y79700D02*
X94700Y80100D01*
X95100D01*
X94700Y80500D01*
X95100Y80900D01*
X94700D01*
X94300Y81300D01*
X93900Y80900D01*
X93500D01*
X93900Y80500D01*
X93500Y80100D01*
X93900D01*
X94300Y79700D01*
Y80100D02*
X94500Y80300D01*
X94700D01*
X94500Y80500D01*
X94700Y80700D01*
X94500D01*
X94300Y80900D01*
X94100Y80700D01*
X93900D01*
X94100Y80500D01*
X93900Y80300D01*
X94100D01*
X94300Y80100D01*
X82400Y270300D02*
X82800Y270700D01*
X83200D01*
X82800Y271100D01*
X83200Y271500D01*
X82800D01*
X82400Y271900D01*
X82000Y271500D01*
X81600D01*
X82000Y271100D01*
X81600Y270700D01*
X82000D01*
X82400Y270300D01*
Y270700D02*
X82600Y270900D01*
X82800D01*
X82600Y271100D01*
X82800Y271300D01*
X82600D01*
X82400Y271500D01*
X82200Y271300D01*
X82000D01*
X82200Y271100D01*
X82000Y270900D01*
X82200D01*
X82400Y270700D01*
X80200Y113300D02*
X80600Y113700D01*
X81000D01*
X80600Y114100D01*
X81000Y114500D01*
X80600D01*
X80200Y114900D01*
X79800Y114500D01*
X79400D01*
X79800Y114100D01*
X79400Y113700D01*
X79800D01*
X80200Y113300D01*
Y113700D02*
X80400Y113900D01*
X80600D01*
X80400Y114100D01*
X80600Y114300D01*
X80400D01*
X80200Y114500D01*
X80000Y114300D01*
X79800D01*
X80000Y114100D01*
X79800Y113900D01*
X80000D01*
X80200Y113700D01*
X85300Y83300D02*
X85700Y83700D01*
X86100D01*
X85700Y84100D01*
X86100Y84500D01*
X85700D01*
X85300Y84900D01*
X84900Y84500D01*
X84500D01*
X84900Y84100D01*
X84500Y83700D01*
X84900D01*
X85300Y83300D01*
Y83700D02*
X85500Y83900D01*
X85700D01*
X85500Y84100D01*
X85700Y84300D01*
X85500D01*
X85300Y84500D01*
X85100Y84300D01*
X84900D01*
X85100Y84100D01*
X84900Y83900D01*
X85100D01*
X85300Y83700D01*
X276701Y303757D02*
X277101Y304157D01*
X277501D01*
X277101Y304557D01*
X277501Y304957D01*
X277101D01*
X276701Y305357D01*
X276301Y304957D01*
X275901D01*
X276301Y304557D01*
X275901Y304157D01*
X276301D01*
X276701Y303757D01*
Y304157D02*
X276901Y304357D01*
X277101D01*
X276901Y304557D01*
X277101Y304757D01*
X276901D01*
X276701Y304957D01*
X276501Y304757D01*
X276301D01*
X276501Y304557D01*
X276301Y304357D01*
X276501D01*
X276701Y304157D01*
X276359Y287547D02*
X276759Y287947D01*
X277159D01*
X276759Y288347D01*
X277159Y288747D01*
X276759D01*
X276359Y289147D01*
X275959Y288747D01*
X275559D01*
X275959Y288347D01*
X275559Y287947D01*
X275959D01*
X276359Y287547D01*
Y287947D02*
X276559Y288147D01*
X276759D01*
X276559Y288347D01*
X276759Y288547D01*
X276559D01*
X276359Y288747D01*
X276159Y288547D01*
X275959D01*
X276159Y288347D01*
X275959Y288147D01*
X276159D01*
X276359Y287947D01*
X305500Y444600D02*
X305900Y445000D01*
X306300D01*
X305900Y445400D01*
X306300Y445800D01*
X305900D01*
X305500Y446200D01*
X305100Y445800D01*
X304700D01*
X305100Y445400D01*
X304700Y445000D01*
X305100D01*
X305500Y444600D01*
Y445000D02*
X305700Y445200D01*
X305900D01*
X305700Y445400D01*
X305900Y445600D01*
X305700D01*
X305500Y445800D01*
X305300Y445600D01*
X305100D01*
X305300Y445400D01*
X305100Y445200D01*
X305300D01*
X305500Y445000D01*
X331500Y445100D02*
X331900Y445500D01*
X332300D01*
X331900Y445900D01*
X332300Y446300D01*
X331900D01*
X331500Y446700D01*
X331100Y446300D01*
X330700D01*
X331100Y445900D01*
X330700Y445500D01*
X331100D01*
X331500Y445100D01*
Y445500D02*
X331700Y445700D01*
X331900D01*
X331700Y445900D01*
X331900Y446100D01*
X331700D01*
X331500Y446300D01*
X331300Y446100D01*
X331100D01*
X331300Y445900D01*
X331100Y445700D01*
X331300D01*
X331500Y445500D01*
X226000Y357600D02*
X226400Y358000D01*
X226800D01*
X226400Y358400D01*
X226800Y358800D01*
X226400D01*
X226000Y359200D01*
X225600Y358800D01*
X225200D01*
X225600Y358400D01*
X225200Y358000D01*
X225600D01*
X226000Y357600D01*
Y358000D02*
X226200Y358200D01*
X226400D01*
X226200Y358400D01*
X226400Y358600D01*
X226200D01*
X226000Y358800D01*
X225800Y358600D01*
X225600D01*
X225800Y358400D01*
X225600Y358200D01*
X225800D01*
X226000Y358000D01*
Y364600D02*
X226400Y365000D01*
X226800D01*
X226400Y365400D01*
X226800Y365800D01*
X226400D01*
X226000Y366200D01*
X225600Y365800D01*
X225200D01*
X225600Y365400D01*
X225200Y365000D01*
X225600D01*
X226000Y364600D01*
Y365000D02*
X226200Y365200D01*
X226400D01*
X226200Y365400D01*
X226400Y365600D01*
X226200D01*
X226000Y365800D01*
X225800Y365600D01*
X225600D01*
X225800Y365400D01*
X225600Y365200D01*
X225800D01*
X226000Y365000D01*
Y349900D02*
X226400Y350300D01*
X226800D01*
X226400Y350700D01*
X226800Y351100D01*
X226400D01*
X226000Y351500D01*
X225600Y351100D01*
X225200D01*
X225600Y350700D01*
X225200Y350300D01*
X225600D01*
X226000Y349900D01*
Y350300D02*
X226200Y350500D01*
X226400D01*
X226200Y350700D01*
X226400Y350900D01*
X226200D01*
X226000Y351100D01*
X225800Y350900D01*
X225600D01*
X225800Y350700D01*
X225600Y350500D01*
X225800D01*
X226000Y350300D01*
X241000Y410100D02*
X241400Y410500D01*
X241800D01*
X241400Y410900D01*
X241800Y411300D01*
X241400D01*
X241000Y411700D01*
X240600Y411300D01*
X240200D01*
X240600Y410900D01*
X240200Y410500D01*
X240600D01*
X241000Y410100D01*
Y410500D02*
X241200Y410700D01*
X241400D01*
X241200Y410900D01*
X241400Y411100D01*
X241200D01*
X241000Y411300D01*
X240800Y411100D01*
X240600D01*
X240800Y410900D01*
X240600Y410700D01*
X240800D01*
X241000Y410500D01*
X240900Y403100D02*
X241300Y403500D01*
X241700D01*
X241300Y403900D01*
X241700Y404300D01*
X241300D01*
X240900Y404700D01*
X240500Y404300D01*
X240100D01*
X240500Y403900D01*
X240100Y403500D01*
X240500D01*
X240900Y403100D01*
Y403500D02*
X241100Y403700D01*
X241300D01*
X241100Y403900D01*
X241300Y404100D01*
X241100D01*
X240900Y404300D01*
X240700Y404100D01*
X240500D01*
X240700Y403900D01*
X240500Y403700D01*
X240700D01*
X240900Y403500D01*
X249100Y386800D02*
X249500Y387200D01*
X249900D01*
X249500Y387600D01*
X249900Y388000D01*
X249500D01*
X249100Y388400D01*
X248700Y388000D01*
X248300D01*
X248700Y387600D01*
X248300Y387200D01*
X248700D01*
X249100Y386800D01*
Y387200D02*
X249300Y387400D01*
X249500D01*
X249300Y387600D01*
X249500Y387800D01*
X249300D01*
X249100Y388000D01*
X248900Y387800D01*
X248700D01*
X248900Y387600D01*
X248700Y387400D01*
X248900D01*
X249100Y387200D01*
X257500Y371300D02*
X257900Y371700D01*
X258300D01*
X257900Y372100D01*
X258300Y372500D01*
X257900D01*
X257500Y372900D01*
X257100Y372500D01*
X256700D01*
X257100Y372100D01*
X256700Y371700D01*
X257100D01*
X257500Y371300D01*
Y371700D02*
X257700Y371900D01*
X257900D01*
X257700Y372100D01*
X257900Y372300D01*
X257700D01*
X257500Y372500D01*
X257300Y372300D01*
X257100D01*
X257300Y372100D01*
X257100Y371900D01*
X257300D01*
X257500Y371700D01*
X263900Y356800D02*
X264300Y357200D01*
X264700D01*
X264300Y357600D01*
X264700Y358000D01*
X264300D01*
X263900Y358400D01*
X263500Y358000D01*
X263100D01*
X263500Y357600D01*
X263100Y357200D01*
X263500D01*
X263900Y356800D01*
Y357200D02*
X264100Y357400D01*
X264300D01*
X264100Y357600D01*
X264300Y357800D01*
X264100D01*
X263900Y358000D01*
X263700Y357800D01*
X263500D01*
X263700Y357600D01*
X263500Y357400D01*
X263700D01*
X263900Y357200D01*
X264400Y378500D02*
X264800Y378900D01*
X265200D01*
X264800Y379300D01*
X265200Y379700D01*
X264800D01*
X264400Y380100D01*
X264000Y379700D01*
X263600D01*
X264000Y379300D01*
X263600Y378900D01*
X264000D01*
X264400Y378500D01*
Y378900D02*
X264600Y379100D01*
X264800D01*
X264600Y379300D01*
X264800Y379500D01*
X264600D01*
X264400Y379700D01*
X264200Y379500D01*
X264000D01*
X264200Y379300D01*
X264000Y379100D01*
X264200D01*
X264400Y378900D01*
X249000Y381600D02*
X249400Y382000D01*
X249800D01*
X249400Y382400D01*
X249800Y382800D01*
X249400D01*
X249000Y383200D01*
X248600Y382800D01*
X248200D01*
X248600Y382400D01*
X248200Y382000D01*
X248600D01*
X249000Y381600D01*
Y382000D02*
X249200Y382200D01*
X249400D01*
X249200Y382400D01*
X249400Y382600D01*
X249200D01*
X249000Y382800D01*
X248800Y382600D01*
X248600D01*
X248800Y382400D01*
X248600Y382200D01*
X248800D01*
X249000Y382000D01*
Y373700D02*
X249400Y374100D01*
X249800D01*
X249400Y374500D01*
X249800Y374900D01*
X249400D01*
X249000Y375300D01*
X248600Y374900D01*
X248200D01*
X248600Y374500D01*
X248200Y374100D01*
X248600D01*
X249000Y373700D01*
Y374100D02*
X249200Y374300D01*
X249400D01*
X249200Y374500D01*
X249400Y374700D01*
X249200D01*
X249000Y374900D01*
X248800Y374700D01*
X248600D01*
X248800Y374500D01*
X248600Y374300D01*
X248800D01*
X249000Y374100D01*
X264200Y371300D02*
X264600Y371700D01*
X265000D01*
X264600Y372100D01*
X265000Y372500D01*
X264600D01*
X264200Y372900D01*
X263800Y372500D01*
X263400D01*
X263800Y372100D01*
X263400Y371700D01*
X263800D01*
X264200Y371300D01*
Y371700D02*
X264400Y371900D01*
X264600D01*
X264400Y372100D01*
X264600Y372300D01*
X264400D01*
X264200Y372500D01*
X264000Y372300D01*
X263800D01*
X264000Y372100D01*
X263800Y371900D01*
X264000D01*
X264200Y371700D01*
X165700Y364500D02*
X166100Y364900D01*
X166500D01*
X166100Y365300D01*
X166500Y365700D01*
X166100D01*
X165700Y366100D01*
X165300Y365700D01*
X164900D01*
X165300Y365300D01*
X164900Y364900D01*
X165300D01*
X165700Y364500D01*
Y364900D02*
X165900Y365100D01*
X166100D01*
X165900Y365300D01*
X166100Y365500D01*
X165900D01*
X165700Y365700D01*
X165500Y365500D01*
X165300D01*
X165500Y365300D01*
X165300Y365100D01*
X165500D01*
X165700Y364900D01*
X182100Y380903D02*
X182500Y381303D01*
X182900D01*
X182500Y381703D01*
X182900Y382103D01*
X182500D01*
X182100Y382503D01*
X181700Y382103D01*
X181300D01*
X181700Y381703D01*
X181300Y381303D01*
X181700D01*
X182100Y380903D01*
Y381303D02*
X182300Y381503D01*
X182500D01*
X182300Y381703D01*
X182500Y381903D01*
X182300D01*
X182100Y382103D01*
X181900Y381903D01*
X181700D01*
X181900Y381703D01*
X181700Y381503D01*
X181900D01*
X182100Y381303D01*
X209100Y346500D02*
X209500Y346900D01*
X209900D01*
X209500Y347300D01*
X209900Y347700D01*
X209500D01*
X209100Y348100D01*
X208700Y347700D01*
X208300D01*
X208700Y347300D01*
X208300Y346900D01*
X208700D01*
X209100Y346500D01*
Y346900D02*
X209300Y347100D01*
X209500D01*
X209300Y347300D01*
X209500Y347500D01*
X209300D01*
X209100Y347700D01*
X208900Y347500D01*
X208700D01*
X208900Y347300D01*
X208700Y347100D01*
X208900D01*
X209100Y346900D01*
X190400Y329800D02*
X190800Y330200D01*
X191200D01*
X190800Y330600D01*
X191200Y331000D01*
X190800D01*
X190400Y331400D01*
X190000Y331000D01*
X189600D01*
X190000Y330600D01*
X189600Y330200D01*
X190000D01*
X190400Y329800D01*
Y330200D02*
X190600Y330400D01*
X190800D01*
X190600Y330600D01*
X190800Y330800D01*
X190600D01*
X190400Y331000D01*
X190200Y330800D01*
X190000D01*
X190200Y330600D01*
X190000Y330400D01*
X190200D01*
X190400Y330200D01*
X213600Y323300D02*
X214000Y323700D01*
X214400D01*
X214000Y324100D01*
X214400Y324500D01*
X214000D01*
X213600Y324900D01*
X213200Y324500D01*
X212800D01*
X213200Y324100D01*
X212800Y323700D01*
X213200D01*
X213600Y323300D01*
Y323700D02*
X213800Y323900D01*
X214000D01*
X213800Y324100D01*
X214000Y324300D01*
X213800D01*
X213600Y324500D01*
X213400Y324300D01*
X213200D01*
X213400Y324100D01*
X213200Y323900D01*
X213400D01*
X213600Y323700D01*
X218300Y323500D02*
X218700Y323900D01*
X219100D01*
X218700Y324300D01*
X219100Y324700D01*
X218700D01*
X218300Y325100D01*
X217900Y324700D01*
X217500D01*
X217900Y324300D01*
X217500Y323900D01*
X217900D01*
X218300Y323500D01*
Y323900D02*
X218500Y324100D01*
X218700D01*
X218500Y324300D01*
X218700Y324500D01*
X218500D01*
X218300Y324700D01*
X218100Y324500D01*
X217900D01*
X218100Y324300D01*
X217900Y324100D01*
X218100D01*
X218300Y323900D01*
X222700Y323400D02*
X223100Y323800D01*
X223500D01*
X223100Y324200D01*
X223500Y324600D01*
X223100D01*
X222700Y325000D01*
X222300Y324600D01*
X221900D01*
X222300Y324200D01*
X221900Y323800D01*
X222300D01*
X222700Y323400D01*
Y323800D02*
X222900Y324000D01*
X223100D01*
X222900Y324200D01*
X223100Y324400D01*
X222900D01*
X222700Y324600D01*
X222500Y324400D01*
X222300D01*
X222500Y324200D01*
X222300Y324000D01*
X222500D01*
X222700Y323800D01*
X216700Y336700D02*
X217100Y337100D01*
X217500D01*
X217100Y337500D01*
X217500Y337900D01*
X217100D01*
X216700Y338300D01*
X216300Y337900D01*
X215900D01*
X216300Y337500D01*
X215900Y337100D01*
X216300D01*
X216700Y336700D01*
Y337100D02*
X216900Y337300D01*
X217100D01*
X216900Y337500D01*
X217100Y337700D01*
X216900D01*
X216700Y337900D01*
X216500Y337700D01*
X216300D01*
X216500Y337500D01*
X216300Y337300D01*
X216500D01*
X216700Y337100D01*
X221100Y336800D02*
X221500Y337200D01*
X221900D01*
X221500Y337600D01*
X221900Y338000D01*
X221500D01*
X221100Y338400D01*
X220700Y338000D01*
X220300D01*
X220700Y337600D01*
X220300Y337200D01*
X220700D01*
X221100Y336800D01*
Y337200D02*
X221300Y337400D01*
X221500D01*
X221300Y337600D01*
X221500Y337800D01*
X221300D01*
X221100Y338000D01*
X220900Y337800D01*
X220700D01*
X220900Y337600D01*
X220700Y337400D01*
X220900D01*
X221100Y337200D01*
X218900Y354600D02*
X219300Y355000D01*
X219700D01*
X219300Y355400D01*
X219700Y355800D01*
X219300D01*
X218900Y356200D01*
X218500Y355800D01*
X218100D01*
X218500Y355400D01*
X218100Y355000D01*
X218500D01*
X218900Y354600D01*
Y355000D02*
X219100Y355200D01*
X219300D01*
X219100Y355400D01*
X219300Y355600D01*
X219100D01*
X218900Y355800D01*
X218700Y355600D01*
X218500D01*
X218700Y355400D01*
X218500Y355200D01*
X218700D01*
X218900Y355000D01*
X218600Y348000D02*
X219000Y348400D01*
X219400D01*
X219000Y348800D01*
X219400Y349200D01*
X219000D01*
X218600Y349600D01*
X218200Y349200D01*
X217800D01*
X218200Y348800D01*
X217800Y348400D01*
X218200D01*
X218600Y348000D01*
Y348400D02*
X218800Y348600D01*
X219000D01*
X218800Y348800D01*
X219000Y349000D01*
X218800D01*
X218600Y349200D01*
X218400Y349000D01*
X218200D01*
X218400Y348800D01*
X218200Y348600D01*
X218400D01*
X218600Y348400D01*
X222100Y343700D02*
X222500Y344100D01*
X222900D01*
X222500Y344500D01*
X222900Y344900D01*
X222500D01*
X222100Y345300D01*
X221700Y344900D01*
X221300D01*
X221700Y344500D01*
X221300Y344100D01*
X221700D01*
X222100Y343700D01*
Y344100D02*
X222300Y344300D01*
X222500D01*
X222300Y344500D01*
X222500Y344700D01*
X222300D01*
X222100Y344900D01*
X221900Y344700D01*
X221700D01*
X221900Y344500D01*
X221700Y344300D01*
X221900D01*
X222100Y344100D01*
X208900Y384900D02*
X209300Y385300D01*
X209700D01*
X209300Y385700D01*
X209700Y386100D01*
X209300D01*
X208900Y386500D01*
X208500Y386100D01*
X208100D01*
X208500Y385700D01*
X208100Y385300D01*
X208500D01*
X208900Y384900D01*
Y385300D02*
X209100Y385500D01*
X209300D01*
X209100Y385700D01*
X209300Y385900D01*
X209100D01*
X208900Y386100D01*
X208700Y385900D01*
X208500D01*
X208700Y385700D01*
X208500Y385500D01*
X208700D01*
X208900Y385300D01*
X214400Y385100D02*
X214800Y385500D01*
X215200D01*
X214800Y385900D01*
X215200Y386300D01*
X214800D01*
X214400Y386700D01*
X214000Y386300D01*
X213600D01*
X214000Y385900D01*
X213600Y385500D01*
X214000D01*
X214400Y385100D01*
Y385500D02*
X214600Y385700D01*
X214800D01*
X214600Y385900D01*
X214800Y386100D01*
X214600D01*
X214400Y386300D01*
X214200Y386100D01*
X214000D01*
X214200Y385900D01*
X214000Y385700D01*
X214200D01*
X214400Y385500D01*
X212000Y378800D02*
X212400Y379200D01*
X212800D01*
X212400Y379600D01*
X212800Y380000D01*
X212400D01*
X212000Y380400D01*
X211600Y380000D01*
X211200D01*
X211600Y379600D01*
X211200Y379200D01*
X211600D01*
X212000Y378800D01*
Y379200D02*
X212200Y379400D01*
X212400D01*
X212200Y379600D01*
X212400Y379800D01*
X212200D01*
X212000Y380000D01*
X211800Y379800D01*
X211600D01*
X211800Y379600D01*
X211600Y379400D01*
X211800D01*
X212000Y379200D01*
X201600Y396100D02*
X202000Y396500D01*
X202400D01*
X202000Y396900D01*
X202400Y397300D01*
X202000D01*
X201600Y397700D01*
X201200Y397300D01*
X200800D01*
X201200Y396900D01*
X200800Y396500D01*
X201200D01*
X201600Y396100D01*
Y396500D02*
X201800Y396700D01*
X202000D01*
X201800Y396900D01*
X202000Y397100D01*
X201800D01*
X201600Y397300D01*
X201400Y397100D01*
X201200D01*
X201400Y396900D01*
X201200Y396700D01*
X201400D01*
X201600Y396500D01*
X208600Y396100D02*
X209000Y396500D01*
X209400D01*
X209000Y396900D01*
X209400Y397300D01*
X209000D01*
X208600Y397700D01*
X208200Y397300D01*
X207800D01*
X208200Y396900D01*
X207800Y396500D01*
X208200D01*
X208600Y396100D01*
Y396500D02*
X208800Y396700D01*
X209000D01*
X208800Y396900D01*
X209000Y397100D01*
X208800D01*
X208600Y397300D01*
X208400Y397100D01*
X208200D01*
X208400Y396900D01*
X208200Y396700D01*
X208400D01*
X208600Y396500D01*
X214000Y396100D02*
X214400Y396500D01*
X214800D01*
X214400Y396900D01*
X214800Y397300D01*
X214400D01*
X214000Y397700D01*
X213600Y397300D01*
X213200D01*
X213600Y396900D01*
X213200Y396500D01*
X213600D01*
X214000Y396100D01*
Y396500D02*
X214200Y396700D01*
X214400D01*
X214200Y396900D01*
X214400Y397100D01*
X214200D01*
X214000Y397300D01*
X213800Y397100D01*
X213600D01*
X213800Y396900D01*
X213600Y396700D01*
X213800D01*
X214000Y396500D01*
X190900Y394800D02*
X191300Y395200D01*
X191700D01*
X191300Y395600D01*
X191700Y396000D01*
X191300D01*
X190900Y396400D01*
X190500Y396000D01*
X190100D01*
X190500Y395600D01*
X190100Y395200D01*
X190500D01*
X190900Y394800D01*
Y395200D02*
X191100Y395400D01*
X191300D01*
X191100Y395600D01*
X191300Y395800D01*
X191100D01*
X190900Y396000D01*
X190700Y395800D01*
X190500D01*
X190700Y395600D01*
X190500Y395400D01*
X190700D01*
X190900Y395200D01*
X212900Y286400D02*
X213300Y286800D01*
X213700D01*
X213300Y287200D01*
X213700Y287600D01*
X213300D01*
X212900Y288000D01*
X212500Y287600D01*
X212100D01*
X212500Y287200D01*
X212100Y286800D01*
X212500D01*
X212900Y286400D01*
Y286800D02*
X213100Y287000D01*
X213300D01*
X213100Y287200D01*
X213300Y287400D01*
X213100D01*
X212900Y287600D01*
X212700Y287400D01*
X212500D01*
X212700Y287200D01*
X212500Y287000D01*
X212700D01*
X212900Y286800D01*
X215300Y279400D02*
X215700Y279800D01*
X216100D01*
X215700Y280200D01*
X216100Y280600D01*
X215700D01*
X215300Y281000D01*
X214900Y280600D01*
X214500D01*
X214900Y280200D01*
X214500Y279800D01*
X214900D01*
X215300Y279400D01*
Y279800D02*
X215500Y280000D01*
X215700D01*
X215500Y280200D01*
X215700Y280400D01*
X215500D01*
X215300Y280600D01*
X215100Y280400D01*
X214900D01*
X215100Y280200D01*
X214900Y280000D01*
X215100D01*
X215300Y279800D01*
X199100Y279500D02*
X199500Y279900D01*
X199900D01*
X199500Y280300D01*
X199900Y280700D01*
X199500D01*
X199100Y281100D01*
X198700Y280700D01*
X198300D01*
X198700Y280300D01*
X198300Y279900D01*
X198700D01*
X199100Y279500D01*
Y279900D02*
X199300Y280100D01*
X199500D01*
X199300Y280300D01*
X199500Y280500D01*
X199300D01*
X199100Y280700D01*
X198900Y280500D01*
X198700D01*
X198900Y280300D01*
X198700Y280100D01*
X198900D01*
X199100Y279900D01*
X192700Y295300D02*
X193100Y295700D01*
X193500D01*
X193100Y296100D01*
X193500Y296500D01*
X193100D01*
X192700Y296900D01*
X192300Y296500D01*
X191900D01*
X192300Y296100D01*
X191900Y295700D01*
X192300D01*
X192700Y295300D01*
Y295700D02*
X192900Y295900D01*
X193100D01*
X192900Y296100D01*
X193100Y296300D01*
X192900D01*
X192700Y296500D01*
X192500Y296300D01*
X192300D01*
X192500Y296100D01*
X192300Y295900D01*
X192500D01*
X192700Y295700D01*
X201000Y293400D02*
X201400Y293800D01*
X201800D01*
X201400Y294200D01*
X201800Y294600D01*
X201400D01*
X201000Y295000D01*
X200600Y294600D01*
X200200D01*
X200600Y294200D01*
X200200Y293800D01*
X200600D01*
X201000Y293400D01*
Y293800D02*
X201200Y294000D01*
X201400D01*
X201200Y294200D01*
X201400Y294400D01*
X201200D01*
X201000Y294600D01*
X200800Y294400D01*
X200600D01*
X200800Y294200D01*
X200600Y294000D01*
X200800D01*
X201000Y293800D01*
X103800Y283100D02*
X104200Y283500D01*
X104600D01*
X104200Y283900D01*
X104600Y284300D01*
X104200D01*
X103800Y284700D01*
X103400Y284300D01*
X103000D01*
X103400Y283900D01*
X103000Y283500D01*
X103400D01*
X103800Y283100D01*
Y283500D02*
X104000Y283700D01*
X104200D01*
X104000Y283900D01*
X104200Y284100D01*
X104000D01*
X103800Y284300D01*
X103600Y284100D01*
X103400D01*
X103600Y283900D01*
X103400Y283700D01*
X103600D01*
X103800Y283500D01*
X86800Y295400D02*
X87200Y295800D01*
X87600D01*
X87200Y296200D01*
X87600Y296600D01*
X87200D01*
X86800Y297000D01*
X86400Y296600D01*
X86000D01*
X86400Y296200D01*
X86000Y295800D01*
X86400D01*
X86800Y295400D01*
Y295800D02*
X87000Y296000D01*
X87200D01*
X87000Y296200D01*
X87200Y296400D01*
X87000D01*
X86800Y296600D01*
X86600Y296400D01*
X86400D01*
X86600Y296200D01*
X86400Y296000D01*
X86600D01*
X86800Y295800D01*
X110300Y297800D02*
X110700Y298200D01*
X111100D01*
X110700Y298600D01*
X111100Y299000D01*
X110700D01*
X110300Y299400D01*
X109900Y299000D01*
X109500D01*
X109900Y298600D01*
X109500Y298200D01*
X109900D01*
X110300Y297800D01*
Y298200D02*
X110500Y298400D01*
X110700D01*
X110500Y298600D01*
X110700Y298800D01*
X110500D01*
X110300Y299000D01*
X110100Y298800D01*
X109900D01*
X110100Y298600D01*
X109900Y298400D01*
X110100D01*
X110300Y298200D01*
X132400Y304100D02*
X132800Y304500D01*
X133200D01*
X132800Y304900D01*
X133200Y305300D01*
X132800D01*
X132400Y305700D01*
X132000Y305300D01*
X131600D01*
X132000Y304900D01*
X131600Y304500D01*
X132000D01*
X132400Y304100D01*
Y304500D02*
X132600Y304700D01*
X132800D01*
X132600Y304900D01*
X132800Y305100D01*
X132600D01*
X132400Y305300D01*
X132200Y305100D01*
X132000D01*
X132200Y304900D01*
X132000Y304700D01*
X132200D01*
X132400Y304500D01*
X153900Y300700D02*
X154300Y301100D01*
X154700D01*
X154300Y301500D01*
X154700Y301900D01*
X154300D01*
X153900Y302300D01*
X153500Y301900D01*
X153100D01*
X153500Y301500D01*
X153100Y301100D01*
X153500D01*
X153900Y300700D01*
Y301100D02*
X154100Y301300D01*
X154300D01*
X154100Y301500D01*
X154300Y301700D01*
X154100D01*
X153900Y301900D01*
X153700Y301700D01*
X153500D01*
X153700Y301500D01*
X153500Y301300D01*
X153700D01*
X153900Y301100D01*
X147600Y322400D02*
X148000Y322800D01*
X148400D01*
X148000Y323200D01*
X148400Y323600D01*
X148000D01*
X147600Y324000D01*
X147200Y323600D01*
X146800D01*
X147200Y323200D01*
X146800Y322800D01*
X147200D01*
X147600Y322400D01*
Y322800D02*
X147800Y323000D01*
X148000D01*
X147800Y323200D01*
X148000Y323400D01*
X147800D01*
X147600Y323600D01*
X147400Y323400D01*
X147200D01*
X147400Y323200D01*
X147200Y323000D01*
X147400D01*
X147600Y322800D01*
X168900Y296900D02*
X169300Y297300D01*
X169700D01*
X169300Y297700D01*
X169700Y298100D01*
X169300D01*
X168900Y298500D01*
X168500Y298100D01*
X168100D01*
X168500Y297700D01*
X168100Y297300D01*
X168500D01*
X168900Y296900D01*
Y297300D02*
X169100Y297500D01*
X169300D01*
X169100Y297700D01*
X169300Y297900D01*
X169100D01*
X168900Y298100D01*
X168700Y297900D01*
X168500D01*
X168700Y297700D01*
X168500Y297500D01*
X168700D01*
X168900Y297300D01*
X179600Y292400D02*
X180000Y292800D01*
X180400D01*
X180000Y293200D01*
X180400Y293600D01*
X180000D01*
X179600Y294000D01*
X179200Y293600D01*
X178800D01*
X179200Y293200D01*
X178800Y292800D01*
X179200D01*
X179600Y292400D01*
Y292800D02*
X179800Y293000D01*
X180000D01*
X179800Y293200D01*
X180000Y293400D01*
X179800D01*
X179600Y293600D01*
X179400Y293400D01*
X179200D01*
X179400Y293200D01*
X179200Y293000D01*
X179400D01*
X179600Y292800D01*
X185900Y292400D02*
X186300Y292800D01*
X186700D01*
X186300Y293200D01*
X186700Y293600D01*
X186300D01*
X185900Y294000D01*
X185500Y293600D01*
X185100D01*
X185500Y293200D01*
X185100Y292800D01*
X185500D01*
X185900Y292400D01*
Y292800D02*
X186100Y293000D01*
X186300D01*
X186100Y293200D01*
X186300Y293400D01*
X186100D01*
X185900Y293600D01*
X185700Y293400D01*
X185500D01*
X185700Y293200D01*
X185500Y293000D01*
X185700D01*
X185900Y292800D01*
X173700Y292600D02*
X174100Y293000D01*
X174500D01*
X174100Y293400D01*
X174500Y293800D01*
X174100D01*
X173700Y294200D01*
X173300Y293800D01*
X172900D01*
X173300Y293400D01*
X172900Y293000D01*
X173300D01*
X173700Y292600D01*
Y293000D02*
X173900Y293200D01*
X174100D01*
X173900Y293400D01*
X174100Y293600D01*
X173900D01*
X173700Y293800D01*
X173500Y293600D01*
X173300D01*
X173500Y293400D01*
X173300Y293200D01*
X173500D01*
X173700Y293000D01*
X119300Y317400D02*
X119700Y317800D01*
X120100D01*
X119700Y318200D01*
X120100Y318600D01*
X119700D01*
X119300Y319000D01*
X118900Y318600D01*
X118500D01*
X118900Y318200D01*
X118500Y317800D01*
X118900D01*
X119300Y317400D01*
Y317800D02*
X119500Y318000D01*
X119700D01*
X119500Y318200D01*
X119700Y318400D01*
X119500D01*
X119300Y318600D01*
X119100Y318400D01*
X118900D01*
X119100Y318200D01*
X118900Y318000D01*
X119100D01*
X119300Y317800D01*
X124700Y312500D02*
X125100Y312900D01*
X125500D01*
X125100Y313300D01*
X125500Y313700D01*
X125100D01*
X124700Y314100D01*
X124300Y313700D01*
X123900D01*
X124300Y313300D01*
X123900Y312900D01*
X124300D01*
X124700Y312500D01*
Y312900D02*
X124900Y313100D01*
X125100D01*
X124900Y313300D01*
X125100Y313500D01*
X124900D01*
X124700Y313700D01*
X124500Y313500D01*
X124300D01*
X124500Y313300D01*
X124300Y313100D01*
X124500D01*
X124700Y312900D01*
X133900Y310300D02*
X134300Y310700D01*
X134700D01*
X134300Y311100D01*
X134700Y311500D01*
X134300D01*
X133900Y311900D01*
X133500Y311500D01*
X133100D01*
X133500Y311100D01*
X133100Y310700D01*
X133500D01*
X133900Y310300D01*
Y310700D02*
X134100Y310900D01*
X134300D01*
X134100Y311100D01*
X134300Y311300D01*
X134100D01*
X133900Y311500D01*
X133700Y311300D01*
X133500D01*
X133700Y311100D01*
X133500Y310900D01*
X133700D01*
X133900Y310700D01*
X142600Y310400D02*
X143000Y310800D01*
X143400D01*
X143000Y311200D01*
X143400Y311600D01*
X143000D01*
X142600Y312000D01*
X142200Y311600D01*
X141800D01*
X142200Y311200D01*
X141800Y310800D01*
X142200D01*
X142600Y310400D01*
Y310800D02*
X142800Y311000D01*
X143000D01*
X142800Y311200D01*
X143000Y311400D01*
X142800D01*
X142600Y311600D01*
X142400Y311400D01*
X142200D01*
X142400Y311200D01*
X142200Y311000D01*
X142400D01*
X142600Y310800D01*
X98800Y348600D02*
X99200Y349000D01*
X99600D01*
X99200Y349400D01*
X99600Y349800D01*
X99200D01*
X98800Y350200D01*
X98400Y349800D01*
X98000D01*
X98400Y349400D01*
X98000Y349000D01*
X98400D01*
X98800Y348600D01*
Y349000D02*
X99000Y349200D01*
X99200D01*
X99000Y349400D01*
X99200Y349600D01*
X99000D01*
X98800Y349800D01*
X98600Y349600D01*
X98400D01*
X98600Y349400D01*
X98400Y349200D01*
X98600D01*
X98800Y349000D01*
Y359400D02*
X99200Y359800D01*
X99600D01*
X99200Y360200D01*
X99600Y360600D01*
X99200D01*
X98800Y361000D01*
X98400Y360600D01*
X98000D01*
X98400Y360200D01*
X98000Y359800D01*
X98400D01*
X98800Y359400D01*
Y359800D02*
X99000Y360000D01*
X99200D01*
X99000Y360200D01*
X99200Y360400D01*
X99000D01*
X98800Y360600D01*
X98600Y360400D01*
X98400D01*
X98600Y360200D01*
X98400Y360000D01*
X98600D01*
X98800Y359800D01*
X98900Y365900D02*
X99300Y366300D01*
X99700D01*
X99300Y366700D01*
X99700Y367100D01*
X99300D01*
X98900Y367500D01*
X98500Y367100D01*
X98100D01*
X98500Y366700D01*
X98100Y366300D01*
X98500D01*
X98900Y365900D01*
Y366300D02*
X99100Y366500D01*
X99300D01*
X99100Y366700D01*
X99300Y366900D01*
X99100D01*
X98900Y367100D01*
X98700Y366900D01*
X98500D01*
X98700Y366700D01*
X98500Y366500D01*
X98700D01*
X98900Y366300D01*
Y371900D02*
X99300Y372300D01*
X99700D01*
X99300Y372700D01*
X99700Y373100D01*
X99300D01*
X98900Y373500D01*
X98500Y373100D01*
X98100D01*
X98500Y372700D01*
X98100Y372300D01*
X98500D01*
X98900Y371900D01*
Y372300D02*
X99100Y372500D01*
X99300D01*
X99100Y372700D01*
X99300Y372900D01*
X99100D01*
X98900Y373100D01*
X98700Y372900D01*
X98500D01*
X98700Y372700D01*
X98500Y372500D01*
X98700D01*
X98900Y372300D01*
X86624Y395495D02*
X87024Y395895D01*
X87424D01*
X87024Y396295D01*
X87424Y396695D01*
X87024D01*
X86624Y397095D01*
X86224Y396695D01*
X85824D01*
X86224Y396295D01*
X85824Y395895D01*
X86224D01*
X86624Y395495D01*
Y395895D02*
X86824Y396095D01*
X87024D01*
X86824Y396295D01*
X87024Y396495D01*
X86824D01*
X86624Y396695D01*
X86424Y396495D01*
X86224D01*
X86424Y396295D01*
X86224Y396095D01*
X86424D01*
X86624Y395895D01*
X115600Y392800D02*
X116000Y393200D01*
X116400D01*
X116000Y393600D01*
X116400Y394000D01*
X116000D01*
X115600Y394400D01*
X115200Y394000D01*
X114800D01*
X115200Y393600D01*
X114800Y393200D01*
X115200D01*
X115600Y392800D01*
Y393200D02*
X115800Y393400D01*
X116000D01*
X115800Y393600D01*
X116000Y393800D01*
X115800D01*
X115600Y394000D01*
X115400Y393800D01*
X115200D01*
X115400Y393600D01*
X115200Y393400D01*
X115400D01*
X115600Y393200D01*
X145700Y433900D02*
X146100Y434300D01*
X146500D01*
X146100Y434700D01*
X146500Y435100D01*
X146100D01*
X145700Y435500D01*
X145300Y435100D01*
X144900D01*
X145300Y434700D01*
X144900Y434300D01*
X145300D01*
X145700Y433900D01*
Y434300D02*
X145900Y434500D01*
X146100D01*
X145900Y434700D01*
X146100Y434900D01*
X145900D01*
X145700Y435100D01*
X145500Y434900D01*
X145300D01*
X145500Y434700D01*
X145300Y434500D01*
X145500D01*
X145700Y434300D01*
X79995Y447200D02*
X80395Y447600D01*
X80795D01*
X80395Y448000D01*
X80795Y448400D01*
X80395D01*
X79995Y448800D01*
X79595Y448400D01*
X79195D01*
X79595Y448000D01*
X79195Y447600D01*
X79595D01*
X79995Y447200D01*
Y447600D02*
X80195Y447800D01*
X80395D01*
X80195Y448000D01*
X80395Y448200D01*
X80195D01*
X79995Y448400D01*
X79795Y448200D01*
X79595D01*
X79795Y448000D01*
X79595Y447800D01*
X79795D01*
X79995Y447600D01*
X160200Y413100D02*
X160600Y413500D01*
X161000D01*
X160600Y413900D01*
X161000Y414300D01*
X160600D01*
X160200Y414700D01*
X159800Y414300D01*
X159400D01*
X159800Y413900D01*
X159400Y413500D01*
X159800D01*
X160200Y413100D01*
Y413500D02*
X160400Y413700D01*
X160600D01*
X160400Y413900D01*
X160600Y414100D01*
X160400D01*
X160200Y414300D01*
X160000Y414100D01*
X159800D01*
X160000Y413900D01*
X159800Y413700D01*
X160000D01*
X160200Y413500D01*
X173500Y408200D02*
X173900Y408600D01*
X174300D01*
X173900Y409000D01*
X174300Y409400D01*
X173900D01*
X173500Y409800D01*
X173100Y409400D01*
X172700D01*
X173100Y409000D01*
X172700Y408600D01*
X173100D01*
X173500Y408200D01*
Y408600D02*
X173700Y408800D01*
X173900D01*
X173700Y409000D01*
X173900Y409200D01*
X173700D01*
X173500Y409400D01*
X173300Y409200D01*
X173100D01*
X173300Y409000D01*
X173100Y408800D01*
X173300D01*
X173500Y408600D01*
X171500Y425100D02*
X171900Y425500D01*
X172300D01*
X171900Y425900D01*
X172300Y426300D01*
X171900D01*
X171500Y426700D01*
X171100Y426300D01*
X170700D01*
X171100Y425900D01*
X170700Y425500D01*
X171100D01*
X171500Y425100D01*
Y425500D02*
X171700Y425700D01*
X171900D01*
X171700Y425900D01*
X171900Y426100D01*
X171700D01*
X171500Y426300D01*
X171300Y426100D01*
X171100D01*
X171300Y425900D01*
X171100Y425700D01*
X171300D01*
X171500Y425500D01*
X158400Y421100D02*
X158800Y421500D01*
X159200D01*
X158800Y421900D01*
X159200Y422300D01*
X158800D01*
X158400Y422700D01*
X158000Y422300D01*
X157600D01*
X158000Y421900D01*
X157600Y421500D01*
X158000D01*
X158400Y421100D01*
Y421500D02*
X158600Y421700D01*
X158800D01*
X158600Y421900D01*
X158800Y422100D01*
X158600D01*
X158400Y422300D01*
X158200Y422100D01*
X158000D01*
X158200Y421900D01*
X158000Y421700D01*
X158200D01*
X158400Y421500D01*
X93100Y424000D02*
X93500Y424400D01*
X93900D01*
X93500Y424800D01*
X93900Y425200D01*
X93500D01*
X93100Y425600D01*
X92700Y425200D01*
X92300D01*
X92700Y424800D01*
X92300Y424400D01*
X92700D01*
X93100Y424000D01*
Y424400D02*
X93300Y424600D01*
X93500D01*
X93300Y424800D01*
X93500Y425000D01*
X93300D01*
X93100Y425200D01*
X92900Y425000D01*
X92700D01*
X92900Y424800D01*
X92700Y424600D01*
X92900D01*
X93100Y424400D01*
X92900Y434900D02*
X93300Y435300D01*
X93700D01*
X93300Y435700D01*
X93700Y436100D01*
X93300D01*
X92900Y436500D01*
X92500Y436100D01*
X92100D01*
X92500Y435700D01*
X92100Y435300D01*
X92500D01*
X92900Y434900D01*
Y435300D02*
X93100Y435500D01*
X93300D01*
X93100Y435700D01*
X93300Y435900D01*
X93100D01*
X92900Y436100D01*
X92700Y435900D01*
X92500D01*
X92700Y435700D01*
X92500Y435500D01*
X92700D01*
X92900Y435300D01*
X369900Y236600D02*
X370300Y237000D01*
X370700D01*
X370300Y237400D01*
X370700Y237800D01*
X370300D01*
X369900Y238200D01*
X369500Y237800D01*
X369100D01*
X369500Y237400D01*
X369100Y237000D01*
X369500D01*
X369900Y236600D01*
Y237000D02*
X370100Y237200D01*
X370300D01*
X370100Y237400D01*
X370300Y237600D01*
X370100D01*
X369900Y237800D01*
X369700Y237600D01*
X369500D01*
X369700Y237400D01*
X369500Y237200D01*
X369700D01*
X369900Y237000D01*
X241200Y422400D02*
X241600Y422800D01*
X242000D01*
X241600Y423200D01*
X242000Y423600D01*
X241600D01*
X241200Y424000D01*
X240800Y423600D01*
X240400D01*
X240800Y423200D01*
X240400Y422800D01*
X240800D01*
X241200Y422400D01*
Y422800D02*
X241400Y423000D01*
X241600D01*
X241400Y423200D01*
X241600Y423400D01*
X241400D01*
X241200Y423600D01*
X241000Y423400D01*
X240800D01*
X241000Y423200D01*
X240800Y423000D01*
X241000D01*
X241200Y422800D01*
X241400Y427900D02*
X241800Y428300D01*
X242200D01*
X241800Y428700D01*
X242200Y429100D01*
X241800D01*
X241400Y429500D01*
X241000Y429100D01*
X240600D01*
X241000Y428700D01*
X240600Y428300D01*
X241000D01*
X241400Y427900D01*
Y428300D02*
X241600Y428500D01*
X241800D01*
X241600Y428700D01*
X241800Y428900D01*
X241600D01*
X241400Y429100D01*
X241200Y428900D01*
X241000D01*
X241200Y428700D01*
X241000Y428500D01*
X241200D01*
X241400Y428300D01*
X248100Y427800D02*
X248500Y428200D01*
X248900D01*
X248500Y428600D01*
X248900Y429000D01*
X248500D01*
X248100Y429400D01*
X247700Y429000D01*
X247300D01*
X247700Y428600D01*
X247300Y428200D01*
X247700D01*
X248100Y427800D01*
Y428200D02*
X248300Y428400D01*
X248500D01*
X248300Y428600D01*
X248500Y428800D01*
X248300D01*
X248100Y429000D01*
X247900Y428800D01*
X247700D01*
X247900Y428600D01*
X247700Y428400D01*
X247900D01*
X248100Y428200D01*
X245700Y432400D02*
X246100Y432800D01*
X246500D01*
X246100Y433200D01*
X246500Y433600D01*
X246100D01*
X245700Y434000D01*
X245300Y433600D01*
X244900D01*
X245300Y433200D01*
X244900Y432800D01*
X245300D01*
X245700Y432400D01*
Y432800D02*
X245900Y433000D01*
X246100D01*
X245900Y433200D01*
X246100Y433400D01*
X245900D01*
X245700Y433600D01*
X245500Y433400D01*
X245300D01*
X245500Y433200D01*
X245300Y433000D01*
X245500D01*
X245700Y432800D01*
X126400Y425600D02*
X126800Y426000D01*
X127200D01*
X126800Y426400D01*
X127200Y426800D01*
X126800D01*
X126400Y427200D01*
X126000Y426800D01*
X125600D01*
X126000Y426400D01*
X125600Y426000D01*
X126000D01*
X126400Y425600D01*
Y426000D02*
X126600Y426200D01*
X126800D01*
X126600Y426400D01*
X126800Y426600D01*
X126600D01*
X126400Y426800D01*
X126200Y426600D01*
X126000D01*
X126200Y426400D01*
X126000Y426200D01*
X126200D01*
X126400Y426000D01*
X138500Y426200D02*
X138900Y426600D01*
X139300D01*
X138900Y427000D01*
X139300Y427400D01*
X138900D01*
X138500Y427800D01*
X138100Y427400D01*
X137700D01*
X138100Y427000D01*
X137700Y426600D01*
X138100D01*
X138500Y426200D01*
Y426600D02*
X138700Y426800D01*
X138900D01*
X138700Y427000D01*
X138900Y427200D01*
X138700D01*
X138500Y427400D01*
X138300Y427200D01*
X138100D01*
X138300Y427000D01*
X138100Y426800D01*
X138300D01*
X138500Y426600D01*
X140800Y433800D02*
X141200Y434200D01*
X141600D01*
X141200Y434600D01*
X141600Y435000D01*
X141200D01*
X140800Y435400D01*
X140400Y435000D01*
X140000D01*
X140400Y434600D01*
X140000Y434200D01*
X140400D01*
X140800Y433800D01*
Y434200D02*
X141000Y434400D01*
X141200D01*
X141000Y434600D01*
X141200Y434800D01*
X141000D01*
X140800Y435000D01*
X140600Y434800D01*
X140400D01*
X140600Y434600D01*
X140400Y434400D01*
X140600D01*
X140800Y434200D01*
X140700Y440400D02*
X141100Y440800D01*
X141500D01*
X141100Y441200D01*
X141500Y441600D01*
X141100D01*
X140700Y442000D01*
X140300Y441600D01*
X139900D01*
X140300Y441200D01*
X139900Y440800D01*
X140300D01*
X140700Y440400D01*
Y440800D02*
X140900Y441000D01*
X141100D01*
X140900Y441200D01*
X141100Y441400D01*
X140900D01*
X140700Y441600D01*
X140500Y441400D01*
X140300D01*
X140500Y441200D01*
X140300Y441000D01*
X140500D01*
X140700Y440800D01*
X147000Y443000D02*
X147400Y443400D01*
X147800D01*
X147400Y443800D01*
X147800Y444200D01*
X147400D01*
X147000Y444600D01*
X146600Y444200D01*
X146200D01*
X146600Y443800D01*
X146200Y443400D01*
X146600D01*
X147000Y443000D01*
Y443400D02*
X147200Y443600D01*
X147400D01*
X147200Y443800D01*
X147400Y444000D01*
X147200D01*
X147000Y444200D01*
X146800Y444000D01*
X146600D01*
X146800Y443800D01*
X146600Y443600D01*
X146800D01*
X147000Y443400D01*
X154800Y443000D02*
X155200Y443400D01*
X155600D01*
X155200Y443800D01*
X155600Y444200D01*
X155200D01*
X154800Y444600D01*
X154400Y444200D01*
X154000D01*
X154400Y443800D01*
X154000Y443400D01*
X154400D01*
X154800Y443000D01*
Y443400D02*
X155000Y443600D01*
X155200D01*
X155000Y443800D01*
X155200Y444000D01*
X155000D01*
X154800Y444200D01*
X154600Y444000D01*
X154400D01*
X154600Y443800D01*
X154400Y443600D01*
X154600D01*
X154800Y443400D01*
X162500Y442900D02*
X162900Y443300D01*
X163300D01*
X162900Y443700D01*
X163300Y444100D01*
X162900D01*
X162500Y444500D01*
X162100Y444100D01*
X161700D01*
X162100Y443700D01*
X161700Y443300D01*
X162100D01*
X162500Y442900D01*
Y443300D02*
X162700Y443500D01*
X162900D01*
X162700Y443700D01*
X162900Y443900D01*
X162700D01*
X162500Y444100D01*
X162300Y443900D01*
X162100D01*
X162300Y443700D01*
X162100Y443500D01*
X162300D01*
X162500Y443300D01*
X112000Y448200D02*
X112400Y448600D01*
X112800D01*
X112400Y449000D01*
X112800Y449400D01*
X112400D01*
X112000Y449800D01*
X111600Y449400D01*
X111200D01*
X111600Y449000D01*
X111200Y448600D01*
X111600D01*
X112000Y448200D01*
Y448600D02*
X112200Y448800D01*
X112400D01*
X112200Y449000D01*
X112400Y449200D01*
X112200D01*
X112000Y449400D01*
X111800Y449200D01*
X111600D01*
X111800Y449000D01*
X111600Y448800D01*
X111800D01*
X112000Y448600D01*
Y442300D02*
X112400Y442700D01*
X112800D01*
X112400Y443100D01*
X112800Y443500D01*
X112400D01*
X112000Y443900D01*
X111600Y443500D01*
X111200D01*
X111600Y443100D01*
X111200Y442700D01*
X111600D01*
X112000Y442300D01*
Y442700D02*
X112200Y442900D01*
X112400D01*
X112200Y443100D01*
X112400Y443300D01*
X112200D01*
X112000Y443500D01*
X111800Y443300D01*
X111600D01*
X111800Y443100D01*
X111600Y442900D01*
X111800D01*
X112000Y442700D01*
X116200Y445200D02*
X116600Y445600D01*
X117000D01*
X116600Y446000D01*
X117000Y446400D01*
X116600D01*
X116200Y446800D01*
X115800Y446400D01*
X115400D01*
X115800Y446000D01*
X115400Y445600D01*
X115800D01*
X116200Y445200D01*
Y445600D02*
X116400Y445800D01*
X116600D01*
X116400Y446000D01*
X116600Y446200D01*
X116400D01*
X116200Y446400D01*
X116000Y446200D01*
X115800D01*
X116000Y446000D01*
X115800Y445800D01*
X116000D01*
X116200Y445600D01*
X107700Y445500D02*
X108100Y445900D01*
X108500D01*
X108100Y446300D01*
X108500Y446700D01*
X108100D01*
X107700Y447100D01*
X107300Y446700D01*
X106900D01*
X107300Y446300D01*
X106900Y445900D01*
X107300D01*
X107700Y445500D01*
Y445900D02*
X107900Y446100D01*
X108100D01*
X107900Y446300D01*
X108100Y446500D01*
X107900D01*
X107700Y446700D01*
X107500Y446500D01*
X107300D01*
X107500Y446300D01*
X107300Y446100D01*
X107500D01*
X107700Y445900D01*
Y439800D02*
X108100Y440200D01*
X108500D01*
X108100Y440600D01*
X108500Y441000D01*
X108100D01*
X107700Y441400D01*
X107300Y441000D01*
X106900D01*
X107300Y440600D01*
X106900Y440200D01*
X107300D01*
X107700Y439800D01*
Y440200D02*
X107900Y440400D01*
X108100D01*
X107900Y440600D01*
X108100Y440800D01*
X107900D01*
X107700Y441000D01*
X107500Y440800D01*
X107300D01*
X107500Y440600D01*
X107300Y440400D01*
X107500D01*
X107700Y440200D01*
X116300Y439800D02*
X116700Y440200D01*
X117100D01*
X116700Y440600D01*
X117100Y441000D01*
X116700D01*
X116300Y441400D01*
X115900Y441000D01*
X115500D01*
X115900Y440600D01*
X115500Y440200D01*
X115900D01*
X116300Y439800D01*
Y440200D02*
X116500Y440400D01*
X116700D01*
X116500Y440600D01*
X116700Y440800D01*
X116500D01*
X116300Y441000D01*
X116100Y440800D01*
X115900D01*
X116100Y440600D01*
X115900Y440400D01*
X116100D01*
X116300Y440200D01*
X107700Y450700D02*
X108100Y451100D01*
X108500D01*
X108100Y451500D01*
X108500Y451900D01*
X108100D01*
X107700Y452300D01*
X107300Y451900D01*
X106900D01*
X107300Y451500D01*
X106900Y451100D01*
X107300D01*
X107700Y450700D01*
Y451100D02*
X107900Y451300D01*
X108100D01*
X107900Y451500D01*
X108100Y451700D01*
X107900D01*
X107700Y451900D01*
X107500Y451700D01*
X107300D01*
X107500Y451500D01*
X107300Y451300D01*
X107500D01*
X107700Y451100D01*
X116200Y450700D02*
X116600Y451100D01*
X117000D01*
X116600Y451500D01*
X117000Y451900D01*
X116600D01*
X116200Y452300D01*
X115800Y451900D01*
X115400D01*
X115800Y451500D01*
X115400Y451100D01*
X115800D01*
X116200Y450700D01*
Y451100D02*
X116400Y451300D01*
X116600D01*
X116400Y451500D01*
X116600Y451700D01*
X116400D01*
X116200Y451900D01*
X116000Y451700D01*
X115800D01*
X116000Y451500D01*
X115800Y451300D01*
X116000D01*
X116200Y451100D01*
X268600Y363700D02*
X269000Y364500D01*
X268600Y365300D01*
X269400Y364900D01*
X270200Y365300D01*
X269800Y364500D01*
X270200Y363700D01*
X269400Y364100D01*
X268600Y363700D01*
X269000Y364100D02*
X269200Y364500D01*
X269000Y364900D01*
X269400Y364700D01*
X269800Y364900D01*
X269600Y364500D01*
X269800Y364100D01*
X269400Y364300D01*
X269000Y364100D01*
X81500Y316500D02*
X81900Y317300D01*
X81500Y318100D01*
X82300Y317700D01*
X83100Y318100D01*
X82700Y317300D01*
X83100Y316500D01*
X82300Y316900D01*
X81500Y316500D01*
X81900Y316900D02*
X82100Y317300D01*
X81900Y317700D01*
X82300Y317500D01*
X82700Y317700D01*
X82500Y317300D01*
X82700Y316900D01*
X82300Y317100D01*
X81900Y316900D01*
X80700Y300500D02*
X81100Y300900D01*
X81500D01*
X81100Y301300D01*
X81500Y301700D01*
X81100D01*
X80700Y302100D01*
X80300Y301700D01*
X79900D01*
X80300Y301300D01*
X79900Y300900D01*
X80300D01*
X80700Y300500D01*
Y300900D02*
X80900Y301100D01*
X81100D01*
X80900Y301300D01*
X81100Y301500D01*
X80900D01*
X80700Y301700D01*
X80500Y301500D01*
X80300D01*
X80500Y301300D01*
X80300Y301100D01*
X80500D01*
X80700Y300900D01*
X80400Y283100D02*
X80800Y283500D01*
X81200D01*
X80800Y283900D01*
X81200Y284300D01*
X80800D01*
X80400Y284700D01*
X80000Y284300D01*
X79600D01*
X80000Y283900D01*
X79600Y283500D01*
X80000D01*
X80400Y283100D01*
Y283500D02*
X80600Y283700D01*
X80800D01*
X80600Y283900D01*
X80800Y284100D01*
X80600D01*
X80400Y284300D01*
X80200Y284100D01*
X80000D01*
X80200Y283900D01*
X80000Y283700D01*
X80200D01*
X80400Y283500D01*
X317900Y247000D02*
X318300Y247400D01*
X318700D01*
X318300Y247800D01*
X318700Y248200D01*
X318300D01*
X317900Y248600D01*
X317500Y248200D01*
X317100D01*
X317500Y247800D01*
X317100Y247400D01*
X317500D01*
X317900Y247000D01*
Y247400D02*
X318100Y247600D01*
X318300D01*
X318100Y247800D01*
X318300Y248000D01*
X318100D01*
X317900Y248200D01*
X317700Y248000D01*
X317500D01*
X317700Y247800D01*
X317500Y247600D01*
X317700D01*
X317900Y247400D01*
X329600Y209200D02*
X330000Y209600D01*
X330400D01*
X330000Y210000D01*
X330400Y210400D01*
X330000D01*
X329600Y210800D01*
X329200Y210400D01*
X328800D01*
X329200Y210000D01*
X328800Y209600D01*
X329200D01*
X329600Y209200D01*
Y209600D02*
X329800Y209800D01*
X330000D01*
X329800Y210000D01*
X330000Y210200D01*
X329800D01*
X329600Y210400D01*
X329400Y210200D01*
X329200D01*
X329400Y210000D01*
X329200Y209800D01*
X329400D01*
X329600Y209600D01*
X322000Y218500D02*
X322400Y218900D01*
X322800D01*
X322400Y219300D01*
X322800Y219700D01*
X322400D01*
X322000Y220100D01*
X321600Y219700D01*
X321200D01*
X321600Y219300D01*
X321200Y218900D01*
X321600D01*
X322000Y218500D01*
Y218900D02*
X322200Y219100D01*
X322400D01*
X322200Y219300D01*
X322400Y219500D01*
X322200D01*
X322000Y219700D01*
X321800Y219500D01*
X321600D01*
X321800Y219300D01*
X321600Y219100D01*
X321800D01*
X322000Y218900D01*
X371600Y78600D02*
X372000Y79000D01*
X372400D01*
X372000Y79400D01*
X372400Y79800D01*
X372000D01*
X371600Y80200D01*
X371200Y79800D01*
X370800D01*
X371200Y79400D01*
X370800Y79000D01*
X371200D01*
X371600Y78600D01*
Y79000D02*
X371800Y79200D01*
X372000D01*
X371800Y79400D01*
X372000Y79600D01*
X371800D01*
X371600Y79800D01*
X371400Y79600D01*
X371200D01*
X371400Y79400D01*
X371200Y79200D01*
X371400D01*
X371600Y79000D01*
X372200Y384500D02*
X372600Y384900D01*
X373000D01*
X372600Y385300D01*
X373000Y385700D01*
X372600D01*
X372200Y386100D01*
X371800Y385700D01*
X371400D01*
X371800Y385300D01*
X371400Y384900D01*
X371800D01*
X372200Y384500D01*
Y384900D02*
X372400Y385100D01*
X372600D01*
X372400Y385300D01*
X372600Y385500D01*
X372400D01*
X372200Y385700D01*
X372000Y385500D01*
X371800D01*
X372000Y385300D01*
X371800Y385100D01*
X372000D01*
X372200Y384900D01*
X383000Y364600D02*
X383400Y365000D01*
X383800D01*
X383400Y365400D01*
X383800Y365800D01*
X383400D01*
X383000Y366200D01*
X382600Y365800D01*
X382200D01*
X382600Y365400D01*
X382200Y365000D01*
X382600D01*
X383000Y364600D01*
Y365000D02*
X383200Y365200D01*
X383400D01*
X383200Y365400D01*
X383400Y365600D01*
X383200D01*
X383000Y365800D01*
X382800Y365600D01*
X382600D01*
X382800Y365400D01*
X382600Y365200D01*
X382800D01*
X383000Y365000D01*
X383100Y377500D02*
X383500Y377900D01*
X383900D01*
X383500Y378300D01*
X383900Y378700D01*
X383500D01*
X383100Y379100D01*
X382700Y378700D01*
X382300D01*
X382700Y378300D01*
X382300Y377900D01*
X382700D01*
X383100Y377500D01*
Y377900D02*
X383300Y378100D01*
X383500D01*
X383300Y378300D01*
X383500Y378500D01*
X383300D01*
X383100Y378700D01*
X382900Y378500D01*
X382700D01*
X382900Y378300D01*
X382700Y378100D01*
X382900D01*
X383100Y377900D01*
X376200Y375400D02*
X376600Y375800D01*
X377000D01*
X376600Y376200D01*
X377000Y376600D01*
X376600D01*
X376200Y377000D01*
X375800Y376600D01*
X375400D01*
X375800Y376200D01*
X375400Y375800D01*
X375800D01*
X376200Y375400D01*
Y375800D02*
X376400Y376000D01*
X376600D01*
X376400Y376200D01*
X376600Y376400D01*
X376400D01*
X376200Y376600D01*
X376000Y376400D01*
X375800D01*
X376000Y376200D01*
X375800Y376000D01*
X376000D01*
X376200Y375800D01*
X362900Y383800D02*
X363300Y384200D01*
X363700D01*
X363300Y384600D01*
X363700Y385000D01*
X363300D01*
X362900Y385400D01*
X362500Y385000D01*
X362100D01*
X362500Y384600D01*
X362100Y384200D01*
X362500D01*
X362900Y383800D01*
Y384200D02*
X363100Y384400D01*
X363300D01*
X363100Y384600D01*
X363300Y384800D01*
X363100D01*
X362900Y385000D01*
X362700Y384800D01*
X362500D01*
X362700Y384600D01*
X362500Y384400D01*
X362700D01*
X362900Y384200D01*
X343500Y374000D02*
X343900Y374400D01*
X344300D01*
X343900Y374800D01*
X344300Y375200D01*
X343900D01*
X343500Y375600D01*
X343100Y375200D01*
X342700D01*
X343100Y374800D01*
X342700Y374400D01*
X343100D01*
X343500Y374000D01*
Y374400D02*
X343700Y374600D01*
X343900D01*
X343700Y374800D01*
X343900Y375000D01*
X343700D01*
X343500Y375200D01*
X343300Y375000D01*
X343100D01*
X343300Y374800D01*
X343100Y374600D01*
X343300D01*
X343500Y374400D01*
X328900Y383700D02*
X329300Y384100D01*
X329700D01*
X329300Y384500D01*
X329700Y384900D01*
X329300D01*
X328900Y385300D01*
X328500Y384900D01*
X328100D01*
X328500Y384500D01*
X328100Y384100D01*
X328500D01*
X328900Y383700D01*
Y384100D02*
X329100Y384300D01*
X329300D01*
X329100Y384500D01*
X329300Y384700D01*
X329100D01*
X328900Y384900D01*
X328700Y384700D01*
X328500D01*
X328700Y384500D01*
X328500Y384300D01*
X328700D01*
X328900Y384100D01*
X324700Y377200D02*
X325100Y377600D01*
X325500D01*
X325100Y378000D01*
X325500Y378400D01*
X325100D01*
X324700Y378800D01*
X324300Y378400D01*
X323900D01*
X324300Y378000D01*
X323900Y377600D01*
X324300D01*
X324700Y377200D01*
Y377600D02*
X324900Y377800D01*
X325100D01*
X324900Y378000D01*
X325100Y378200D01*
X324900D01*
X324700Y378400D01*
X324500Y378200D01*
X324300D01*
X324500Y378000D01*
X324300Y377800D01*
X324500D01*
X324700Y377600D01*
X310200Y371200D02*
X310600Y371600D01*
X311000D01*
X310600Y372000D01*
X311000Y372400D01*
X310600D01*
X310200Y372800D01*
X309800Y372400D01*
X309400D01*
X309800Y372000D01*
X309400Y371600D01*
X309800D01*
X310200Y371200D01*
Y371600D02*
X310400Y371800D01*
X310600D01*
X310400Y372000D01*
X310600Y372200D01*
X310400D01*
X310200Y372400D01*
X310000Y372200D01*
X309800D01*
X310000Y372000D01*
X309800Y371800D01*
X310000D01*
X310200Y371600D01*
X302200Y371300D02*
X302600Y371700D01*
X303000D01*
X302600Y372100D01*
X303000Y372500D01*
X302600D01*
X302200Y372900D01*
X301800Y372500D01*
X301400D01*
X301800Y372100D01*
X301400Y371700D01*
X301800D01*
X302200Y371300D01*
Y371700D02*
X302400Y371900D01*
X302600D01*
X302400Y372100D01*
X302600Y372300D01*
X302400D01*
X302200Y372500D01*
X302000Y372300D01*
X301800D01*
X302000Y372100D01*
X301800Y371900D01*
X302000D01*
X302200Y371700D01*
X295400Y371300D02*
X295800Y371700D01*
X296200D01*
X295800Y372100D01*
X296200Y372500D01*
X295800D01*
X295400Y372900D01*
X295000Y372500D01*
X294600D01*
X295000Y372100D01*
X294600Y371700D01*
X295000D01*
X295400Y371300D01*
Y371700D02*
X295600Y371900D01*
X295800D01*
X295600Y372100D01*
X295800Y372300D01*
X295600D01*
X295400Y372500D01*
X295200Y372300D01*
X295000D01*
X295200Y372100D01*
X295000Y371900D01*
X295200D01*
X295400Y371700D01*
X286800Y371200D02*
X287200Y371600D01*
X287600D01*
X287200Y372000D01*
X287600Y372400D01*
X287200D01*
X286800Y372800D01*
X286400Y372400D01*
X286000D01*
X286400Y372000D01*
X286000Y371600D01*
X286400D01*
X286800Y371200D01*
Y371600D02*
X287000Y371800D01*
X287200D01*
X287000Y372000D01*
X287200Y372200D01*
X287000D01*
X286800Y372400D01*
X286600Y372200D01*
X286400D01*
X286600Y372000D01*
X286400Y371800D01*
X286600D01*
X286800Y371600D01*
X339370Y357703D02*
X339770Y358103D01*
X340170D01*
X339770Y358503D01*
X340170Y358903D01*
X339770D01*
X339370Y359303D01*
X338970Y358903D01*
X338570D01*
X338970Y358503D01*
X338570Y358103D01*
X338970D01*
X339370Y357703D01*
Y358103D02*
X339570Y358303D01*
X339770D01*
X339570Y358503D01*
X339770Y358703D01*
X339570D01*
X339370Y358903D01*
X339170Y358703D01*
X338970D01*
X339170Y358503D01*
X338970Y358303D01*
X339170D01*
X339370Y358103D01*
X365700Y365600D02*
X366100Y366000D01*
X366500D01*
X366100Y366400D01*
X366500Y366800D01*
X366100D01*
X365700Y367200D01*
X365300Y366800D01*
X364900D01*
X365300Y366400D01*
X364900Y366000D01*
X365300D01*
X365700Y365600D01*
Y366000D02*
X365900Y366200D01*
X366100D01*
X365900Y366400D01*
X366100Y366600D01*
X365900D01*
X365700Y366800D01*
X365500Y366600D01*
X365300D01*
X365500Y366400D01*
X365300Y366200D01*
X365500D01*
X365700Y366000D01*
X365200Y372400D02*
X365600Y372800D01*
X366000D01*
X365600Y373200D01*
X366000Y373600D01*
X365600D01*
X365200Y374000D01*
X364800Y373600D01*
X364400D01*
X364800Y373200D01*
X364400Y372800D01*
X364800D01*
X365200Y372400D01*
Y372800D02*
X365400Y373000D01*
X365600D01*
X365400Y373200D01*
X365600Y373400D01*
X365400D01*
X365200Y373600D01*
X365000Y373400D01*
X364800D01*
X365000Y373200D01*
X364800Y373000D01*
X365000D01*
X365200Y372800D01*
X335000Y380100D02*
X335400Y380500D01*
X335800D01*
X335400Y380900D01*
X335800Y381300D01*
X335400D01*
X335000Y381700D01*
X334600Y381300D01*
X334200D01*
X334600Y380900D01*
X334200Y380500D01*
X334600D01*
X335000Y380100D01*
Y380500D02*
X335200Y380700D01*
X335400D01*
X335200Y380900D01*
X335400Y381100D01*
X335200D01*
X335000Y381300D01*
X334800Y381100D01*
X334600D01*
X334800Y380900D01*
X334600Y380700D01*
X334800D01*
X335000Y380500D01*
X377000Y366200D02*
X377400Y366600D01*
X377800D01*
X377400Y367000D01*
X377800Y367400D01*
X377400D01*
X377000Y367800D01*
X376600Y367400D01*
X376200D01*
X376600Y367000D01*
X376200Y366600D01*
X376600D01*
X377000Y366200D01*
Y366600D02*
X377200Y366800D01*
X377400D01*
X377200Y367000D01*
X377400Y367200D01*
X377200D01*
X377000Y367400D01*
X376800Y367200D01*
X376600D01*
X376800Y367000D01*
X376600Y366800D01*
X376800D01*
X377000Y366600D01*
X355700Y365100D02*
X356100Y365500D01*
X356500D01*
X356100Y365900D01*
X356500Y366300D01*
X356100D01*
X355700Y366700D01*
X355300Y366300D01*
X354900D01*
X355300Y365900D01*
X354900Y365500D01*
X355300D01*
X355700Y365100D01*
Y365500D02*
X355900Y365700D01*
X356100D01*
X355900Y365900D01*
X356100Y366100D01*
X355900D01*
X355700Y366300D01*
X355500Y366100D01*
X355300D01*
X355500Y365900D01*
X355300Y365700D01*
X355500D01*
X355700Y365500D01*
X352600Y365200D02*
X353000Y365600D01*
X353400D01*
X353000Y366000D01*
X353400Y366400D01*
X353000D01*
X352600Y366800D01*
X352200Y366400D01*
X351800D01*
X352200Y366000D01*
X351800Y365600D01*
X352200D01*
X352600Y365200D01*
Y365600D02*
X352800Y365800D01*
X353000D01*
X352800Y366000D01*
X353000Y366200D01*
X352800D01*
X352600Y366400D01*
X352400Y366200D01*
X352200D01*
X352400Y366000D01*
X352200Y365800D01*
X352400D01*
X352600Y365600D01*
X351500Y362500D02*
X351900Y362900D01*
X352300D01*
X351900Y363300D01*
X352300Y363700D01*
X351900D01*
X351500Y364100D01*
X351100Y363700D01*
X350700D01*
X351100Y363300D01*
X350700Y362900D01*
X351100D01*
X351500Y362500D01*
Y362900D02*
X351700Y363100D01*
X351900D01*
X351700Y363300D01*
X351900Y363500D01*
X351700D01*
X351500Y363700D01*
X351300Y363500D01*
X351100D01*
X351300Y363300D01*
X351100Y363100D01*
X351300D01*
X351500Y362900D01*
Y367900D02*
X351900Y368300D01*
X352300D01*
X351900Y368700D01*
X352300Y369100D01*
X351900D01*
X351500Y369500D01*
X351100Y369100D01*
X350700D01*
X351100Y368700D01*
X350700Y368300D01*
X351100D01*
X351500Y367900D01*
Y368300D02*
X351700Y368500D01*
X351900D01*
X351700Y368700D01*
X351900Y368900D01*
X351700D01*
X351500Y369100D01*
X351300Y368900D01*
X351100D01*
X351300Y368700D01*
X351100Y368500D01*
X351300D01*
X351500Y368300D01*
X356800Y362500D02*
X357200Y362900D01*
X357600D01*
X357200Y363300D01*
X357600Y363700D01*
X357200D01*
X356800Y364100D01*
X356400Y363700D01*
X356000D01*
X356400Y363300D01*
X356000Y362900D01*
X356400D01*
X356800Y362500D01*
Y362900D02*
X357000Y363100D01*
X357200D01*
X357000Y363300D01*
X357200Y363500D01*
X357000D01*
X356800Y363700D01*
X356600Y363500D01*
X356400D01*
X356600Y363300D01*
X356400Y363100D01*
X356600D01*
X356800Y362900D01*
Y367800D02*
X357200Y368200D01*
X357600D01*
X357200Y368600D01*
X357600Y369000D01*
X357200D01*
X356800Y369400D01*
X356400Y369000D01*
X356000D01*
X356400Y368600D01*
X356000Y368200D01*
X356400D01*
X356800Y367800D01*
Y368200D02*
X357000Y368400D01*
X357200D01*
X357000Y368600D01*
X357200Y368800D01*
X357000D01*
X356800Y369000D01*
X356600Y368800D01*
X356400D01*
X356600Y368600D01*
X356400Y368400D01*
X356600D01*
X356800Y368200D01*
X361200Y337900D02*
X361600Y338300D01*
X362000D01*
X361600Y338700D01*
X362000Y339100D01*
X361600D01*
X361200Y339500D01*
X360800Y339100D01*
X360400D01*
X360800Y338700D01*
X360400Y338300D01*
X360800D01*
X361200Y337900D01*
Y338300D02*
X361400Y338500D01*
X361600D01*
X361400Y338700D01*
X361600Y338900D01*
X361400D01*
X361200Y339100D01*
X361000Y338900D01*
X360800D01*
X361000Y338700D01*
X360800Y338500D01*
X361000D01*
X361200Y338300D01*
X358546Y352123D02*
X358946Y352523D01*
X359346D01*
X358946Y352923D01*
X359346Y353323D01*
X358946D01*
X358546Y353723D01*
X358146Y353323D01*
X357746D01*
X358146Y352923D01*
X357746Y352523D01*
X358146D01*
X358546Y352123D01*
Y352523D02*
X358746Y352723D01*
X358946D01*
X358746Y352923D01*
X358946Y353123D01*
X358746D01*
X358546Y353323D01*
X358346Y353123D01*
X358146D01*
X358346Y352923D01*
X358146Y352723D01*
X358346D01*
X358546Y352523D01*
X363500Y333800D02*
X363900Y334200D01*
X364300D01*
X363900Y334600D01*
X364300Y335000D01*
X363900D01*
X363500Y335400D01*
X363100Y335000D01*
X362700D01*
X363100Y334600D01*
X362700Y334200D01*
X363100D01*
X363500Y333800D01*
Y334200D02*
X363700Y334400D01*
X363900D01*
X363700Y334600D01*
X363900Y334800D01*
X363700D01*
X363500Y335000D01*
X363300Y334800D01*
X363100D01*
X363300Y334600D01*
X363100Y334400D01*
X363300D01*
X363500Y334200D01*
X209300Y424700D02*
X209700Y425100D01*
X210100D01*
X209700Y425500D01*
X210100Y425900D01*
X209700D01*
X209300Y426300D01*
X208900Y425900D01*
X208500D01*
X208900Y425500D01*
X208500Y425100D01*
X208900D01*
X209300Y424700D01*
Y425100D02*
X209500Y425300D01*
X209700D01*
X209500Y425500D01*
X209700Y425700D01*
X209500D01*
X209300Y425900D01*
X209100Y425700D01*
X208900D01*
X209100Y425500D01*
X208900Y425300D01*
X209100D01*
X209300Y425100D01*
X208500Y430400D02*
X208900Y430800D01*
X209300D01*
X208900Y431200D01*
X209300Y431600D01*
X208900D01*
X208500Y432000D01*
X208100Y431600D01*
X207700D01*
X208100Y431200D01*
X207700Y430800D01*
X208100D01*
X208500Y430400D01*
Y430800D02*
X208700Y431000D01*
X208900D01*
X208700Y431200D01*
X208900Y431400D01*
X208700D01*
X208500Y431600D01*
X208300Y431400D01*
X208100D01*
X208300Y431200D01*
X208100Y431000D01*
X208300D01*
X208500Y430800D01*
X334700Y215800D02*
X335100Y216200D01*
X335500D01*
X335100Y216600D01*
X335500Y217000D01*
X335100D01*
X334700Y217400D01*
X334300Y217000D01*
X333900D01*
X334300Y216600D01*
X333900Y216200D01*
X334300D01*
X334700Y215800D01*
Y216200D02*
X334900Y216400D01*
X335100D01*
X334900Y216600D01*
X335100Y216800D01*
X334900D01*
X334700Y217000D01*
X334500Y216800D01*
X334300D01*
X334500Y216600D01*
X334300Y216400D01*
X334500D01*
X334700Y216200D01*
X375430Y218350D02*
X375830Y218750D01*
X376230D01*
X375830Y219150D01*
X376230Y219550D01*
X375830D01*
X375430Y219950D01*
X375030Y219550D01*
X374630D01*
X375030Y219150D01*
X374630Y218750D01*
X375030D01*
X375430Y218350D01*
Y218750D02*
X375630Y218950D01*
X375830D01*
X375630Y219150D01*
X375830Y219350D01*
X375630D01*
X375430Y219550D01*
X375230Y219350D01*
X375030D01*
X375230Y219150D01*
X375030Y218950D01*
X375230D01*
X375430Y218750D01*
X213000Y430300D02*
X213400Y430700D01*
X213800D01*
X213400Y431100D01*
X213800Y431500D01*
X213400D01*
X213000Y431900D01*
X212600Y431500D01*
X212200D01*
X212600Y431100D01*
X212200Y430700D01*
X212600D01*
X213000Y430300D01*
Y430700D02*
X213200Y430900D01*
X213400D01*
X213200Y431100D01*
X213400Y431300D01*
X213200D01*
X213000Y431500D01*
X212800Y431300D01*
X212600D01*
X212800Y431100D01*
X212600Y430900D01*
X212800D01*
X213000Y430700D01*
X369500Y215300D02*
X369900Y215700D01*
X370300D01*
X369900Y216100D01*
X370300Y216500D01*
X369900D01*
X369500Y216900D01*
X369100Y216500D01*
X368700D01*
X369100Y216100D01*
X368700Y215700D01*
X369100D01*
X369500Y215300D01*
Y215700D02*
X369700Y215900D01*
X369900D01*
X369700Y216100D01*
X369900Y216300D01*
X369700D01*
X369500Y216500D01*
X369300Y216300D01*
X369100D01*
X369300Y216100D01*
X369100Y215900D01*
X369300D01*
X369500Y215700D01*
X95800Y445600D02*
X96200Y446000D01*
X96600D01*
X96200Y446400D01*
X96600Y446800D01*
X96200D01*
X95800Y447200D01*
X95400Y446800D01*
X95000D01*
X95400Y446400D01*
X95000Y446000D01*
X95400D01*
X95800Y445600D01*
Y446000D02*
X96000Y446200D01*
X96200D01*
X96000Y446400D01*
X96200Y446600D01*
X96000D01*
X95800Y446800D01*
X95600Y446600D01*
X95400D01*
X95600Y446400D01*
X95400Y446200D01*
X95600D01*
X95800Y446000D01*
X244200Y386300D02*
X244600Y386700D01*
X245000D01*
X244600Y387100D01*
X245000Y387500D01*
X244600D01*
X244200Y387900D01*
X243800Y387500D01*
X243400D01*
X243800Y387100D01*
X243400Y386700D01*
X243800D01*
X244200Y386300D01*
Y386700D02*
X244400Y386900D01*
X244600D01*
X244400Y387100D01*
X244600Y387300D01*
X244400D01*
X244200Y387500D01*
X244000Y387300D01*
X243800D01*
X244000Y387100D01*
X243800Y386900D01*
X244000D01*
X244200Y386700D01*
X163380Y431386D02*
X163780Y431786D01*
X164180D01*
X163780Y432186D01*
X164180Y432586D01*
X163780D01*
X163380Y432986D01*
X162980Y432586D01*
X162580D01*
X162980Y432186D01*
X162580Y431786D01*
X162980D01*
X163380Y431386D01*
Y431786D02*
X163580Y431986D01*
X163780D01*
X163580Y432186D01*
X163780Y432386D01*
X163580D01*
X163380Y432586D01*
X163180Y432386D01*
X162980D01*
X163180Y432186D01*
X162980Y431986D01*
X163180D01*
X163380Y431786D01*
X240400Y386400D02*
X240800Y386800D01*
X241200D01*
X240800Y387200D01*
X241200Y387600D01*
X240800D01*
X240400Y388000D01*
X240000Y387600D01*
X239600D01*
X240000Y387200D01*
X239600Y386800D01*
X240000D01*
X240400Y386400D01*
Y386800D02*
X240600Y387000D01*
X240800D01*
X240600Y387200D01*
X240800Y387400D01*
X240600D01*
X240400Y387600D01*
X240200Y387400D01*
X240000D01*
X240200Y387200D01*
X240000Y387000D01*
X240200D01*
X240400Y386800D01*
X241300Y328400D02*
X241700Y328800D01*
X242100D01*
X241700Y329200D01*
X242100Y329600D01*
X241700D01*
X241300Y330000D01*
X240900Y329600D01*
X240500D01*
X240900Y329200D01*
X240500Y328800D01*
X240900D01*
X241300Y328400D01*
Y328800D02*
X241500Y329000D01*
X241700D01*
X241500Y329200D01*
X241700Y329400D01*
X241500D01*
X241300Y329600D01*
X241100Y329400D01*
X240900D01*
X241100Y329200D01*
X240900Y329000D01*
X241100D01*
X241300Y328800D01*
X237300Y331200D02*
X237700Y331600D01*
X238100D01*
X237700Y332000D01*
X238100Y332400D01*
X237700D01*
X237300Y332800D01*
X236900Y332400D01*
X236500D01*
X236900Y332000D01*
X236500Y331600D01*
X236900D01*
X237300Y331200D01*
Y331600D02*
X237500Y331800D01*
X237700D01*
X237500Y332000D01*
X237700Y332200D01*
X237500D01*
X237300Y332400D01*
X237100Y332200D01*
X236900D01*
X237100Y332000D01*
X236900Y331800D01*
X237100D01*
X237300Y331600D01*
X161400Y393500D02*
X161800Y393900D01*
X162200D01*
X161800Y394300D01*
X162200Y394700D01*
X161800D01*
X161400Y395100D01*
X161000Y394700D01*
X160600D01*
X161000Y394300D01*
X160600Y393900D01*
X161000D01*
X161400Y393500D01*
Y393900D02*
X161600Y394100D01*
X161800D01*
X161600Y394300D01*
X161800Y394500D01*
X161600D01*
X161400Y394700D01*
X161200Y394500D01*
X161000D01*
X161200Y394300D01*
X161000Y394100D01*
X161200D01*
X161400Y393900D01*
X236400Y386400D02*
X236800Y386800D01*
X237200D01*
X236800Y387200D01*
X237200Y387600D01*
X236800D01*
X236400Y388000D01*
X236000Y387600D01*
X235600D01*
X236000Y387200D01*
X235600Y386800D01*
X236000D01*
X236400Y386400D01*
Y386800D02*
X236600Y387000D01*
X236800D01*
X236600Y387200D01*
X236800Y387400D01*
X236600D01*
X236400Y387600D01*
X236200Y387400D01*
X236000D01*
X236200Y387200D01*
X236000Y387000D01*
X236200D01*
X236400Y386800D01*
X236800Y319900D02*
X237200Y320300D01*
X237600D01*
X237200Y320700D01*
X237600Y321100D01*
X237200D01*
X236800Y321500D01*
X236400Y321100D01*
X236000D01*
X236400Y320700D01*
X236000Y320300D01*
X236400D01*
X236800Y319900D01*
Y320300D02*
X237000Y320500D01*
X237200D01*
X237000Y320700D01*
X237200Y320900D01*
X237000D01*
X236800Y321100D01*
X236600Y320900D01*
X236400D01*
X236600Y320700D01*
X236400Y320500D01*
X236600D01*
X236800Y320300D01*
X236900Y296300D02*
X237300Y296700D01*
X237700D01*
X237300Y297100D01*
X237700Y297500D01*
X237300D01*
X236900Y297900D01*
X236500Y297500D01*
X236100D01*
X236500Y297100D01*
X236100Y296700D01*
X236500D01*
X236900Y296300D01*
Y296700D02*
X237100Y296900D01*
X237300D01*
X237100Y297100D01*
X237300Y297300D01*
X237100D01*
X236900Y297500D01*
X236700Y297300D01*
X236500D01*
X236700Y297100D01*
X236500Y296900D01*
X236700D01*
X236900Y296700D01*
X292700Y280200D02*
X293100Y280600D01*
X293500D01*
X293100Y281000D01*
X293500Y281400D01*
X293100D01*
X292700Y281800D01*
X292300Y281400D01*
X291900D01*
X292300Y281000D01*
X291900Y280600D01*
X292300D01*
X292700Y280200D01*
Y280600D02*
X292900Y280800D01*
X293100D01*
X292900Y281000D01*
X293100Y281200D01*
X292900D01*
X292700Y281400D01*
X292500Y281200D01*
X292300D01*
X292500Y281000D01*
X292300Y280800D01*
X292500D01*
X292700Y280600D01*
X296600Y280200D02*
X297000Y280600D01*
X297400D01*
X297000Y281000D01*
X297400Y281400D01*
X297000D01*
X296600Y281800D01*
X296200Y281400D01*
X295800D01*
X296200Y281000D01*
X295800Y280600D01*
X296200D01*
X296600Y280200D01*
Y280600D02*
X296800Y280800D01*
X297000D01*
X296800Y281000D01*
X297000Y281200D01*
X296800D01*
X296600Y281400D01*
X296400Y281200D01*
X296200D01*
X296400Y281000D01*
X296200Y280800D01*
X296400D01*
X296600Y280600D01*
X299381Y400910D02*
X299781Y401310D01*
X300181D01*
X299781Y401710D01*
X300181Y402110D01*
X299781D01*
X299381Y402510D01*
X298981Y402110D01*
X298581D01*
X298981Y401710D01*
X298581Y401310D01*
X298981D01*
X299381Y400910D01*
Y401310D02*
X299581Y401510D01*
X299781D01*
X299581Y401710D01*
X299781Y401910D01*
X299581D01*
X299381Y402110D01*
X299181Y401910D01*
X298981D01*
X299181Y401710D01*
X298981Y401510D01*
X299181D01*
X299381Y401310D01*
X307567Y418727D02*
X307967Y419127D01*
X308367D01*
X307967Y419527D01*
X308367Y419927D01*
X307967D01*
X307567Y420327D01*
X307167Y419927D01*
X306767D01*
X307167Y419527D01*
X306767Y419127D01*
X307167D01*
X307567Y418727D01*
Y419127D02*
X307767Y419327D01*
X307967D01*
X307767Y419527D01*
X307967Y419727D01*
X307767D01*
X307567Y419927D01*
X307367Y419727D01*
X307167D01*
X307367Y419527D01*
X307167Y419327D01*
X307367D01*
X307567Y419127D01*
X218400Y382300D02*
X218800Y382700D01*
X219200D01*
X218800Y383100D01*
X219200Y383500D01*
X218800D01*
X218400Y383900D01*
X218000Y383500D01*
X217600D01*
X218000Y383100D01*
X217600Y382700D01*
X218000D01*
X218400Y382300D01*
Y382700D02*
X218600Y382900D01*
X218800D01*
X218600Y383100D01*
X218800Y383300D01*
X218600D01*
X218400Y383500D01*
X218200Y383300D01*
X218000D01*
X218200Y383100D01*
X218000Y382900D01*
X218200D01*
X218400Y382700D01*
X149700Y330600D02*
X150100Y331000D01*
X150500D01*
X150100Y331400D01*
X150500Y331800D01*
X150100D01*
X149700Y332200D01*
X149300Y331800D01*
X148900D01*
X149300Y331400D01*
X148900Y331000D01*
X149300D01*
X149700Y330600D01*
Y331000D02*
X149900Y331200D01*
X150100D01*
X149900Y331400D01*
X150100Y331600D01*
X149900D01*
X149700Y331800D01*
X149500Y331600D01*
X149300D01*
X149500Y331400D01*
X149300Y331200D01*
X149500D01*
X149700Y331000D01*
X299700Y330100D02*
X300100Y330500D01*
X300500D01*
X300100Y330900D01*
X300500Y331300D01*
X300100D01*
X299700Y331700D01*
X299300Y331300D01*
X298900D01*
X299300Y330900D01*
X298900Y330500D01*
X299300D01*
X299700Y330100D01*
Y330500D02*
X299900Y330700D01*
X300100D01*
X299900Y330900D01*
X300100Y331100D01*
X299900D01*
X299700Y331300D01*
X299500Y331100D01*
X299300D01*
X299500Y330900D01*
X299300Y330700D01*
X299500D01*
X299700Y330500D01*
X224200Y327900D02*
X224600Y328300D01*
X225000D01*
X224600Y328700D01*
X225000Y329100D01*
X224600D01*
X224200Y329500D01*
X223800Y329100D01*
X223400D01*
X223800Y328700D01*
X223400Y328300D01*
X223800D01*
X224200Y327900D01*
Y328300D02*
X224400Y328500D01*
X224600D01*
X224400Y328700D01*
X224600Y328900D01*
X224400D01*
X224200Y329100D01*
X224000Y328900D01*
X223800D01*
X224000Y328700D01*
X223800Y328500D01*
X224000D01*
X224200Y328300D01*
X307100Y274100D02*
X307500Y274500D01*
X307900D01*
X307500Y274900D01*
X307900Y275300D01*
X307500D01*
X307100Y275700D01*
X306700Y275300D01*
X306300D01*
X306700Y274900D01*
X306300Y274500D01*
X306700D01*
X307100Y274100D01*
Y274500D02*
X307300Y274700D01*
X307500D01*
X307300Y274900D01*
X307500Y275100D01*
X307300D01*
X307100Y275300D01*
X306900Y275100D01*
X306700D01*
X306900Y274900D01*
X306700Y274700D01*
X306900D01*
X307100Y274500D01*
X309900Y279500D02*
X310300Y279900D01*
X310700D01*
X310300Y280300D01*
X310700Y280700D01*
X310300D01*
X309900Y281100D01*
X309500Y280700D01*
X309100D01*
X309500Y280300D01*
X309100Y279900D01*
X309500D01*
X309900Y279500D01*
Y279900D02*
X310100Y280100D01*
X310300D01*
X310100Y280300D01*
X310300Y280500D01*
X310100D01*
X309900Y280700D01*
X309700Y280500D01*
X309500D01*
X309700Y280300D01*
X309500Y280100D01*
X309700D01*
X309900Y279900D01*
X299000Y261400D02*
X299400Y261800D01*
X299800D01*
X299400Y262200D01*
X299800Y262600D01*
X299400D01*
X299000Y263000D01*
X298600Y262600D01*
X298200D01*
X298600Y262200D01*
X298200Y261800D01*
X298600D01*
X299000Y261400D01*
Y261800D02*
X299200Y262000D01*
X299400D01*
X299200Y262200D01*
X299400Y262400D01*
X299200D01*
X299000Y262600D01*
X298800Y262400D01*
X298600D01*
X298800Y262200D01*
X298600Y262000D01*
X298800D01*
X299000Y261800D01*
X308200Y246700D02*
X308600Y247100D01*
X309000D01*
X308600Y247500D01*
X309000Y247900D01*
X308600D01*
X308200Y248300D01*
X307800Y247900D01*
X307400D01*
X307800Y247500D01*
X307400Y247100D01*
X307800D01*
X308200Y246700D01*
Y247100D02*
X308400Y247300D01*
X308600D01*
X308400Y247500D01*
X308600Y247700D01*
X308400D01*
X308200Y247900D01*
X308000Y247700D01*
X307800D01*
X308000Y247500D01*
X307800Y247300D01*
X308000D01*
X308200Y247100D01*
X308400Y300700D02*
X308800Y301100D01*
X309200D01*
X308800Y301500D01*
X309200Y301900D01*
X308800D01*
X308400Y302300D01*
X308000Y301900D01*
X307600D01*
X308000Y301500D01*
X307600Y301100D01*
X308000D01*
X308400Y300700D01*
Y301100D02*
X308600Y301300D01*
X308800D01*
X308600Y301500D01*
X308800Y301700D01*
X308600D01*
X308400Y301900D01*
X308200Y301700D01*
X308000D01*
X308200Y301500D01*
X308000Y301300D01*
X308200D01*
X308400Y301100D01*
X344300Y235800D02*
X344700Y236200D01*
X345100D01*
X344700Y236600D01*
X345100Y237000D01*
X344700D01*
X344300Y237400D01*
X343900Y237000D01*
X343500D01*
X343900Y236600D01*
X343500Y236200D01*
X343900D01*
X344300Y235800D01*
Y236200D02*
X344500Y236400D01*
X344700D01*
X344500Y236600D01*
X344700Y236800D01*
X344500D01*
X344300Y237000D01*
X344100Y236800D01*
X343900D01*
X344100Y236600D01*
X343900Y236400D01*
X344100D01*
X344300Y236200D01*
X220600Y296300D02*
X221000Y296700D01*
X221400D01*
X221000Y297100D01*
X221400Y297500D01*
X221000D01*
X220600Y297900D01*
X220200Y297500D01*
X219800D01*
X220200Y297100D01*
X219800Y296700D01*
X220200D01*
X220600Y296300D01*
Y296700D02*
X220800Y296900D01*
X221000D01*
X220800Y297100D01*
X221000Y297300D01*
X220800D01*
X220600Y297500D01*
X220400Y297300D01*
X220200D01*
X220400Y297100D01*
X220200Y296900D01*
X220400D01*
X220600Y296700D01*
X356800Y332700D02*
X357200Y333100D01*
X357600D01*
X357200Y333500D01*
X357600Y333900D01*
X357200D01*
X356800Y334300D01*
X356400Y333900D01*
X356000D01*
X356400Y333500D01*
X356000Y333100D01*
X356400D01*
X356800Y332700D01*
Y333100D02*
X357000Y333300D01*
X357200D01*
X357000Y333500D01*
X357200Y333700D01*
X357000D01*
X356800Y333900D01*
X356600Y333700D01*
X356400D01*
X356600Y333500D01*
X356400Y333300D01*
X356600D01*
X356800Y333100D01*
X377000Y334100D02*
X377400Y334500D01*
X377800D01*
X377400Y334900D01*
X377800Y335300D01*
X377400D01*
X377000Y335700D01*
X376600Y335300D01*
X376200D01*
X376600Y334900D01*
X376200Y334500D01*
X376600D01*
X377000Y334100D01*
Y334500D02*
X377200Y334700D01*
X377400D01*
X377200Y334900D01*
X377400Y335100D01*
X377200D01*
X377000Y335300D01*
X376800Y335100D01*
X376600D01*
X376800Y334900D01*
X376600Y334700D01*
X376800D01*
X377000Y334500D01*
X379500Y336900D02*
X379900Y337300D01*
X380300D01*
X379900Y337700D01*
X380300Y338100D01*
X379900D01*
X379500Y338500D01*
X379100Y338100D01*
X378700D01*
X379100Y337700D01*
X378700Y337300D01*
X379100D01*
X379500Y336900D01*
Y337300D02*
X379700Y337500D01*
X379900D01*
X379700Y337700D01*
X379900Y337900D01*
X379700D01*
X379500Y338100D01*
X379300Y337900D01*
X379100D01*
X379300Y337700D01*
X379100Y337500D01*
X379300D01*
X379500Y337300D01*
X325300Y210400D02*
X325700Y210800D01*
X326100D01*
X325700Y211200D01*
X326100Y211600D01*
X325700D01*
X325300Y212000D01*
X324900Y211600D01*
X324500D01*
X324900Y211200D01*
X324500Y210800D01*
X324900D01*
X325300Y210400D01*
Y210800D02*
X325500Y211000D01*
X325700D01*
X325500Y211200D01*
X325700Y211400D01*
X325500D01*
X325300Y211600D01*
X325100Y211400D01*
X324900D01*
X325100Y211200D01*
X324900Y211000D01*
X325100D01*
X325300Y210800D01*
X333200Y226500D02*
X333600Y226900D01*
X334000D01*
X333600Y227300D01*
X334000Y227700D01*
X333600D01*
X333200Y228100D01*
X332800Y227700D01*
X332400D01*
X332800Y227300D01*
X332400Y226900D01*
X332800D01*
X333200Y226500D01*
Y226900D02*
X333400Y227100D01*
X333600D01*
X333400Y227300D01*
X333600Y227500D01*
X333400D01*
X333200Y227700D01*
X333000Y227500D01*
X332800D01*
X333000Y227300D01*
X332800Y227100D01*
X333000D01*
X333200Y226900D01*
X338300Y215300D02*
X338700Y215700D01*
X339100D01*
X338700Y216100D01*
X339100Y216500D01*
X338700D01*
X338300Y216900D01*
X337900Y216500D01*
X337500D01*
X337900Y216100D01*
X337500Y215700D01*
X337900D01*
X338300Y215300D01*
Y215700D02*
X338500Y215900D01*
X338700D01*
X338500Y216100D01*
X338700Y216300D01*
X338500D01*
X338300Y216500D01*
X338100Y216300D01*
X337900D01*
X338100Y216100D01*
X337900Y215900D01*
X338100D01*
X338300Y215700D01*
X345742Y196898D02*
X346142Y197298D01*
X346542D01*
X346142Y197698D01*
X346542Y198098D01*
X346142D01*
X345742Y198498D01*
X345341Y198098D01*
X344941D01*
X345341Y197698D01*
X344941Y197298D01*
X345341D01*
X345742Y196898D01*
Y197298D02*
X345941Y197498D01*
X346142D01*
X345941Y197698D01*
X346142Y197898D01*
X345941D01*
X345742Y198098D01*
X345542Y197898D01*
X345341D01*
X345542Y197698D01*
X345341Y197498D01*
X345542D01*
X345742Y197298D01*
X343600Y202000D02*
X344000Y202400D01*
X344400D01*
X344000Y202800D01*
X344400Y203200D01*
X344000D01*
X343600Y203600D01*
X343200Y203200D01*
X342800D01*
X343200Y202800D01*
X342800Y202400D01*
X343200D01*
X343600Y202000D01*
Y202400D02*
X343800Y202600D01*
X344000D01*
X343800Y202800D01*
X344000Y203000D01*
X343800D01*
X343600Y203200D01*
X343400Y203000D01*
X343200D01*
X343400Y202800D01*
X343200Y202600D01*
X343400D01*
X343600Y202400D01*
X332800Y222900D02*
X333200Y223300D01*
X333600D01*
X333200Y223700D01*
X333600Y224100D01*
X333200D01*
X332800Y224500D01*
X332400Y224100D01*
X332000D01*
X332400Y223700D01*
X332000Y223300D01*
X332400D01*
X332800Y222900D01*
Y223300D02*
X333000Y223500D01*
X333200D01*
X333000Y223700D01*
X333200Y223900D01*
X333000D01*
X332800Y224100D01*
X332600Y223900D01*
X332400D01*
X332600Y223700D01*
X332400Y223500D01*
X332600D01*
X332800Y223300D01*
X323836Y206858D02*
X324236Y207258D01*
X324636D01*
X324236Y207658D01*
X324636Y208058D01*
X324236D01*
X323836Y208458D01*
X323436Y208058D01*
X323036D01*
X323436Y207658D01*
X323036Y207258D01*
X323436D01*
X323836Y206858D01*
Y207258D02*
X324036Y207458D01*
X324236D01*
X324036Y207658D01*
X324236Y207858D01*
X324036D01*
X323836Y208058D01*
X323636Y207858D01*
X323436D01*
X323636Y207658D01*
X323436Y207458D01*
X323636D01*
X323836Y207258D01*
X149261Y249527D02*
X149661Y249927D01*
X150061D01*
X149661Y250327D01*
X150061Y250727D01*
X149661D01*
X149261Y251127D01*
X148861Y250727D01*
X148461D01*
X148861Y250327D01*
X148461Y249927D01*
X148861D01*
X149261Y249527D01*
Y249927D02*
X149461Y250127D01*
X149661D01*
X149461Y250327D01*
X149661Y250527D01*
X149461D01*
X149261Y250727D01*
X149061Y250527D01*
X148861D01*
X149061Y250327D01*
X148861Y250127D01*
X149061D01*
X149261Y249927D01*
X223600Y232700D02*
X224000Y233100D01*
X224400D01*
X224000Y233500D01*
X224400Y233900D01*
X224000D01*
X223600Y234300D01*
X223200Y233900D01*
X222800D01*
X223200Y233500D01*
X222800Y233100D01*
X223200D01*
X223600Y232700D01*
Y233100D02*
X223800Y233300D01*
X224000D01*
X223800Y233500D01*
X224000Y233700D01*
X223800D01*
X223600Y233900D01*
X223400Y233700D01*
X223200D01*
X223400Y233500D01*
X223200Y233300D01*
X223400D01*
X223600Y233100D01*
X223800Y175600D02*
X224200Y176000D01*
X224600D01*
X224200Y176400D01*
X224600Y176800D01*
X224200D01*
X223800Y177200D01*
X223400Y176800D01*
X223000D01*
X223400Y176400D01*
X223000Y176000D01*
X223400D01*
X223800Y175600D01*
Y176000D02*
X224000Y176200D01*
X224200D01*
X224000Y176400D01*
X224200Y176600D01*
X224000D01*
X223800Y176800D01*
X223600Y176600D01*
X223400D01*
X223600Y176400D01*
X223400Y176200D01*
X223600D01*
X223800Y176000D01*
X298784Y181887D02*
X299184Y182287D01*
X299584D01*
X299184Y182687D01*
X299584Y183087D01*
X299184D01*
X298784Y183487D01*
X298384Y183087D01*
X297984D01*
X298384Y182687D01*
X297984Y182287D01*
X298384D01*
X298784Y181887D01*
Y182287D02*
X298984Y182487D01*
X299184D01*
X298984Y182687D01*
X299184Y182887D01*
X298984D01*
X298784Y183087D01*
X298584Y182887D01*
X298384D01*
X298584Y182687D01*
X298384Y182487D01*
X298584D01*
X298784Y182287D01*
X351094Y135045D02*
X351494Y135445D01*
X351894D01*
X351494Y135845D01*
X351894Y136245D01*
X351494D01*
X351094Y136645D01*
X350694Y136245D01*
X350294D01*
X350694Y135845D01*
X350294Y135445D01*
X350694D01*
X351094Y135045D01*
Y135445D02*
X351294Y135645D01*
X351494D01*
X351294Y135845D01*
X351494Y136045D01*
X351294D01*
X351094Y136245D01*
X350894Y136045D01*
X350694D01*
X350894Y135845D01*
X350694Y135645D01*
X350894D01*
X351094Y135445D01*
X149696Y180272D02*
X150096Y180673D01*
X150496D01*
X150096Y181072D01*
X150496Y181473D01*
X150096D01*
X149696Y181872D01*
X149296Y181473D01*
X148896D01*
X149296Y181072D01*
X148896Y180673D01*
X149296D01*
X149696Y180272D01*
Y180673D02*
X149896Y180872D01*
X150096D01*
X149896Y181072D01*
X150096Y181272D01*
X149896D01*
X149696Y181473D01*
X149496Y181272D01*
X149296D01*
X149496Y181072D01*
X149296Y180872D01*
X149496D01*
X149696Y180673D01*
X303600Y105100D02*
X304000Y105500D01*
X304400D01*
X304000Y105900D01*
X304400Y106300D01*
X304000D01*
X303600Y106700D01*
X303200Y106300D01*
X302800D01*
X303200Y105900D01*
X302800Y105500D01*
X303200D01*
X303600Y105100D01*
Y105500D02*
X303800Y105700D01*
X304000D01*
X303800Y105900D01*
X304000Y106100D01*
X303800D01*
X303600Y106300D01*
X303400Y106100D01*
X303200D01*
X303400Y105900D01*
X303200Y105700D01*
X303400D01*
X303600Y105500D01*
X189400Y104800D02*
X189800Y105200D01*
X190200D01*
X189800Y105600D01*
X190200Y106000D01*
X189800D01*
X189400Y106400D01*
X189000Y106000D01*
X188600D01*
X189000Y105600D01*
X188600Y105200D01*
X189000D01*
X189400Y104800D01*
Y105200D02*
X189600Y105400D01*
X189800D01*
X189600Y105600D01*
X189800Y105800D01*
X189600D01*
X189400Y106000D01*
X189200Y105800D01*
X189000D01*
X189200Y105600D01*
X189000Y105400D01*
X189200D01*
X189400Y105200D01*
X252000Y210900D02*
X252400Y211300D01*
X252800D01*
X252400Y211700D01*
X252800Y212100D01*
X252400D01*
X252000Y212500D01*
X251600Y212100D01*
X251200D01*
X251600Y211700D01*
X251200Y211300D01*
X251600D01*
X252000Y210900D01*
Y211300D02*
X252200Y211500D01*
X252400D01*
X252200Y211700D01*
X252400Y211900D01*
X252200D01*
X252000Y212100D01*
X251800Y211900D01*
X251600D01*
X251800Y211700D01*
X251600Y211500D01*
X251800D01*
X252000Y211300D01*
X252045Y200155D02*
X252446Y200555D01*
X252846D01*
X252446Y200955D01*
X252846Y201355D01*
X252446D01*
X252045Y201755D01*
X251645Y201355D01*
X251245D01*
X251645Y200955D01*
X251245Y200555D01*
X251645D01*
X252045Y200155D01*
Y200555D02*
X252245Y200755D01*
X252446D01*
X252245Y200955D01*
X252446Y201155D01*
X252245D01*
X252045Y201355D01*
X251846Y201155D01*
X251645D01*
X251846Y200955D01*
X251645Y200755D01*
X251846D01*
X252045Y200555D01*
X225200Y319800D02*
X225600Y320200D01*
X226000D01*
X225600Y320600D01*
X226000Y321000D01*
X225600D01*
X225200Y321400D01*
X224800Y321000D01*
X224400D01*
X224800Y320600D01*
X224400Y320200D01*
X224800D01*
X225200Y319800D01*
Y320200D02*
X225400Y320400D01*
X225600D01*
X225400Y320600D01*
X225600Y320800D01*
X225400D01*
X225200Y321000D01*
X225000Y320800D01*
X224800D01*
X225000Y320600D01*
X224800Y320400D01*
X225000D01*
X225200Y320200D01*
X128200Y393600D02*
X128600Y394000D01*
X129000D01*
X128600Y394400D01*
X129000Y394800D01*
X128600D01*
X128200Y395200D01*
X127800Y394800D01*
X127400D01*
X127800Y394400D01*
X127400Y394000D01*
X127800D01*
X128200Y393600D01*
Y394000D02*
X128400Y394200D01*
X128600D01*
X128400Y394400D01*
X128600Y394600D01*
X128400D01*
X128200Y394800D01*
X128000Y394600D01*
X127800D01*
X128000Y394400D01*
X127800Y394200D01*
X128000D01*
X128200Y394000D01*
X175400Y330300D02*
X175800Y330700D01*
X176200D01*
X175800Y331100D01*
X176200Y331500D01*
X175800D01*
X175400Y331900D01*
X175000Y331500D01*
X174600D01*
X175000Y331100D01*
X174600Y330700D01*
X175000D01*
X175400Y330300D01*
Y330700D02*
X175600Y330900D01*
X175800D01*
X175600Y331100D01*
X175800Y331300D01*
X175600D01*
X175400Y331500D01*
X175200Y331300D01*
X175000D01*
X175200Y331100D01*
X175000Y330900D01*
X175200D01*
X175400Y330700D01*
X236500Y395000D02*
X236900Y395400D01*
X237300D01*
X236900Y395800D01*
X237300Y396200D01*
X236900D01*
X236500Y396600D01*
X236100Y396200D01*
X235700D01*
X236100Y395800D01*
X235700Y395400D01*
X236100D01*
X236500Y395000D01*
Y395400D02*
X236700Y395600D01*
X236900D01*
X236700Y395800D01*
X236900Y396000D01*
X236700D01*
X236500Y396200D01*
X236300Y396000D01*
X236100D01*
X236300Y395800D01*
X236100Y395600D01*
X236300D01*
X236500Y395400D01*
X224700Y395000D02*
X225100Y395400D01*
X225500D01*
X225100Y395800D01*
X225500Y396200D01*
X225100D01*
X224700Y396600D01*
X224300Y396200D01*
X223900D01*
X224300Y395800D01*
X223900Y395400D01*
X224300D01*
X224700Y395000D01*
Y395400D02*
X224900Y395600D01*
X225100D01*
X224900Y395800D01*
X225100Y396000D01*
X224900D01*
X224700Y396200D01*
X224500Y396000D01*
X224300D01*
X224500Y395800D01*
X224300Y395600D01*
X224500D01*
X224700Y395400D01*
X128700Y438800D02*
X129100Y439200D01*
X129500D01*
X129100Y439600D01*
X129500Y440000D01*
X129100D01*
X128700Y440400D01*
X128300Y440000D01*
X127900D01*
X128300Y439600D01*
X127900Y439200D01*
X128300D01*
X128700Y438800D01*
Y439200D02*
X128900Y439400D01*
X129100D01*
X128900Y439600D01*
X129100Y439800D01*
X128900D01*
X128700Y440000D01*
X128500Y439800D01*
X128300D01*
X128500Y439600D01*
X128300Y439400D01*
X128500D01*
X128700Y439200D01*
X95900Y453700D02*
X96300Y454100D01*
X96700D01*
X96300Y454500D01*
X96700Y454900D01*
X96300D01*
X95900Y455300D01*
X95500Y454900D01*
X95100D01*
X95500Y454500D01*
X95100Y454100D01*
X95500D01*
X95900Y453700D01*
Y454100D02*
X96100Y454300D01*
X96300D01*
X96100Y454500D01*
X96300Y454700D01*
X96100D01*
X95900Y454900D01*
X95700Y454700D01*
X95500D01*
X95700Y454500D01*
X95500Y454300D01*
X95700D01*
X95900Y454100D01*
D130*
X332037Y133742D02*
X331485Y134503D01*
X330590Y134213D01*
Y133272D01*
X331485Y132982D01*
X332037Y133742D01*
X357037Y143742D02*
X356485Y144503D01*
X355590Y144213D01*
Y143272D01*
X356485Y142982D01*
X357037Y143742D01*
Y293743D02*
X356485Y294504D01*
X355590Y294213D01*
Y293273D01*
X356485Y292982D01*
X357037Y293743D01*
X332037Y283743D02*
X331485Y284504D01*
X330590Y284213D01*
Y283273D01*
X331485Y282982D01*
X332037Y283743D01*
X182037Y321243D02*
X181484Y322004D01*
X180590Y321713D01*
Y320773D01*
X181484Y320482D01*
X182037Y321243D01*
X207037Y331243D02*
X206485Y332004D01*
X205590Y331713D01*
Y330773D01*
X206485Y330482D01*
X207037Y331243D01*
X107037Y246243D02*
X106484Y247004D01*
X105590Y246713D01*
Y245773D01*
X106484Y245482D01*
X107037Y246243D01*
X132037Y256243D02*
X131484Y257004D01*
X130590Y256713D01*
Y255773D01*
X131484Y255482D01*
X132037Y256243D01*
X182037Y246243D02*
X181484Y247004D01*
X180590Y246713D01*
Y245773D01*
X181484Y245482D01*
X182037Y246243D01*
X207037Y256243D02*
X206485Y257004D01*
X205590Y256713D01*
Y255773D01*
X206485Y255482D01*
X207037Y256243D01*
X257037Y96242D02*
X256485Y97003D01*
X255590Y96713D01*
Y95772D01*
X256485Y95482D01*
X257037Y96242D01*
X282037Y106243D02*
X281485Y107003D01*
X280590Y106713D01*
Y105772D01*
X281485Y105482D01*
X282037Y106243D01*
X182037Y171242D02*
X181484Y172003D01*
X180590Y171713D01*
Y170772D01*
X181484Y170482D01*
X182037Y171242D01*
X207037Y181242D02*
X206485Y182003D01*
X205590Y181713D01*
Y180772D01*
X206485Y180482D01*
X207037Y181242D01*
X257037Y246243D02*
X256485Y247004D01*
X255590Y246713D01*
Y245773D01*
X256485Y245482D01*
X257037Y246243D01*
X282037Y256243D02*
X281485Y257004D01*
X280590Y256713D01*
Y255773D01*
X281485Y255482D01*
X282037Y256243D01*
X282037Y406243D02*
X281485Y407004D01*
X280590Y406713D01*
Y405773D01*
X281485Y405482D01*
X282037Y406243D01*
X257037Y396243D02*
X256485Y397004D01*
X255590Y396713D01*
Y395773D01*
X256485Y395482D01*
X257037Y396243D01*
X107038D02*
X106485Y397004D01*
X105591Y396713D01*
Y395773D01*
X106485Y395482D01*
X107038Y396243D01*
X132038Y406243D02*
X131485Y407004D01*
X130591Y406713D01*
Y405773D01*
X131485Y405482D01*
X132038Y406243D01*
X207037D02*
X206485Y407004D01*
X205590Y406713D01*
Y405773D01*
X206485Y405482D01*
X207037Y406243D01*
X182037Y396243D02*
X181484Y397004D01*
X180590Y396713D01*
Y395773D01*
X181484Y395482D01*
X182037Y396243D01*
X314537Y350743D02*
X313984Y351504D01*
X313089Y351213D01*
Y350272D01*
X313984Y349982D01*
X314537Y350743D01*
Y256743D02*
X313984Y257504D01*
X313089Y257213D01*
Y256273D01*
X313984Y255982D01*
X314537Y256743D01*
Y200742D02*
X313984Y201503D01*
X313089Y201212D01*
Y200272D01*
X313984Y199981D01*
X314537Y200742D01*
Y106742D02*
X313984Y107503D01*
X313089Y107212D01*
Y106272D01*
X313984Y105981D01*
X314537Y106742D01*
X144538Y96242D02*
X143985Y97003D01*
X143090Y96713D01*
Y95772D01*
X143985Y95482D01*
X144538Y96242D01*
X169538Y106243D02*
X168985Y107003D01*
X168090Y106713D01*
Y105772D01*
X168985Y105482D01*
X169538Y106243D01*
X107537Y143743D02*
X106984Y144504D01*
X106090Y144213D01*
Y143273D01*
X106984Y142982D01*
X107537Y143743D01*
X201537D02*
X200985Y144504D01*
X200090Y144213D01*
Y143273D01*
X200985Y142982D01*
X201537Y143743D01*
X357037Y406243D02*
X356485Y407004D01*
X355590Y406713D01*
Y405773D01*
X356485Y405482D01*
X357037Y406243D01*
X332037Y396243D02*
X331485Y397004D01*
X330590Y396713D01*
Y395773D01*
X331485Y395482D01*
X332037Y396243D01*
X282037Y331243D02*
X281485Y332004D01*
X280590Y331713D01*
Y330773D01*
X281485Y330482D01*
X282037Y331243D01*
X257037Y321243D02*
X256485Y322004D01*
X255590Y321713D01*
Y320773D01*
X256485Y320482D01*
X257037Y321243D01*
X132011Y331293D02*
X131459Y332054D01*
X130564Y331763D01*
Y330822D01*
X131459Y330532D01*
X132011Y331293D01*
X107011Y321293D02*
X106459Y322054D01*
X105564Y321763D01*
Y320823D01*
X106459Y320532D01*
X107011Y321293D01*
X282037Y181242D02*
X281485Y182003D01*
X280590Y181713D01*
Y180772D01*
X281485Y180482D01*
X282037Y181242D01*
X257037Y171242D02*
X256485Y172003D01*
X255590Y171713D01*
Y170772D01*
X256485Y170482D01*
X257037Y171242D01*
X132037Y181243D02*
X131484Y182004D01*
X130590Y181713D01*
Y180772D01*
X131484Y180482D01*
X132037Y181243D01*
X107037Y171243D02*
X106484Y172004D01*
X105590Y171713D01*
Y170773D01*
X106484Y170482D01*
X107037Y171243D01*
D131*
X314137Y350743D02*
X313537Y351089D01*
Y350396D01*
X314137Y350743D01*
Y256743D02*
X313537Y257089D01*
Y256396D01*
X314137Y256743D01*
Y200742D02*
X313537Y201088D01*
Y200396D01*
X314137Y200742D01*
Y106742D02*
X313537Y107088D01*
Y106396D01*
X314137Y106742D01*
X107137Y143743D02*
X106537Y144090D01*
Y143397D01*
X107137Y143743D01*
X201137D02*
X200537Y144090D01*
Y143397D01*
X201137Y143743D01*
M02*
