M48
;Layer_Color=9474304
;FILE_FORMAT=2:5
INCH,LZ
;TYPE=PLATED
T1F00S00C0.01200
T2F00S00C0.01800
T4F00S00C0.02598
T5F00S00C0.03543
T6F00S00C0.03937
T7F00S00C0.07087
T8F00S00C0.11811
T9F00S00C0.12000
T10F00S00C0.15700
T11F00S00C0.15748
T12F00S00C0.16000
%
T01
X00853Y00841
X00943Y00805
X01236Y00755
X01103Y0127
X00765Y01298
X00802Y01141
X01894Y01056
X02075Y01265
X02217Y01319
X02288Y00756
X02723Y00929
X0291Y00759
X03036Y01059
X0292Y01531
X02787Y01535
X02658Y01533
X03285Y01141
X03597Y01146
X03598Y00969
X03716Y00794
X03432Y00791
X03334Y0077
X0351094Y0135845
X03172Y01665
X0323836Y0207658
X03253Y02112
X03296Y021
X03347Y02166
X03383Y02161
X03328Y02237
X03332Y02273
X0322Y02193
X03141Y02378
X03179Y02478
X03133Y0273
X03443Y02366
X03699Y02374
X03695Y02161
X03657Y02188
X037543Y021915
X03539Y0219
X03436Y02028
X0345742Y0197698
X03024Y02064
X0298784Y0182687
X0309966Y0180323
X02887Y01752
X0295Y01677
X0296778Y0235315
X03075Y02324
X03082Y02475
X0299Y02622
X03071Y02749
X03099Y02803
X02966Y0281
X02927
X0276359Y0288347
X0276701Y0304557
X03084Y03015
X02369Y02971
X02206
X02129Y02872
X02153Y02802
X01991Y02803
X0201Y02942
X01927Y02961
X01859Y02932
X01796
X01737Y02934
X01689Y02977
X02445Y02777
X02521Y02284
X02675
X0252Y02117
X0252045Y0200955
X02345Y02007
X02213Y02009
X02238Y01764
X01957Y01698
X01959Y01574
X01916Y02102
X01934Y02257
X02236Y02335
X0149261Y0250327
X01307Y0275
X01324Y03049
X01339Y03111
X01426Y03112
X01539Y03015
X01103Y02986
X01038Y02839
X00804
X00824Y02711
X00868Y02962
X00807Y03013
X00746Y02337
X01065Y02305
X0106953Y0220938
X01185Y02308
X0123Y02132
X01317Y02215
X0149696Y0181072
X01476Y03232
X01497Y03314
X01548Y03524
X00988Y03494
Y03602
X00989Y03667
Y03727
X00817Y03687
X0086624Y0396295
X01156Y03936
X01282Y03944
X01264Y04264
X01385Y0427
X01408Y04346
X01457Y04347
X0147Y04438
X01548
X01407Y04412
X01287Y04396
X01163Y04406
X01162Y0446
Y04515
X0112Y0449
Y04431
X01077Y04406
Y04463
Y04515
X00959Y04545
X00958Y04464
X00929Y04357
X00931Y04248
X0079995Y0448
X01193Y03182
X01247Y03133
X01754Y03311
X01904Y03306
X02136Y03241
X02183Y03243
X02227Y03242
X02242Y03287
X02252Y03206
X02368Y03207
X02373Y0332
X02413Y03292
X02211Y03376
X02167Y03375
X02221Y03445
X02186Y03488
X02189Y03554
X0226Y03584
Y03654
Y03507
X02091Y03473
X0212Y03796
X02144Y03859
X02089Y03857
X02086Y03969
X0214
X02247Y03958
X02365
X02364Y03872
X02404
X02442Y03871
X02491Y03876
X0249Y03824
Y03745
X02575Y03721
X02642
X02644Y03793
X02639Y03576
X02449Y03569
X02409Y04039
X0241Y04109
X02412Y04232
X02414Y04287
X02481Y04286
X02457Y04332
X0213Y04311
X02085Y04312
X02093Y04255
X02016Y03969
X01909Y03956
X01821Y0381703
X01657Y03653
X01663Y03532
X01614Y03943
X01602Y04139
X01584Y04219
X016338Y0432186
X01625Y04437
X01715Y04259
X01735Y0409
X02184Y03831
X02868Y0372
X02954Y03721
X03022
X03102Y0372
X0299381Y040171
X0307567Y0419527
X03055Y04454
X02997Y03309
X03328Y03259
X0348Y03238
X03568Y03335
X03635Y03346
X03612Y03387
X0358546Y0352923
X03568Y03633
X03557Y03659
X03526Y0366
X03515Y03633
Y03687
X03568Y03686
X03657Y03664
X03652Y03732
X03629Y03846
X03722Y03853
X03762Y03762
X03831Y03783
X0383Y03654
X0377Y0367
X03795Y03377
X0377Y03349
X033937Y0358503
X03435Y03748
X0335Y03809
X03289Y03845
X03247Y0378
X03315Y04459
T02
X00823Y03173
X02694Y03645
T04
X021733Y0442912
X0240086
T05
X03804Y01297
X03804Y01397
X03804Y01497
Y01597
Y01697
Y01797
T06
X01184Y03753
X01284
T07
X0133738Y0116243
X0173738
X0246237
X0286237
X0321237Y0153742
X0361237
Y0303743
X0321237
X0286237Y0266243
X0246237
X0211237
X0171237
Y0191242
X0211237
X0246237
X0286237
X0136237Y0191243
X0096237
Y0266243
X0136237
X0136211Y0341293
X0096211
X0096238Y0416243
X0136238
X0171237
X0211237
X0246237
X0286237
X0286237Y0341243
X0246237
X0211237
X0171237
X0321237Y0416243
X0361237
T08
X0143738Y0096242
X0168738Y0106243
X0256237Y0096242
X0281237Y0106243
X0331237Y0133742
X0356237Y0143742
Y0293743
X0331237Y0283743
X0281237Y0256243
X0256237Y0246243
X0206237Y0256243
X0181237Y0246243
Y0171242
X0206237Y0181242
X0256237Y0171242
X0281237Y0181242
X0131237Y0181243
X0106237Y0171243
Y0246243
X0131237Y0256243
X0131211Y0331293
X0106211Y0321293
X0106238Y0396243
X0131238Y0406243
X0181237Y0396243
X0206237Y0406243
X0256237Y0396243
X0281237Y0406243
X0281237Y0331243
X0256237Y0321243
X0206237Y0331243
X0181237Y0321243
X0331237Y0396243
X0356237Y0406243
T09
X0106737Y0143743
X0200737
X0313737Y0106742
Y0200742
Y0256743
Y0350743
T10
X0106737Y0083743
X0200737
X0373737Y0106742
Y0200742
Y0256743
Y0350743
T11
X02286Y01536
X01537Y02287
X015369Y0378777
T12
X0153738Y0116243
X0266237
X0341237Y0153742
Y0303743
X0266237Y0266243
X0191237
Y0191242
X0266237
X0116237Y0191243
Y0266243
X0116211Y0341293
X0116238Y0416243
X0191237
X0266237
X0266237Y0341243
X0191237
X0341237Y0416243
M30
