G04*
G04 #@! TF.GenerationSoftware,Altium Limited,Altium Designer,20.1.8 (145)*
G04*
G04 Layer_Color=16711935*
%FSLAX25Y25*%
%MOIN*%
G70*
G04*
G04 #@! TF.SameCoordinates,F81AAEC3-6A38-4882-98ED-ECA9077A9C2D*
G04*
G04*
G04 #@! TF.FilePolarity,Negative*
G04*
G01*
G75*
%ADD23R,0.04737X0.05131*%
%ADD24R,0.05131X0.04737*%
%ADD26R,0.03556X0.04343*%
%ADD27R,0.03556X0.04737*%
%ADD28C,0.07887*%
%ADD29C,0.12611*%
%ADD30C,0.16800*%
%ADD31R,0.07887X0.10642*%
%ADD32O,0.07887X0.10642*%
%ADD33O,0.04737X0.07099*%
%ADD34O,0.04737X0.09068*%
%ADD35C,0.03398*%
%ADD36C,0.07099*%
%ADD37C,0.08674*%
%ADD38C,0.00800*%
%ADD39R,0.07099X0.07099*%
%ADD93R,0.07887X0.07887*%
%ADD94R,0.09461X0.10249*%
%ADD95R,0.05131X0.03162*%
%ADD96R,0.06706X0.05918*%
%ADD97R,0.10642X0.07690*%
%ADD98R,0.14580X0.10052*%
%ADD99R,0.07690X0.10642*%
%ADD100R,0.04540X0.04343*%
%ADD101R,0.04540X0.04343*%
%ADD102R,0.04343X0.04540*%
%ADD103R,0.04343X0.04540*%
%ADD104R,0.06800X0.04737*%
%ADD105R,0.02965X0.04737*%
%ADD106O,0.06509X0.01981*%
%ADD107O,0.01981X0.06509*%
%ADD108R,0.05524X0.05918*%
%ADD109O,0.05131X0.01981*%
%ADD110O,0.01981X0.05131*%
%ADD111R,0.01981X0.05131*%
%ADD112R,0.04737X0.04737*%
%ADD113R,0.02769X0.03162*%
%ADD114R,0.03800X0.03300*%
%ADD115R,0.09461X0.04737*%
%ADD116R,0.01981X0.06509*%
%ADD117R,0.03162X0.06509*%
%ADD118O,0.07099X0.03162*%
%ADD119R,0.12217X0.16548*%
%ADD120R,0.08674X0.14973*%
%ADD121R,0.04737X0.06800*%
%ADD122R,0.03162X0.04934*%
D23*
X113500Y293300D02*
D03*
Y299993D02*
D03*
X216400Y300800D02*
D03*
Y307493D02*
D03*
X216300Y293746D02*
D03*
Y287053D02*
D03*
X158600Y432547D02*
D03*
Y425853D02*
D03*
X298800Y364553D02*
D03*
Y371247D02*
D03*
X305600Y364754D02*
D03*
Y371446D02*
D03*
X131500Y447100D02*
D03*
Y453793D02*
D03*
X90200Y302946D02*
D03*
Y296253D02*
D03*
X85300Y423153D02*
D03*
Y429846D02*
D03*
X80000Y110846D02*
D03*
Y104154D02*
D03*
X317600Y236900D02*
D03*
X349900Y260447D02*
D03*
X128700Y300746D02*
D03*
Y294054D02*
D03*
X197300Y294400D02*
D03*
Y301093D02*
D03*
X191600Y363047D02*
D03*
Y356353D02*
D03*
X151500Y425853D02*
D03*
Y432547D02*
D03*
X349900Y253753D02*
D03*
X317600Y243593D02*
D03*
D24*
X329500Y267600D02*
D03*
X322807D02*
D03*
X318200Y228500D02*
D03*
X311507D02*
D03*
X317746Y213400D02*
D03*
X311053D02*
D03*
X90500Y279800D02*
D03*
X83807D02*
D03*
X142546Y292500D02*
D03*
X135854D02*
D03*
X191446Y384600D02*
D03*
X184754D02*
D03*
X325954Y195600D02*
D03*
X332646D02*
D03*
X332946Y186500D02*
D03*
X326254D02*
D03*
X276407Y364400D02*
D03*
X283100D02*
D03*
X283200Y372100D02*
D03*
X276507D02*
D03*
X321446Y372400D02*
D03*
X314754D02*
D03*
X321446Y364000D02*
D03*
X314754D02*
D03*
X370454Y363500D02*
D03*
X377147D02*
D03*
X377046Y370400D02*
D03*
X370354D02*
D03*
X221847Y425500D02*
D03*
X215154D02*
D03*
X332946Y180700D02*
D03*
X326254D02*
D03*
X107947Y433100D02*
D03*
X101253D02*
D03*
X115454Y432900D02*
D03*
X122146D02*
D03*
X280153Y292000D02*
D03*
X342853Y440500D02*
D03*
X349547D02*
D03*
X348007Y79300D02*
D03*
X354700D02*
D03*
X104147Y288200D02*
D03*
X280053Y301300D02*
D03*
X332646Y202000D02*
D03*
X343693Y267600D02*
D03*
X376247Y214200D02*
D03*
X149354Y315800D02*
D03*
X156046D02*
D03*
X142647Y299000D02*
D03*
X135953D02*
D03*
X97453Y288200D02*
D03*
X286846Y292000D02*
D03*
X286747Y301300D02*
D03*
X369553Y214200D02*
D03*
X337000Y267600D02*
D03*
X325954Y202000D02*
D03*
D26*
X311500Y219700D02*
D03*
X318100D02*
D03*
X151200Y402800D02*
D03*
X157800D02*
D03*
X151100Y397500D02*
D03*
X157700D02*
D03*
D27*
X97053Y279801D02*
D03*
X103746D02*
D03*
D28*
X321237Y153742D02*
D03*
X361237D02*
D03*
Y303743D02*
D03*
X321237D02*
D03*
X171237Y341243D02*
D03*
X211237D02*
D03*
X96237Y266243D02*
D03*
X136237D02*
D03*
X171237D02*
D03*
X211237D02*
D03*
X246237Y116243D02*
D03*
X286237D02*
D03*
X171237Y191242D02*
D03*
X211237D02*
D03*
X246237Y266243D02*
D03*
X286237D02*
D03*
X286237Y416243D02*
D03*
X246237D02*
D03*
X96238D02*
D03*
X136238D02*
D03*
X211237D02*
D03*
X171237D02*
D03*
X133738Y116243D02*
D03*
X173738D02*
D03*
X361237Y416243D02*
D03*
X321237D02*
D03*
X286237Y341243D02*
D03*
X246237D02*
D03*
X136211Y341293D02*
D03*
X96211D02*
D03*
X286237Y191242D02*
D03*
X246237D02*
D03*
X136237Y191243D02*
D03*
X96237D02*
D03*
D29*
X331237Y133742D02*
D03*
X356237Y143742D02*
D03*
Y293743D02*
D03*
X331237Y283743D02*
D03*
X181237Y321243D02*
D03*
X206237Y331243D02*
D03*
X106237Y246243D02*
D03*
X131237Y256243D02*
D03*
X181237Y246243D02*
D03*
X206237Y256243D02*
D03*
X256237Y96242D02*
D03*
X281237Y106243D02*
D03*
X181237Y171242D02*
D03*
X206237Y181242D02*
D03*
X256237Y246243D02*
D03*
X281237Y256243D02*
D03*
X281237Y406243D02*
D03*
X256237Y396243D02*
D03*
X106238D02*
D03*
X131238Y406243D02*
D03*
X206237D02*
D03*
X181237Y396243D02*
D03*
X143738Y96242D02*
D03*
X168738Y106243D02*
D03*
X356237Y406243D02*
D03*
X331237Y396243D02*
D03*
X281237Y331243D02*
D03*
X256237Y321243D02*
D03*
X131211Y331293D02*
D03*
X106211Y321293D02*
D03*
X281237Y181242D02*
D03*
X256237Y171242D02*
D03*
X131237Y181243D02*
D03*
X106237Y171243D02*
D03*
D30*
X341237Y153742D02*
D03*
Y303743D02*
D03*
X191237Y341243D02*
D03*
X116237Y266243D02*
D03*
X191237D02*
D03*
X266237Y116243D02*
D03*
X191237Y191242D02*
D03*
X266237Y266243D02*
D03*
X266237Y416243D02*
D03*
X116238D02*
D03*
X191237D02*
D03*
X153738Y116243D02*
D03*
X341237Y416243D02*
D03*
X266237Y341243D02*
D03*
X116211Y341293D02*
D03*
X266237Y191242D02*
D03*
X116237Y191243D02*
D03*
D31*
X128400Y375300D02*
D03*
D32*
X118400D02*
D03*
D33*
X245716Y457400D02*
D03*
X211700D02*
D03*
D34*
X245716Y440943D02*
D03*
X211700D02*
D03*
D35*
X240086Y442912D02*
D03*
X217330D02*
D03*
D36*
X380400Y149700D02*
D03*
X380400Y139700D02*
D03*
X380400Y159700D02*
D03*
Y169700D02*
D03*
Y129700D02*
D03*
D37*
X153690Y378777D02*
D03*
X153700Y228700D02*
D03*
X228600Y153600D02*
D03*
D38*
X313737Y350743D02*
D03*
X373737Y256743D02*
D03*
X313737D02*
D03*
X373737Y350743D02*
D03*
X313737Y200742D02*
D03*
X373737Y106742D02*
D03*
X313737D02*
D03*
X373737Y200742D02*
D03*
X200737Y83743D02*
D03*
X106737Y143743D02*
D03*
Y83743D02*
D03*
X200737Y143743D02*
D03*
D39*
X380400Y179700D02*
D03*
D93*
X368637Y143742D02*
D03*
X319033Y133742D02*
D03*
Y283743D02*
D03*
X368637Y293743D02*
D03*
X218637Y331243D02*
D03*
X169033Y321243D02*
D03*
X143637Y256243D02*
D03*
X94032Y246243D02*
D03*
X218637Y256243D02*
D03*
X169033Y246243D02*
D03*
X293637Y106243D02*
D03*
X244033Y96242D02*
D03*
X218637Y181242D02*
D03*
X169033Y171242D02*
D03*
X293637Y256243D02*
D03*
X244033Y246243D02*
D03*
X244033Y396243D02*
D03*
X293637Y406243D02*
D03*
X143638D02*
D03*
X94033Y396243D02*
D03*
X169033D02*
D03*
X218637Y406243D02*
D03*
X181138Y106243D02*
D03*
X131533Y96242D02*
D03*
X319033Y396243D02*
D03*
X368637Y406243D02*
D03*
X244033Y321243D02*
D03*
X293637Y331243D02*
D03*
X94007Y321293D02*
D03*
X143611Y331293D02*
D03*
X244033Y171242D02*
D03*
X293637Y181242D02*
D03*
X94032Y171243D02*
D03*
X143637Y181243D02*
D03*
D94*
X339890Y256800D02*
D03*
X326110D02*
D03*
D95*
X97576Y294860D02*
D03*
Y302340D02*
D03*
X107024Y294860D02*
D03*
Y298600D02*
D03*
Y302340D02*
D03*
D96*
X121000Y293660D02*
D03*
Y301140D02*
D03*
X291000Y364260D02*
D03*
Y371740D02*
D03*
X82400Y303540D02*
D03*
Y296060D02*
D03*
X202600Y434940D02*
D03*
Y427460D02*
D03*
X205900Y293960D02*
D03*
Y301440D02*
D03*
D97*
X156300Y282700D02*
D03*
X140300D02*
D03*
D98*
X179300Y307509D02*
D03*
Y283691D02*
D03*
D99*
X202400Y383100D02*
D03*
Y367100D02*
D03*
D100*
X191726Y378140D02*
D03*
X182474Y374400D02*
D03*
X184926Y363140D02*
D03*
X175674Y359400D02*
D03*
D101*
X191726Y370660D02*
D03*
X184926Y355660D02*
D03*
D102*
X151360Y418526D02*
D03*
X155100Y409274D02*
D03*
D103*
X158840Y418526D02*
D03*
D104*
X378180Y79242D02*
D03*
X363220Y84557D02*
D03*
X378180D02*
D03*
X363220Y79242D02*
D03*
X339420Y453657D02*
D03*
X354380Y448343D02*
D03*
X339420D02*
D03*
X354380Y453657D02*
D03*
D105*
X378500Y221800D02*
D03*
X370035D02*
D03*
Y242272D02*
D03*
X378500D02*
D03*
D106*
X326866Y237427D02*
D03*
Y233490D02*
D03*
Y231521D02*
D03*
Y229553D02*
D03*
X326866Y227584D02*
D03*
Y225616D02*
D03*
X326866Y223647D02*
D03*
Y221679D02*
D03*
Y219710D02*
D03*
Y217742D02*
D03*
Y215773D02*
D03*
X360134D02*
D03*
Y219710D02*
D03*
Y221679D02*
D03*
Y223647D02*
D03*
X360134Y225616D02*
D03*
Y227584D02*
D03*
X360134Y229553D02*
D03*
Y231521D02*
D03*
Y233490D02*
D03*
Y235458D02*
D03*
Y237427D02*
D03*
Y217742D02*
D03*
X326866Y235458D02*
D03*
D107*
X332673Y209966D02*
D03*
X336610D02*
D03*
X338579D02*
D03*
X340547D02*
D03*
X342516Y209966D02*
D03*
X344484D02*
D03*
X346453Y209966D02*
D03*
X348421D02*
D03*
X350390D02*
D03*
X352358D02*
D03*
X354327D02*
D03*
Y243234D02*
D03*
X352358D02*
D03*
X350390D02*
D03*
X348421D02*
D03*
X344484Y243234D02*
D03*
X342516D02*
D03*
X340547Y243234D02*
D03*
X338579D02*
D03*
X336610D02*
D03*
X334642D02*
D03*
X332673D02*
D03*
X346453D02*
D03*
X334642Y209966D02*
D03*
D108*
X329654Y363866D02*
D03*
Y372134D02*
D03*
X336347D02*
D03*
Y363866D02*
D03*
D109*
X362011Y362037D02*
D03*
Y364005D02*
D03*
Y365974D02*
D03*
Y367943D02*
D03*
Y369911D02*
D03*
X346263D02*
D03*
Y367943D02*
D03*
Y365974D02*
D03*
Y364005D02*
D03*
Y362037D02*
D03*
D110*
X358074Y373848D02*
D03*
X356105D02*
D03*
X354137D02*
D03*
X352168D02*
D03*
X350200D02*
D03*
Y358100D02*
D03*
X352168D02*
D03*
X354137D02*
D03*
X356105D02*
D03*
D111*
X358074D02*
D03*
D112*
X354137Y365974D02*
D03*
D113*
X338100Y384937D02*
D03*
Y381000D02*
D03*
X342500Y384937D02*
D03*
Y381000D02*
D03*
X379800Y389769D02*
D03*
Y385832D02*
D03*
X375400Y389669D02*
D03*
Y385732D02*
D03*
D114*
X347900Y385000D02*
D03*
X352900D02*
D03*
X358000Y380700D02*
D03*
X353000D02*
D03*
X372200Y380600D02*
D03*
X367200D02*
D03*
D115*
X376400Y434500D02*
D03*
X376400Y454500D02*
D03*
D116*
X227724Y437341D02*
D03*
X229692D02*
D03*
X231661D02*
D03*
X233629D02*
D03*
X235598D02*
D03*
X225755D02*
D03*
X223787D02*
D03*
X221818D02*
D03*
D117*
X238157D02*
D03*
X219259D02*
D03*
X216109D02*
D03*
X241306D02*
D03*
D118*
X101764Y439600D02*
D03*
Y444600D02*
D03*
Y449600D02*
D03*
Y454600D02*
D03*
X122236Y439600D02*
D03*
Y444600D02*
D03*
Y449600D02*
D03*
Y454600D02*
D03*
D119*
X112000Y447100D02*
D03*
D120*
X176800Y448800D02*
D03*
X196800D02*
D03*
D121*
X85258Y437920D02*
D03*
Y452880D02*
D03*
X80042Y95180D02*
D03*
X85357D02*
D03*
Y80220D02*
D03*
X80042D02*
D03*
X79943Y437920D02*
D03*
Y452880D02*
D03*
D122*
X157640Y307113D02*
D03*
X153900D02*
D03*
X150160D02*
D03*
Y296287D02*
D03*
X153900D02*
D03*
X157640D02*
D03*
M02*
