G04*
G04 #@! TF.GenerationSoftware,Altium Limited,Altium Designer,20.1.8 (145)*
G04*
G04 Layer_Physical_Order=1*
G04 Layer_Color=255*
%FSLAX25Y25*%
%MOIN*%
G70*
G04*
G04 #@! TF.SameCoordinates,9520363F-8405-43F2-999A-1BF51871F706*
G04*
G04*
G04 #@! TF.FilePolarity,Positive*
G04*
G01*
G75*
%ADD17R,0.04331X0.03937*%
%ADD18R,0.05000X0.09843*%
%ADD19R,0.03937X0.04331*%
%ADD20R,0.06000X0.05000*%
%ADD21R,0.11811X0.11811*%
%ADD22O,0.03740X0.00984*%
%ADD23O,0.00984X0.03740*%
%ADD24R,0.07284X0.10039*%
%ADD25R,0.02756X0.03937*%
%ADD26R,0.02362X0.04331*%
%ADD40C,0.00900*%
%ADD41C,0.01000*%
%ADD42C,0.00600*%
%ADD43C,0.05906*%
%ADD44R,0.05906X0.05906*%
G04:AMPARAMS|DCode=45|XSize=98.43mil|YSize=59.06mil|CornerRadius=14.76mil|HoleSize=0mil|Usage=FLASHONLY|Rotation=90.000|XOffset=0mil|YOffset=0mil|HoleType=Round|Shape=RoundedRectangle|*
%AMROUNDEDRECTD45*
21,1,0.09843,0.02953,0,0,90.0*
21,1,0.06890,0.05906,0,0,90.0*
1,1,0.02953,0.01476,0.03445*
1,1,0.02953,0.01476,-0.03445*
1,1,0.02953,-0.01476,-0.03445*
1,1,0.02953,-0.01476,0.03445*
%
%ADD45ROUNDEDRECTD45*%
%ADD46C,0.02400*%
%ADD47C,0.01968*%
G36*
X534581Y274731D02*
X534544Y274638D01*
X534566Y274587D01*
X534553Y274532D01*
X534581Y274373D01*
Y274031D01*
X534641D01*
X534710Y273632D01*
X534729Y273602D01*
Y272919D01*
X534480Y272420D01*
X528975D01*
Y263332D01*
X528475Y263181D01*
X528357Y263357D01*
X527264Y264450D01*
X526917Y264682D01*
X526753Y264715D01*
X526744Y264725D01*
X526168Y265009D01*
Y266458D01*
X526168Y266458D01*
Y266781D01*
X526168D01*
X526168Y266958D01*
Y272312D01*
X521450D01*
X521201Y272812D01*
X521398Y273074D01*
X523100D01*
Y276239D01*
X523600D01*
Y276739D01*
X524457D01*
Y277079D01*
X525307Y276739D01*
X525545D01*
Y277139D01*
X526355Y276739D01*
X526569D01*
Y278987D01*
X527488D01*
Y277100D01*
X528432D01*
X528512Y277139D01*
Y277100D01*
X529502D01*
X529584Y277144D01*
X529598Y277100D01*
X530654D01*
X533819D01*
Y278987D01*
X534581D01*
Y274731D01*
D02*
G37*
G36*
X573511Y278525D02*
X572474Y277488D01*
X572012Y277679D01*
Y278468D01*
X569346D01*
Y277207D01*
X569686Y276357D01*
X569346D01*
Y275500D01*
X568846D01*
Y275000D01*
X565681D01*
Y272532D01*
X566788D01*
X567152Y272202D01*
Y267065D01*
X567555D01*
X567765Y266700D01*
X567555Y266335D01*
X567152D01*
Y261198D01*
X571107D01*
Y266335D01*
X570704D01*
X570494Y266700D01*
X570704Y267065D01*
X571107D01*
Y268317D01*
X571606Y268563D01*
X572233D01*
X572643Y268644D01*
X572829Y268769D01*
X573273Y268577D01*
X573329Y268517D01*
Y261965D01*
X572243Y260878D01*
X572057Y260600D01*
X571612Y260469D01*
X571612Y260469D01*
X566081D01*
Y255331D01*
X567530D01*
X567776Y254834D01*
Y250654D01*
X566069Y248946D01*
X565568Y249154D01*
Y250847D01*
X563100D01*
Y248181D01*
X564783D01*
X565111Y247767D01*
X564967Y247419D01*
X560032D01*
Y243599D01*
X560008Y243576D01*
X557950D01*
X557705Y243974D01*
X554822D01*
Y244952D01*
X553922D01*
X554192Y245499D01*
X553976Y246028D01*
X554800Y246868D01*
Y246900D01*
X554300D01*
Y247442D01*
X553976Y247772D01*
X554300Y248565D01*
Y249044D01*
X553942Y248972D01*
X553214Y248486D01*
X553188Y248447D01*
X552688Y248598D01*
Y249100D01*
X552659Y249246D01*
X552676Y249287D01*
X552675Y249288D01*
X552676Y249289D01*
X552673Y250192D01*
X552645Y250262D01*
Y251753D01*
X552931Y252135D01*
X554897D01*
X554972Y252247D01*
X554372D01*
X553943Y253147D01*
X555400Y253156D01*
Y255300D01*
Y258465D01*
X554831D01*
X554711Y258965D01*
X555225Y259228D01*
X558468D01*
Y264758D01*
X553332D01*
Y261515D01*
X552733Y260340D01*
X551176Y258783D01*
X550676Y258990D01*
Y260682D01*
X550922Y261180D01*
X552025D01*
Y272420D01*
X546520D01*
X546271Y272919D01*
Y273460D01*
X546275Y273465D01*
X546408Y273932D01*
X546519D01*
X546531Y274365D01*
X546521Y274455D01*
X546556Y274539D01*
X546519Y274631D01*
Y278987D01*
X547281D01*
Y277000D01*
X550446D01*
X551158D01*
X550458Y277700D01*
X551424Y278114D01*
X552060Y277478D01*
X551856Y277000D01*
X553612D01*
Y278987D01*
X573319D01*
X573511Y278525D01*
D02*
G37*
G36*
X536250Y273744D02*
X535350D01*
X535193Y274643D01*
X536700Y274656D01*
X536250Y273744D01*
D02*
G37*
G36*
X545907Y274543D02*
X545650Y273643D01*
X544750D01*
X544300Y274555D01*
X545907Y274543D01*
D02*
G37*
G36*
X576171Y273200D02*
X575259Y273650D01*
Y274550D01*
X576171Y275000D01*
Y273200D01*
D02*
G37*
G36*
X546100Y271808D02*
X544300D01*
X544750Y272708D01*
X545650D01*
X546100Y271808D01*
D02*
G37*
G36*
X536700D02*
X534900D01*
X535350Y272708D01*
X536250D01*
X536700Y271808D01*
D02*
G37*
G36*
X571395Y270083D02*
Y269183D01*
X570483Y268733D01*
Y270533D01*
X571395Y270083D01*
D02*
G37*
G36*
X569580Y266777D02*
X568680D01*
X568230Y267689D01*
X570030D01*
X569580Y266777D01*
D02*
G37*
G36*
X524113Y266619D02*
X524500Y265834D01*
X522700D01*
X523087Y266619D01*
X522700Y267393D01*
X524500D01*
X524113Y266619D01*
D02*
G37*
G36*
X570030Y265711D02*
X568230D01*
X568680Y266623D01*
X569580D01*
X570030Y265711D01*
D02*
G37*
G36*
X582734Y267098D02*
X582053Y264129D01*
X579130Y267053D01*
X582098Y267735D01*
X582734Y267098D01*
D02*
G37*
G36*
X526456Y264143D02*
Y263243D01*
X525545Y262793D01*
Y264593D01*
X526456Y264143D01*
D02*
G37*
G36*
X537846Y262900D02*
Y261900D01*
X536846Y261792D01*
X536834Y263400D01*
X537846Y262900D01*
D02*
G37*
G36*
X550056Y260892D02*
X549156D01*
X548705Y261804D01*
X550505D01*
X550056Y260892D01*
D02*
G37*
G36*
X579071Y261147D02*
X576102Y260466D01*
X575465Y261102D01*
X576147Y264071D01*
X579071Y261147D01*
D02*
G37*
G36*
X555019Y259852D02*
X553747Y259203D01*
X553307Y260036D01*
X553956Y261309D01*
X555019Y259852D01*
D02*
G37*
G36*
X569297Y255044D02*
X568397D01*
X567946Y255956D01*
X569746D01*
X569297Y255044D01*
D02*
G37*
G36*
X536143Y255153D02*
X535495Y253881D01*
X534037Y254944D01*
X535310Y255593D01*
X536143Y255153D01*
D02*
G37*
G36*
X534968Y253977D02*
X534553Y253012D01*
X533365Y254200D01*
X534331Y254614D01*
X534968Y253977D01*
D02*
G37*
G36*
X526843Y257843D02*
X527924Y256762D01*
X528272Y256529D01*
X528682Y256448D01*
X528682Y256448D01*
X530139D01*
X530188Y255968D01*
X530188D01*
Y253500D01*
X530402D01*
X531212Y253900D01*
Y253500D01*
X531646D01*
X532497Y253840D01*
Y253500D01*
X533354D01*
Y252500D01*
X532497D01*
Y252160D01*
X531646Y252500D01*
X531212D01*
Y252100D01*
X530402Y252500D01*
X530188D01*
Y250879D01*
X529726Y250688D01*
X529157Y251257D01*
X528810Y251489D01*
X528617Y251527D01*
X528530Y251586D01*
X528077Y251679D01*
X527998Y251798D01*
X527402Y252196D01*
X526700Y252335D01*
X525998Y252196D01*
X525402Y251798D01*
X525004Y251202D01*
X524865Y250500D01*
X525004Y249798D01*
X525402Y249202D01*
X525380Y248616D01*
X525202Y248498D01*
X524804Y247902D01*
X524665Y247200D01*
X524804Y246498D01*
X525202Y245902D01*
X525798Y245504D01*
X526500Y245365D01*
X527202Y245504D01*
X527420Y245077D01*
X527002Y244798D01*
X526604Y244202D01*
X526490Y243629D01*
X526425Y243479D01*
X526004Y243255D01*
X525600Y243335D01*
X524898Y243196D01*
X524302Y242798D01*
X523904Y242202D01*
X523765Y241500D01*
X523904Y240798D01*
X524302Y240202D01*
X524716Y239926D01*
X524765Y239393D01*
X524751Y239347D01*
X524452Y239148D01*
X524054Y238552D01*
X523915Y237850D01*
X524054Y237148D01*
X524452Y236552D01*
X525048Y236154D01*
X525750Y236015D01*
X526078Y236080D01*
X526428Y236022D01*
X526601Y235557D01*
X526273Y235112D01*
X525000D01*
Y231946D01*
X524000D01*
Y235112D01*
X522552D01*
Y254235D01*
X526168D01*
Y258021D01*
X526264Y258058D01*
X526669Y258104D01*
X526843Y257843D01*
D02*
G37*
G36*
X583987Y266433D02*
Y181013D01*
X521013D01*
Y203419D01*
X521475Y203611D01*
X521893Y203193D01*
X521893Y203193D01*
X522142Y203027D01*
Y201381D01*
X522142D01*
Y200969D01*
X522142D01*
Y195832D01*
X523890D01*
X523989Y195628D01*
Y195493D01*
X524059Y195142D01*
X524258Y194844D01*
X525851Y193251D01*
X526149Y193052D01*
X526500Y192982D01*
X529591D01*
X529812Y192482D01*
X529756Y192200D01*
X530193D01*
X531043Y192540D01*
Y192200D01*
X534044D01*
X533988Y192482D01*
X534209Y192982D01*
X540352D01*
X540620Y192482D01*
X540468Y192255D01*
X540307Y191445D01*
Y184555D01*
X540468Y183745D01*
X540927Y183058D01*
X541613Y182599D01*
X542424Y182438D01*
X545376D01*
X546186Y182599D01*
X546873Y183058D01*
X547332Y183745D01*
X547493Y184555D01*
Y191445D01*
X547332Y192255D01*
X547180Y192482D01*
X547448Y192982D01*
X558069D01*
X558336Y192482D01*
X558184Y192255D01*
X558023Y191445D01*
Y184555D01*
X558184Y183745D01*
X558643Y183058D01*
X559330Y182599D01*
X560140Y182438D01*
X563093D01*
X563903Y182599D01*
X564590Y183058D01*
X565049Y183745D01*
X565210Y184555D01*
Y191445D01*
X565049Y192255D01*
X564590Y192942D01*
X563903Y193401D01*
X563093Y193562D01*
X562598D01*
X562423Y194062D01*
X562548Y194249D01*
X562618Y194600D01*
Y203897D01*
X562938Y204505D01*
X563438Y204381D01*
Y194290D01*
X569638D01*
Y196894D01*
X569788Y197332D01*
X575319D01*
Y199355D01*
X575343Y199390D01*
X575424Y199800D01*
Y202453D01*
X575449Y202687D01*
X575439Y202723D01*
X575453Y202757D01*
X575424Y202826D01*
Y209447D01*
X575343Y209856D01*
X575110Y210204D01*
X573457Y211857D01*
X573110Y212089D01*
X572700Y212171D01*
X571619D01*
X571121Y212416D01*
Y213865D01*
X570660D01*
X570371Y214444D01*
X570351Y214461D01*
X570329Y214569D01*
X570097Y214917D01*
X570097Y214917D01*
X568997Y216017D01*
X568650Y216249D01*
X568240Y216330D01*
X562660D01*
X562250Y216249D01*
X561903Y216017D01*
X561903Y216017D01*
X561103Y215217D01*
X560871Y214869D01*
X560789Y214460D01*
Y214364D01*
X560554Y213893D01*
X560077Y213868D01*
X559771Y214238D01*
Y217411D01*
X560079Y217783D01*
X563641D01*
Y219071D01*
X564141Y219223D01*
X564214Y219114D01*
X564942Y218628D01*
X565300Y218556D01*
Y218993D01*
X564960Y219843D01*
X565300D01*
Y220700D01*
Y221557D01*
X564960D01*
X565300Y222407D01*
Y222844D01*
X564942Y222772D01*
X564214Y222286D01*
X564141Y222177D01*
X563641Y222329D01*
Y223314D01*
X564091Y223329D01*
X564100Y223329D01*
X564132Y223336D01*
X564510Y223411D01*
X564857Y223643D01*
X565643Y224429D01*
X568700D01*
X569110Y224511D01*
X569457Y224743D01*
X573257Y228543D01*
X573489Y228890D01*
X573571Y229300D01*
Y237057D01*
X576376Y239862D01*
X579216Y240514D01*
X579246Y240536D01*
X580027Y240639D01*
X580892Y240997D01*
X581634Y241566D01*
X582203Y242308D01*
X582561Y243173D01*
X582683Y244100D01*
X582561Y245027D01*
X582203Y245892D01*
X581634Y246634D01*
X580892Y247203D01*
X580027Y247561D01*
X579100Y247683D01*
X578172Y247561D01*
X577308Y247203D01*
X576566Y246634D01*
X575997Y245892D01*
X575639Y245027D01*
X575536Y244246D01*
X575514Y244216D01*
X574862Y241376D01*
X571743Y238257D01*
X571511Y237910D01*
X571429Y237500D01*
Y229743D01*
X568669Y226982D01*
X568168Y227190D01*
Y228507D01*
X568056D01*
Y227703D01*
X567144Y227254D01*
Y228507D01*
X567032D01*
Y227703D01*
X566057Y227313D01*
Y228507D01*
X565200D01*
Y229007D01*
X564700D01*
Y232172D01*
X562771D01*
Y232935D01*
X567768D01*
Y233530D01*
X568266Y233776D01*
X568546D01*
X568956Y233857D01*
X569304Y234089D01*
X570157Y234943D01*
X570389Y235290D01*
X570471Y235700D01*
X570471Y235700D01*
Y246078D01*
X575257Y250864D01*
X575489Y251212D01*
X575533Y251434D01*
X575542Y251436D01*
X576147Y254070D01*
X578600Y251618D01*
Y254100D01*
Y258021D01*
X578068Y257951D01*
X577107Y257553D01*
X576281Y256919D01*
X576071Y256645D01*
X575571Y256815D01*
Y259057D01*
X576376Y259862D01*
X579216Y260514D01*
X579246Y260536D01*
X580027Y260639D01*
X580892Y260997D01*
X581634Y261566D01*
X582203Y262308D01*
X582561Y263173D01*
X582664Y263954D01*
X582686Y263984D01*
X583286Y266597D01*
X583487Y266717D01*
X583987Y266433D01*
D02*
G37*
G36*
X528400Y250950D02*
Y250050D01*
X527749Y249917D01*
Y251083D01*
X528400Y250950D01*
D02*
G37*
G36*
X552026Y249287D02*
X551122D01*
X551124Y250191D01*
X552024D01*
X552026Y249287D01*
D02*
G37*
G36*
X550058D02*
X549153D01*
X549156Y250191D01*
X550056D01*
X550058Y249287D01*
D02*
G37*
G36*
X546121D02*
X545216D01*
X545219Y250191D01*
X546118D01*
X546121Y249287D01*
D02*
G37*
G36*
X544152D02*
X543248D01*
X543250Y250191D01*
X544150D01*
X544152Y249287D01*
D02*
G37*
G36*
X542200Y251044D02*
X542182Y250149D01*
X542184Y249287D01*
X541279D01*
X541281Y250144D01*
X540832Y251056D01*
X542200Y251044D01*
D02*
G37*
G36*
X535349Y246822D02*
X534437Y247272D01*
Y248172D01*
X535349Y248622D01*
Y246822D01*
D02*
G37*
G36*
X528332Y247650D02*
Y246750D01*
X527357Y246360D01*
Y248040D01*
X528332Y247650D01*
D02*
G37*
G36*
X542181Y245253D02*
X541282D01*
X541279Y246157D01*
X542184D01*
X542181Y245253D01*
D02*
G37*
G36*
X539119Y245461D02*
X539337Y245315D01*
X539763Y245231D01*
X540132Y245304D01*
X540287Y245288D01*
X540307Y245282D01*
X540661Y245029D01*
Y244769D01*
X540742Y244359D01*
X540975Y244011D01*
X541018Y243968D01*
X540827Y243506D01*
X536795D01*
Y237100D01*
X543700D01*
Y236100D01*
X543206D01*
X543690Y235616D01*
X542982Y235245D01*
X542345Y235882D01*
X542459Y236100D01*
X536795D01*
Y230150D01*
X536490Y230089D01*
X536143Y229857D01*
X535793Y229507D01*
X535171Y229593D01*
X535032Y229802D01*
X534949Y230216D01*
X534985Y230268D01*
X535069Y230695D01*
X534985Y231121D01*
X534743Y231482D01*
Y231876D01*
X534985Y232237D01*
X535069Y232663D01*
X534985Y233089D01*
X534743Y233450D01*
Y233844D01*
X534985Y234205D01*
X535069Y234631D01*
X534985Y235058D01*
X534743Y235419D01*
Y235813D01*
X534985Y236174D01*
X535069Y236600D01*
X534985Y237026D01*
X534743Y237387D01*
Y237781D01*
X534985Y238142D01*
X535069Y238568D01*
X534985Y238995D01*
X534743Y239356D01*
Y239750D01*
X534985Y240111D01*
X535069Y240537D01*
X534985Y240963D01*
X534743Y241324D01*
Y241718D01*
X534985Y242079D01*
X535069Y242506D01*
X534985Y242932D01*
X534743Y243293D01*
Y243687D01*
X534985Y244048D01*
X535069Y244474D01*
X534985Y244900D01*
X534874Y245065D01*
X535235Y245426D01*
X535400Y245315D01*
X535826Y245231D01*
X536252Y245315D01*
X536470Y245461D01*
X536810Y245522D01*
X537151Y245461D01*
X537368Y245315D01*
X537794Y245231D01*
X538221Y245315D01*
X538438Y245461D01*
X538779Y245522D01*
X539119Y245461D01*
D02*
G37*
G36*
X532009Y244952D02*
X530748Y244287D01*
X530104Y244959D01*
X530736Y245600D01*
X532009Y244952D01*
D02*
G37*
G36*
X552024Y245253D02*
X551322D01*
X552024Y244200D01*
X551124Y242850D01*
X550224Y243750D01*
Y244650D01*
X551123Y245549D01*
X551122Y246157D01*
X552026D01*
X552024Y245253D01*
D02*
G37*
G36*
X557291Y242955D02*
Y242056D01*
X556387Y242053D01*
Y242958D01*
X557291Y242955D01*
D02*
G37*
G36*
X531013Y242053D02*
X530109Y242056D01*
Y242955D01*
X531013Y242958D01*
Y242053D01*
D02*
G37*
G36*
X579071Y241147D02*
X576102Y240465D01*
X575465Y241102D01*
X576147Y244071D01*
X579071Y241147D01*
D02*
G37*
G36*
X557291Y240987D02*
Y240087D01*
X556387Y240085D01*
Y240989D01*
X557291Y240987D01*
D02*
G37*
G36*
X531013Y240085D02*
X530109Y240087D01*
Y240987D01*
X531013Y240989D01*
Y240085D01*
D02*
G37*
G36*
Y238116D02*
X530109Y238119D01*
Y239019D01*
X531013Y239021D01*
Y238116D01*
D02*
G37*
G36*
X527640Y238119D02*
X526939Y237690D01*
X526038Y239015D01*
X527431Y239019D01*
X527640Y238119D01*
D02*
G37*
G36*
X530157Y237050D02*
X531013Y237052D01*
Y236148D01*
X530310Y236150D01*
X529562Y235701D01*
X528774Y237140D01*
X530157Y237050D01*
D02*
G37*
G36*
X523900Y234088D02*
X522543Y234100D01*
X522550Y235000D01*
X523450D01*
X523900Y234088D01*
D02*
G37*
G36*
X563256Y234049D02*
X562446Y234397D01*
Y235297D01*
X563256Y235644D01*
Y234049D01*
D02*
G37*
G36*
X568056Y235297D02*
Y234397D01*
X567144Y233946D01*
Y235747D01*
X568056Y235297D01*
D02*
G37*
G36*
X540724Y232988D02*
X540353Y232279D01*
X539379Y233254D01*
X540088Y233624D01*
X540724Y232988D01*
D02*
G37*
G36*
X539360Y231285D02*
X538651Y230914D01*
X538015Y231551D01*
X538385Y232259D01*
X539360Y231285D01*
D02*
G37*
G36*
X527093Y229990D02*
X526653Y229157D01*
X525381Y229805D01*
X526444Y231263D01*
X527093Y229990D01*
D02*
G37*
G36*
X535393Y229078D02*
X534302Y228380D01*
X533621Y229204D01*
X534826Y229784D01*
X535393Y229078D01*
D02*
G37*
G36*
X557291Y229176D02*
Y228276D01*
X556387Y228274D01*
Y229178D01*
X557291Y229176D01*
D02*
G37*
G36*
X531013Y228274D02*
X530109Y228276D01*
Y229176D01*
X531013Y229178D01*
Y228274D01*
D02*
G37*
G36*
X552024Y229100D02*
X551255Y227947D01*
X552024D01*
X552026Y227043D01*
X551122D01*
X551124Y227750D01*
X550224Y228650D01*
Y229550D01*
X551124Y230450D01*
X552024Y229100D01*
D02*
G37*
G36*
X536278Y227043D02*
X535374D01*
X535376Y227947D01*
X536276D01*
X536278Y227043D01*
D02*
G37*
G36*
X565188Y226954D02*
X564980Y226865D01*
X565173Y226866D01*
X563900Y226217D01*
X562628Y226218D01*
X563243Y226854D01*
X563904Y226858D01*
X563586Y227176D01*
X564000Y228142D01*
X565188Y226954D01*
D02*
G37*
G36*
X523619Y227395D02*
X522555Y225937D01*
X521907Y227210D01*
X522347Y228043D01*
X523619Y227395D01*
D02*
G37*
G36*
X556098Y225928D02*
X556161Y225028D01*
X555210Y224618D01*
X554300Y225509D01*
X555101Y226294D01*
X556098Y225928D01*
D02*
G37*
G36*
X552767Y226025D02*
X553499Y226294D01*
X554300Y225509D01*
X553390Y224618D01*
X552719Y224907D01*
X552052Y224578D01*
Y226378D01*
X552767Y226025D01*
D02*
G37*
G36*
X535349Y224578D02*
X534437Y225028D01*
Y225928D01*
X535349Y226378D01*
Y224578D01*
D02*
G37*
G36*
X527356Y225928D02*
Y225028D01*
X526444Y224578D01*
Y226378D01*
X527356Y225928D01*
D02*
G37*
G36*
X561952Y226580D02*
X562231Y226464D01*
Y225842D01*
X561920Y225471D01*
X559800D01*
X559390Y225389D01*
X559043Y225157D01*
X558143Y224257D01*
X557911Y223910D01*
X557829Y223500D01*
Y223043D01*
X555157Y220371D01*
X550244D01*
X548729Y221885D01*
X548763Y222384D01*
X549106Y222595D01*
Y225478D01*
X550105D01*
Y222678D01*
X550188Y222694D01*
X550681Y223024D01*
X551095Y223107D01*
X551148Y223071D01*
X551574Y222987D01*
X552000Y223071D01*
X552361Y223313D01*
X552603Y223674D01*
X552609Y223703D01*
X552986Y223953D01*
X553175Y223987D01*
X553598Y223704D01*
X554300Y223565D01*
X555002Y223704D01*
X555493Y224032D01*
X556362Y224407D01*
X556635D01*
X557045Y224489D01*
X557392Y224721D01*
X559001Y226329D01*
X561000D01*
X561410Y226411D01*
X561731Y226626D01*
X561952Y226580D01*
D02*
G37*
G36*
X548087Y223009D02*
X547187D01*
X547185Y223913D01*
X548089D01*
X548087Y223009D01*
D02*
G37*
G36*
X546118D02*
X545219D01*
X545216Y223913D01*
X546121D01*
X546118Y223009D01*
D02*
G37*
G36*
X544150D02*
X543250D01*
X543248Y223913D01*
X544152D01*
X544150Y223009D01*
D02*
G37*
G36*
X542181D02*
X541282D01*
X541279Y223913D01*
X542184D01*
X542181Y223009D01*
D02*
G37*
G36*
X540213D02*
X539313D01*
X539311Y223913D01*
X540215D01*
X540213Y223009D01*
D02*
G37*
G36*
X530732Y222750D02*
Y221850D01*
X529757Y221460D01*
Y223140D01*
X530732Y222750D01*
D02*
G37*
G36*
X533295Y221150D02*
X533494Y220250D01*
X532786Y219818D01*
X531902Y221161D01*
X533295Y221150D01*
D02*
G37*
G36*
X560703Y219649D02*
X559791Y220099D01*
Y220999D01*
X560703Y221449D01*
Y219649D01*
D02*
G37*
G36*
X537332Y217050D02*
Y216150D01*
X536357Y215760D01*
Y217440D01*
X537332Y217050D01*
D02*
G37*
G36*
X529043Y215760D02*
X528068Y216150D01*
Y217050D01*
X529043Y217440D01*
Y215760D01*
D02*
G37*
G36*
X553800Y214376D02*
X552000D01*
X552450Y215288D01*
X553350D01*
X553800Y214376D01*
D02*
G37*
G36*
X570240Y213253D02*
X568440D01*
X568890Y214153D01*
X569790D01*
X570240Y213253D01*
D02*
G37*
G36*
X562760D02*
X560960D01*
X561410Y214153D01*
X562310D01*
X562760Y213253D01*
D02*
G37*
G36*
X548745Y218841D02*
X548814Y218286D01*
X548328Y217558D01*
X548256Y217200D01*
X550400D01*
Y216200D01*
X548256D01*
X548328Y215842D01*
X548814Y215114D01*
X549300Y214789D01*
Y208800D01*
X548812Y208771D01*
X545900D01*
Y211400D01*
X537900D01*
Y208771D01*
X534864D01*
X534365Y209020D01*
Y212069D01*
X528835D01*
Y206931D01*
X528835Y206931D01*
Y206519D01*
X528835D01*
X528835Y206432D01*
Y201381D01*
X528835D01*
Y200969D01*
X528835D01*
Y195832D01*
X534365D01*
Y200969D01*
X534365D01*
Y201381D01*
X534365D01*
Y205029D01*
X535479D01*
Y200311D01*
X542479D01*
Y205029D01*
X544557D01*
X545122Y204464D01*
X545721Y203288D01*
Y194818D01*
X542479D01*
Y199311D01*
X535479D01*
Y194818D01*
X526880D01*
X526366Y195332D01*
X526573Y195832D01*
X527672D01*
Y200969D01*
X527672D01*
Y201381D01*
X527672D01*
Y206519D01*
X527672D01*
Y206931D01*
X527672D01*
Y212069D01*
X526735D01*
X526471Y212568D01*
X526582Y212729D01*
X531400D01*
X531810Y212811D01*
X532157Y213043D01*
X533457Y214343D01*
X533689Y214690D01*
X533763Y215060D01*
X533959Y215170D01*
X534271Y215257D01*
X534798Y214904D01*
X535500Y214765D01*
X536202Y214904D01*
X536581Y215157D01*
X536598Y215157D01*
X537438Y215493D01*
X537900Y215245D01*
Y212400D01*
X544876D01*
Y213961D01*
X545524D01*
Y212688D01*
X545378Y212400D01*
X545900D01*
Y215400D01*
X543694D01*
X543552Y215666D01*
X543514Y215900D01*
X546425Y218811D01*
X546658Y219159D01*
X546739Y219568D01*
X546739Y219569D01*
Y220140D01*
X547239Y220347D01*
X548745Y218841D01*
D02*
G37*
G36*
X525807Y211444D02*
X524007D01*
X524457Y212356D01*
X525357D01*
X525807Y211444D01*
D02*
G37*
G36*
X556788Y212350D02*
Y211450D01*
X555876Y211000D01*
Y212800D01*
X556788Y212350D01*
D02*
G37*
G36*
X571409Y211550D02*
Y210650D01*
X570497Y210200D01*
Y212000D01*
X571409Y211550D01*
D02*
G37*
G36*
X553350Y208512D02*
X552450D01*
X552000Y209412D01*
X553800D01*
X553350Y208512D01*
D02*
G37*
G36*
X566100Y207935D02*
X567781D01*
Y208335D01*
X571121D01*
Y209784D01*
X571619Y210029D01*
X572257D01*
X573283Y209003D01*
Y202966D01*
X573037Y202468D01*
X569788D01*
X569638Y202906D01*
Y205332D01*
X563912D01*
X563502Y205832D01*
X563535Y206000D01*
X563396Y206702D01*
X562998Y207298D01*
X562402Y207696D01*
X561854Y207805D01*
X561829Y207835D01*
X562061Y208335D01*
X563419D01*
Y207935D01*
X565100D01*
Y211100D01*
X566100D01*
Y207935D01*
D02*
G37*
G36*
X534653Y208150D02*
Y207250D01*
X533753Y207543D01*
Y208600D01*
X534653Y208150D01*
D02*
G37*
G36*
X561912Y206212D02*
X561488Y205788D01*
X560950Y206253D01*
X561447Y206750D01*
X561912Y206212D01*
D02*
G37*
G36*
X562008Y205143D02*
X562540D01*
X562000Y204118D01*
X561400D01*
X560860Y205143D01*
X561392D01*
X561382Y205682D01*
X562018D01*
X562008Y205143D01*
D02*
G37*
G36*
X555552Y204708D02*
X554219Y203520D01*
X553571Y204793D01*
X554280Y205357D01*
X555552Y204708D01*
D02*
G37*
G36*
X547652D02*
X546345Y203494D01*
X545697Y204767D01*
X546380Y205357D01*
X547652Y204708D01*
D02*
G37*
G36*
X574707Y201856D02*
X573454Y201845D01*
X573904Y202757D01*
X574803D01*
X574707Y201856D01*
D02*
G37*
G36*
X570400Y198911D02*
X569712Y199255D01*
X569014Y198911D01*
Y200711D01*
X569712Y200367D01*
X570400Y200711D01*
Y198911D01*
D02*
G37*
G36*
X532090Y201175D02*
X532500Y200344D01*
X530700D01*
X531110Y201175D01*
X530700Y202006D01*
X532500D01*
X532090Y201175D01*
D02*
G37*
G36*
X525207Y195844D02*
X524607D01*
X524307Y196456D01*
X525507D01*
X525207Y195844D01*
D02*
G37*
%LPC*%
G36*
X530154Y276100D02*
X529913D01*
X530089Y275541D01*
X529049Y275789D01*
X528941Y276100D01*
X528512D01*
Y275339D01*
X527600Y275789D01*
Y276100D01*
X527488D01*
Y273632D01*
X530154D01*
Y276100D01*
D02*
G37*
G36*
X526569Y275739D02*
X526355D01*
X525545Y275339D01*
Y275739D01*
X525307D01*
X524457Y275399D01*
Y275739D01*
X524100D01*
Y273074D01*
X526569D01*
Y275739D01*
D02*
G37*
G36*
X533819Y276100D02*
X531154D01*
Y273632D01*
X533819D01*
Y276100D01*
D02*
G37*
G36*
X568346Y278468D02*
X565681D01*
Y276000D01*
X568346D01*
Y276357D01*
X568007D01*
X568346Y277207D01*
Y278468D01*
D02*
G37*
G36*
X553612Y276000D02*
X550946D01*
Y273532D01*
X553612D01*
Y276000D01*
D02*
G37*
G36*
X549946D02*
X547281D01*
Y273532D01*
X549946D01*
Y276000D01*
D02*
G37*
G36*
X556500Y271544D02*
Y269900D01*
X558144D01*
X558072Y270258D01*
X557586Y270986D01*
X556858Y271472D01*
X556500Y271544D01*
D02*
G37*
G36*
X555500D02*
X555142Y271472D01*
X554414Y270986D01*
X553928Y270258D01*
X553856Y269900D01*
X555500D01*
Y271544D01*
D02*
G37*
G36*
X558144Y268900D02*
X556500D01*
Y267256D01*
X556858Y267328D01*
X557586Y267814D01*
X558072Y268542D01*
X558144Y268900D01*
D02*
G37*
G36*
X555500D02*
X553856D01*
X553928Y268542D01*
X554414Y267814D01*
X555142Y267328D01*
X555500Y267256D01*
Y268900D01*
D02*
G37*
G36*
X564919Y278068D02*
X559388D01*
Y272932D01*
X560862D01*
X561072Y272567D01*
X560862Y272202D01*
X560459D01*
Y267065D01*
X564415D01*
Y272202D01*
X564011D01*
X563801Y272567D01*
X564011Y272932D01*
X564919D01*
Y278068D01*
D02*
G37*
G36*
X558869Y258465D02*
X556400D01*
Y255800D01*
X558869D01*
Y258465D01*
D02*
G37*
G36*
X564415Y266335D02*
X560459D01*
Y261198D01*
X560862D01*
X561072Y260833D01*
X560862Y260469D01*
X559388D01*
Y255331D01*
X564919D01*
Y260469D01*
X564011D01*
X563801Y260833D01*
X564011Y261198D01*
X564415D01*
Y266335D01*
D02*
G37*
G36*
X558869Y254800D02*
X556400D01*
Y252135D01*
X558869D01*
Y254800D01*
D02*
G37*
G36*
X565568Y254512D02*
X563100D01*
Y251847D01*
X565568D01*
Y254512D01*
D02*
G37*
G36*
X562100D02*
X559631D01*
Y251847D01*
X559845D01*
X560655Y252246D01*
Y251847D01*
X560893D01*
X561743Y252186D01*
Y251847D01*
X562100D01*
Y254512D01*
D02*
G37*
G36*
Y250847D02*
X561743D01*
Y250506D01*
X560893Y250847D01*
X560655D01*
Y250447D01*
X559845Y250847D01*
X559631D01*
Y248181D01*
X562100D01*
Y250847D01*
D02*
G37*
G36*
X555300Y249044D02*
Y248652D01*
X555656Y247741D01*
X555321Y247400D01*
X556944D01*
X556872Y247758D01*
X556386Y248486D01*
X555658Y248972D01*
X555300Y249044D01*
D02*
G37*
G36*
X556944Y246400D02*
X555321D01*
X555656Y246059D01*
X555444Y245516D01*
X555711Y244974D01*
X557622D01*
X557606Y245056D01*
X557276Y245550D01*
X557185Y245610D01*
X556872Y246042D01*
X556944Y246400D01*
D02*
G37*
%LPD*%
G36*
X562887Y272643D02*
X561987D01*
X561537Y273555D01*
X563337D01*
X562887Y272643D01*
D02*
G37*
G36*
X563337Y271578D02*
X561537D01*
X561987Y272490D01*
X562887D01*
X563337Y271578D01*
D02*
G37*
G36*
X562887Y260910D02*
X561987D01*
X561537Y261822D01*
X563337D01*
X562887Y260910D01*
D02*
G37*
G36*
X563337Y259844D02*
X561537D01*
X561987Y260756D01*
X562887D01*
X563337Y259844D01*
D02*
G37*
%LPC*%
G36*
X579600Y258021D02*
Y254600D01*
X583021D01*
X582951Y255132D01*
X582553Y256093D01*
X581919Y256919D01*
X581093Y257553D01*
X580132Y257951D01*
X579600Y258021D01*
D02*
G37*
G36*
X583021Y253600D02*
X582161D01*
X582515Y252057D01*
X582553Y252107D01*
X582951Y253068D01*
X583021Y253600D01*
D02*
G37*
G36*
X581582D02*
X579600D01*
Y251618D01*
X581582Y253600D01*
D02*
G37*
G36*
X579600Y251039D02*
Y250179D01*
X580132Y250249D01*
X581093Y250647D01*
X581143Y250685D01*
X579600Y251039D01*
D02*
G37*
G36*
X578600D02*
X577057Y250685D01*
X577107Y250647D01*
X578068Y250249D01*
X578600Y250179D01*
Y251039D01*
D02*
G37*
G36*
X568168Y232172D02*
X565700D01*
Y229507D01*
X568168D01*
Y232172D01*
D02*
G37*
G36*
X579100Y236183D02*
X578172Y236061D01*
X577308Y235703D01*
X576566Y235134D01*
X575997Y234392D01*
X575639Y233527D01*
X575517Y232600D01*
X575639Y231673D01*
X575997Y230808D01*
X576566Y230066D01*
X577308Y229497D01*
X578172Y229139D01*
X579100Y229017D01*
X580027Y229139D01*
X580892Y229497D01*
X581634Y230066D01*
X582203Y230808D01*
X582561Y231673D01*
X582683Y232600D01*
X582561Y233527D01*
X582203Y234392D01*
X581634Y235134D01*
X580892Y235703D01*
X580027Y236061D01*
X579100Y236183D01*
D02*
G37*
G36*
X571121Y223314D02*
X567559D01*
Y222772D01*
X567059Y222505D01*
X566658Y222772D01*
X566300Y222844D01*
Y222407D01*
X566640Y221557D01*
X566300D01*
Y220700D01*
Y219843D01*
X566640D01*
X566300Y218993D01*
Y218556D01*
X566658Y218628D01*
X567059Y218895D01*
X567559Y218628D01*
Y217783D01*
X571121D01*
Y218658D01*
X571621Y218865D01*
X576233Y214253D01*
X576831Y213078D01*
Y209781D01*
X581968D01*
Y212636D01*
X581971Y212647D01*
X581968Y212657D01*
Y215312D01*
X578779D01*
X577603Y215911D01*
X572208Y221306D01*
X571861Y221538D01*
X571708Y221568D01*
X571697Y221581D01*
X571121Y221865D01*
Y223314D01*
D02*
G37*
G36*
X582653Y226153D02*
X575547D01*
Y219047D01*
X582653D01*
Y226153D01*
D02*
G37*
G36*
X578900Y209019D02*
X576432D01*
Y206354D01*
X578297D01*
X578058Y207227D01*
X578900Y207523D01*
Y207875D01*
X577444Y207205D01*
X576807Y208478D01*
X577914Y208643D01*
X578900Y208151D01*
Y209019D01*
D02*
G37*
G36*
X582369D02*
X579900D01*
Y206354D01*
X582369D01*
Y209019D01*
D02*
G37*
G36*
X578900Y206577D02*
X578344Y206354D01*
X578900D01*
Y206577D01*
D02*
G37*
G36*
X582369Y205354D02*
X579400D01*
X576432D01*
Y202869D01*
X576081D01*
Y200400D01*
X579246D01*
X582412D01*
Y202869D01*
X582369D01*
Y205354D01*
D02*
G37*
G36*
X582412Y199400D02*
X579746D01*
Y199021D01*
X580063D01*
X579746Y198197D01*
Y197956D01*
X580463D01*
X579746Y197520D01*
Y196932D01*
X582412D01*
Y199400D01*
D02*
G37*
G36*
X578746D02*
X576081D01*
Y196932D01*
X578746D01*
Y197031D01*
X577917Y197307D01*
Y197956D01*
X578746D01*
Y198198D01*
X578430Y199021D01*
X578746D01*
Y199400D01*
D02*
G37*
G36*
X574200Y196444D02*
Y194800D01*
X574633D01*
Y195054D01*
X575385Y194800D01*
X575844D01*
X575772Y195158D01*
X575286Y195886D01*
X574558Y196372D01*
X574200Y196444D01*
D02*
G37*
G36*
X573200D02*
X572842Y196372D01*
X572114Y195886D01*
X571628Y195158D01*
X571556Y194800D01*
X573200D01*
Y196444D01*
D02*
G37*
G36*
X575844Y193800D02*
X575385D01*
X574633Y193546D01*
Y193800D01*
X574200D01*
Y193443D01*
X574540D01*
X574200Y192593D01*
Y192156D01*
X574558Y192228D01*
X575286Y192714D01*
X575772Y193442D01*
X575844Y193800D01*
D02*
G37*
G36*
X573200D02*
X571556D01*
X571628Y193442D01*
X572114Y192714D01*
X572842Y192228D01*
X573200Y192156D01*
Y192593D01*
X572860Y193443D01*
X573200D01*
Y193800D01*
D02*
G37*
G36*
X531400Y191200D02*
X531043D01*
Y190860D01*
X530193Y191200D01*
X529756D01*
X529828Y190842D01*
X530314Y190114D01*
X531042Y189628D01*
X531400Y189556D01*
Y191200D01*
D02*
G37*
G36*
X534044D02*
X532400D01*
Y189556D01*
X532758Y189628D01*
X533486Y190114D01*
X533972Y190842D01*
X534044Y191200D01*
D02*
G37*
G36*
X526400Y190244D02*
Y189509D01*
X526877Y189714D01*
X527514Y189077D01*
X527309Y188600D01*
X528044D01*
X527972Y188958D01*
X527486Y189686D01*
X526758Y190172D01*
X526400Y190244D01*
D02*
G37*
G36*
Y188812D02*
Y188600D01*
X526612D01*
X526400Y188812D01*
D02*
G37*
G36*
X525400Y190244D02*
X525042Y190172D01*
X524314Y189686D01*
X523828Y188958D01*
X523756Y188600D01*
X525400D01*
Y190244D01*
D02*
G37*
G36*
X574200Y189744D02*
Y189307D01*
X574540Y188457D01*
X574200D01*
Y188100D01*
X575844D01*
X575772Y188458D01*
X575286Y189186D01*
X574558Y189672D01*
X574200Y189744D01*
D02*
G37*
G36*
X573200D02*
X572842Y189672D01*
X572114Y189186D01*
X571628Y188458D01*
X571556Y188100D01*
X573200D01*
Y188457D01*
X572860D01*
X573200Y189307D01*
Y189744D01*
D02*
G37*
G36*
X553000Y189144D02*
Y187500D01*
X554644D01*
X554572Y187858D01*
X554086Y188586D01*
X553358Y189072D01*
X553000Y189144D01*
D02*
G37*
G36*
X552000D02*
X551642Y189072D01*
X550914Y188586D01*
X550428Y187858D01*
X550356Y187500D01*
X552000D01*
Y189144D01*
D02*
G37*
G36*
X528044Y187600D02*
X526400D01*
Y185956D01*
X526758Y186028D01*
X527486Y186514D01*
X527972Y187242D01*
X528044Y187600D01*
D02*
G37*
G36*
X525400D02*
X523756D01*
X523828Y187242D01*
X524314Y186514D01*
X525042Y186028D01*
X525400Y185956D01*
Y187600D01*
D02*
G37*
G36*
X535400Y187444D02*
Y185800D01*
X537044D01*
X536972Y186158D01*
X536486Y186886D01*
X535758Y187372D01*
X535400Y187444D01*
D02*
G37*
G36*
X534400D02*
X534042Y187372D01*
X533314Y186886D01*
X532828Y186158D01*
X532756Y185800D01*
X534400D01*
Y187444D01*
D02*
G37*
G36*
X575844Y187100D02*
X574200D01*
Y185456D01*
X574558Y185528D01*
X575286Y186014D01*
X575772Y186742D01*
X575844Y187100D01*
D02*
G37*
G36*
X573200D02*
X571556D01*
X571628Y186742D01*
X572114Y186014D01*
X572842Y185528D01*
X573200Y185456D01*
Y187100D01*
D02*
G37*
G36*
X554644Y186500D02*
X553000D01*
Y184856D01*
X553358Y184928D01*
X554086Y185414D01*
X554572Y186142D01*
X554644Y186500D01*
D02*
G37*
G36*
X552000D02*
X550356D01*
X550428Y186142D01*
X550914Y185414D01*
X551642Y184928D01*
X552000Y184856D01*
Y186500D01*
D02*
G37*
G36*
X537044Y184800D02*
X535400D01*
Y183156D01*
X535758Y183228D01*
X536486Y183714D01*
X536972Y184442D01*
X537044Y184800D01*
D02*
G37*
G36*
X534400D02*
X532756D01*
X532828Y184442D01*
X533314Y183714D01*
X534042Y183228D01*
X534400Y183156D01*
Y184800D01*
D02*
G37*
%LPD*%
G36*
X571409Y220999D02*
Y220099D01*
X570497Y219649D01*
Y221449D01*
X571409Y220999D01*
D02*
G37*
G36*
X578573Y214688D02*
X577456Y213284D01*
X576807Y214557D01*
X577300Y215336D01*
X578573Y214688D01*
D02*
G37*
G36*
X581356Y203700D02*
X581350Y202800D01*
X580450D01*
X580000Y203712D01*
X581356Y203700D01*
D02*
G37*
G36*
X581400Y201856D02*
X580000Y201845D01*
X580450Y202757D01*
X581350D01*
X581400Y201856D01*
D02*
G37*
D17*
X531600Y209500D02*
D03*
X524907D02*
D03*
X531600Y203950D02*
D03*
X524907D02*
D03*
X531600Y198400D02*
D03*
X524907D02*
D03*
X579247Y199900D02*
D03*
X572553D02*
D03*
X533354Y253000D02*
D03*
X540047D02*
D03*
X530653Y276600D02*
D03*
X537347D02*
D03*
X550447Y276500D02*
D03*
X543753D02*
D03*
X562153Y275500D02*
D03*
X568847D02*
D03*
X562153Y257900D02*
D03*
X568847D02*
D03*
D18*
X538979Y199811D02*
D03*
X566538D02*
D03*
X556695D02*
D03*
X548821D02*
D03*
D19*
X579400Y205854D02*
D03*
Y212546D02*
D03*
X524500Y231946D02*
D03*
Y225254D02*
D03*
X523600Y257000D02*
D03*
Y263693D02*
D03*
Y276239D02*
D03*
Y269547D02*
D03*
X555900Y255300D02*
D03*
Y261993D02*
D03*
X562600Y251346D02*
D03*
Y244654D02*
D03*
X565200Y229007D02*
D03*
Y235700D02*
D03*
D20*
X541900Y211900D02*
D03*
X552900D02*
D03*
D21*
X543700Y236600D02*
D03*
D22*
X554822Y244474D02*
D03*
Y242506D02*
D03*
Y240537D02*
D03*
Y238568D02*
D03*
Y236600D02*
D03*
Y234631D02*
D03*
Y232663D02*
D03*
Y230695D02*
D03*
Y228726D02*
D03*
X532578D02*
D03*
Y230695D02*
D03*
Y232663D02*
D03*
Y234631D02*
D03*
Y236600D02*
D03*
Y238568D02*
D03*
Y240537D02*
D03*
Y242506D02*
D03*
Y244474D02*
D03*
D23*
X551574Y225478D02*
D03*
X549606D02*
D03*
X547637D02*
D03*
X545669D02*
D03*
X543700D02*
D03*
X541732D02*
D03*
X539763D02*
D03*
X537794D02*
D03*
X535826D02*
D03*
Y247722D02*
D03*
X537794D02*
D03*
X539763D02*
D03*
X541732D02*
D03*
X543700D02*
D03*
X545669D02*
D03*
X547637D02*
D03*
X549606D02*
D03*
X551574D02*
D03*
D24*
X547784Y266800D02*
D03*
X533216D02*
D03*
D25*
X569130Y263767D02*
D03*
X562437D02*
D03*
X569130Y269633D02*
D03*
X562437D02*
D03*
D26*
X561860Y211100D02*
D03*
X565600D02*
D03*
X569340D02*
D03*
Y220549D02*
D03*
X561860D02*
D03*
D40*
X566538Y199811D02*
X574342D01*
X574354Y199800D01*
Y209447D01*
X572700Y211100D02*
X574354Y209447D01*
X569340Y211100D02*
X572700D01*
X548821Y199811D02*
Y202279D01*
X556695Y199811D02*
Y202305D01*
X551300Y207700D02*
X556695Y202305D01*
X531600Y203950D02*
X533750Y206100D01*
X531600Y198400D02*
Y203950D01*
Y209500D02*
X533400Y207700D01*
X524907Y209500D02*
Y212807D01*
X522650Y203950D02*
X524907D01*
X521500Y205100D02*
X522650Y203950D01*
X521500Y205100D02*
Y214800D01*
X523300Y216600D01*
X523600Y263693D02*
Y269547D01*
X535800Y275054D02*
X537347Y276600D01*
X535800Y269384D02*
Y275054D01*
X533216Y266800D02*
X535800Y269384D01*
X543753Y276500D02*
X545200Y275054D01*
Y269384D02*
Y275054D01*
Y269384D02*
X547784Y266800D01*
X524907Y212807D02*
X525900Y213800D01*
X531400D02*
X532700Y215100D01*
X535826Y225478D02*
Y228026D01*
X536900Y229100D01*
X551574D01*
Y225478D02*
Y229100D01*
X541732Y244769D02*
Y247722D01*
Y244769D02*
X542300Y244200D01*
X551574D01*
Y229100D02*
Y244200D01*
Y247722D01*
X532700Y215100D02*
Y217700D01*
X545669Y219568D02*
Y225478D01*
X542500Y219100D02*
X543700Y220300D01*
Y225478D01*
X541732Y221431D02*
Y225478D01*
X541000Y220700D02*
X541732Y221431D01*
X532300Y220700D02*
X541000D01*
X539763Y222863D02*
Y225478D01*
X539200Y222300D02*
X539763Y222863D01*
X540047Y253000D02*
X541732Y251315D01*
X536372Y256018D02*
X542781D01*
X533354Y253000D02*
X536372Y256018D01*
X545669Y247722D02*
Y255253D01*
X543403Y257519D02*
X545669Y255253D01*
X541732Y247722D02*
Y251315D01*
X543700Y247722D02*
Y255100D01*
X542781Y256018D02*
X543700Y255100D01*
X528682Y257519D02*
X543403D01*
X527600Y258600D02*
X528682Y257519D01*
X527600Y258600D02*
Y262600D01*
X526507Y263693D02*
X527600Y262600D01*
X523600Y263693D02*
X526507D01*
X549606Y247722D02*
Y264978D01*
X547784Y266800D02*
X549606Y264978D01*
X559549Y220549D02*
X561860D01*
X558700Y219700D02*
X559549Y220549D01*
X558700Y212800D02*
Y219700D01*
X557800Y211900D02*
X558700Y212800D01*
X547637Y221463D02*
Y225478D01*
X558900Y222600D02*
Y223500D01*
X559800Y224400D01*
X549606Y221694D02*
Y225478D01*
X557400Y223300D02*
Y224121D01*
X559179Y225900D01*
X562947D01*
X565200Y228153D01*
X556635Y225478D02*
X558557Y227400D01*
X561000D01*
X561700Y228100D01*
Y234100D01*
X562446Y234846D01*
X560200Y229900D02*
Y237100D01*
X572500Y237500D02*
X579100Y244100D01*
X568954Y228153D02*
X570900Y230100D01*
Y245900D01*
X562446Y234846D02*
X568546D01*
X569400Y235700D01*
Y246521D01*
X574500Y251621D01*
X570900Y245900D02*
X579100Y254100D01*
X575000Y274100D02*
X579100D01*
X554822Y228726D02*
X557762D01*
X559200Y228900D02*
X560200Y229900D01*
X557762Y228726D02*
X557936Y228900D01*
X559200D01*
X569130Y263767D02*
Y269633D01*
X562437Y258183D02*
Y263767D01*
X562153Y257900D02*
X562437Y258183D01*
Y269633D02*
Y275217D01*
X562153Y275500D02*
X562437Y275217D01*
X554822Y240537D02*
X565637D01*
X566400Y241300D01*
Y247764D01*
X568847Y250210D01*
Y257900D01*
X554822Y242506D02*
X560452D01*
X562600Y244654D01*
X554822Y251346D02*
X562600D01*
X554822Y244474D02*
Y251346D01*
Y254222D01*
X555900Y255300D01*
X551574Y247722D02*
Y257667D01*
X555900Y261993D01*
X532578Y228726D02*
X534405D01*
X536279Y230600D01*
X537700D01*
X539369Y232269D01*
X543700Y236600D01*
X529294Y242506D02*
X532578D01*
X528300Y243500D02*
X529294Y242506D01*
X526563Y240537D02*
X532578D01*
X525600Y241500D02*
X526563Y240537D01*
X526469Y238568D02*
X532578D01*
X525750Y237850D02*
X526469Y238568D01*
X529000Y236600D02*
X532578D01*
X528400Y236000D02*
X529000Y236600D01*
X524724Y225478D02*
X535826D01*
X524500Y225254D02*
X524724Y225478D01*
X525900Y213800D02*
X531400D01*
X523300Y216600D02*
X529900D01*
X532700Y217700D02*
X534100Y219100D01*
X542500D01*
X528900Y222300D02*
X539200D01*
X531600Y220000D02*
X532300Y220700D01*
X531226Y244474D02*
X532578D01*
X528500Y247200D02*
X531226Y244474D01*
X526500Y247200D02*
X528500D01*
X531178Y247722D02*
X535826D01*
X528400Y250500D02*
X531178Y247722D01*
X526700Y250500D02*
X528400D01*
X545000Y206100D02*
X548821Y202279D01*
X535500Y216600D02*
X542700D01*
X545669Y219568D01*
X533400Y207700D02*
X551300D01*
X533750Y206100D02*
X545000D01*
X553100Y211900D02*
X557800D01*
X574500Y251621D02*
Y259500D01*
X579100Y264100D01*
X583300Y268300D01*
Y277956D01*
X582700Y278556D02*
X583300Y277956D01*
X575056Y278556D02*
X582700D01*
X567900Y247143D02*
X573000Y252243D01*
Y260121D01*
X574400Y261521D01*
Y273500D01*
X575000Y274100D01*
X572500Y276000D02*
X575056Y278556D01*
X572500Y269900D02*
Y276000D01*
X572233Y269633D02*
X572500Y269900D01*
X569130Y269633D02*
X572233D01*
X521482Y254882D02*
X523600Y257000D01*
X521482Y228272D02*
Y254882D01*
Y228272D02*
X524500Y225254D01*
X552900Y211900D02*
Y215700D01*
X553900Y216700D01*
X555300D01*
X549606Y221694D02*
X550500Y220800D01*
X554900D01*
X557400Y223300D01*
X547637Y221463D02*
X549800Y219300D01*
X555600D01*
X558900Y222600D01*
X551574Y225478D02*
X556635D01*
X523000Y233447D02*
X524500Y231946D01*
X523000Y233447D02*
Y251800D01*
X524200Y253000D01*
X533354D01*
X527720Y228726D02*
X532578D01*
X524500Y231946D02*
X527720Y228726D01*
X523600Y276239D02*
X530293D01*
X530653Y276600D01*
X568847Y275500D02*
Y277510D01*
X567800Y278556D02*
X568847Y277510D01*
X552503Y278556D02*
X567800D01*
X550447Y276500D02*
X552503Y278556D01*
X541900Y211900D02*
X544100D01*
X548900Y216700D01*
X550400D01*
X573700Y194300D02*
X575547D01*
X529500Y191700D02*
X531900D01*
X525900Y188100D02*
X529500Y191700D01*
X580900Y199946D02*
Y205954D01*
X580854Y199900D02*
X580900Y199946D01*
X579247Y199900D02*
X580854D01*
X575547Y194300D02*
X579247Y198000D01*
Y199900D01*
X569340Y220549D02*
X571451D01*
X579354Y212647D01*
X580900D01*
X579400Y205854D02*
Y206521D01*
X561860Y211100D02*
Y214460D01*
X565800Y217600D02*
Y220700D01*
X561860Y214460D02*
X562660Y215260D01*
X569340Y211100D02*
Y214160D01*
X568240Y215260D02*
X569340Y214160D01*
X562660Y215260D02*
X568240D01*
X565800Y217600D02*
X566600Y216800D01*
X569121D01*
X579400Y206521D01*
X572500Y229300D02*
Y237500D01*
X567900Y240100D02*
Y247143D01*
X560200Y237100D02*
X562137Y239037D01*
X566837D01*
X567900Y240100D01*
X568700Y225500D02*
X572500Y229300D01*
X565200Y225500D02*
X568700D01*
X564100Y224400D02*
X565200Y225500D01*
X559800Y224400D02*
X564100D01*
X565800Y220700D02*
Y222900D01*
X566800Y223900D01*
X569900D01*
X574700Y228700D01*
Y235800D01*
X577100Y238200D01*
X581900D01*
X583300Y239600D01*
Y249900D01*
X579100Y254100D02*
X583300Y249900D01*
X560700Y207000D02*
X561700Y206000D01*
X552900Y208300D02*
Y211900D01*
Y208300D02*
X554200Y207000D01*
X560700D01*
X565200Y228153D02*
X568954D01*
X573700Y187600D02*
Y194300D01*
D41*
X533216Y265084D02*
Y266800D01*
Y265084D02*
X535900Y262400D01*
X539800D02*
X542300Y259900D01*
X535900Y262400D02*
X539800D01*
X542300Y259900D02*
X545000D01*
X547637Y257263D01*
Y247722D02*
Y257263D01*
D42*
X524907Y195493D02*
Y198400D01*
Y195493D02*
X526500Y193900D01*
X561000D01*
X561700Y194600D01*
X552900Y211900D02*
X553100D01*
X561000Y206700D02*
X561700Y206000D01*
Y194600D02*
Y206000D01*
D43*
X579100Y232600D02*
D03*
Y244100D02*
D03*
Y254100D02*
D03*
Y264100D02*
D03*
D44*
Y222600D02*
D03*
Y274100D02*
D03*
D45*
X561617Y188000D02*
D03*
X543900D02*
D03*
D46*
X538700Y196500D02*
D03*
X528300Y243500D02*
D03*
X525600Y241500D02*
D03*
X525750Y237850D02*
D03*
X528400Y236000D02*
D03*
X529900Y216600D02*
D03*
X528900Y222300D02*
D03*
X535500Y216600D02*
D03*
X531600Y220000D02*
D03*
X526500Y247200D02*
D03*
X526700Y250500D02*
D03*
X555300Y216700D02*
D03*
X554300Y225400D02*
D03*
X565600Y211100D02*
D03*
X565200Y228153D02*
D03*
X555900Y255300D02*
D03*
X562600Y251346D02*
D03*
X533354Y253000D02*
D03*
X530653Y276600D02*
D03*
X550447Y276500D02*
D03*
X523600Y276239D02*
D03*
X568847Y275500D02*
D03*
X523800Y229500D02*
D03*
X550400Y216700D02*
D03*
X573700Y194300D02*
D03*
X531900Y191700D02*
D03*
X525900Y188100D02*
D03*
X579247Y199900D02*
D03*
X565800Y220700D02*
D03*
X579400Y205854D02*
D03*
X561700Y206000D02*
D03*
X554800Y246900D02*
D03*
X573700Y187600D02*
D03*
X552500Y187000D02*
D03*
X534900Y185300D02*
D03*
X556000Y269400D02*
D03*
D47*
X539369Y232269D02*
D03*
Y236600D02*
D03*
Y240931D02*
D03*
X543700Y232269D02*
D03*
Y236600D02*
D03*
Y240931D02*
D03*
X548031Y232269D02*
D03*
Y236600D02*
D03*
Y240931D02*
D03*
M02*
