G04*
G04 #@! TF.GenerationSoftware,Altium Limited,Altium Designer,20.1.8 (145)*
G04*
G04 Layer_Color=128*
%FSLAX25Y25*%
%MOIN*%
G70*
G04*
G04 #@! TF.SameCoordinates,9520363F-8405-43F2-999A-1BF51871F706*
G04*
G04*
G04 #@! TF.FilePolarity,Positive*
G04*
G01*
G75*
%ADD50C,0.00200*%
D50*
X577328Y232600D02*
X580872D01*
X579100Y230828D02*
Y234372D01*
X577328Y222600D02*
X580872D01*
X579100Y220828D02*
Y224372D01*
X559648Y188000D02*
X563585D01*
X561617Y186031D02*
Y189969D01*
X541931Y188000D02*
X545868D01*
X543900Y186031D02*
Y189969D01*
X577328Y244100D02*
X580872D01*
X579100Y242328D02*
Y245872D01*
X577328Y254100D02*
X580872D01*
X579100Y252328D02*
Y255872D01*
X577328Y264100D02*
X580872D01*
X579100Y262328D02*
Y265872D01*
X577328Y274100D02*
X580872D01*
X579100Y272328D02*
Y275872D01*
X538050Y196500D02*
X539350D01*
X538700Y195850D02*
Y197150D01*
X527650Y243500D02*
X528950D01*
X528300Y242850D02*
Y244150D01*
X524950Y241500D02*
X526250D01*
X525600Y240850D02*
Y242150D01*
X525100Y237850D02*
X526400D01*
X525750Y237200D02*
Y238500D01*
X527750Y236000D02*
X529050D01*
X528400Y235350D02*
Y236650D01*
X529250Y216600D02*
X530550D01*
X529900Y215950D02*
Y217250D01*
X528250Y222300D02*
X529550D01*
X528900Y221650D02*
Y222950D01*
X534850Y216600D02*
X536150D01*
X535500Y215950D02*
Y217250D01*
X530950Y220000D02*
X532250D01*
X531600Y219350D02*
Y220650D01*
X525850Y247200D02*
X527150D01*
X526500Y246550D02*
Y247850D01*
X526050Y250500D02*
X527350D01*
X526700Y249850D02*
Y251150D01*
X554650Y216700D02*
X555950D01*
X555300Y216050D02*
Y217350D01*
X553650Y225400D02*
X554950D01*
X554300Y224750D02*
Y226050D01*
X564950Y211100D02*
X566250D01*
X565600Y210450D02*
Y211750D01*
X564550Y228153D02*
X565850D01*
X565200Y227503D02*
Y228803D01*
X555250Y255300D02*
X556550D01*
X555900Y254650D02*
Y255950D01*
X561950Y251346D02*
X563250D01*
X562600Y250696D02*
Y251996D01*
X532703Y253000D02*
X534003D01*
X533354Y252350D02*
Y253650D01*
X530003Y276600D02*
X531304D01*
X530653Y275950D02*
Y277250D01*
X549796Y276500D02*
X551096D01*
X550447Y275850D02*
Y277150D01*
X522950Y276239D02*
X524250D01*
X523600Y275589D02*
Y276889D01*
X568196Y275500D02*
X569496D01*
X568847Y274850D02*
Y276150D01*
X523150Y229500D02*
X524450D01*
X523800Y228850D02*
Y230150D01*
X549750Y216700D02*
X551050D01*
X550400Y216050D02*
Y217350D01*
X573050Y194300D02*
X574350D01*
X573700Y193650D02*
Y194950D01*
X531250Y191700D02*
X532550D01*
X531900Y191050D02*
Y192350D01*
X525250Y188100D02*
X526550D01*
X525900Y187450D02*
Y188750D01*
X578596Y199900D02*
X579896D01*
X579247Y199250D02*
Y200550D01*
X565150Y220700D02*
X566450D01*
X565800Y220050D02*
Y221350D01*
X578750Y205854D02*
X580050D01*
X579400Y205204D02*
Y206504D01*
X538976Y232269D02*
X539763D01*
X539369Y231876D02*
Y232663D01*
X538976Y236600D02*
X539763D01*
X539369Y236206D02*
Y236994D01*
X538976Y240931D02*
X539763D01*
X539369Y240537D02*
Y241324D01*
X543306Y232269D02*
X544094D01*
X543700Y231876D02*
Y232663D01*
X543306Y236600D02*
X544094D01*
X543700Y236206D02*
Y236994D01*
X543306Y240931D02*
X544094D01*
X543700Y240537D02*
Y241324D01*
X547637Y232269D02*
X548424D01*
X548031Y231876D02*
Y232663D01*
X547637Y236600D02*
X548424D01*
X548031Y236206D02*
Y236994D01*
X547637Y240931D02*
X548424D01*
X548031Y240537D02*
Y241324D01*
X561050Y206000D02*
X562350D01*
X561700Y205350D02*
Y206650D01*
X554150Y246900D02*
X555450D01*
X554800Y246250D02*
Y247550D01*
X573050Y187600D02*
X574350D01*
X573700Y186950D02*
Y188250D01*
X551850Y187000D02*
X553150D01*
X552500Y186350D02*
Y187650D01*
X534250Y185300D02*
X535550D01*
X534900Y184650D02*
Y185950D01*
X555350Y269400D02*
X556650D01*
X556000Y268750D02*
Y270050D01*
M02*
