G04*
G04 #@! TF.GenerationSoftware,Altium Limited,Altium Designer,20.1.8 (145)*
G04*
G04 Layer_Color=255*
%FSLAX25Y25*%
%MOIN*%
G70*
G04*
G04 #@! TF.SameCoordinates,9520363F-8405-43F2-999A-1BF51871F706*
G04*
G04*
G04 #@! TF.FilePolarity,Positive*
G04*
G01*
G75*
%ADD17R,0.04331X0.03937*%
%ADD18R,0.05000X0.09843*%
%ADD19R,0.03937X0.04331*%
%ADD20R,0.06000X0.05000*%
%ADD21R,0.11811X0.11811*%
%ADD22O,0.03740X0.00984*%
%ADD23O,0.00984X0.03740*%
%ADD24R,0.07284X0.10039*%
%ADD25R,0.02756X0.03937*%
%ADD26R,0.02362X0.04331*%
%ADD43C,0.05906*%
%ADD44R,0.05906X0.05906*%
G04:AMPARAMS|DCode=45|XSize=98.43mil|YSize=59.06mil|CornerRadius=14.76mil|HoleSize=0mil|Usage=FLASHONLY|Rotation=90.000|XOffset=0mil|YOffset=0mil|HoleType=Round|Shape=RoundedRectangle|*
%AMROUNDEDRECTD45*
21,1,0.09843,0.02953,0,0,90.0*
21,1,0.06890,0.05906,0,0,90.0*
1,1,0.02953,0.01476,0.03445*
1,1,0.02953,0.01476,-0.03445*
1,1,0.02953,-0.01476,-0.03445*
1,1,0.02953,-0.01476,0.03445*
%
%ADD45ROUNDEDRECTD45*%
D17*
X531600Y209500D02*
D03*
X524907D02*
D03*
X531600Y203950D02*
D03*
X524907D02*
D03*
X531600Y198400D02*
D03*
X524907D02*
D03*
X579247Y199900D02*
D03*
X572553D02*
D03*
X533354Y253000D02*
D03*
X540047D02*
D03*
X530653Y276600D02*
D03*
X537347D02*
D03*
X550447Y276500D02*
D03*
X543753D02*
D03*
X562153Y275500D02*
D03*
X568847D02*
D03*
X562153Y257900D02*
D03*
X568847D02*
D03*
D18*
X538979Y199811D02*
D03*
X566538D02*
D03*
X556695D02*
D03*
X548821D02*
D03*
D19*
X579400Y205854D02*
D03*
Y212546D02*
D03*
X524500Y231946D02*
D03*
Y225254D02*
D03*
X523600Y257000D02*
D03*
Y263693D02*
D03*
Y276239D02*
D03*
Y269547D02*
D03*
X555900Y255300D02*
D03*
Y261993D02*
D03*
X562600Y251346D02*
D03*
Y244654D02*
D03*
X565200Y229007D02*
D03*
Y235700D02*
D03*
D20*
X541900Y211900D02*
D03*
X552900D02*
D03*
D21*
X543700Y236600D02*
D03*
D22*
X554822Y244474D02*
D03*
Y242506D02*
D03*
Y240537D02*
D03*
Y238568D02*
D03*
Y236600D02*
D03*
Y234631D02*
D03*
Y232663D02*
D03*
Y230695D02*
D03*
Y228726D02*
D03*
X532578D02*
D03*
Y230695D02*
D03*
Y232663D02*
D03*
Y234631D02*
D03*
Y236600D02*
D03*
Y238568D02*
D03*
Y240537D02*
D03*
Y242506D02*
D03*
Y244474D02*
D03*
D23*
X551574Y225478D02*
D03*
X549606D02*
D03*
X547637D02*
D03*
X545669D02*
D03*
X543700D02*
D03*
X541732D02*
D03*
X539763D02*
D03*
X537794D02*
D03*
X535826D02*
D03*
Y247722D02*
D03*
X537794D02*
D03*
X539763D02*
D03*
X541732D02*
D03*
X543700D02*
D03*
X545669D02*
D03*
X547637D02*
D03*
X549606D02*
D03*
X551574D02*
D03*
D24*
X547784Y266800D02*
D03*
X533216D02*
D03*
D25*
X569130Y263767D02*
D03*
X562437D02*
D03*
X569130Y269633D02*
D03*
X562437D02*
D03*
D26*
X561860Y211100D02*
D03*
X565600D02*
D03*
X569340D02*
D03*
Y220549D02*
D03*
X561860D02*
D03*
D43*
X579100Y232600D02*
D03*
Y244100D02*
D03*
Y254100D02*
D03*
Y264100D02*
D03*
D44*
Y222600D02*
D03*
Y274100D02*
D03*
D45*
X561617Y188000D02*
D03*
X543900D02*
D03*
M02*
