M48
;Layer_Color=9474304
;FILE_FORMAT=2:5
INCH,LZ
;TYPE=PLATED
T1F00S00C0.00787
T2F00S00C0.01300
T3F00S00C0.03543
%
T01
X0539369Y0232269
Y02366
Y0240931
X05437
Y02366
Y0232269
X0548031
Y02366
Y0240931
T02
X05259Y01881
X05319Y01917
X05349Y01853
X05387Y01965
X05355Y02166
X05299
X05316Y022
X05289Y02223
X05238Y02295
X052575Y023785
X05256Y02415
X05283Y02435
X05265Y02472
X05267Y02505
X0533354Y0253
X05284Y0236
X05543Y02254
X05553Y02167
X05504
X05658Y02207
X05652Y0228153
X05656Y02111
X05617Y0206
X05794Y0205854
X0579247Y01999
X05737Y01943
Y01876
X05525Y0187
X05548Y02469
X05559Y02553
X05626Y0251346
X0556Y02694
X0550447Y02765
X0568847Y02755
X0530653Y02766
X05236Y0276239
T03
X05791Y02226
Y02326
Y02441
Y02541
Y02641
Y02741
M30
