G04*
G04 #@! TF.GenerationSoftware,Altium Limited,Altium Designer,20.1.8 (145)*
G04*
G04 Layer_Color=2752767*
%FSLAX25Y25*%
%MOIN*%
G70*
G04*
G04 #@! TF.SameCoordinates,9520363F-8405-43F2-999A-1BF51871F706*
G04*
G04*
G04 #@! TF.FilePolarity,Positive*
G04*
G01*
G75*
%ADD50C,0.00200*%
%ADD51C,0.00267*%
D50*
X578300Y231800D02*
Y233400D01*
X579900D01*
Y231800D01*
X578300D01*
Y221800D02*
Y223400D01*
X579900D01*
Y221800D01*
X578300D01*
Y243300D02*
Y244900D01*
X579900D01*
Y243300D01*
X578300D01*
Y253300D02*
Y254900D01*
X579900D01*
Y253300D01*
X578300D01*
Y263300D02*
Y264900D01*
X579900D01*
Y263300D01*
X578300D01*
Y273300D02*
Y274900D01*
X579900D01*
Y273300D01*
X578300D01*
X538700Y195700D02*
X537900Y197300D01*
X539500D01*
X538700Y195700D01*
X528300Y242700D02*
X527500Y244300D01*
X529100D01*
X528300Y242700D01*
X525600Y240700D02*
X524800Y242300D01*
X526400D01*
X525600Y240700D01*
X525750Y237050D02*
X524950Y238650D01*
X526550D01*
X525750Y237050D01*
X528400Y235200D02*
X527600Y236800D01*
X529200D01*
X528400Y235200D01*
X529900Y215800D02*
X529100Y217400D01*
X530700D01*
X529900Y215800D01*
X528900Y221500D02*
X528100Y223100D01*
X529700D01*
X528900Y221500D01*
X535500Y215800D02*
X534700Y217400D01*
X536300D01*
X535500Y215800D01*
X531600Y219200D02*
X530800Y220800D01*
X532400D01*
X531600Y219200D01*
X526500Y246400D02*
X525700Y248000D01*
X527300D01*
X526500Y246400D01*
X526700Y249700D02*
X525900Y251300D01*
X527500D01*
X526700Y249700D01*
X555300Y215900D02*
X554500Y217500D01*
X556100D01*
X555300Y215900D01*
X554300Y224600D02*
X553500Y226200D01*
X555100D01*
X554300Y224600D01*
X565600Y210300D02*
X564800Y211900D01*
X566400D01*
X565600Y210300D01*
X565200Y227354D02*
X564400Y228954D01*
X566000D01*
X565200Y227354D01*
X555900Y254500D02*
X555100Y256100D01*
X556700D01*
X555900Y254500D01*
X562600Y250547D02*
X561800Y252147D01*
X563400D01*
X562600Y250547D01*
X533354Y252200D02*
X532553Y253800D01*
X534154D01*
X533354Y252200D01*
X530653Y275800D02*
X529853Y277400D01*
X531454D01*
X530653Y275800D01*
X550447Y275700D02*
X549647Y277300D01*
X551247D01*
X550447Y275700D01*
X523600Y275439D02*
X522800Y277039D01*
X524400D01*
X523600Y275439D01*
X568847Y274700D02*
X568047Y276300D01*
X569647D01*
X568847Y274700D01*
X523800Y228700D02*
X523000Y230300D01*
X524600D01*
X523800Y228700D01*
X550400Y215900D02*
X549600Y217500D01*
X551200D01*
X550400Y215900D01*
X573700Y193500D02*
X572900Y195100D01*
X574500D01*
X573700Y193500D01*
X531900Y190900D02*
X531100Y192500D01*
X532700D01*
X531900Y190900D01*
X525900Y187300D02*
X525100Y188900D01*
X526700D01*
X525900Y187300D01*
X579247Y199100D02*
X578446Y200700D01*
X580047D01*
X579247Y199100D01*
X565800Y219900D02*
X565000Y221500D01*
X566600D01*
X565800Y219900D01*
X579400Y205053D02*
X578600Y206653D01*
X580200D01*
X579400Y205053D01*
X539369Y231469D02*
X539769Y231869D01*
X540169D01*
X539769Y232269D01*
X540169Y232669D01*
X539769D01*
X539369Y233069D01*
X538969Y232669D01*
X538569D01*
X538969Y232269D01*
X538569Y231869D01*
X538969D01*
X539369Y231469D01*
Y235800D02*
X539769Y236200D01*
X540169D01*
X539769Y236600D01*
X540169Y237000D01*
X539769D01*
X539369Y237400D01*
X538969Y237000D01*
X538569D01*
X538969Y236600D01*
X538569Y236200D01*
X538969D01*
X539369Y235800D01*
Y240131D02*
X539769Y240531D01*
X540169D01*
X539769Y240931D01*
X540169Y241331D01*
X539769D01*
X539369Y241731D01*
X538969Y241331D01*
X538569D01*
X538969Y240931D01*
X538569Y240531D01*
X538969D01*
X539369Y240131D01*
X543700Y231469D02*
X544100Y231869D01*
X544500D01*
X544100Y232269D01*
X544500Y232669D01*
X544100D01*
X543700Y233069D01*
X543300Y232669D01*
X542900D01*
X543300Y232269D01*
X542900Y231869D01*
X543300D01*
X543700Y231469D01*
Y235800D02*
X544100Y236200D01*
X544500D01*
X544100Y236600D01*
X544500Y237000D01*
X544100D01*
X543700Y237400D01*
X543300Y237000D01*
X542900D01*
X543300Y236600D01*
X542900Y236200D01*
X543300D01*
X543700Y235800D01*
Y240131D02*
X544100Y240531D01*
X544500D01*
X544100Y240931D01*
X544500Y241331D01*
X544100D01*
X543700Y241731D01*
X543300Y241331D01*
X542900D01*
X543300Y240931D01*
X542900Y240531D01*
X543300D01*
X543700Y240131D01*
X548031Y231469D02*
X548431Y231869D01*
X548831D01*
X548431Y232269D01*
X548831Y232669D01*
X548431D01*
X548031Y233069D01*
X547631Y232669D01*
X547231D01*
X547631Y232269D01*
X547231Y231869D01*
X547631D01*
X548031Y231469D01*
Y235800D02*
X548431Y236200D01*
X548831D01*
X548431Y236600D01*
X548831Y237000D01*
X548431D01*
X548031Y237400D01*
X547631Y237000D01*
X547231D01*
X547631Y236600D01*
X547231Y236200D01*
X547631D01*
X548031Y235800D01*
Y240131D02*
X548431Y240531D01*
X548831D01*
X548431Y240931D01*
X548831Y241331D01*
X548431D01*
X548031Y241731D01*
X547631Y241331D01*
X547231D01*
X547631Y240931D01*
X547231Y240531D01*
X547631D01*
X548031Y240131D01*
X561700Y205200D02*
X560900Y206800D01*
X562500D01*
X561700Y205200D01*
X554800Y246100D02*
X554000Y247700D01*
X555600D01*
X554800Y246100D01*
X573700Y186800D02*
X572900Y188400D01*
X574500D01*
X573700Y186800D01*
X552500Y186200D02*
X551700Y187800D01*
X553300D01*
X552500Y186200D01*
X534900Y184500D02*
X534100Y186100D01*
X535700D01*
X534900Y184500D01*
X556000Y268600D02*
X555200Y270200D01*
X556800D01*
X556000Y268600D01*
D51*
X562417Y188000D02*
X561864Y188761D01*
X560969Y188470D01*
Y187530D01*
X561864Y187239D01*
X562417Y188000D01*
X544700D02*
X544147Y188761D01*
X543253Y188470D01*
Y187530D01*
X544147Y187239D01*
X544700Y188000D01*
M02*
