G04*
G04 #@! TF.GenerationSoftware,Altium Limited,Altium Designer,20.1.8 (145)*
G04*
G04 Layer_Color=8388736*
%FSLAX25Y25*%
%MOIN*%
G70*
G04*
G04 #@! TF.SameCoordinates,9520363F-8405-43F2-999A-1BF51871F706*
G04*
G04*
G04 #@! TF.FilePolarity,Negative*
G04*
G01*
G75*
%ADD27R,0.05131X0.04737*%
%ADD28R,0.05800X0.10642*%
%ADD29R,0.04737X0.05131*%
%ADD30R,0.06800X0.05800*%
%ADD31R,0.12611X0.12611*%
%ADD32O,0.04540X0.01784*%
%ADD33O,0.01784X0.04540*%
%ADD34R,0.08083X0.10839*%
%ADD35R,0.03556X0.04737*%
%ADD36R,0.03162X0.05131*%
%ADD37C,0.06706*%
%ADD38R,0.06706X0.06706*%
G04:AMPARAMS|DCode=39|XSize=106.42mil|YSize=67.06mil|CornerRadius=18.76mil|HoleSize=0mil|Usage=FLASHONLY|Rotation=90.000|XOffset=0mil|YOffset=0mil|HoleType=Round|Shape=RoundedRectangle|*
%AMROUNDEDRECTD39*
21,1,0.10642,0.02953,0,0,90.0*
21,1,0.06890,0.06706,0,0,90.0*
1,1,0.03753,0.01476,0.03445*
1,1,0.03753,0.01476,-0.03445*
1,1,0.03753,-0.01476,-0.03445*
1,1,0.03753,-0.01476,0.03445*
%
%ADD39ROUNDEDRECTD39*%
D27*
X531600Y209500D02*
D03*
X524907D02*
D03*
X531600Y203950D02*
D03*
X524907D02*
D03*
X531600Y198400D02*
D03*
X524907D02*
D03*
X579247Y199900D02*
D03*
X572553D02*
D03*
X533354Y253000D02*
D03*
X540047D02*
D03*
X530653Y276600D02*
D03*
X537347D02*
D03*
X550447Y276500D02*
D03*
X543753D02*
D03*
X562153Y275500D02*
D03*
X568847D02*
D03*
X562153Y257900D02*
D03*
X568847D02*
D03*
D28*
X538979Y199811D02*
D03*
X566538D02*
D03*
X556695D02*
D03*
X548821D02*
D03*
D29*
X579400Y205854D02*
D03*
Y212546D02*
D03*
X524500Y231946D02*
D03*
Y225254D02*
D03*
X523600Y257000D02*
D03*
Y263693D02*
D03*
Y276239D02*
D03*
Y269547D02*
D03*
X555900Y255300D02*
D03*
Y261993D02*
D03*
X562600Y251346D02*
D03*
Y244654D02*
D03*
X565200Y229007D02*
D03*
Y235700D02*
D03*
D30*
X541900Y211900D02*
D03*
X552900D02*
D03*
D31*
X543700Y236600D02*
D03*
D32*
X554822Y244474D02*
D03*
Y242506D02*
D03*
Y240537D02*
D03*
Y238568D02*
D03*
Y236600D02*
D03*
Y234631D02*
D03*
Y232663D02*
D03*
Y230695D02*
D03*
Y228726D02*
D03*
X532578D02*
D03*
Y230695D02*
D03*
Y232663D02*
D03*
Y234631D02*
D03*
Y236600D02*
D03*
Y238568D02*
D03*
Y240537D02*
D03*
Y242506D02*
D03*
Y244474D02*
D03*
D33*
X551574Y225478D02*
D03*
X549606D02*
D03*
X547637D02*
D03*
X545669D02*
D03*
X543700D02*
D03*
X541732D02*
D03*
X539763D02*
D03*
X537794D02*
D03*
X535826D02*
D03*
Y247722D02*
D03*
X537794D02*
D03*
X539763D02*
D03*
X541732D02*
D03*
X543700D02*
D03*
X545669D02*
D03*
X547637D02*
D03*
X549606D02*
D03*
X551574D02*
D03*
D34*
X547784Y266800D02*
D03*
X533216D02*
D03*
D35*
X569130Y263767D02*
D03*
X562437D02*
D03*
X569130Y269633D02*
D03*
X562437D02*
D03*
D36*
X561860Y211100D02*
D03*
X565600D02*
D03*
X569340D02*
D03*
Y220549D02*
D03*
X561860D02*
D03*
D37*
X579100Y232600D02*
D03*
Y244100D02*
D03*
Y254100D02*
D03*
Y264100D02*
D03*
D38*
Y222600D02*
D03*
Y274100D02*
D03*
D39*
X561617Y188000D02*
D03*
X543900D02*
D03*
M02*
