G04*
G04 #@! TF.GenerationSoftware,Altium Limited,Altium Designer,20.1.8 (145)*
G04*
G04 Layer_Color=32896*
%FSLAX25Y25*%
%MOIN*%
G70*
G04*
G04 #@! TF.SameCoordinates,CA782F3F-0D54-4404-9751-EA5AB56DA471*
G04*
G04*
G04 #@! TF.FilePolarity,Positive*
G04*
G01*
G75*
%ADD11C,0.00787*%
%ADD14C,0.00700*%
%ADD52C,0.00591*%
D11*
X201162Y159283D02*
X209036D01*
X249887D02*
X257855D01*
X201162Y230584D02*
X257855D01*
X201162Y159283D02*
Y230584D01*
X257855Y159283D02*
Y230584D01*
D14*
X204300Y237699D02*
Y234366D01*
X203633Y233700D01*
X202301D01*
X201634Y234366D01*
Y237699D01*
X200301Y237032D02*
X199635Y237699D01*
X198302D01*
X197635Y237032D01*
Y236366D01*
X198302Y235699D01*
X198968D01*
X198302D01*
X197635Y235033D01*
Y234366D01*
X198302Y233700D01*
X199635D01*
X200301Y234366D01*
D52*
X214399Y220913D02*
X214293Y221892D01*
X213978Y222825D01*
X213471Y223669D01*
X212793Y224384D01*
X211978Y224937D01*
X211063Y225301D01*
X210092Y225460D01*
X209108Y225407D01*
X208159Y225144D01*
X207289Y224682D01*
X206539Y224045D01*
X205943Y223261D01*
X205529Y222367D01*
X205317Y221405D01*
Y220420D01*
X205529Y219459D01*
X205943Y218565D01*
X206539Y217781D01*
X207289Y217143D01*
X208159Y216682D01*
X209108Y216419D01*
X210092Y216365D01*
X211063Y216525D01*
X211978Y216889D01*
X212793Y217442D01*
X213471Y218157D01*
X213978Y219001D01*
X214293Y219934D01*
X214399Y220913D01*
X212019D02*
X211804Y221856D01*
X211201Y222613D01*
X210329Y223032D01*
X209361D01*
X208489Y222613D01*
X207886Y221856D01*
X207671Y220913D01*
X207886Y219969D01*
X208489Y219213D01*
X209361Y218793D01*
X210329D01*
X211201Y219213D01*
X211804Y219969D01*
X212019Y220913D01*
X210156D02*
X209534D01*
X210156D01*
X203546Y227212D02*
X209845D01*
X203546Y214614D02*
Y227212D01*
Y214614D02*
X216144D01*
X209845Y227212D02*
X216144D01*
Y222586D02*
Y227212D01*
Y222586D02*
X218507D01*
Y219239D02*
Y222586D01*
X216144Y219239D02*
X218507D01*
X216144Y214614D02*
Y219239D01*
M02*
