M48
;Layer_Color=9474304
;FILE_FORMAT=2:5
INCH,LZ
;TYPE=PLATED
T1F00S00C0.01200
T3F00S00C0.04331
%
T01
X0212Y01574
Y01607
X02125Y0165
X02084Y01652
X02007Y01808
X01998Y01874
Y01926
X01999Y02054
X02004Y02091
X02038Y02109
X0207401Y0212501
X0215797Y0206403
X02255Y0209
X02211Y01951
X02166Y0192569
Y0188631
X0221Y01862
X02122
X02121Y0195
X0234532Y0199
X02366Y01866
X0244781Y0187489
X02447Y01776
X0245168Y01724
X02513Y0166546
X025505Y016985
X0258Y01645
X02573Y01893
Y01943
X02493Y01981
X02314Y01795
T03
X0220584Y01463
X02383
M30
