G04*
G04 #@! TF.GenerationSoftware,Altium Limited,Altium Designer,20.1.8 (145)*
G04*
G04 Layer_Physical_Order=2*
G04 Layer_Color=16711680*
%FSLAX25Y25*%
%MOIN*%
G70*
G04*
G04 #@! TF.SameCoordinates,CA782F3F-0D54-4404-9751-EA5AB56DA471*
G04*
G04*
G04 #@! TF.FilePolarity,Positive*
G04*
G01*
G75*
%ADD12C,0.00600*%
%ADD41C,0.02000*%
%ADD43C,0.01200*%
%ADD45C,0.04331*%
%ADD46O,0.06000X0.15000*%
%ADD47C,0.02400*%
%ADD48R,0.07087X0.07087*%
%ADD49R,0.03150X0.05906*%
D12*
X231400Y186500D02*
X231500Y186600D01*
X231400Y179500D02*
Y186500D01*
X225500Y195466D02*
X225866Y195100D01*
X214632Y188631D02*
X216600D01*
X212200Y186200D02*
X214632Y188631D01*
X214531Y192569D02*
X216600D01*
X212100Y195000D02*
X214531Y192569D01*
X215797Y196503D02*
Y206403D01*
X215797Y196503D02*
X218166Y194134D01*
X225500Y195466D02*
Y209000D01*
X211400Y195700D02*
X212100Y195000D01*
X211400Y195700D02*
Y208501D01*
X207401Y212501D02*
X211400Y208501D01*
X205600Y210900D02*
X209000Y207500D01*
Y185500D02*
Y207500D01*
X203800Y210900D02*
X205600D01*
X247200Y153200D02*
X255050Y161050D01*
Y169850D01*
X258000Y163000D02*
Y164500D01*
Y163000D02*
X258400Y162600D01*
X257400Y161600D02*
X258400Y162600D01*
X209000Y185500D02*
X217568Y176932D01*
X201900Y209100D02*
X207800Y203200D01*
Y184400D02*
X217100Y175100D01*
X207800Y184400D02*
Y203200D01*
X244700Y177600D02*
X244781Y177682D01*
X211400Y165000D02*
X212500D01*
X208900Y162500D02*
X211400Y165000D01*
X208900Y155800D02*
Y162500D01*
Y155800D02*
X211500Y153200D01*
X247200D01*
X246900Y151100D02*
X257400Y161600D01*
X211800Y151100D02*
X246900D01*
X206900Y156000D02*
X211800Y151100D01*
X234000Y154900D02*
X234500Y155400D01*
Y163800D01*
X217900Y154900D02*
X234000D01*
X217009Y155791D02*
X217900Y154900D01*
X217009Y155791D02*
Y159283D01*
X206900Y156000D02*
Y163700D01*
X208400Y165200D01*
X242009Y159283D02*
Y163491D01*
X228569Y176932D02*
X242009Y163491D01*
X217568Y176932D02*
X228569D01*
X217100Y175100D02*
X226300D01*
X237009Y164391D01*
X200400Y209100D02*
X201900D01*
X206600Y181700D02*
Y201800D01*
X199900Y205400D02*
X203000D01*
X206600Y201800D01*
X237009Y159283D02*
Y164391D01*
X214881Y173419D02*
X224881D01*
X234500Y163800D01*
X206600Y181700D02*
X214881Y173419D01*
X232009Y159283D02*
Y163291D01*
X223800Y171500D02*
X232009Y163291D01*
X213700Y171500D02*
X223800D01*
X199800Y192600D02*
X204100Y188300D01*
Y181100D02*
Y188300D01*
X198500Y186100D02*
X199800Y187400D01*
X204100Y181100D02*
X213700Y171500D01*
X211665Y169835D02*
X220381D01*
X227009Y163207D01*
X200700Y180800D02*
X211665Y169835D01*
X227009Y159283D02*
Y163207D01*
X222009Y159283D02*
Y164991D01*
X219400Y167600D02*
X222009Y164991D01*
X209137Y167600D02*
X219400D01*
X198500Y178237D02*
X209137Y167600D01*
X198500Y178237D02*
Y186100D01*
D41*
X231500Y186600D02*
X236600D01*
X218632D02*
X231500D01*
X225866Y195100D02*
X230632D01*
X221100D02*
X225866D01*
X218166Y194134D02*
X219131Y195100D01*
X216600Y192569D02*
X218166Y194134D01*
X219131Y195100D02*
X221100D01*
X216600Y188631D02*
Y192569D01*
X230632Y195100D02*
X234532Y199000D01*
X216600Y188631D02*
X218632Y186600D01*
X251300Y166546D02*
Y186500D01*
X254100Y189300D01*
X257300D01*
X242400Y177600D02*
X245168Y174832D01*
X242400Y177600D02*
X244700D01*
X238700D02*
X242400D01*
X245168Y174832D02*
Y177132D01*
Y172400D02*
Y174832D01*
X244700Y177600D02*
X245168Y177132D01*
X236600Y179700D02*
Y186600D01*
Y179700D02*
X238700Y177600D01*
X247009Y159283D02*
X248600Y160875D01*
Y176700D01*
Y197400D01*
X249300Y198100D01*
X253500D01*
X257300Y194300D01*
D43*
X244781Y177682D02*
Y187489D01*
D45*
X238300Y146300D02*
D03*
X220584D02*
D03*
D46*
X252670D02*
D03*
X206213D02*
D03*
D47*
X231400Y179500D02*
D03*
X207401Y212501D02*
D03*
X234532Y199000D02*
D03*
X225500Y209000D02*
D03*
X245168Y172400D02*
D03*
X251300Y166546D02*
D03*
X255050Y169850D02*
D03*
X258000Y164500D02*
D03*
X216600Y188631D02*
D03*
Y192569D02*
D03*
X221000Y186200D02*
D03*
X212200D02*
D03*
X221100Y195100D02*
D03*
X212100Y195000D02*
D03*
X215797Y206403D02*
D03*
X244781Y187489D02*
D03*
X236600Y186600D02*
D03*
X244700Y177600D02*
D03*
X257300Y189300D02*
D03*
X212000Y157400D02*
D03*
Y160700D02*
D03*
X249300Y198100D02*
D03*
X257300Y194300D02*
D03*
X212500Y165000D02*
D03*
X208400Y165200D02*
D03*
X203800Y210900D02*
D03*
X200400Y209100D02*
D03*
X199900Y205400D02*
D03*
X199800Y187400D02*
D03*
X200700Y180800D02*
D03*
X199800Y192600D02*
D03*
D48*
X258200Y207500D02*
D03*
X200909Y198784D02*
D03*
D49*
X247009Y159283D02*
D03*
X242009D02*
D03*
X237009D02*
D03*
X217009D02*
D03*
X212009D02*
D03*
X222009D02*
D03*
X227009D02*
D03*
X232009D02*
D03*
M02*
