G04*
G04 #@! TF.GenerationSoftware,Altium Limited,Altium Designer,20.1.8 (145)*
G04*
G04 Layer_Color=128*
%FSLAX25Y25*%
%MOIN*%
G70*
G04*
G04 #@! TF.SameCoordinates,CA782F3F-0D54-4404-9751-EA5AB56DA471*
G04*
G04*
G04 #@! TF.FilePolarity,Positive*
G04*
G01*
G75*
%ADD55C,0.00200*%
D55*
X236135Y146300D02*
X240465D01*
X238300Y144135D02*
Y148465D01*
X218418Y146300D02*
X222749D01*
X220584Y144135D02*
Y148465D01*
X251170Y146300D02*
X254170D01*
X252670Y144800D02*
Y147800D01*
X204713Y146300D02*
X207713D01*
X206213Y144800D02*
Y147800D01*
X230800Y179500D02*
X232000D01*
X231400Y178900D02*
Y180100D01*
X206801Y212501D02*
X208001D01*
X207401Y211901D02*
Y213101D01*
X233932Y199000D02*
X235132D01*
X234532Y198400D02*
Y199600D01*
X224900Y209000D02*
X226100D01*
X225500Y208400D02*
Y209600D01*
X244568Y172400D02*
X245768D01*
X245168Y171800D02*
Y173000D01*
X250700Y166546D02*
X251900D01*
X251300Y165946D02*
Y167147D01*
X254450Y169850D02*
X255650D01*
X255050Y169250D02*
Y170450D01*
X257400Y164500D02*
X258600D01*
X258000Y163900D02*
Y165100D01*
X216000Y188631D02*
X217200D01*
X216600Y188031D02*
Y189232D01*
X216000Y192569D02*
X217200D01*
X216600Y191969D02*
Y193168D01*
X220400Y186200D02*
X221600D01*
X221000Y185600D02*
Y186800D01*
X211600Y186200D02*
X212800D01*
X212200Y185600D02*
Y186800D01*
X220500Y195100D02*
X221700D01*
X221100Y194500D02*
Y195700D01*
X211500Y195000D02*
X212700D01*
X212100Y194400D02*
Y195600D01*
X215197Y206403D02*
X216397D01*
X215797Y205803D02*
Y207003D01*
X244181Y187489D02*
X245381D01*
X244781Y186889D02*
Y188089D01*
X236000Y186600D02*
X237200D01*
X236600Y186000D02*
Y187200D01*
X244100Y177600D02*
X245300D01*
X244700Y177000D02*
Y178200D01*
X256700Y189300D02*
X257900D01*
X257300Y188700D02*
Y189900D01*
X211400Y157400D02*
X212600D01*
X212000Y156800D02*
Y158000D01*
X211400Y160700D02*
X212600D01*
X212000Y160100D02*
Y161300D01*
X248700Y198100D02*
X249900D01*
X249300Y197500D02*
Y198700D01*
X256700Y194300D02*
X257900D01*
X257300Y193700D02*
Y194900D01*
X211900Y165000D02*
X213100D01*
X212500Y164400D02*
Y165600D01*
X207800Y165200D02*
X209000D01*
X208400Y164600D02*
Y165800D01*
X203200Y210900D02*
X204400D01*
X203800Y210300D02*
Y211500D01*
X199800Y209100D02*
X201000D01*
X200400Y208500D02*
Y209700D01*
X199300Y205400D02*
X200500D01*
X199900Y204800D02*
Y206000D01*
X199200Y187400D02*
X200400D01*
X199800Y186800D02*
Y188000D01*
X200100Y180800D02*
X201300D01*
X200700Y180200D02*
Y181400D01*
X199200Y192600D02*
X200400D01*
X199800Y192000D02*
Y193200D01*
M02*
