G04*
G04 #@! TF.GenerationSoftware,Altium Limited,Altium Designer,20.1.8 (145)*
G04*
G04 Layer_Color=2752767*
%FSLAX25Y25*%
%MOIN*%
G70*
G04*
G04 #@! TF.SameCoordinates,CA782F3F-0D54-4404-9751-EA5AB56DA471*
G04*
G04*
G04 #@! TF.FilePolarity,Positive*
G04*
G01*
G75*
%ADD55C,0.00200*%
%ADD56C,0.00267*%
D55*
X237500Y145500D02*
Y147100D01*
X239100D01*
Y145500D01*
X237500D01*
X219783D02*
Y147100D01*
X221384D01*
Y145500D01*
X219783D01*
X231400Y178700D02*
X230600Y180300D01*
X232200D01*
X231400Y178700D01*
X207401Y211701D02*
X206601Y213301D01*
X208201D01*
X207401Y211701D01*
X234532Y198200D02*
X233732Y199800D01*
X235332D01*
X234532Y198200D01*
X225500Y208200D02*
X224700Y209800D01*
X226300D01*
X225500Y208200D01*
X245168Y171600D02*
X244368Y173200D01*
X245968D01*
X245168Y171600D01*
X251300Y165746D02*
X250500Y167347D01*
X252100D01*
X251300Y165746D01*
X255050Y169050D02*
X254250Y170650D01*
X255850D01*
X255050Y169050D01*
X258000Y163700D02*
X257200Y165300D01*
X258800D01*
X258000Y163700D01*
X216600Y187831D02*
X215800Y189432D01*
X217400D01*
X216600Y187831D01*
Y191769D02*
X215800Y193368D01*
X217400D01*
X216600Y191769D01*
X221000Y185400D02*
X220200Y187000D01*
X221800D01*
X221000Y185400D01*
X212200D02*
X211400Y187000D01*
X213000D01*
X212200Y185400D01*
X221100Y194300D02*
X220300Y195900D01*
X221900D01*
X221100Y194300D01*
X212100Y194200D02*
X211300Y195800D01*
X212900D01*
X212100Y194200D01*
X215797Y205603D02*
X214997Y207203D01*
X216597D01*
X215797Y205603D01*
X244781Y186689D02*
X243982Y188289D01*
X245582D01*
X244781Y186689D01*
X236600Y185800D02*
X235800Y187400D01*
X237400D01*
X236600Y185800D01*
X244700Y176800D02*
X243900Y178400D01*
X245500D01*
X244700Y176800D01*
X257300Y188500D02*
X256500Y190100D01*
X258100D01*
X257300Y188500D01*
X212000Y156600D02*
X211200Y158200D01*
X212800D01*
X212000Y156600D01*
Y159900D02*
X211200Y161500D01*
X212800D01*
X212000Y159900D01*
X249300Y197300D02*
X248500Y198900D01*
X250100D01*
X249300Y197300D01*
X257300Y193500D02*
X256500Y195100D01*
X258100D01*
X257300Y193500D01*
X212500Y164200D02*
X211700Y165800D01*
X213300D01*
X212500Y164200D01*
X208400Y164400D02*
X207600Y166000D01*
X209200D01*
X208400Y164400D01*
X203800Y210100D02*
X203000Y211700D01*
X204600D01*
X203800Y210100D01*
X200400Y208300D02*
X199600Y209900D01*
X201200D01*
X200400Y208300D01*
X199900Y204600D02*
X199100Y206200D01*
X200700D01*
X199900Y204600D01*
X199800Y186600D02*
X199000Y188200D01*
X200600D01*
X199800Y186600D01*
X200700Y180000D02*
X199900Y181600D01*
X201500D01*
X200700Y180000D01*
X199800Y191800D02*
X199000Y193400D01*
X200600D01*
X199800Y191800D01*
D56*
X253470Y146300D02*
X252917Y147061D01*
X252023Y146770D01*
Y145830D01*
X252917Y145539D01*
X253470Y146300D01*
X207013D02*
X206461Y147061D01*
X205566Y146770D01*
Y145830D01*
X206461Y145539D01*
X207013Y146300D01*
M02*
