G04*
G04 #@! TF.GenerationSoftware,Altium Limited,Altium Designer,20.1.8 (145)*
G04*
G04 Layer_Physical_Order=1*
G04 Layer_Color=255*
%FSLAX25Y25*%
%MOIN*%
G70*
G04*
G04 #@! TF.SameCoordinates,CA782F3F-0D54-4404-9751-EA5AB56DA471*
G04*
G04*
G04 #@! TF.FilePolarity,Positive*
G04*
G01*
G75*
%ADD12C,0.00600*%
%ADD13C,0.01000*%
%ADD16R,0.02362X0.01968*%
%ADD17O,0.00984X0.03740*%
%ADD18O,0.03740X0.00984*%
%ADD19R,0.11811X0.11811*%
%ADD20R,0.01968X0.02362*%
%ADD21R,0.01968X0.05118*%
%ADD22O,0.04724X0.03543*%
%ADD23R,0.02362X0.04331*%
%ADD24R,0.04331X0.03937*%
%ADD25R,0.03937X0.02756*%
%ADD26R,0.04724X0.09843*%
%ADD40C,0.01500*%
%ADD41C,0.02000*%
%ADD42C,0.02500*%
%ADD43C,0.01200*%
%ADD44C,0.01300*%
%ADD45C,0.04331*%
%ADD46O,0.06000X0.15000*%
%ADD47C,0.02400*%
D12*
X200880Y169067D02*
X202099Y167847D01*
X200880Y169067D02*
Y172320D01*
X201162Y172603D01*
X231400Y173200D02*
Y179500D01*
X230500Y172300D02*
X231400Y173200D01*
X227200Y172300D02*
X230500D01*
X224900Y174600D02*
X227200Y172300D01*
X234069Y192700D02*
X237732D01*
X232700Y191332D02*
X234069Y192700D01*
X212200Y186200D02*
X216600Y190600D01*
X215797Y206403D02*
X216600Y205600D01*
X215600Y206600D02*
X215797Y206403D01*
X210900Y184900D02*
X212200Y186200D01*
X209800Y184900D02*
X210900D01*
X207626Y182726D02*
X209800Y184900D01*
X205478Y182726D02*
X207626D01*
X204663Y174500D02*
X205478Y175315D01*
Y182726D01*
X253900Y171000D02*
X255050Y169850D01*
X253900Y176600D02*
X256600Y179300D01*
X253900Y171000D02*
Y176600D01*
X256600Y179300D02*
X257300D01*
X258000Y164500D02*
Y172800D01*
X258400Y173200D01*
X257400Y174200D02*
X258400Y173200D01*
X215568Y210000D02*
X217700D01*
X218568Y201722D02*
Y209132D01*
X217700Y210000D02*
X218568Y209132D01*
X225500Y209000D02*
Y212500D01*
X224600Y213400D02*
X225500Y212500D01*
X208300Y213400D02*
X224600D01*
X207401Y212501D02*
X208300Y213400D01*
X207401Y210136D02*
Y212501D01*
X211631Y206631D02*
X211663Y206600D01*
X211631Y206631D02*
Y210000D01*
X216600Y201722D02*
Y205600D01*
X215568Y210000D02*
Y211432D01*
X214700Y212300D02*
X215568Y211432D01*
X210100Y212300D02*
X214700D01*
X209500Y211700D02*
X210100Y212300D01*
X209500Y208299D02*
Y211700D01*
X207401Y206199D02*
X209500Y208299D01*
X237732Y197632D02*
X238300Y198200D01*
X252400Y197100D02*
X254600Y199300D01*
X251200Y183900D02*
X252400Y185100D01*
Y197100D01*
X254600Y199300D02*
X257300D01*
X236700Y183900D02*
X251200D01*
X214632Y176631D02*
Y179478D01*
X214000Y176000D02*
X214632Y176631D01*
X214000Y166500D02*
Y176000D01*
X212500Y165000D02*
X214000Y166500D01*
X208400Y165700D02*
X212663Y169963D01*
Y179478D01*
X208400Y165200D02*
Y165700D01*
X257300Y174300D02*
X257400Y174200D01*
X205000Y204400D02*
Y207814D01*
X203800Y209014D02*
Y210900D01*
Y209014D02*
X205000Y207814D01*
Y204400D02*
X207678Y201722D01*
X208726D01*
X203300Y199000D02*
Y206200D01*
X200400Y209100D02*
X203300Y206200D01*
Y199000D02*
X203826Y198474D01*
X205478D01*
X199900Y198300D02*
Y205400D01*
Y198300D02*
X201694Y196505D01*
X205478D01*
X199800Y187400D02*
Y189300D01*
X200900Y180800D02*
Y184700D01*
X200700Y180800D02*
X200900D01*
Y184700D02*
X202200Y186000D01*
X202700Y177800D02*
Y184300D01*
X203095Y184695D02*
X205478D01*
X202700Y184300D02*
X203095Y184695D01*
X201637Y176737D02*
X202700Y177800D01*
X202200Y186000D02*
Y189700D01*
X208600Y174500D02*
X208726Y174626D01*
Y179478D01*
X211663Y206600D02*
X211900D01*
X214632Y203869D01*
Y201722D02*
Y203869D01*
X228837Y174600D02*
Y176663D01*
X228300Y177200D02*
X228837Y176663D01*
X225200Y177200D02*
X228300D01*
X224474Y177926D02*
X225200Y177200D01*
X224474Y177926D02*
Y179478D01*
X199800Y192600D02*
X201737Y194537D01*
X205478D01*
X199800Y189300D02*
X203068Y192569D01*
X205478D01*
X203100Y190600D02*
X205478D01*
X202200Y189700D02*
X203100Y190600D01*
X200000Y176737D02*
X201637D01*
X200000Y172800D02*
X200965D01*
X201162Y172603D01*
X203453Y168447D02*
X203799D01*
X232174Y198474D02*
X232700Y199000D01*
X227722Y198474D02*
X232174D01*
X220537Y208761D02*
X220776Y209000D01*
X220537Y201722D02*
Y208761D01*
X230224Y207124D02*
Y209000D01*
X227900Y204800D02*
X230224Y207124D01*
X223400Y204800D02*
X227900D01*
X222505Y203906D02*
X223400Y204800D01*
X222505Y201722D02*
Y203906D01*
X231463Y196505D02*
X232700Y195268D01*
X227722Y196505D02*
X231463D01*
X232900Y176000D02*
X239224Y182324D01*
X254435Y184300D02*
X257300D01*
X239224Y182324D02*
X252460D01*
X235526Y182726D02*
X236700Y183900D01*
X252460Y182324D02*
X254435Y184300D01*
X227722Y182726D02*
X235526D01*
X240960Y177600D02*
Y180460D01*
X241500Y181000D01*
X247900D01*
X248440Y180460D01*
X232900Y171500D02*
Y176000D01*
X232100Y170700D02*
X232900Y171500D01*
X223200Y170700D02*
X232100D01*
X222300Y171600D02*
X223200Y170700D01*
X222505Y176995D02*
X224900Y174600D01*
X222505Y176995D02*
Y179478D01*
X220537Y177063D02*
X222300Y175300D01*
Y171600D02*
Y175300D01*
X220537Y177063D02*
Y179478D01*
X248440Y177600D02*
Y180460D01*
D13*
X218568Y174600D02*
X219200Y173969D01*
X216200D02*
X216600Y174369D01*
X208726Y179478D02*
Y180840D01*
X209202Y181316D01*
Y181474D01*
X210628Y182900D01*
X224474D01*
X210946Y161754D02*
X212000Y160700D01*
X203799Y161754D02*
X210946D01*
X234500Y141800D02*
Y145300D01*
X233100Y146700D02*
X234500Y145300D01*
X225700Y146700D02*
X233100D01*
X222100Y150300D02*
X225700Y146700D01*
X219300Y150300D02*
X222100D01*
X215390Y154210D02*
X219300Y150300D01*
X215390Y154210D02*
Y156174D01*
X249869Y188478D02*
Y192700D01*
X248440Y187049D02*
X249869Y188478D01*
X240256Y202937D02*
X244993Y198200D01*
X232700Y202937D02*
X240256D01*
X230137D02*
X232700D01*
X228922Y201722D02*
X230137Y202937D01*
X224474Y201722D02*
X228922D01*
X224474Y182900D02*
Y198400D01*
Y179478D02*
Y182900D01*
Y198400D02*
Y201722D01*
X224374Y198300D02*
X224474Y198400D01*
X215600Y198300D02*
X224374D01*
X214632Y199268D02*
X215600Y198300D01*
X214632Y199268D02*
Y201722D01*
X218568Y174600D02*
Y179478D01*
X216600Y174369D02*
Y179478D01*
D16*
X211663Y206600D02*
D03*
X215600D02*
D03*
X211631Y210000D02*
D03*
X215568D02*
D03*
X249869Y192700D02*
D03*
X245932D02*
D03*
X208600Y174500D02*
D03*
X204663D02*
D03*
X228837Y174600D02*
D03*
X224900D02*
D03*
X241231Y172400D02*
D03*
X245168D02*
D03*
X241669Y192700D02*
D03*
X237732D02*
D03*
D17*
X224474Y201722D02*
D03*
X222505D02*
D03*
X220537D02*
D03*
X218568D02*
D03*
X216600D02*
D03*
X214632D02*
D03*
X212663D02*
D03*
X210695D02*
D03*
X208726D02*
D03*
Y179478D02*
D03*
X210695D02*
D03*
X212663D02*
D03*
X214632D02*
D03*
X216600D02*
D03*
X218568D02*
D03*
X220537D02*
D03*
X222505D02*
D03*
X224474D02*
D03*
D18*
X205478Y198474D02*
D03*
Y196505D02*
D03*
Y194537D02*
D03*
Y192569D02*
D03*
Y190600D02*
D03*
Y188631D02*
D03*
Y186663D02*
D03*
Y184695D02*
D03*
Y182726D02*
D03*
X227722D02*
D03*
Y184695D02*
D03*
Y186663D02*
D03*
Y188631D02*
D03*
Y190600D02*
D03*
Y192569D02*
D03*
Y194537D02*
D03*
Y196505D02*
D03*
Y198474D02*
D03*
D19*
X216600Y190600D02*
D03*
D20*
X207401Y206199D02*
D03*
Y210136D02*
D03*
X232700Y191332D02*
D03*
Y195268D02*
D03*
X232700Y202937D02*
D03*
Y199000D02*
D03*
X200000Y176737D02*
D03*
Y172800D02*
D03*
X219200Y173969D02*
D03*
Y170031D02*
D03*
X216200Y173969D02*
D03*
Y170031D02*
D03*
X237900Y167168D02*
D03*
Y163232D02*
D03*
D21*
X220776Y209000D02*
D03*
X230224D02*
D03*
X225500Y209000D02*
D03*
D22*
X257300Y199300D02*
D03*
Y189300D02*
D03*
Y174300D02*
D03*
Y179300D02*
D03*
Y184300D02*
D03*
Y194300D02*
D03*
D23*
X240960Y187049D02*
D03*
X248440D02*
D03*
Y177600D02*
D03*
X244700D02*
D03*
X240960D02*
D03*
D24*
X238300Y198200D02*
D03*
X244993D02*
D03*
X250046Y166500D02*
D03*
X243354D02*
D03*
D25*
X202099Y167847D02*
D03*
Y161154D02*
D03*
D26*
X215390Y156174D02*
D03*
X225453D02*
D03*
X233327D02*
D03*
X243390D02*
D03*
D40*
X225453D02*
X226360Y156318D01*
X227179Y156735D01*
X227829Y157385D01*
X228246Y158203D01*
X228390Y159111D01*
X216800Y169431D02*
X216200Y170031D01*
X216800Y166600D02*
X216971Y165518D01*
X217468Y164543D01*
X218243Y163768D01*
X219218Y163271D01*
X220300Y163100D01*
X228390Y161400D02*
X228162Y162250D01*
X227540Y162872D01*
X226690Y163100D01*
X219200Y170031D02*
X218800Y169632D01*
Y166600D02*
X219239Y165539D01*
X220300Y165100D01*
X230390Y161400D02*
X230264Y162358D01*
X229894Y163250D01*
X229306Y164016D01*
X228540Y164604D01*
X227647Y164974D01*
X226690Y165100D01*
X230390Y159111D02*
X230534Y158203D01*
X230951Y157385D01*
X231600Y156735D01*
X232419Y156318D01*
X233327Y156174D01*
X216800Y166600D02*
Y169431D01*
X220300Y163100D02*
X226690D01*
X228390Y159111D02*
Y161400D01*
X218800Y166600D02*
Y169632D01*
X220300Y165100D02*
X226690D01*
X230390Y159111D02*
Y161400D01*
D41*
X250511Y167057D02*
X251021Y166546D01*
X214822Y156742D02*
X215390Y156174D01*
X214732Y157968D02*
X215390Y157310D01*
X234532Y199000D02*
X237500D01*
X232700D02*
X234532D01*
X237500D02*
X238300Y198200D01*
X245168Y172400D02*
X250511Y167057D01*
X244700Y175300D02*
X244800D01*
X244700D02*
Y177600D01*
Y172868D02*
Y175300D01*
X244800D02*
X247700Y172400D01*
X251300Y166546D02*
Y168800D01*
X247700Y172400D02*
X251300Y168800D01*
X245168Y172400D02*
X247700D01*
X237732Y192700D02*
Y197632D01*
Y189932D02*
Y192700D01*
X236600Y188800D02*
X237732Y189932D01*
X236600Y186600D02*
Y188800D01*
X212000Y156400D02*
X213000Y155400D01*
X212000Y156400D02*
Y157400D01*
X215390Y157310D02*
Y160310D01*
X214000Y161700D02*
X215390Y160310D01*
X213000Y161700D02*
X214000D01*
X212000Y160700D02*
X213000Y161700D01*
X212000Y157400D02*
Y160700D01*
X214164Y157400D02*
X214822Y156742D01*
X212000Y157400D02*
X214164D01*
X215390Y156174D02*
Y157310D01*
X212000Y160700D02*
X214732Y157968D01*
X244993Y197393D02*
X245700Y198100D01*
X249300D01*
X241669Y194069D02*
X244993Y197393D01*
X241669Y192700D02*
Y194069D01*
Y187758D02*
Y192700D01*
X240960Y187049D02*
X241669Y187758D01*
D42*
X250650Y165896D02*
X251300Y166546D01*
X247800Y163047D02*
X250650Y165896D01*
X234500Y141800D02*
X241800D01*
X218400D02*
X234500D01*
X215390Y144810D02*
Y154210D01*
X247800Y147800D02*
Y163047D01*
X241800Y141800D02*
X247800Y147800D01*
X215390Y144810D02*
X218400Y141800D01*
D43*
X251021Y166546D02*
X251300D01*
X250093D02*
X251021D01*
X244781Y187489D02*
Y191550D01*
X245932Y192700D01*
X250046Y166500D02*
X250093Y166546D01*
X241200Y172400D02*
Y177360D01*
Y168600D02*
Y172400D01*
X243300Y166500D02*
X243354D01*
X241200Y168600D02*
X243300Y166500D01*
X243390Y156174D02*
Y166510D01*
X238568Y166500D02*
X243354D01*
X237900Y167168D02*
X238568Y166500D01*
X250000Y166546D02*
X250046Y166500D01*
X244700Y172868D02*
X245168Y172400D01*
X240960Y177600D02*
X241200Y177360D01*
D44*
X225453Y153547D02*
Y156174D01*
Y153547D02*
X229600Y149400D01*
X236000D01*
X237900Y151300D01*
Y163232D01*
D45*
X238300Y146300D02*
D03*
X220584D02*
D03*
D46*
X252670D02*
D03*
X206213D02*
D03*
D47*
X231400Y179500D02*
D03*
X207401Y212501D02*
D03*
X234532Y199000D02*
D03*
X225500Y209000D02*
D03*
X245168Y172400D02*
D03*
X251300Y166546D02*
D03*
X255050Y169850D02*
D03*
X258000Y164500D02*
D03*
X216600Y188631D02*
D03*
Y192569D02*
D03*
X221000Y186200D02*
D03*
X212200D02*
D03*
X221100Y195100D02*
D03*
X212100Y195000D02*
D03*
X215797Y206403D02*
D03*
X244781Y187489D02*
D03*
X236600Y186600D02*
D03*
X244700Y177600D02*
D03*
X257300Y189300D02*
D03*
X212000Y157400D02*
D03*
Y160700D02*
D03*
X249300Y198100D02*
D03*
X257300Y194300D02*
D03*
X212500Y165000D02*
D03*
X208400Y165200D02*
D03*
X203800Y210900D02*
D03*
X200400Y209100D02*
D03*
X199900Y205400D02*
D03*
X199800Y187400D02*
D03*
X200700Y180800D02*
D03*
X199800Y192600D02*
D03*
M02*
