  0
SECTION
  2
HEADER
  9
$ACADVER
  1
AC1009
  9
$EXTMIN
 10
0.0
 20
0.0
 30
0.0
  9
$EXTMAX
 10
1000.0
 20
1000.0
 30
0.0
  9
$FILLMODE
 70
 0
  9
$SPLFRAME
 70
 1
  0
ENDSEC
  0
SECTION
  2
TABLES
  0
TABLE
  2
LAYER
 70
1
  0
LAYER
  2
0
 70
     0
 62
     7
  6
CONTINUOUS
  0
ENDTAB
  0
ENDSEC
  0
SECTION
  2
ENTITIES
  0
LINE
  8
0
 62
     0
 10
0.0950846
 20
114.558
 30
0.0
 11
304.895
 21
114.558
 31
0.0
  0
LINE
  8
0
 62
     0
 10
304.895
 20
114.558
 30
0.0
 11
304.895
 21
0.257693
 31
0.0
  0
LINE
  8
0
 62
     0
 10
304.895
 20
0.257693
 30
0.0
 11
0.0950846
 21
0.257693
 31
0.0
  0
LINE
  8
0
 62
     0
 10
0.0950846
 20
0.257693
 30
0.0
 11
0.0950846
 21
114.558
 31
0.0
  0
LINE
  8
0
 62
     0
 10
143.112
 20
16.7845
 30
0.0
 11
143.112
 21
15.7841
 31
0.0
  0
LINE
  8
0
 62
     0
 10
143.112
 20
15.7841
 30
0.0
 11
142.313
 21
15.7841
 31
0.0
  0
LINE
  8
0
 62
     0
 10
142.313
 20
15.7841
 30
0.0
 11
142.313
 21
12.6848
 31
0.0
  0
LINE
  8
0
 62
     0
 10
142.313
 20
12.6848
 30
0.0
 11
143.112
 21
12.6848
 31
0.0
  0
LINE
  8
0
 62
     0
 10
143.112
 20
12.6848
 30
0.0
 11
143.112
 21
12.0826
 31
0.0
  0
LINE
  8
0
 62
     0
 10
143.112
 20
12.0826
 30
0.0
 11
103.488
 21
12.0826
 31
0.0
  0
LINE
  8
0
 62
     0
 10
103.488
 20
12.0826
 30
0.0
 11
103.488
 21
15.3142
 31
0.0
  0
LINE
  8
0
 62
     0
 10
103.488
 20
15.3142
 30
0.0
 11
101.763
 21
15.3142
 31
0.0
  0
LINE
  8
0
 62
     0
 10
101.763
 20
15.3142
 30
0.0
 11
101.763
 21
16.2347
 31
0.0
  0
LINE
  8
0
 62
     0
 10
101.763
 20
16.2347
 30
0.0
 11
98.462
 21
16.2347
 31
0.0
  0
LINE
  8
0
 62
     0
 10
98.462
 20
16.2347
 30
0.0
 11
98.462
 21
15.3142
 31
0.0
  0
LINE
  8
0
 62
     0
 10
98.462
 20
15.3142
 30
0.0
 11
96.737
 21
15.3142
 31
0.0
  0
LINE
  8
0
 62
     0
 10
96.737
 20
15.3142
 30
0.0
 11
96.737
 21
12.0826
 31
0.0
  0
LINE
  8
0
 62
     0
 10
96.737
 20
12.0826
 30
0.0
 11
95.9129
 21
12.0826
 31
0.0
  0
LINE
  8
0
 62
     0
 10
95.9129
 20
12.0826
 30
0.0
 11
95.9129
 21
9.28384
 31
0.0
  0
LINE
  8
0
 62
     0
 10
95.9129
 20
9.28384
 30
0.0
 11
96.737
 21
9.28384
 31
0.0
  0
LINE
  8
0
 62
     0
 10
96.737
 20
9.28384
 30
0.0
 11
96.737
 21
3.01377
 31
0.0
  0
LINE
  8
0
 62
     0
 10
96.737
 20
3.01377
 30
0.0
 11
98.462
 21
3.01377
 31
0.0
  0
LINE
  8
0
 62
     0
 10
98.462
 20
3.01377
 30
0.0
 11
98.462
 21
2.03399
 31
0.0
  0
LINE
  8
0
 62
     0
 10
98.462
 20
2.03399
 30
0.0
 11
101.763
 21
2.03399
 31
0.0
  0
LINE
  8
0
 62
     0
 10
101.763
 20
2.03399
 30
0.0
 11
101.763
 21
3.01377
 31
0.0
  0
LINE
  8
0
 62
     0
 10
101.763
 20
3.01377
 30
0.0
 11
103.488
 21
3.01377
 31
0.0
  0
LINE
  8
0
 62
     0
 10
103.488
 20
3.01377
 30
0.0
 11
103.488
 21
7.48411
 31
0.0
  0
LINE
  8
0
 62
     0
 10
103.488
 20
7.48411
 30
0.0
 11
143.112
 21
7.48411
 31
0.0
  0
LINE
  8
0
 62
     0
 10
143.112
 20
7.48411
 30
0.0
 11
143.112
 21
6.88329
 31
0.0
  0
LINE
  8
0
 62
     0
 10
143.112
 20
6.88329
 30
0.0
 11
142.313
 21
6.88329
 31
0.0
  0
LINE
  8
0
 62
     0
 10
142.313
 20
6.88329
 30
0.0
 11
142.313
 21
3.78411
 31
0.0
  0
LINE
  8
0
 62
     0
 10
142.313
 20
3.78411
 30
0.0
 11
143.112
 21
3.78411
 31
0.0
  0
LINE
  8
0
 62
     0
 10
143.112
 20
3.78411
 30
0.0
 11
143.112
 21
2.78364
 31
0.0
  0
LINE
  8
0
 62
     0
 10
143.112
 20
2.78364
 30
0.0
 11
157.113
 21
2.78364
 31
0.0
  0
LINE
  8
0
 62
     0
 10
157.113
 20
2.78364
 30
0.0
 11
157.113
 21
3.78411
 31
0.0
  0
LINE
  8
0
 62
     0
 10
157.113
 20
3.78411
 30
0.0
 11
157.912
 21
3.78411
 31
0.0
  0
LINE
  8
0
 62
     0
 10
157.912
 20
3.78411
 30
0.0
 11
157.912
 21
6.88329
 31
0.0
  0
LINE
  8
0
 62
     0
 10
157.912
 20
6.88329
 30
0.0
 11
157.113
 21
6.88329
 31
0.0
  0
LINE
  8
0
 62
     0
 10
157.113
 20
6.88329
 30
0.0
 11
157.113
 21
7.48411
 31
0.0
  0
LINE
  8
0
 62
     0
 10
157.113
 20
7.48411
 30
0.0
 11
196.737
 21
7.48411
 31
0.0
  0
LINE
  8
0
 62
     0
 10
196.737
 20
7.48411
 30
0.0
 11
196.737
 21
3.01377
 31
0.0
  0
LINE
  8
0
 62
     0
 10
196.737
 20
3.01377
 30
0.0
 11
198.462
 21
3.01377
 31
0.0
  0
LINE
  8
0
 62
     0
 10
198.462
 20
3.01377
 30
0.0
 11
198.462
 21
2.03399
 31
0.0
  0
LINE
  8
0
 62
     0
 10
198.462
 20
2.03399
 30
0.0
 11
201.763
 21
2.03399
 31
0.0
  0
LINE
  8
0
 62
     0
 10
201.763
 20
2.03399
 30
0.0
 11
201.763
 21
3.01377
 31
0.0
  0
LINE
  8
0
 62
     0
 10
201.763
 20
3.01377
 30
0.0
 11
203.488
 21
3.01377
 31
0.0
  0
LINE
  8
0
 62
     0
 10
203.488
 20
3.01377
 30
0.0
 11
203.488
 21
9.28384
 31
0.0
  0
LINE
  8
0
 62
     0
 10
203.488
 20
9.28384
 30
0.0
 11
204.312
 21
9.28384
 31
0.0
  0
LINE
  8
0
 62
     0
 10
204.312
 20
9.28384
 30
0.0
 11
204.312
 21
12.0826
 31
0.0
  0
LINE
  8
0
 62
     0
 10
204.312
 20
12.0826
 30
0.0
 11
203.488
 21
12.0826
 31
0.0
  0
LINE
  8
0
 62
     0
 10
203.488
 20
12.0826
 30
0.0
 11
203.488
 21
15.3142
 31
0.0
  0
LINE
  8
0
 62
     0
 10
203.488
 20
15.3142
 30
0.0
 11
201.763
 21
15.3142
 31
0.0
  0
LINE
  8
0
 62
     0
 10
201.763
 20
15.3142
 30
0.0
 11
201.763
 21
16.2347
 31
0.0
  0
LINE
  8
0
 62
     0
 10
201.763
 20
16.2347
 30
0.0
 11
198.462
 21
16.2347
 31
0.0
  0
LINE
  8
0
 62
     0
 10
198.462
 20
16.2347
 30
0.0
 11
198.462
 21
15.3142
 31
0.0
  0
LINE
  8
0
 62
     0
 10
198.462
 20
15.3142
 30
0.0
 11
196.737
 21
15.3142
 31
0.0
  0
LINE
  8
0
 62
     0
 10
196.737
 20
15.3142
 30
0.0
 11
196.737
 21
12.0826
 31
0.0
  0
LINE
  8
0
 62
     0
 10
196.737
 20
12.0826
 30
0.0
 11
157.113
 21
12.0826
 31
0.0
  0
LINE
  8
0
 62
     0
 10
157.113
 20
12.0826
 30
0.0
 11
157.113
 21
12.6848
 31
0.0
  0
LINE
  8
0
 62
     0
 10
157.113
 20
12.6848
 30
0.0
 11
157.912
 21
12.6848
 31
0.0
  0
LINE
  8
0
 62
     0
 10
157.912
 20
12.6848
 30
0.0
 11
157.912
 21
15.7841
 31
0.0
  0
LINE
  8
0
 62
     0
 10
157.912
 20
15.7841
 30
0.0
 11
157.113
 21
15.7841
 31
0.0
  0
LINE
  8
0
 62
     0
 10
157.113
 20
15.7841
 30
0.0
 11
157.113
 21
16.7845
 31
0.0
  0
LINE
  8
0
 62
     0
 10
157.113
 20
16.7845
 30
0.0
 11
143.112
 21
16.7845
 31
0.0
  0
LINE
  8
0
 62
     0
 10
288.37
 20
16.7845
 30
0.0
 11
288.37
 21
15.7841
 31
0.0
  0
LINE
  8
0
 62
     0
 10
288.37
 20
15.7841
 30
0.0
 11
287.569
 21
15.7841
 31
0.0
  0
LINE
  8
0
 62
     0
 10
287.569
 20
15.7841
 30
0.0
 11
287.569
 21
12.6848
 31
0.0
  0
LINE
  8
0
 62
     0
 10
287.569
 20
12.6848
 30
0.0
 11
288.37
 21
12.6848
 31
0.0
  0
LINE
  8
0
 62
     0
 10
288.37
 20
12.6848
 30
0.0
 11
288.37
 21
6.88329
 31
0.0
  0
LINE
  8
0
 62
     0
 10
288.37
 20
6.88329
 30
0.0
 11
287.569
 21
6.88329
 31
0.0
  0
LINE
  8
0
 62
     0
 10
287.569
 20
6.88329
 30
0.0
 11
287.569
 21
3.78411
 31
0.0
  0
LINE
  8
0
 62
     0
 10
287.569
 20
3.78411
 30
0.0
 11
288.37
 21
3.78411
 31
0.0
  0
LINE
  8
0
 62
     0
 10
288.37
 20
3.78411
 30
0.0
 11
288.37
 21
2.78364
 31
0.0
  0
LINE
  8
0
 62
     0
 10
288.37
 20
2.78364
 30
0.0
 11
302.369
 21
2.78364
 31
0.0
  0
LINE
  8
0
 62
     0
 10
302.369
 20
2.78364
 30
0.0
 11
302.369
 21
3.78411
 31
0.0
  0
LINE
  8
0
 62
     0
 10
302.369
 20
3.78411
 30
0.0
 11
303.17
 21
3.78411
 31
0.0
  0
LINE
  8
0
 62
     0
 10
303.17
 20
3.78411
 30
0.0
 11
303.17
 21
6.88329
 31
0.0
  0
LINE
  8
0
 62
     0
 10
303.17
 20
6.88329
 30
0.0
 11
302.369
 21
6.88329
 31
0.0
  0
LINE
  8
0
 62
     0
 10
302.369
 20
6.88329
 30
0.0
 11
302.369
 21
12.6848
 31
0.0
  0
LINE
  8
0
 62
     0
 10
302.369
 20
12.6848
 30
0.0
 11
303.17
 21
12.6848
 31
0.0
  0
LINE
  8
0
 62
     0
 10
303.17
 20
12.6848
 30
0.0
 11
303.17
 21
15.7841
 31
0.0
  0
LINE
  8
0
 62
     0
 10
303.17
 20
15.7841
 30
0.0
 11
302.369
 21
15.7841
 31
0.0
  0
LINE
  8
0
 62
     0
 10
302.369
 20
15.7841
 30
0.0
 11
302.369
 21
16.7845
 31
0.0
  0
LINE
  8
0
 62
     0
 10
302.369
 20
16.7845
 30
0.0
 11
288.37
 21
16.7845
 31
0.0
  0
LINE
  8
0
 62
     0
 10
269.32
 20
16.7845
 30
0.0
 11
269.32
 21
15.7841
 31
0.0
  0
LINE
  8
0
 62
     0
 10
269.32
 20
15.7841
 30
0.0
 11
268.519
 21
15.7841
 31
0.0
  0
LINE
  8
0
 62
     0
 10
268.519
 20
15.7841
 30
0.0
 11
268.519
 21
12.6848
 31
0.0
  0
LINE
  8
0
 62
     0
 10
268.519
 20
12.6848
 30
0.0
 11
269.32
 21
12.6848
 31
0.0
  0
LINE
  8
0
 62
     0
 10
269.32
 20
12.6848
 30
0.0
 11
269.32
 21
6.88329
 31
0.0
  0
LINE
  8
0
 62
     0
 10
269.32
 20
6.88329
 30
0.0
 11
268.519
 21
6.88329
 31
0.0
  0
LINE
  8
0
 62
     0
 10
268.519
 20
6.88329
 30
0.0
 11
268.519
 21
3.78411
 31
0.0
  0
LINE
  8
0
 62
     0
 10
268.519
 20
3.78411
 30
0.0
 11
269.32
 21
3.78411
 31
0.0
  0
LINE
  8
0
 62
     0
 10
269.32
 20
3.78411
 30
0.0
 11
269.32
 21
2.78364
 31
0.0
  0
LINE
  8
0
 62
     0
 10
269.32
 20
2.78364
 30
0.0
 11
283.319
 21
2.78364
 31
0.0
  0
LINE
  8
0
 62
     0
 10
283.319
 20
2.78364
 30
0.0
 11
283.319
 21
3.78411
 31
0.0
  0
LINE
  8
0
 62
     0
 10
283.319
 20
3.78411
 30
0.0
 11
284.12
 21
3.78411
 31
0.0
  0
LINE
  8
0
 62
     0
 10
284.12
 20
3.78411
 30
0.0
 11
284.12
 21
6.88329
 31
0.0
  0
LINE
  8
0
 62
     0
 10
284.12
 20
6.88329
 30
0.0
 11
283.319
 21
6.88329
 31
0.0
  0
LINE
  8
0
 62
     0
 10
283.319
 20
6.88329
 30
0.0
 11
283.319
 21
12.6848
 31
0.0
  0
LINE
  8
0
 62
     0
 10
283.319
 20
12.6848
 30
0.0
 11
284.12
 21
12.6848
 31
0.0
  0
LINE
  8
0
 62
     0
 10
284.12
 20
12.6848
 30
0.0
 11
284.12
 21
15.7841
 31
0.0
  0
LINE
  8
0
 62
     0
 10
284.12
 20
15.7841
 30
0.0
 11
283.319
 21
15.7841
 31
0.0
  0
LINE
  8
0
 62
     0
 10
283.319
 20
15.7841
 30
0.0
 11
283.319
 21
16.7845
 31
0.0
  0
LINE
  8
0
 62
     0
 10
283.319
 20
16.7845
 30
0.0
 11
269.32
 21
16.7845
 31
0.0
  0
LINE
  8
0
 62
     0
 10
250.27
 20
16.7845
 30
0.0
 11
250.27
 21
15.7841
 31
0.0
  0
LINE
  8
0
 62
     0
 10
250.27
 20
15.7841
 30
0.0
 11
249.469
 21
15.7841
 31
0.0
  0
LINE
  8
0
 62
     0
 10
249.469
 20
15.7841
 30
0.0
 11
249.469
 21
12.6848
 31
0.0
  0
LINE
  8
0
 62
     0
 10
249.469
 20
12.6848
 30
0.0
 11
250.27
 21
12.6848
 31
0.0
  0
LINE
  8
0
 62
     0
 10
250.27
 20
12.6848
 30
0.0
 11
250.27
 21
6.88329
 31
0.0
  0
LINE
  8
0
 62
     0
 10
250.27
 20
6.88329
 30
0.0
 11
249.469
 21
6.88329
 31
0.0
  0
LINE
  8
0
 62
     0
 10
249.469
 20
6.88329
 30
0.0
 11
249.469
 21
3.78411
 31
0.0
  0
LINE
  8
0
 62
     0
 10
249.469
 20
3.78411
 30
0.0
 11
250.27
 21
3.78411
 31
0.0
  0
LINE
  8
0
 62
     0
 10
250.27
 20
3.78411
 30
0.0
 11
250.27
 21
2.78364
 31
0.0
  0
LINE
  8
0
 62
     0
 10
250.27
 20
2.78364
 30
0.0
 11
264.269
 21
2.78364
 31
0.0
  0
LINE
  8
0
 62
     0
 10
264.269
 20
2.78364
 30
0.0
 11
264.269
 21
3.78411
 31
0.0
  0
LINE
  8
0
 62
     0
 10
264.269
 20
3.78411
 30
0.0
 11
265.07
 21
3.78411
 31
0.0
  0
LINE
  8
0
 62
     0
 10
265.07
 20
3.78411
 30
0.0
 11
265.07
 21
6.88329
 31
0.0
  0
LINE
  8
0
 62
     0
 10
265.07
 20
6.88329
 30
0.0
 11
264.269
 21
6.88329
 31
0.0
  0
LINE
  8
0
 62
     0
 10
264.269
 20
6.88329
 30
0.0
 11
264.269
 21
12.6848
 31
0.0
  0
LINE
  8
0
 62
     0
 10
264.269
 20
12.6848
 30
0.0
 11
265.07
 21
12.6848
 31
0.0
  0
LINE
  8
0
 62
     0
 10
265.07
 20
12.6848
 30
0.0
 11
265.07
 21
15.7841
 31
0.0
  0
LINE
  8
0
 62
     0
 10
265.07
 20
15.7841
 30
0.0
 11
264.269
 21
15.7841
 31
0.0
  0
LINE
  8
0
 62
     0
 10
264.269
 20
15.7841
 30
0.0
 11
264.269
 21
16.7845
 31
0.0
  0
LINE
  8
0
 62
     0
 10
264.269
 20
16.7845
 30
0.0
 11
250.27
 21
16.7845
 31
0.0
  0
LINE
  8
0
 62
     0
 10
231.22
 20
16.7845
 30
0.0
 11
231.22
 21
15.7841
 31
0.0
  0
LINE
  8
0
 62
     0
 10
231.22
 20
15.7841
 30
0.0
 11
230.419
 21
15.7841
 31
0.0
  0
LINE
  8
0
 62
     0
 10
230.419
 20
15.7841
 30
0.0
 11
230.419
 21
12.6848
 31
0.0
  0
LINE
  8
0
 62
     0
 10
230.419
 20
12.6848
 30
0.0
 11
231.22
 21
12.6848
 31
0.0
  0
LINE
  8
0
 62
     0
 10
231.22
 20
12.6848
 30
0.0
 11
231.22
 21
6.88329
 31
0.0
  0
LINE
  8
0
 62
     0
 10
231.22
 20
6.88329
 30
0.0
 11
230.419
 21
6.88329
 31
0.0
  0
LINE
  8
0
 62
     0
 10
230.419
 20
6.88329
 30
0.0
 11
230.419
 21
3.78411
 31
0.0
  0
LINE
  8
0
 62
     0
 10
230.419
 20
3.78411
 30
0.0
 11
231.22
 21
3.78411
 31
0.0
  0
LINE
  8
0
 62
     0
 10
231.22
 20
3.78411
 30
0.0
 11
231.22
 21
2.78364
 31
0.0
  0
LINE
  8
0
 62
     0
 10
231.22
 20
2.78364
 30
0.0
 11
245.219
 21
2.78364
 31
0.0
  0
LINE
  8
0
 62
     0
 10
245.219
 20
2.78364
 30
0.0
 11
245.219
 21
3.78411
 31
0.0
  0
LINE
  8
0
 62
     0
 10
245.219
 20
3.78411
 30
0.0
 11
246.02
 21
3.78411
 31
0.0
  0
LINE
  8
0
 62
     0
 10
246.02
 20
3.78411
 30
0.0
 11
246.02
 21
6.88329
 31
0.0
  0
LINE
  8
0
 62
     0
 10
246.02
 20
6.88329
 30
0.0
 11
245.219
 21
6.88329
 31
0.0
  0
LINE
  8
0
 62
     0
 10
245.219
 20
6.88329
 30
0.0
 11
245.219
 21
12.6848
 31
0.0
  0
LINE
  8
0
 62
     0
 10
245.219
 20
12.6848
 30
0.0
 11
246.02
 21
12.6848
 31
0.0
  0
LINE
  8
0
 62
     0
 10
246.02
 20
12.6848
 30
0.0
 11
246.02
 21
15.7841
 31
0.0
  0
LINE
  8
0
 62
     0
 10
246.02
 20
15.7841
 30
0.0
 11
245.219
 21
15.7841
 31
0.0
  0
LINE
  8
0
 62
     0
 10
245.219
 20
15.7841
 30
0.0
 11
245.219
 21
16.7845
 31
0.0
  0
LINE
  8
0
 62
     0
 10
245.219
 20
16.7845
 30
0.0
 11
231.22
 21
16.7845
 31
0.0
  0
LINE
  8
0
 62
     0
 10
212.17
 20
16.7845
 30
0.0
 11
212.17
 21
15.7841
 31
0.0
  0
LINE
  8
0
 62
     0
 10
212.17
 20
15.7841
 30
0.0
 11
211.369
 21
15.7841
 31
0.0
  0
LINE
  8
0
 62
     0
 10
211.369
 20
15.7841
 30
0.0
 11
211.369
 21
12.6848
 31
0.0
  0
LINE
  8
0
 62
     0
 10
211.369
 20
12.6848
 30
0.0
 11
212.17
 21
12.6848
 31
0.0
  0
LINE
  8
0
 62
     0
 10
212.17
 20
12.6848
 30
0.0
 11
212.17
 21
6.88329
 31
0.0
  0
LINE
  8
0
 62
     0
 10
212.17
 20
6.88329
 30
0.0
 11
211.369
 21
6.88329
 31
0.0
  0
LINE
  8
0
 62
     0
 10
211.369
 20
6.88329
 30
0.0
 11
211.369
 21
3.78411
 31
0.0
  0
LINE
  8
0
 62
     0
 10
211.369
 20
3.78411
 30
0.0
 11
212.17
 21
3.78411
 31
0.0
  0
LINE
  8
0
 62
     0
 10
212.17
 20
3.78411
 30
0.0
 11
212.17
 21
2.78364
 31
0.0
  0
LINE
  8
0
 62
     0
 10
212.17
 20
2.78364
 30
0.0
 11
226.169
 21
2.78364
 31
0.0
  0
LINE
  8
0
 62
     0
 10
226.169
 20
2.78364
 30
0.0
 11
226.169
 21
3.78411
 31
0.0
  0
LINE
  8
0
 62
     0
 10
226.169
 20
3.78411
 30
0.0
 11
226.97
 21
3.78411
 31
0.0
  0
LINE
  8
0
 62
     0
 10
226.97
 20
3.78411
 30
0.0
 11
226.97
 21
6.88329
 31
0.0
  0
LINE
  8
0
 62
     0
 10
226.97
 20
6.88329
 30
0.0
 11
226.169
 21
6.88329
 31
0.0
  0
LINE
  8
0
 62
     0
 10
226.169
 20
6.88329
 30
0.0
 11
226.169
 21
12.6848
 31
0.0
  0
LINE
  8
0
 62
     0
 10
226.169
 20
12.6848
 30
0.0
 11
226.97
 21
12.6848
 31
0.0
  0
LINE
  8
0
 62
     0
 10
226.97
 20
12.6848
 30
0.0
 11
226.97
 21
15.7841
 31
0.0
  0
LINE
  8
0
 62
     0
 10
226.97
 20
15.7841
 30
0.0
 11
226.169
 21
15.7841
 31
0.0
  0
LINE
  8
0
 62
     0
 10
226.169
 20
15.7841
 30
0.0
 11
226.169
 21
16.7845
 31
0.0
  0
LINE
  8
0
 62
     0
 10
226.169
 20
16.7845
 30
0.0
 11
212.17
 21
16.7845
 31
0.0
  0
LINE
  8
0
 62
     0
 10
71.676
 20
16.7845
 30
0.0
 11
71.676
 21
15.7841
 31
0.0
  0
LINE
  8
0
 62
     0
 10
71.676
 20
15.7841
 30
0.0
 11
70.8752
 21
15.7841
 31
0.0
  0
LINE
  8
0
 62
     0
 10
70.8752
 20
15.7841
 30
0.0
 11
70.8752
 21
12.6848
 31
0.0
  0
LINE
  8
0
 62
     0
 10
70.8752
 20
12.6848
 30
0.0
 11
71.676
 21
12.6848
 31
0.0
  0
LINE
  8
0
 62
     0
 10
71.676
 20
12.6848
 30
0.0
 11
71.676
 21
6.88329
 31
0.0
  0
LINE
  8
0
 62
     0
 10
71.676
 20
6.88329
 30
0.0
 11
70.8752
 21
6.88329
 31
0.0
  0
LINE
  8
0
 62
     0
 10
70.8752
 20
6.88329
 30
0.0
 11
70.8752
 21
3.78411
 31
0.0
  0
LINE
  8
0
 62
     0
 10
70.8752
 20
3.78411
 30
0.0
 11
71.676
 21
3.78411
 31
0.0
  0
LINE
  8
0
 62
     0
 10
71.676
 20
3.78411
 30
0.0
 11
71.676
 21
2.78364
 31
0.0
  0
LINE
  8
0
 62
     0
 10
71.676
 20
2.78364
 30
0.0
 11
85.6753
 21
2.78364
 31
0.0
  0
LINE
  8
0
 62
     0
 10
85.6753
 20
2.78364
 30
0.0
 11
85.6753
 21
3.78411
 31
0.0
  0
LINE
  8
0
 62
     0
 10
85.6753
 20
3.78411
 30
0.0
 11
86.4761
 21
3.78411
 31
0.0
  0
LINE
  8
0
 62
     0
 10
86.4761
 20
3.78411
 30
0.0
 11
86.4761
 21
6.88329
 31
0.0
  0
LINE
  8
0
 62
     0
 10
86.4761
 20
6.88329
 30
0.0
 11
85.6753
 21
6.88329
 31
0.0
  0
LINE
  8
0
 62
     0
 10
85.6753
 20
6.88329
 30
0.0
 11
85.6753
 21
12.6848
 31
0.0
  0
LINE
  8
0
 62
     0
 10
85.6753
 20
12.6848
 30
0.0
 11
86.4761
 21
12.6848
 31
0.0
  0
LINE
  8
0
 62
     0
 10
86.4761
 20
12.6848
 30
0.0
 11
86.4761
 21
15.7841
 31
0.0
  0
LINE
  8
0
 62
     0
 10
86.4761
 20
15.7841
 30
0.0
 11
85.6753
 21
15.7841
 31
0.0
  0
LINE
  8
0
 62
     0
 10
85.6753
 20
15.7841
 30
0.0
 11
85.6753
 21
16.7845
 31
0.0
  0
LINE
  8
0
 62
     0
 10
85.6753
 20
16.7845
 30
0.0
 11
71.676
 21
16.7845
 31
0.0
  0
LINE
  8
0
 62
     0
 10
47.8621
 20
16.7845
 30
0.0
 11
47.8621
 21
15.7841
 31
0.0
  0
LINE
  8
0
 62
     0
 10
47.8621
 20
15.7841
 30
0.0
 11
47.0627
 21
15.7841
 31
0.0
  0
LINE
  8
0
 62
     0
 10
47.0627
 20
15.7841
 30
0.0
 11
47.0627
 21
12.6848
 31
0.0
  0
LINE
  8
0
 62
     0
 10
47.0627
 20
12.6848
 30
0.0
 11
47.8621
 21
12.6848
 31
0.0
  0
LINE
  8
0
 62
     0
 10
47.8621
 20
12.6848
 30
0.0
 11
47.8621
 21
6.88329
 31
0.0
  0
LINE
  8
0
 62
     0
 10
47.8621
 20
6.88329
 30
0.0
 11
47.0627
 21
6.88329
 31
0.0
  0
LINE
  8
0
 62
     0
 10
47.0627
 20
6.88329
 30
0.0
 11
47.0627
 21
3.78411
 31
0.0
  0
LINE
  8
0
 62
     0
 10
47.0627
 20
3.78411
 30
0.0
 11
47.8621
 21
3.78411
 31
0.0
  0
LINE
  8
0
 62
     0
 10
47.8621
 20
3.78411
 30
0.0
 11
47.8621
 21
2.78364
 31
0.0
  0
LINE
  8
0
 62
     0
 10
47.8621
 20
2.78364
 30
0.0
 11
61.8628
 21
2.78364
 31
0.0
  0
LINE
  8
0
 62
     0
 10
61.8628
 20
2.78364
 30
0.0
 11
61.8628
 21
3.78411
 31
0.0
  0
LINE
  8
0
 62
     0
 10
61.8628
 20
3.78411
 30
0.0
 11
62.6622
 21
3.78411
 31
0.0
  0
LINE
  8
0
 62
     0
 10
62.6622
 20
3.78411
 30
0.0
 11
62.6622
 21
6.88329
 31
0.0
  0
LINE
  8
0
 62
     0
 10
62.6622
 20
6.88329
 30
0.0
 11
61.8628
 21
6.88329
 31
0.0
  0
LINE
  8
0
 62
     0
 10
61.8628
 20
6.88329
 30
0.0
 11
61.8628
 21
12.6848
 31
0.0
  0
LINE
  8
0
 62
     0
 10
61.8628
 20
12.6848
 30
0.0
 11
62.6622
 21
12.6848
 31
0.0
  0
LINE
  8
0
 62
     0
 10
62.6622
 20
12.6848
 30
0.0
 11
62.6622
 21
15.7841
 31
0.0
  0
LINE
  8
0
 62
     0
 10
62.6622
 20
15.7841
 30
0.0
 11
61.8628
 21
15.7841
 31
0.0
  0
LINE
  8
0
 62
     0
 10
61.8628
 20
15.7841
 30
0.0
 11
61.8628
 21
16.7845
 31
0.0
  0
LINE
  8
0
 62
     0
 10
61.8628
 20
16.7845
 30
0.0
 11
47.8621
 21
16.7845
 31
0.0
  0
LINE
  8
0
 62
     0
 10
24.0509
 20
16.7845
 30
0.0
 11
24.0509
 21
15.7841
 31
0.0
  0
LINE
  8
0
 62
     0
 10
24.0509
 20
15.7841
 30
0.0
 11
23.2503
 21
15.7841
 31
0.0
  0
LINE
  8
0
 62
     0
 10
23.2503
 20
15.7841
 30
0.0
 11
23.2503
 21
12.6848
 31
0.0
  0
LINE
  8
0
 62
     0
 10
23.2503
 20
12.6848
 30
0.0
 11
24.0509
 21
12.6848
 31
0.0
  0
LINE
  8
0
 62
     0
 10
24.0509
 20
12.6848
 30
0.0
 11
24.0509
 21
6.88329
 31
0.0
  0
LINE
  8
0
 62
     0
 10
24.0509
 20
6.88329
 30
0.0
 11
23.2503
 21
6.88329
 31
0.0
  0
LINE
  8
0
 62
     0
 10
23.2503
 20
6.88329
 30
0.0
 11
23.2503
 21
3.78411
 31
0.0
  0
LINE
  8
0
 62
     0
 10
23.2503
 20
3.78411
 30
0.0
 11
24.0509
 21
3.78411
 31
0.0
  0
LINE
  8
0
 62
     0
 10
24.0509
 20
3.78411
 30
0.0
 11
24.0509
 21
2.78364
 31
0.0
  0
LINE
  8
0
 62
     0
 10
24.0509
 20
2.78364
 30
0.0
 11
38.0503
 21
2.78364
 31
0.0
  0
LINE
  8
0
 62
     0
 10
38.0503
 20
2.78364
 30
0.0
 11
38.0503
 21
3.78411
 31
0.0
  0
LINE
  8
0
 62
     0
 10
38.0503
 20
3.78411
 30
0.0
 11
38.8511
 21
3.78411
 31
0.0
  0
LINE
  8
0
 62
     0
 10
38.8511
 20
3.78411
 30
0.0
 11
38.8511
 21
6.88329
 31
0.0
  0
LINE
  8
0
 62
     0
 10
38.8511
 20
6.88329
 30
0.0
 11
38.0503
 21
6.88329
 31
0.0
  0
LINE
  8
0
 62
     0
 10
38.0503
 20
6.88329
 30
0.0
 11
38.0503
 21
12.6848
 31
0.0
  0
LINE
  8
0
 62
     0
 10
38.0503
 20
12.6848
 30
0.0
 11
38.8511
 21
12.6848
 31
0.0
  0
LINE
  8
0
 62
     0
 10
38.8511
 20
12.6848
 30
0.0
 11
38.8511
 21
15.7841
 31
0.0
  0
LINE
  8
0
 62
     0
 10
38.8511
 20
15.7841
 30
0.0
 11
38.0503
 21
15.7841
 31
0.0
  0
LINE
  8
0
 62
     0
 10
38.0503
 20
15.7841
 30
0.0
 11
38.0503
 21
16.7845
 31
0.0
  0
LINE
  8
0
 62
     0
 10
38.0503
 20
16.7845
 30
0.0
 11
24.0509
 21
16.7845
 31
0.0
  0
LINE
  8
0
 62
     0
 10
2.61965
 20
16.7845
 30
0.0
 11
2.61965
 21
15.7841
 31
0.0
  0
LINE
  8
0
 62
     0
 10
2.61965
 20
15.7841
 30
0.0
 11
1.81901
 21
15.7841
 31
0.0
  0
LINE
  8
0
 62
     0
 10
1.81901
 20
15.7841
 30
0.0
 11
1.81901
 21
12.6848
 31
0.0
  0
LINE
  8
0
 62
     0
 10
1.81901
 20
12.6848
 30
0.0
 11
2.61965
 21
12.6848
 31
0.0
  0
LINE
  8
0
 62
     0
 10
2.61965
 20
12.6848
 30
0.0
 11
2.61965
 21
6.88329
 31
0.0
  0
LINE
  8
0
 62
     0
 10
2.61965
 20
6.88329
 30
0.0
 11
1.81901
 21
6.88329
 31
0.0
  0
LINE
  8
0
 62
     0
 10
1.81901
 20
6.88329
 30
0.0
 11
1.81901
 21
3.78411
 31
0.0
  0
LINE
  8
0
 62
     0
 10
1.81901
 20
3.78411
 30
0.0
 11
2.61965
 21
3.78411
 31
0.0
  0
LINE
  8
0
 62
     0
 10
2.61965
 20
3.78411
 30
0.0
 11
2.61965
 21
2.78364
 31
0.0
  0
LINE
  8
0
 62
     0
 10
2.61965
 20
2.78364
 30
0.0
 11
16.6192
 21
2.78364
 31
0.0
  0
LINE
  8
0
 62
     0
 10
16.6192
 20
2.78364
 30
0.0
 11
16.6192
 21
3.78411
 31
0.0
  0
LINE
  8
0
 62
     0
 10
16.6192
 20
3.78411
 30
0.0
 11
17.4198
 21
3.78411
 31
0.0
  0
LINE
  8
0
 62
     0
 10
17.4198
 20
3.78411
 30
0.0
 11
17.4198
 21
6.88329
 31
0.0
  0
LINE
  8
0
 62
     0
 10
17.4198
 20
6.88329
 30
0.0
 11
16.6192
 21
6.88329
 31
0.0
  0
LINE
  8
0
 62
     0
 10
16.6192
 20
6.88329
 30
0.0
 11
16.6192
 21
12.6848
 31
0.0
  0
LINE
  8
0
 62
     0
 10
16.6192
 20
12.6848
 30
0.0
 11
17.4198
 21
12.6848
 31
0.0
  0
LINE
  8
0
 62
     0
 10
17.4198
 20
12.6848
 30
0.0
 11
17.4198
 21
15.7841
 31
0.0
  0
LINE
  8
0
 62
     0
 10
17.4198
 20
15.7841
 30
0.0
 11
16.6192
 21
15.7841
 31
0.0
  0
LINE
  8
0
 62
     0
 10
16.6192
 20
15.7841
 30
0.0
 11
16.6192
 21
16.7845
 31
0.0
  0
LINE
  8
0
 62
     0
 10
16.6192
 20
16.7845
 30
0.0
 11
2.61965
 21
16.7845
 31
0.0
  0
LINE
  8
0
 62
     0
 10
33.5759
 20
35.833
 30
0.0
 11
33.5759
 21
34.8327
 31
0.0
  0
LINE
  8
0
 62
     0
 10
33.5759
 20
34.8327
 30
0.0
 11
32.7753
 21
34.8327
 31
0.0
  0
LINE
  8
0
 62
     0
 10
32.7753
 20
34.8327
 30
0.0
 11
32.7753
 21
31.7348
 31
0.0
  0
LINE
  8
0
 62
     0
 10
32.7753
 20
31.7348
 30
0.0
 11
33.5759
 21
31.7348
 31
0.0
  0
LINE
  8
0
 62
     0
 10
33.5759
 20
31.7348
 30
0.0
 11
33.5759
 21
31.1326
 31
0.0
  0
LINE
  8
0
 62
     0
 10
33.5759
 20
31.1326
 30
0.0
 11
32.0504
 21
31.1326
 31
0.0
  0
LINE
  8
0
 62
     0
 10
32.0504
 20
31.1326
 30
0.0
 11
32.0504
 21
34.3628
 31
0.0
  0
LINE
  8
0
 62
     0
 10
32.0504
 20
34.3628
 30
0.0
 11
30.3251
 21
34.3628
 31
0.0
  0
LINE
  8
0
 62
     0
 10
30.3251
 20
34.3628
 30
0.0
 11
30.3251
 21
35.2848
 31
0.0
  0
LINE
  8
0
 62
     0
 10
30.3251
 20
35.2848
 30
0.0
 11
27.0261
 21
35.2848
 31
0.0
  0
LINE
  8
0
 62
     0
 10
27.0261
 20
35.2848
 30
0.0
 11
27.0261
 21
34.3628
 31
0.0
  0
LINE
  8
0
 62
     0
 10
27.0261
 20
34.3628
 30
0.0
 11
25.3008
 21
34.3628
 31
0.0
  0
LINE
  8
0
 62
     0
 10
25.3008
 20
34.3628
 30
0.0
 11
25.3008
 21
31.1326
 31
0.0
  0
LINE
  8
0
 62
     0
 10
25.3008
 20
31.1326
 30
0.0
 11
24.4753
 21
31.1326
 31
0.0
  0
LINE
  8
0
 62
     0
 10
24.4753
 20
31.1326
 30
0.0
 11
24.4753
 21
28.3338
 31
0.0
  0
LINE
  8
0
 62
     0
 10
24.4753
 20
28.3338
 30
0.0
 11
25.3008
 21
28.3338
 31
0.0
  0
LINE
  8
0
 62
     0
 10
25.3008
 20
28.3338
 30
0.0
 11
25.3008
 21
22.0638
 31
0.0
  0
LINE
  8
0
 62
     0
 10
25.3008
 20
22.0638
 30
0.0
 11
27.0261
 21
22.0638
 31
0.0
  0
LINE
  8
0
 62
     0
 10
27.0261
 20
22.0638
 30
0.0
 11
27.0261
 21
21.0826
 31
0.0
  0
LINE
  8
0
 62
     0
 10
27.0261
 20
21.0826
 30
0.0
 11
30.3251
 21
21.0826
 31
0.0
  0
LINE
  8
0
 62
     0
 10
30.3251
 20
21.0826
 30
0.0
 11
30.3251
 21
22.0638
 31
0.0
  0
LINE
  8
0
 62
     0
 10
30.3251
 20
22.0638
 30
0.0
 11
32.0504
 21
22.0638
 31
0.0
  0
LINE
  8
0
 62
     0
 10
32.0504
 20
22.0638
 30
0.0
 11
32.0504
 21
26.5341
 31
0.0
  0
LINE
  8
0
 62
     0
 10
32.0504
 20
26.5341
 30
0.0
 11
33.5759
 21
26.5341
 31
0.0
  0
LINE
  8
0
 62
     0
 10
33.5759
 20
26.5341
 30
0.0
 11
33.5759
 21
25.9333
 31
0.0
  0
LINE
  8
0
 62
     0
 10
33.5759
 20
25.9333
 30
0.0
 11
32.7753
 21
25.9333
 31
0.0
  0
LINE
  8
0
 62
     0
 10
32.7753
 20
25.9333
 30
0.0
 11
32.7753
 21
22.8327
 31
0.0
  0
LINE
  8
0
 62
     0
 10
32.7753
 20
22.8327
 30
0.0
 11
33.5759
 21
22.8327
 31
0.0
  0
LINE
  8
0
 62
     0
 10
33.5759
 20
22.8327
 30
0.0
 11
33.5759
 21
21.8336
 31
0.0
  0
LINE
  8
0
 62
     0
 10
33.5759
 20
21.8336
 30
0.0
 11
47.5753
 21
21.8336
 31
0.0
  0
LINE
  8
0
 62
     0
 10
47.5753
 20
21.8336
 30
0.0
 11
47.5753
 21
22.8327
 31
0.0
  0
LINE
  8
0
 62
     0
 10
47.5753
 20
22.8327
 30
0.0
 11
48.3761
 21
22.8327
 31
0.0
  0
LINE
  8
0
 62
     0
 10
48.3761
 20
22.8327
 30
0.0
 11
48.3761
 21
25.9333
 31
0.0
  0
LINE
  8
0
 62
     0
 10
48.3761
 20
25.9333
 30
0.0
 11
47.5753
 21
25.9333
 31
0.0
  0
LINE
  8
0
 62
     0
 10
47.5753
 20
25.9333
 30
0.0
 11
47.5753
 21
26.5341
 31
0.0
  0
LINE
  8
0
 62
     0
 10
47.5753
 20
26.5341
 30
0.0
 11
49.101
 21
26.5341
 31
0.0
  0
LINE
  8
0
 62
     0
 10
49.101
 20
26.5341
 30
0.0
 11
49.101
 21
22.0638
 31
0.0
  0
LINE
  8
0
 62
     0
 10
49.101
 20
22.0638
 30
0.0
 11
50.8247
 21
22.0638
 31
0.0
  0
LINE
  8
0
 62
     0
 10
50.8247
 20
22.0638
 30
0.0
 11
50.8247
 21
21.0826
 31
0.0
  0
LINE
  8
0
 62
     0
 10
50.8247
 20
21.0826
 30
0.0
 11
54.1253
 21
21.0826
 31
0.0
  0
LINE
  8
0
 62
     0
 10
54.1253
 20
21.0826
 30
0.0
 11
54.1253
 21
22.0638
 31
0.0
  0
LINE
  8
0
 62
     0
 10
54.1253
 20
22.0638
 30
0.0
 11
55.8504
 21
22.0638
 31
0.0
  0
LINE
  8
0
 62
     0
 10
55.8504
 20
22.0638
 30
0.0
 11
55.8504
 21
28.3338
 31
0.0
  0
LINE
  8
0
 62
     0
 10
55.8504
 20
28.3338
 30
0.0
 11
56.6759
 21
28.3338
 31
0.0
  0
LINE
  8
0
 62
     0
 10
56.6759
 20
28.3338
 30
0.0
 11
56.6759
 21
31.1326
 31
0.0
  0
LINE
  8
0
 62
     0
 10
56.6759
 20
31.1326
 30
0.0
 11
55.8504
 21
31.1326
 31
0.0
  0
LINE
  8
0
 62
     0
 10
55.8504
 20
31.1326
 30
0.0
 11
55.8504
 21
34.3628
 31
0.0
  0
LINE
  8
0
 62
     0
 10
55.8504
 20
34.3628
 30
0.0
 11
54.1253
 21
34.3628
 31
0.0
  0
LINE
  8
0
 62
     0
 10
54.1253
 20
34.3628
 30
0.0
 11
54.1253
 21
35.2848
 31
0.0
  0
LINE
  8
0
 62
     0
 10
54.1253
 20
35.2848
 30
0.0
 11
50.8247
 21
35.2848
 31
0.0
  0
LINE
  8
0
 62
     0
 10
50.8247
 20
35.2848
 30
0.0
 11
50.8247
 21
34.3628
 31
0.0
  0
LINE
  8
0
 62
     0
 10
50.8247
 20
34.3628
 30
0.0
 11
49.101
 21
34.3628
 31
0.0
  0
LINE
  8
0
 62
     0
 10
49.101
 20
34.3628
 30
0.0
 11
49.101
 21
31.1326
 31
0.0
  0
LINE
  8
0
 62
     0
 10
49.101
 20
31.1326
 30
0.0
 11
47.5753
 21
31.1326
 31
0.0
  0
LINE
  8
0
 62
     0
 10
47.5753
 20
31.1326
 30
0.0
 11
47.5753
 21
31.7348
 31
0.0
  0
LINE
  8
0
 62
     0
 10
47.5753
 20
31.7348
 30
0.0
 11
48.3761
 21
31.7348
 31
0.0
  0
LINE
  8
0
 62
     0
 10
48.3761
 20
31.7348
 30
0.0
 11
48.3761
 21
34.8327
 31
0.0
  0
LINE
  8
0
 62
     0
 10
48.3761
 20
34.8327
 30
0.0
 11
47.5753
 21
34.8327
 31
0.0
  0
LINE
  8
0
 62
     0
 10
47.5753
 20
34.8327
 30
0.0
 11
47.5753
 21
35.833
 31
0.0
  0
LINE
  8
0
 62
     0
 10
47.5753
 20
35.833
 30
0.0
 11
33.5759
 21
35.833
 31
0.0
  0
LINE
  8
0
 62
     0
 10
288.37
 20
35.833
 30
0.0
 11
288.37
 21
34.8327
 31
0.0
  0
LINE
  8
0
 62
     0
 10
288.37
 20
34.8327
 30
0.0
 11
287.569
 21
34.8327
 31
0.0
  0
LINE
  8
0
 62
     0
 10
287.569
 20
34.8327
 30
0.0
 11
287.569
 21
31.7348
 31
0.0
  0
LINE
  8
0
 62
     0
 10
287.569
 20
31.7348
 30
0.0
 11
288.37
 21
31.7348
 31
0.0
  0
LINE
  8
0
 62
     0
 10
288.37
 20
31.7348
 30
0.0
 11
288.37
 21
25.9333
 31
0.0
  0
LINE
  8
0
 62
     0
 10
288.37
 20
25.9333
 30
0.0
 11
287.569
 21
25.9333
 31
0.0
  0
LINE
  8
0
 62
     0
 10
287.569
 20
25.9333
 30
0.0
 11
287.569
 21
22.8327
 31
0.0
  0
LINE
  8
0
 62
     0
 10
287.569
 20
22.8327
 30
0.0
 11
288.37
 21
22.8327
 31
0.0
  0
LINE
  8
0
 62
     0
 10
288.37
 20
22.8327
 30
0.0
 11
288.37
 21
21.8336
 31
0.0
  0
LINE
  8
0
 62
     0
 10
288.37
 20
21.8336
 30
0.0
 11
302.369
 21
21.8336
 31
0.0
  0
LINE
  8
0
 62
     0
 10
302.369
 20
21.8336
 30
0.0
 11
302.369
 21
22.8327
 31
0.0
  0
LINE
  8
0
 62
     0
 10
302.369
 20
22.8327
 30
0.0
 11
303.17
 21
22.8327
 31
0.0
  0
LINE
  8
0
 62
     0
 10
303.17
 20
22.8327
 30
0.0
 11
303.17
 21
25.9333
 31
0.0
  0
LINE
  8
0
 62
     0
 10
303.17
 20
25.9333
 30
0.0
 11
302.369
 21
25.9333
 31
0.0
  0
LINE
  8
0
 62
     0
 10
302.369
 20
25.9333
 30
0.0
 11
302.369
 21
31.7348
 31
0.0
  0
LINE
  8
0
 62
     0
 10
302.369
 20
31.7348
 30
0.0
 11
303.17
 21
31.7348
 31
0.0
  0
LINE
  8
0
 62
     0
 10
303.17
 20
31.7348
 30
0.0
 11
303.17
 21
34.8327
 31
0.0
  0
LINE
  8
0
 62
     0
 10
303.17
 20
34.8327
 30
0.0
 11
302.369
 21
34.8327
 31
0.0
  0
LINE
  8
0
 62
     0
 10
302.369
 20
34.8327
 30
0.0
 11
302.369
 21
35.833
 31
0.0
  0
LINE
  8
0
 62
     0
 10
302.369
 20
35.833
 30
0.0
 11
288.37
 21
35.833
 31
0.0
  0
LINE
  8
0
 62
     0
 10
269.32
 20
35.833
 30
0.0
 11
269.32
 21
34.8327
 31
0.0
  0
LINE
  8
0
 62
     0
 10
269.32
 20
34.8327
 30
0.0
 11
268.519
 21
34.8327
 31
0.0
  0
LINE
  8
0
 62
     0
 10
268.519
 20
34.8327
 30
0.0
 11
268.519
 21
31.7348
 31
0.0
  0
LINE
  8
0
 62
     0
 10
268.519
 20
31.7348
 30
0.0
 11
269.32
 21
31.7348
 31
0.0
  0
LINE
  8
0
 62
     0
 10
269.32
 20
31.7348
 30
0.0
 11
269.32
 21
25.9333
 31
0.0
  0
LINE
  8
0
 62
     0
 10
269.32
 20
25.9333
 30
0.0
 11
268.519
 21
25.9333
 31
0.0
  0
LINE
  8
0
 62
     0
 10
268.519
 20
25.9333
 30
0.0
 11
268.519
 21
22.8327
 31
0.0
  0
LINE
  8
0
 62
     0
 10
268.519
 20
22.8327
 30
0.0
 11
269.32
 21
22.8327
 31
0.0
  0
LINE
  8
0
 62
     0
 10
269.32
 20
22.8327
 30
0.0
 11
269.32
 21
21.8336
 31
0.0
  0
LINE
  8
0
 62
     0
 10
269.32
 20
21.8336
 30
0.0
 11
283.319
 21
21.8336
 31
0.0
  0
LINE
  8
0
 62
     0
 10
283.319
 20
21.8336
 30
0.0
 11
283.319
 21
22.8327
 31
0.0
  0
LINE
  8
0
 62
     0
 10
283.319
 20
22.8327
 30
0.0
 11
284.12
 21
22.8327
 31
0.0
  0
LINE
  8
0
 62
     0
 10
284.12
 20
22.8327
 30
0.0
 11
284.12
 21
25.9333
 31
0.0
  0
LINE
  8
0
 62
     0
 10
284.12
 20
25.9333
 30
0.0
 11
283.319
 21
25.9333
 31
0.0
  0
LINE
  8
0
 62
     0
 10
283.319
 20
25.9333
 30
0.0
 11
283.319
 21
31.7348
 31
0.0
  0
LINE
  8
0
 62
     0
 10
283.319
 20
31.7348
 30
0.0
 11
284.12
 21
31.7348
 31
0.0
  0
LINE
  8
0
 62
     0
 10
284.12
 20
31.7348
 30
0.0
 11
284.12
 21
34.8327
 31
0.0
  0
LINE
  8
0
 62
     0
 10
284.12
 20
34.8327
 30
0.0
 11
283.319
 21
34.8327
 31
0.0
  0
LINE
  8
0
 62
     0
 10
283.319
 20
34.8327
 30
0.0
 11
283.319
 21
35.833
 31
0.0
  0
LINE
  8
0
 62
     0
 10
283.319
 20
35.833
 30
0.0
 11
269.32
 21
35.833
 31
0.0
  0
LINE
  8
0
 62
     0
 10
243.126
 20
35.833
 30
0.0
 11
243.126
 21
34.8327
 31
0.0
  0
LINE
  8
0
 62
     0
 10
243.126
 20
34.8327
 30
0.0
 11
242.325
 21
34.8327
 31
0.0
  0
LINE
  8
0
 62
     0
 10
242.325
 20
34.8327
 30
0.0
 11
242.325
 21
31.7348
 31
0.0
  0
LINE
  8
0
 62
     0
 10
242.325
 20
31.7348
 30
0.0
 11
243.126
 21
31.7348
 31
0.0
  0
LINE
  8
0
 62
     0
 10
243.126
 20
31.7348
 30
0.0
 11
243.126
 21
25.9333
 31
0.0
  0
LINE
  8
0
 62
     0
 10
243.126
 20
25.9333
 30
0.0
 11
242.325
 21
25.9333
 31
0.0
  0
LINE
  8
0
 62
     0
 10
242.325
 20
25.9333
 30
0.0
 11
242.325
 21
22.8327
 31
0.0
  0
LINE
  8
0
 62
     0
 10
242.325
 20
22.8327
 30
0.0
 11
243.126
 21
22.8327
 31
0.0
  0
LINE
  8
0
 62
     0
 10
243.126
 20
22.8327
 30
0.0
 11
243.126
 21
21.8336
 31
0.0
  0
LINE
  8
0
 62
     0
 10
243.126
 20
21.8336
 30
0.0
 11
257.125
 21
21.8336
 31
0.0
  0
LINE
  8
0
 62
     0
 10
257.125
 20
21.8336
 30
0.0
 11
257.125
 21
22.8327
 31
0.0
  0
LINE
  8
0
 62
     0
 10
257.125
 20
22.8327
 30
0.0
 11
257.926
 21
22.8327
 31
0.0
  0
LINE
  8
0
 62
     0
 10
257.926
 20
22.8327
 30
0.0
 11
257.926
 21
25.9333
 31
0.0
  0
LINE
  8
0
 62
     0
 10
257.926
 20
25.9333
 30
0.0
 11
257.125
 21
25.9333
 31
0.0
  0
LINE
  8
0
 62
     0
 10
257.125
 20
25.9333
 30
0.0
 11
257.125
 21
31.7348
 31
0.0
  0
LINE
  8
0
 62
     0
 10
257.125
 20
31.7348
 30
0.0
 11
257.926
 21
31.7348
 31
0.0
  0
LINE
  8
0
 62
     0
 10
257.926
 20
31.7348
 30
0.0
 11
257.926
 21
34.8327
 31
0.0
  0
LINE
  8
0
 62
     0
 10
257.926
 20
34.8327
 30
0.0
 11
257.125
 21
34.8327
 31
0.0
  0
LINE
  8
0
 62
     0
 10
257.125
 20
34.8327
 30
0.0
 11
257.125
 21
35.833
 31
0.0
  0
LINE
  8
0
 62
     0
 10
257.125
 20
35.833
 30
0.0
 11
243.126
 21
35.833
 31
0.0
  0
LINE
  8
0
 62
     0
 10
216.932
 20
35.833
 30
0.0
 11
216.932
 21
34.8327
 31
0.0
  0
LINE
  8
0
 62
     0
 10
216.932
 20
34.8327
 30
0.0
 11
216.131
 21
34.8327
 31
0.0
  0
LINE
  8
0
 62
     0
 10
216.131
 20
34.8327
 30
0.0
 11
216.131
 21
31.7348
 31
0.0
  0
LINE
  8
0
 62
     0
 10
216.131
 20
31.7348
 30
0.0
 11
216.932
 21
31.7348
 31
0.0
  0
LINE
  8
0
 62
     0
 10
216.932
 20
31.7348
 30
0.0
 11
216.932
 21
25.9333
 31
0.0
  0
LINE
  8
0
 62
     0
 10
216.932
 20
25.9333
 30
0.0
 11
216.131
 21
25.9333
 31
0.0
  0
LINE
  8
0
 62
     0
 10
216.131
 20
25.9333
 30
0.0
 11
216.131
 21
22.8327
 31
0.0
  0
LINE
  8
0
 62
     0
 10
216.131
 20
22.8327
 30
0.0
 11
216.932
 21
22.8327
 31
0.0
  0
LINE
  8
0
 62
     0
 10
216.932
 20
22.8327
 30
0.0
 11
216.932
 21
21.8336
 31
0.0
  0
LINE
  8
0
 62
     0
 10
216.932
 20
21.8336
 30
0.0
 11
230.932
 21
21.8336
 31
0.0
  0
LINE
  8
0
 62
     0
 10
230.932
 20
21.8336
 30
0.0
 11
230.932
 21
22.8327
 31
0.0
  0
LINE
  8
0
 62
     0
 10
230.932
 20
22.8327
 30
0.0
 11
231.731
 21
22.8327
 31
0.0
  0
LINE
  8
0
 62
     0
 10
231.731
 20
22.8327
 30
0.0
 11
231.731
 21
25.9333
 31
0.0
  0
LINE
  8
0
 62
     0
 10
231.731
 20
25.9333
 30
0.0
 11
230.932
 21
25.9333
 31
0.0
  0
LINE
  8
0
 62
     0
 10
230.932
 20
25.9333
 30
0.0
 11
230.932
 21
31.7348
 31
0.0
  0
LINE
  8
0
 62
     0
 10
230.932
 20
31.7348
 30
0.0
 11
231.731
 21
31.7348
 31
0.0
  0
LINE
  8
0
 62
     0
 10
231.731
 20
31.7348
 30
0.0
 11
231.731
 21
34.8327
 31
0.0
  0
LINE
  8
0
 62
     0
 10
231.731
 20
34.8327
 30
0.0
 11
230.932
 21
34.8327
 31
0.0
  0
LINE
  8
0
 62
     0
 10
230.932
 20
34.8327
 30
0.0
 11
230.932
 21
35.833
 31
0.0
  0
LINE
  8
0
 62
     0
 10
230.932
 20
35.833
 30
0.0
 11
216.932
 21
35.833
 31
0.0
  0
LINE
  8
0
 62
     0
 10
197.882
 20
35.833
 30
0.0
 11
197.882
 21
34.8327
 31
0.0
  0
LINE
  8
0
 62
     0
 10
197.882
 20
34.8327
 30
0.0
 11
197.081
 21
34.8327
 31
0.0
  0
LINE
  8
0
 62
     0
 10
197.081
 20
34.8327
 30
0.0
 11
197.081
 21
31.7348
 31
0.0
  0
LINE
  8
0
 62
     0
 10
197.081
 20
31.7348
 30
0.0
 11
197.882
 21
31.7348
 31
0.0
  0
LINE
  8
0
 62
     0
 10
197.882
 20
31.7348
 30
0.0
 11
197.882
 21
25.9333
 31
0.0
  0
LINE
  8
0
 62
     0
 10
197.882
 20
25.9333
 30
0.0
 11
197.081
 21
25.9333
 31
0.0
  0
LINE
  8
0
 62
     0
 10
197.081
 20
25.9333
 30
0.0
 11
197.081
 21
22.8327
 31
0.0
  0
LINE
  8
0
 62
     0
 10
197.081
 20
22.8327
 30
0.0
 11
197.882
 21
22.8327
 31
0.0
  0
LINE
  8
0
 62
     0
 10
197.882
 20
22.8327
 30
0.0
 11
197.882
 21
21.8336
 31
0.0
  0
LINE
  8
0
 62
     0
 10
197.882
 20
21.8336
 30
0.0
 11
211.882
 21
21.8336
 31
0.0
  0
LINE
  8
0
 62
     0
 10
211.882
 20
21.8336
 30
0.0
 11
211.882
 21
22.8327
 31
0.0
  0
LINE
  8
0
 62
     0
 10
211.882
 20
22.8327
 30
0.0
 11
212.681
 21
22.8327
 31
0.0
  0
LINE
  8
0
 62
     0
 10
212.681
 20
22.8327
 30
0.0
 11
212.681
 21
25.9333
 31
0.0
  0
LINE
  8
0
 62
     0
 10
212.681
 20
25.9333
 30
0.0
 11
211.882
 21
25.9333
 31
0.0
  0
LINE
  8
0
 62
     0
 10
211.882
 20
25.9333
 30
0.0
 11
211.882
 21
31.7348
 31
0.0
  0
LINE
  8
0
 62
     0
 10
211.882
 20
31.7348
 30
0.0
 11
212.681
 21
31.7348
 31
0.0
  0
LINE
  8
0
 62
     0
 10
212.681
 20
31.7348
 30
0.0
 11
212.681
 21
34.8327
 31
0.0
  0
LINE
  8
0
 62
     0
 10
212.681
 20
34.8327
 30
0.0
 11
211.882
 21
34.8327
 31
0.0
  0
LINE
  8
0
 62
     0
 10
211.882
 20
34.8327
 30
0.0
 11
211.882
 21
35.833
 31
0.0
  0
LINE
  8
0
 62
     0
 10
211.882
 20
35.833
 30
0.0
 11
197.882
 21
35.833
 31
0.0
  0
LINE
  8
0
 62
     0
 10
178.832
 20
35.833
 30
0.0
 11
178.832
 21
34.8327
 31
0.0
  0
LINE
  8
0
 62
     0
 10
178.832
 20
34.8327
 30
0.0
 11
178.031
 21
34.8327
 31
0.0
  0
LINE
  8
0
 62
     0
 10
178.031
 20
34.8327
 30
0.0
 11
178.031
 21
31.7348
 31
0.0
  0
LINE
  8
0
 62
     0
 10
178.031
 20
31.7348
 30
0.0
 11
178.832
 21
31.7348
 31
0.0
  0
LINE
  8
0
 62
     0
 10
178.832
 20
31.7348
 30
0.0
 11
178.832
 21
25.9333
 31
0.0
  0
LINE
  8
0
 62
     0
 10
178.832
 20
25.9333
 30
0.0
 11
178.031
 21
25.9333
 31
0.0
  0
LINE
  8
0
 62
     0
 10
178.031
 20
25.9333
 30
0.0
 11
178.031
 21
22.8327
 31
0.0
  0
LINE
  8
0
 62
     0
 10
178.031
 20
22.8327
 30
0.0
 11
178.832
 21
22.8327
 31
0.0
  0
LINE
  8
0
 62
     0
 10
178.832
 20
22.8327
 30
0.0
 11
178.832
 21
21.8336
 31
0.0
  0
LINE
  8
0
 62
     0
 10
178.832
 20
21.8336
 30
0.0
 11
192.832
 21
21.8336
 31
0.0
  0
LINE
  8
0
 62
     0
 10
192.832
 20
21.8336
 30
0.0
 11
192.832
 21
22.8327
 31
0.0
  0
LINE
  8
0
 62
     0
 10
192.832
 20
22.8327
 30
0.0
 11
193.631
 21
22.8327
 31
0.0
  0
LINE
  8
0
 62
     0
 10
193.631
 20
22.8327
 30
0.0
 11
193.631
 21
25.9333
 31
0.0
  0
LINE
  8
0
 62
     0
 10
193.631
 20
25.9333
 30
0.0
 11
192.832
 21
25.9333
 31
0.0
  0
LINE
  8
0
 62
     0
 10
192.832
 20
25.9333
 30
0.0
 11
192.832
 21
31.7348
 31
0.0
  0
LINE
  8
0
 62
     0
 10
192.832
 20
31.7348
 30
0.0
 11
193.631
 21
31.7348
 31
0.0
  0
LINE
  8
0
 62
     0
 10
193.631
 20
31.7348
 30
0.0
 11
193.631
 21
34.8327
 31
0.0
  0
LINE
  8
0
 62
     0
 10
193.631
 20
34.8327
 30
0.0
 11
192.832
 21
34.8327
 31
0.0
  0
LINE
  8
0
 62
     0
 10
192.832
 20
34.8327
 30
0.0
 11
192.832
 21
35.833
 31
0.0
  0
LINE
  8
0
 62
     0
 10
192.832
 20
35.833
 30
0.0
 11
178.832
 21
35.833
 31
0.0
  0
LINE
  8
0
 62
     0
 10
159.782
 20
35.833
 30
0.0
 11
159.782
 21
34.8327
 31
0.0
  0
LINE
  8
0
 62
     0
 10
159.782
 20
34.8327
 30
0.0
 11
158.981
 21
34.8327
 31
0.0
  0
LINE
  8
0
 62
     0
 10
158.981
 20
34.8327
 30
0.0
 11
158.981
 21
31.7348
 31
0.0
  0
LINE
  8
0
 62
     0
 10
158.981
 20
31.7348
 30
0.0
 11
159.782
 21
31.7348
 31
0.0
  0
LINE
  8
0
 62
     0
 10
159.782
 20
31.7348
 30
0.0
 11
159.782
 21
25.9333
 31
0.0
  0
LINE
  8
0
 62
     0
 10
159.782
 20
25.9333
 30
0.0
 11
158.981
 21
25.9333
 31
0.0
  0
LINE
  8
0
 62
     0
 10
158.981
 20
25.9333
 30
0.0
 11
158.981
 21
22.8327
 31
0.0
  0
LINE
  8
0
 62
     0
 10
158.981
 20
22.8327
 30
0.0
 11
159.782
 21
22.8327
 31
0.0
  0
LINE
  8
0
 62
     0
 10
159.782
 20
22.8327
 30
0.0
 11
159.782
 21
21.8336
 31
0.0
  0
LINE
  8
0
 62
     0
 10
159.782
 20
21.8336
 30
0.0
 11
173.782
 21
21.8336
 31
0.0
  0
LINE
  8
0
 62
     0
 10
173.782
 20
21.8336
 30
0.0
 11
173.782
 21
22.8327
 31
0.0
  0
LINE
  8
0
 62
     0
 10
173.782
 20
22.8327
 30
0.0
 11
174.581
 21
22.8327
 31
0.0
  0
LINE
  8
0
 62
     0
 10
174.581
 20
22.8327
 30
0.0
 11
174.581
 21
25.9333
 31
0.0
  0
LINE
  8
0
 62
     0
 10
174.581
 20
25.9333
 30
0.0
 11
173.782
 21
25.9333
 31
0.0
  0
LINE
  8
0
 62
     0
 10
173.782
 20
25.9333
 30
0.0
 11
173.782
 21
31.7348
 31
0.0
  0
LINE
  8
0
 62
     0
 10
173.782
 20
31.7348
 30
0.0
 11
174.581
 21
31.7348
 31
0.0
  0
LINE
  8
0
 62
     0
 10
174.581
 20
31.7348
 30
0.0
 11
174.581
 21
34.8327
 31
0.0
  0
LINE
  8
0
 62
     0
 10
174.581
 20
34.8327
 30
0.0
 11
173.782
 21
34.8327
 31
0.0
  0
LINE
  8
0
 62
     0
 10
173.782
 20
34.8327
 30
0.0
 11
173.782
 21
35.833
 31
0.0
  0
LINE
  8
0
 62
     0
 10
173.782
 20
35.833
 30
0.0
 11
159.782
 21
35.833
 31
0.0
  0
LINE
  8
0
 62
     0
 10
140.732
 20
35.833
 30
0.0
 11
140.732
 21
34.8327
 31
0.0
  0
LINE
  8
0
 62
     0
 10
140.732
 20
34.8327
 30
0.0
 11
139.931
 21
34.8327
 31
0.0
  0
LINE
  8
0
 62
     0
 10
139.931
 20
34.8327
 30
0.0
 11
139.931
 21
31.7348
 31
0.0
  0
LINE
  8
0
 62
     0
 10
139.931
 20
31.7348
 30
0.0
 11
140.732
 21
31.7348
 31
0.0
  0
LINE
  8
0
 62
     0
 10
140.732
 20
31.7348
 30
0.0
 11
140.732
 21
25.9333
 31
0.0
  0
LINE
  8
0
 62
     0
 10
140.732
 20
25.9333
 30
0.0
 11
139.931
 21
25.9333
 31
0.0
  0
LINE
  8
0
 62
     0
 10
139.931
 20
25.9333
 30
0.0
 11
139.931
 21
22.8327
 31
0.0
  0
LINE
  8
0
 62
     0
 10
139.931
 20
22.8327
 30
0.0
 11
140.732
 21
22.8327
 31
0.0
  0
LINE
  8
0
 62
     0
 10
140.732
 20
22.8327
 30
0.0
 11
140.732
 21
21.8336
 31
0.0
  0
LINE
  8
0
 62
     0
 10
140.732
 20
21.8336
 30
0.0
 11
154.732
 21
21.8336
 31
0.0
  0
LINE
  8
0
 62
     0
 10
154.732
 20
21.8336
 30
0.0
 11
154.732
 21
22.8327
 31
0.0
  0
LINE
  8
0
 62
     0
 10
154.732
 20
22.8327
 30
0.0
 11
155.531
 21
22.8327
 31
0.0
  0
LINE
  8
0
 62
     0
 10
155.531
 20
22.8327
 30
0.0
 11
155.531
 21
25.9333
 31
0.0
  0
LINE
  8
0
 62
     0
 10
155.531
 20
25.9333
 30
0.0
 11
154.732
 21
25.9333
 31
0.0
  0
LINE
  8
0
 62
     0
 10
154.732
 20
25.9333
 30
0.0
 11
154.732
 21
31.7348
 31
0.0
  0
LINE
  8
0
 62
     0
 10
154.732
 20
31.7348
 30
0.0
 11
155.531
 21
31.7348
 31
0.0
  0
LINE
  8
0
 62
     0
 10
155.531
 20
31.7348
 30
0.0
 11
155.531
 21
34.8327
 31
0.0
  0
LINE
  8
0
 62
     0
 10
155.531
 20
34.8327
 30
0.0
 11
154.732
 21
34.8327
 31
0.0
  0
LINE
  8
0
 62
     0
 10
154.732
 20
34.8327
 30
0.0
 11
154.732
 21
35.833
 31
0.0
  0
LINE
  8
0
 62
     0
 10
154.732
 20
35.833
 30
0.0
 11
140.732
 21
35.833
 31
0.0
  0
LINE
  8
0
 62
     0
 10
121.682
 20
35.833
 30
0.0
 11
121.682
 21
34.8327
 31
0.0
  0
LINE
  8
0
 62
     0
 10
121.682
 20
34.8327
 30
0.0
 11
120.881
 21
34.8327
 31
0.0
  0
LINE
  8
0
 62
     0
 10
120.881
 20
34.8327
 30
0.0
 11
120.881
 21
31.7348
 31
0.0
  0
LINE
  8
0
 62
     0
 10
120.881
 20
31.7348
 30
0.0
 11
121.682
 21
31.7348
 31
0.0
  0
LINE
  8
0
 62
     0
 10
121.682
 20
31.7348
 30
0.0
 11
121.682
 21
25.9333
 31
0.0
  0
LINE
  8
0
 62
     0
 10
121.682
 20
25.9333
 30
0.0
 11
120.881
 21
25.9333
 31
0.0
  0
LINE
  8
0
 62
     0
 10
120.881
 20
25.9333
 30
0.0
 11
120.881
 21
22.8327
 31
0.0
  0
LINE
  8
0
 62
     0
 10
120.881
 20
22.8327
 30
0.0
 11
121.682
 21
22.8327
 31
0.0
  0
LINE
  8
0
 62
     0
 10
121.682
 20
22.8327
 30
0.0
 11
121.682
 21
21.8336
 31
0.0
  0
LINE
  8
0
 62
     0
 10
121.682
 20
21.8336
 30
0.0
 11
135.682
 21
21.8336
 31
0.0
  0
LINE
  8
0
 62
     0
 10
135.682
 20
21.8336
 30
0.0
 11
135.682
 21
22.8327
 31
0.0
  0
LINE
  8
0
 62
     0
 10
135.682
 20
22.8327
 30
0.0
 11
136.481
 21
22.8327
 31
0.0
  0
LINE
  8
0
 62
     0
 10
136.481
 20
22.8327
 30
0.0
 11
136.481
 21
25.9333
 31
0.0
  0
LINE
  8
0
 62
     0
 10
136.481
 20
25.9333
 30
0.0
 11
135.682
 21
25.9333
 31
0.0
  0
LINE
  8
0
 62
     0
 10
135.682
 20
25.9333
 30
0.0
 11
135.682
 21
31.7348
 31
0.0
  0
LINE
  8
0
 62
     0
 10
135.682
 20
31.7348
 30
0.0
 11
136.481
 21
31.7348
 31
0.0
  0
LINE
  8
0
 62
     0
 10
136.481
 20
31.7348
 30
0.0
 11
136.481
 21
34.8327
 31
0.0
  0
LINE
  8
0
 62
     0
 10
136.481
 20
34.8327
 30
0.0
 11
135.682
 21
34.8327
 31
0.0
  0
LINE
  8
0
 62
     0
 10
135.682
 20
34.8327
 30
0.0
 11
135.682
 21
35.833
 31
0.0
  0
LINE
  8
0
 62
     0
 10
135.682
 20
35.833
 30
0.0
 11
121.682
 21
35.833
 31
0.0
  0
LINE
  8
0
 62
     0
 10
102.632
 20
35.833
 30
0.0
 11
102.632
 21
34.8327
 31
0.0
  0
LINE
  8
0
 62
     0
 10
102.632
 20
34.8327
 30
0.0
 11
101.831
 21
34.8327
 31
0.0
  0
LINE
  8
0
 62
     0
 10
101.831
 20
34.8327
 30
0.0
 11
101.831
 21
31.7348
 31
0.0
  0
LINE
  8
0
 62
     0
 10
101.831
 20
31.7348
 30
0.0
 11
102.632
 21
31.7348
 31
0.0
  0
LINE
  8
0
 62
     0
 10
102.632
 20
31.7348
 30
0.0
 11
102.632
 21
25.9333
 31
0.0
  0
LINE
  8
0
 62
     0
 10
102.632
 20
25.9333
 30
0.0
 11
101.831
 21
25.9333
 31
0.0
  0
LINE
  8
0
 62
     0
 10
101.831
 20
25.9333
 30
0.0
 11
101.831
 21
22.8327
 31
0.0
  0
LINE
  8
0
 62
     0
 10
101.831
 20
22.8327
 30
0.0
 11
102.632
 21
22.8327
 31
0.0
  0
LINE
  8
0
 62
     0
 10
102.632
 20
22.8327
 30
0.0
 11
102.632
 21
21.8336
 31
0.0
  0
LINE
  8
0
 62
     0
 10
102.632
 20
21.8336
 30
0.0
 11
116.632
 21
21.8336
 31
0.0
  0
LINE
  8
0
 62
     0
 10
116.632
 20
21.8336
 30
0.0
 11
116.632
 21
22.8327
 31
0.0
  0
LINE
  8
0
 62
     0
 10
116.632
 20
22.8327
 30
0.0
 11
117.431
 21
22.8327
 31
0.0
  0
LINE
  8
0
 62
     0
 10
117.431
 20
22.8327
 30
0.0
 11
117.431
 21
25.9333
 31
0.0
  0
LINE
  8
0
 62
     0
 10
117.431
 20
25.9333
 30
0.0
 11
116.632
 21
25.9333
 31
0.0
  0
LINE
  8
0
 62
     0
 10
116.632
 20
25.9333
 30
0.0
 11
116.632
 21
31.7348
 31
0.0
  0
LINE
  8
0
 62
     0
 10
116.632
 20
31.7348
 30
0.0
 11
117.431
 21
31.7348
 31
0.0
  0
LINE
  8
0
 62
     0
 10
117.431
 20
31.7348
 30
0.0
 11
117.431
 21
34.8327
 31
0.0
  0
LINE
  8
0
 62
     0
 10
117.431
 20
34.8327
 30
0.0
 11
116.632
 21
34.8327
 31
0.0
  0
LINE
  8
0
 62
     0
 10
116.632
 20
34.8327
 30
0.0
 11
116.632
 21
35.833
 31
0.0
  0
LINE
  8
0
 62
     0
 10
116.632
 20
35.833
 30
0.0
 11
102.632
 21
35.833
 31
0.0
  0
LINE
  8
0
 62
     0
 10
83.5822
 20
35.833
 30
0.0
 11
83.5822
 21
34.8327
 31
0.0
  0
LINE
  8
0
 62
     0
 10
83.5822
 20
34.8327
 30
0.0
 11
82.7814
 21
34.8327
 31
0.0
  0
LINE
  8
0
 62
     0
 10
82.7814
 20
34.8327
 30
0.0
 11
82.7814
 21
31.7348
 31
0.0
  0
LINE
  8
0
 62
     0
 10
82.7814
 20
31.7348
 30
0.0
 11
83.5822
 21
31.7348
 31
0.0
  0
LINE
  8
0
 62
     0
 10
83.5822
 20
31.7348
 30
0.0
 11
83.5822
 21
25.9333
 31
0.0
  0
LINE
  8
0
 62
     0
 10
83.5822
 20
25.9333
 30
0.0
 11
82.7814
 21
25.9333
 31
0.0
  0
LINE
  8
0
 62
     0
 10
82.7814
 20
25.9333
 30
0.0
 11
82.7814
 21
22.8327
 31
0.0
  0
LINE
  8
0
 62
     0
 10
82.7814
 20
22.8327
 30
0.0
 11
83.5822
 21
22.8327
 31
0.0
  0
LINE
  8
0
 62
     0
 10
83.5822
 20
22.8327
 30
0.0
 11
83.5822
 21
21.8336
 31
0.0
  0
LINE
  8
0
 62
     0
 10
83.5822
 20
21.8336
 30
0.0
 11
97.5815
 21
21.8336
 31
0.0
  0
LINE
  8
0
 62
     0
 10
97.5815
 20
21.8336
 30
0.0
 11
97.5815
 21
22.8327
 31
0.0
  0
LINE
  8
0
 62
     0
 10
97.5815
 20
22.8327
 30
0.0
 11
98.3809
 21
22.8327
 31
0.0
  0
LINE
  8
0
 62
     0
 10
98.3809
 20
22.8327
 30
0.0
 11
98.3809
 21
25.9333
 31
0.0
  0
LINE
  8
0
 62
     0
 10
98.3809
 20
25.9333
 30
0.0
 11
97.5815
 21
25.9333
 31
0.0
  0
LINE
  8
0
 62
     0
 10
97.5815
 20
25.9333
 30
0.0
 11
97.5815
 21
31.7348
 31
0.0
  0
LINE
  8
0
 62
     0
 10
97.5815
 20
31.7348
 30
0.0
 11
98.3809
 21
31.7348
 31
0.0
  0
LINE
  8
0
 62
     0
 10
98.3809
 20
31.7348
 30
0.0
 11
98.3809
 21
34.8327
 31
0.0
  0
LINE
  8
0
 62
     0
 10
98.3809
 20
34.8327
 30
0.0
 11
97.5815
 21
34.8327
 31
0.0
  0
LINE
  8
0
 62
     0
 10
97.5815
 20
34.8327
 30
0.0
 11
97.5815
 21
35.833
 31
0.0
  0
LINE
  8
0
 62
     0
 10
97.5815
 20
35.833
 30
0.0
 11
83.5822
 21
35.833
 31
0.0
  0
LINE
  8
0
 62
     0
 10
64.5322
 20
35.833
 30
0.0
 11
64.5322
 21
34.8327
 31
0.0
  0
LINE
  8
0
 62
     0
 10
64.5322
 20
34.8327
 30
0.0
 11
63.7314
 21
34.8327
 31
0.0
  0
LINE
  8
0
 62
     0
 10
63.7314
 20
34.8327
 30
0.0
 11
63.7314
 21
31.7348
 31
0.0
  0
LINE
  8
0
 62
     0
 10
63.7314
 20
31.7348
 30
0.0
 11
64.5322
 21
31.7348
 31
0.0
  0
LINE
  8
0
 62
     0
 10
64.5322
 20
31.7348
 30
0.0
 11
64.5322
 21
25.9333
 31
0.0
  0
LINE
  8
0
 62
     0
 10
64.5322
 20
25.9333
 30
0.0
 11
63.7314
 21
25.9333
 31
0.0
  0
LINE
  8
0
 62
     0
 10
63.7314
 20
25.9333
 30
0.0
 11
63.7314
 21
22.8327
 31
0.0
  0
LINE
  8
0
 62
     0
 10
63.7314
 20
22.8327
 30
0.0
 11
64.5322
 21
22.8327
 31
0.0
  0
LINE
  8
0
 62
     0
 10
64.5322
 20
22.8327
 30
0.0
 11
64.5322
 21
21.8336
 31
0.0
  0
LINE
  8
0
 62
     0
 10
64.5322
 20
21.8336
 30
0.0
 11
78.5315
 21
21.8336
 31
0.0
  0
LINE
  8
0
 62
     0
 10
78.5315
 20
21.8336
 30
0.0
 11
78.5315
 21
22.8327
 31
0.0
  0
LINE
  8
0
 62
     0
 10
78.5315
 20
22.8327
 30
0.0
 11
79.3309
 21
22.8327
 31
0.0
  0
LINE
  8
0
 62
     0
 10
79.3309
 20
22.8327
 30
0.0
 11
79.3309
 21
25.9333
 31
0.0
  0
LINE
  8
0
 62
     0
 10
79.3309
 20
25.9333
 30
0.0
 11
78.5315
 21
25.9333
 31
0.0
  0
LINE
  8
0
 62
     0
 10
78.5315
 20
25.9333
 30
0.0
 11
78.5315
 21
31.7348
 31
0.0
  0
LINE
  8
0
 62
     0
 10
78.5315
 20
31.7348
 30
0.0
 11
79.3309
 21
31.7348
 31
0.0
  0
LINE
  8
0
 62
     0
 10
79.3309
 20
31.7348
 30
0.0
 11
79.3309
 21
34.8327
 31
0.0
  0
LINE
  8
0
 62
     0
 10
79.3309
 20
34.8327
 30
0.0
 11
78.5315
 21
34.8327
 31
0.0
  0
LINE
  8
0
 62
     0
 10
78.5315
 20
34.8327
 30
0.0
 11
78.5315
 21
35.833
 31
0.0
  0
LINE
  8
0
 62
     0
 10
78.5315
 20
35.833
 30
0.0
 11
64.5322
 21
35.833
 31
0.0
  0
LINE
  8
0
 62
     0
 10
2.61965
 20
35.833
 30
0.0
 11
2.61965
 21
34.8327
 31
0.0
  0
LINE
  8
0
 62
     0
 10
2.61965
 20
34.8327
 30
0.0
 11
1.81901
 21
34.8327
 31
0.0
  0
LINE
  8
0
 62
     0
 10
1.81901
 20
34.8327
 30
0.0
 11
1.81901
 21
31.7348
 31
0.0
  0
LINE
  8
0
 62
     0
 10
1.81901
 20
31.7348
 30
0.0
 11
2.61965
 21
31.7348
 31
0.0
  0
LINE
  8
0
 62
     0
 10
2.61965
 20
31.7348
 30
0.0
 11
2.61965
 21
25.9333
 31
0.0
  0
LINE
  8
0
 62
     0
 10
2.61965
 20
25.9333
 30
0.0
 11
1.81901
 21
25.9333
 31
0.0
  0
LINE
  8
0
 62
     0
 10
1.81901
 20
25.9333
 30
0.0
 11
1.81901
 21
22.8327
 31
0.0
  0
LINE
  8
0
 62
     0
 10
1.81901
 20
22.8327
 30
0.0
 11
2.61965
 21
22.8327
 31
0.0
  0
LINE
  8
0
 62
     0
 10
2.61965
 20
22.8327
 30
0.0
 11
2.61965
 21
21.8336
 31
0.0
  0
LINE
  8
0
 62
     0
 10
2.61965
 20
21.8336
 30
0.0
 11
16.6192
 21
21.8336
 31
0.0
  0
LINE
  8
0
 62
     0
 10
16.6192
 20
21.8336
 30
0.0
 11
16.6192
 21
22.8327
 31
0.0
  0
LINE
  8
0
 62
     0
 10
16.6192
 20
22.8327
 30
0.0
 11
17.4198
 21
22.8327
 31
0.0
  0
LINE
  8
0
 62
     0
 10
17.4198
 20
22.8327
 30
0.0
 11
17.4198
 21
25.9333
 31
0.0
  0
LINE
  8
0
 62
     0
 10
17.4198
 20
25.9333
 30
0.0
 11
16.6192
 21
25.9333
 31
0.0
  0
LINE
  8
0
 62
     0
 10
16.6192
 20
25.9333
 30
0.0
 11
16.6192
 21
31.7348
 31
0.0
  0
LINE
  8
0
 62
     0
 10
16.6192
 20
31.7348
 30
0.0
 11
17.4198
 21
31.7348
 31
0.0
  0
LINE
  8
0
 62
     0
 10
17.4198
 20
31.7348
 30
0.0
 11
17.4198
 21
34.8327
 31
0.0
  0
LINE
  8
0
 62
     0
 10
17.4198
 20
34.8327
 30
0.0
 11
16.6192
 21
34.8327
 31
0.0
  0
LINE
  8
0
 62
     0
 10
16.6192
 20
34.8327
 30
0.0
 11
16.6192
 21
35.833
 31
0.0
  0
LINE
  8
0
 62
     0
 10
16.6192
 20
35.833
 30
0.0
 11
2.61965
 21
35.833
 31
0.0
  0
LINE
  8
0
 62
     0
 10
276.462
 20
54.8831
 30
0.0
 11
276.462
 21
53.8826
 31
0.0
  0
LINE
  8
0
 62
     0
 10
276.462
 20
53.8826
 30
0.0
 11
275.663
 21
53.8826
 31
0.0
  0
LINE
  8
0
 62
     0
 10
275.663
 20
53.8826
 30
0.0
 11
275.663
 21
50.7848
 31
0.0
  0
LINE
  8
0
 62
     0
 10
275.663
 20
50.7848
 30
0.0
 11
276.462
 21
50.7848
 31
0.0
  0
LINE
  8
0
 62
     0
 10
276.462
 20
50.7848
 30
0.0
 11
276.462
 21
50.1826
 31
0.0
  0
LINE
  8
0
 62
     0
 10
276.462
 20
50.1826
 30
0.0
 11
274.938
 21
50.1826
 31
0.0
  0
LINE
  8
0
 62
     0
 10
274.938
 20
50.1826
 30
0.0
 11
274.938
 21
53.4127
 31
0.0
  0
LINE
  8
0
 62
     0
 10
274.938
 20
53.4127
 30
0.0
 11
273.213
 21
53.4127
 31
0.0
  0
LINE
  8
0
 62
     0
 10
273.213
 20
53.4127
 30
0.0
 11
273.213
 21
54.3348
 31
0.0
  0
LINE
  8
0
 62
     0
 10
273.213
 20
54.3348
 30
0.0
 11
269.912
 21
54.3348
 31
0.0
  0
LINE
  8
0
 62
     0
 10
269.912
 20
54.3348
 30
0.0
 11
269.912
 21
53.4127
 31
0.0
  0
LINE
  8
0
 62
     0
 10
269.912
 20
53.4127
 30
0.0
 11
268.187
 21
53.4127
 31
0.0
  0
LINE
  8
0
 62
     0
 10
268.187
 20
53.4127
 30
0.0
 11
268.187
 21
50.1826
 31
0.0
  0
LINE
  8
0
 62
     0
 10
268.187
 20
50.1826
 30
0.0
 11
267.363
 21
50.1826
 31
0.0
  0
LINE
  8
0
 62
     0
 10
267.363
 20
50.1826
 30
0.0
 11
267.363
 21
47.3837
 31
0.0
  0
LINE
  8
0
 62
     0
 10
267.363
 20
47.3837
 30
0.0
 11
268.187
 21
47.3837
 31
0.0
  0
LINE
  8
0
 62
     0
 10
268.187
 20
47.3837
 30
0.0
 11
268.187
 21
41.1138
 31
0.0
  0
LINE
  8
0
 62
     0
 10
268.187
 20
41.1138
 30
0.0
 11
269.912
 21
41.1138
 31
0.0
  0
LINE
  8
0
 62
     0
 10
269.912
 20
41.1138
 30
0.0
 11
269.912
 21
40.1327
 31
0.0
  0
LINE
  8
0
 62
     0
 10
269.912
 20
40.1327
 30
0.0
 11
273.213
 21
40.1327
 31
0.0
  0
LINE
  8
0
 62
     0
 10
273.213
 20
40.1327
 30
0.0
 11
273.213
 21
41.1138
 31
0.0
  0
LINE
  8
0
 62
     0
 10
273.213
 20
41.1138
 30
0.0
 11
274.938
 21
41.1138
 31
0.0
  0
LINE
  8
0
 62
     0
 10
274.938
 20
41.1138
 30
0.0
 11
274.938
 21
45.5828
 31
0.0
  0
LINE
  8
0
 62
     0
 10
274.938
 20
45.5828
 30
0.0
 11
276.462
 21
45.5828
 31
0.0
  0
LINE
  8
0
 62
     0
 10
276.462
 20
45.5828
 30
0.0
 11
276.462
 21
44.9834
 31
0.0
  0
LINE
  8
0
 62
     0
 10
276.462
 20
44.9834
 30
0.0
 11
275.663
 21
44.9834
 31
0.0
  0
LINE
  8
0
 62
     0
 10
275.663
 20
44.9834
 30
0.0
 11
275.663
 21
41.8828
 31
0.0
  0
LINE
  8
0
 62
     0
 10
275.663
 20
41.8828
 30
0.0
 11
276.462
 21
41.8828
 31
0.0
  0
LINE
  8
0
 62
     0
 10
276.462
 20
41.8828
 30
0.0
 11
276.462
 21
40.8838
 31
0.0
  0
LINE
  8
0
 62
     0
 10
276.462
 20
40.8838
 30
0.0
 11
290.463
 21
40.8838
 31
0.0
  0
LINE
  8
0
 62
     0
 10
290.463
 20
40.8838
 30
0.0
 11
290.463
 21
41.8828
 31
0.0
  0
LINE
  8
0
 62
     0
 10
290.463
 20
41.8828
 30
0.0
 11
291.262
 21
41.8828
 31
0.0
  0
LINE
  8
0
 62
     0
 10
291.262
 20
41.8828
 30
0.0
 11
291.262
 21
44.9834
 31
0.0
  0
LINE
  8
0
 62
     0
 10
291.262
 20
44.9834
 30
0.0
 11
290.463
 21
44.9834
 31
0.0
  0
LINE
  8
0
 62
     0
 10
290.463
 20
44.9834
 30
0.0
 11
290.463
 21
45.5828
 31
0.0
  0
LINE
  8
0
 62
     0
 10
290.463
 20
45.5828
 30
0.0
 11
291.987
 21
45.5828
 31
0.0
  0
LINE
  8
0
 62
     0
 10
291.987
 20
45.5828
 30
0.0
 11
291.987
 21
41.1138
 31
0.0
  0
LINE
  8
0
 62
     0
 10
291.987
 20
41.1138
 30
0.0
 11
293.712
 21
41.1138
 31
0.0
  0
LINE
  8
0
 62
     0
 10
293.712
 20
41.1138
 30
0.0
 11
293.712
 21
40.1327
 31
0.0
  0
LINE
  8
0
 62
     0
 10
293.712
 20
40.1327
 30
0.0
 11
297.013
 21
40.1327
 31
0.0
  0
LINE
  8
0
 62
     0
 10
297.013
 20
40.1327
 30
0.0
 11
297.013
 21
41.1138
 31
0.0
  0
LINE
  8
0
 62
     0
 10
297.013
 20
41.1138
 30
0.0
 11
298.738
 21
41.1138
 31
0.0
  0
LINE
  8
0
 62
     0
 10
298.738
 20
41.1138
 30
0.0
 11
298.738
 21
47.3837
 31
0.0
  0
LINE
  8
0
 62
     0
 10
298.738
 20
47.3837
 30
0.0
 11
299.562
 21
47.3837
 31
0.0
  0
LINE
  8
0
 62
     0
 10
299.562
 20
47.3837
 30
0.0
 11
299.562
 21
50.1826
 31
0.0
  0
LINE
  8
0
 62
     0
 10
299.562
 20
50.1826
 30
0.0
 11
298.738
 21
50.1826
 31
0.0
  0
LINE
  8
0
 62
     0
 10
298.738
 20
50.1826
 30
0.0
 11
298.738
 21
53.4127
 31
0.0
  0
LINE
  8
0
 62
     0
 10
298.738
 20
53.4127
 30
0.0
 11
297.013
 21
53.4127
 31
0.0
  0
LINE
  8
0
 62
     0
 10
297.013
 20
53.4127
 30
0.0
 11
297.013
 21
54.3348
 31
0.0
  0
LINE
  8
0
 62
     0
 10
297.013
 20
54.3348
 30
0.0
 11
293.712
 21
54.3348
 31
0.0
  0
LINE
  8
0
 62
     0
 10
293.712
 20
54.3348
 30
0.0
 11
293.712
 21
53.4127
 31
0.0
  0
LINE
  8
0
 62
     0
 10
293.712
 20
53.4127
 30
0.0
 11
291.987
 21
53.4127
 31
0.0
  0
LINE
  8
0
 62
     0
 10
291.987
 20
53.4127
 30
0.0
 11
291.987
 21
50.1826
 31
0.0
  0
LINE
  8
0
 62
     0
 10
291.987
 20
50.1826
 30
0.0
 11
290.463
 21
50.1826
 31
0.0
  0
LINE
  8
0
 62
     0
 10
290.463
 20
50.1826
 30
0.0
 11
290.463
 21
50.7848
 31
0.0
  0
LINE
  8
0
 62
     0
 10
290.463
 20
50.7848
 30
0.0
 11
291.262
 21
50.7848
 31
0.0
  0
LINE
  8
0
 62
     0
 10
291.262
 20
50.7848
 30
0.0
 11
291.262
 21
53.8826
 31
0.0
  0
LINE
  8
0
 62
     0
 10
291.262
 20
53.8826
 30
0.0
 11
290.463
 21
53.8826
 31
0.0
  0
LINE
  8
0
 62
     0
 10
290.463
 20
53.8826
 30
0.0
 11
290.463
 21
54.8831
 31
0.0
  0
LINE
  8
0
 62
     0
 10
290.463
 20
54.8831
 30
0.0
 11
276.462
 21
54.8831
 31
0.0
  0
LINE
  8
0
 62
     0
 10
245.507
 20
54.8831
 30
0.0
 11
245.507
 21
53.8826
 31
0.0
  0
LINE
  8
0
 62
     0
 10
245.507
 20
53.8826
 30
0.0
 11
244.706
 21
53.8826
 31
0.0
  0
LINE
  8
0
 62
     0
 10
244.706
 20
53.8826
 30
0.0
 11
244.706
 21
50.7848
 31
0.0
  0
LINE
  8
0
 62
     0
 10
244.706
 20
50.7848
 30
0.0
 11
245.507
 21
50.7848
 31
0.0
  0
LINE
  8
0
 62
     0
 10
245.507
 20
50.7848
 30
0.0
 11
245.507
 21
44.9834
 31
0.0
  0
LINE
  8
0
 62
     0
 10
245.507
 20
44.9834
 30
0.0
 11
244.706
 21
44.9834
 31
0.0
  0
LINE
  8
0
 62
     0
 10
244.706
 20
44.9834
 30
0.0
 11
244.706
 21
41.8828
 31
0.0
  0
LINE
  8
0
 62
     0
 10
244.706
 20
41.8828
 30
0.0
 11
245.507
 21
41.8828
 31
0.0
  0
LINE
  8
0
 62
     0
 10
245.507
 20
41.8828
 30
0.0
 11
245.507
 21
40.8838
 31
0.0
  0
LINE
  8
0
 62
     0
 10
245.507
 20
40.8838
 30
0.0
 11
259.507
 21
40.8838
 31
0.0
  0
LINE
  8
0
 62
     0
 10
259.507
 20
40.8838
 30
0.0
 11
259.507
 21
41.8828
 31
0.0
  0
LINE
  8
0
 62
     0
 10
259.507
 20
41.8828
 30
0.0
 11
260.306
 21
41.8828
 31
0.0
  0
LINE
  8
0
 62
     0
 10
260.306
 20
41.8828
 30
0.0
 11
260.306
 21
44.9834
 31
0.0
  0
LINE
  8
0
 62
     0
 10
260.306
 20
44.9834
 30
0.0
 11
259.507
 21
44.9834
 31
0.0
  0
LINE
  8
0
 62
     0
 10
259.507
 20
44.9834
 30
0.0
 11
259.507
 21
50.7848
 31
0.0
  0
LINE
  8
0
 62
     0
 10
259.507
 20
50.7848
 30
0.0
 11
260.306
 21
50.7848
 31
0.0
  0
LINE
  8
0
 62
     0
 10
260.306
 20
50.7848
 30
0.0
 11
260.306
 21
53.8826
 31
0.0
  0
LINE
  8
0
 62
     0
 10
260.306
 20
53.8826
 30
0.0
 11
259.507
 21
53.8826
 31
0.0
  0
LINE
  8
0
 62
     0
 10
259.507
 20
53.8826
 30
0.0
 11
259.507
 21
54.8831
 31
0.0
  0
LINE
  8
0
 62
     0
 10
259.507
 20
54.8831
 30
0.0
 11
245.507
 21
54.8831
 31
0.0
  0
LINE
  8
0
 62
     0
 10
226.457
 20
54.8831
 30
0.0
 11
226.457
 21
53.8826
 31
0.0
  0
LINE
  8
0
 62
     0
 10
226.457
 20
53.8826
 30
0.0
 11
225.656
 21
53.8826
 31
0.0
  0
LINE
  8
0
 62
     0
 10
225.656
 20
53.8826
 30
0.0
 11
225.656
 21
50.7848
 31
0.0
  0
LINE
  8
0
 62
     0
 10
225.656
 20
50.7848
 30
0.0
 11
226.457
 21
50.7848
 31
0.0
  0
LINE
  8
0
 62
     0
 10
226.457
 20
50.7848
 30
0.0
 11
226.457
 21
44.9834
 31
0.0
  0
LINE
  8
0
 62
     0
 10
226.457
 20
44.9834
 30
0.0
 11
225.656
 21
44.9834
 31
0.0
  0
LINE
  8
0
 62
     0
 10
225.656
 20
44.9834
 30
0.0
 11
225.656
 21
41.8828
 31
0.0
  0
LINE
  8
0
 62
     0
 10
225.656
 20
41.8828
 30
0.0
 11
226.457
 21
41.8828
 31
0.0
  0
LINE
  8
0
 62
     0
 10
226.457
 20
41.8828
 30
0.0
 11
226.457
 21
40.8838
 31
0.0
  0
LINE
  8
0
 62
     0
 10
226.457
 20
40.8838
 30
0.0
 11
240.457
 21
40.8838
 31
0.0
  0
LINE
  8
0
 62
     0
 10
240.457
 20
40.8838
 30
0.0
 11
240.457
 21
41.8828
 31
0.0
  0
LINE
  8
0
 62
     0
 10
240.457
 20
41.8828
 30
0.0
 11
241.256
 21
41.8828
 31
0.0
  0
LINE
  8
0
 62
     0
 10
241.256
 20
41.8828
 30
0.0
 11
241.256
 21
44.9834
 31
0.0
  0
LINE
  8
0
 62
     0
 10
241.256
 20
44.9834
 30
0.0
 11
240.457
 21
44.9834
 31
0.0
  0
LINE
  8
0
 62
     0
 10
240.457
 20
44.9834
 30
0.0
 11
240.457
 21
50.7848
 31
0.0
  0
LINE
  8
0
 62
     0
 10
240.457
 20
50.7848
 30
0.0
 11
241.256
 21
50.7848
 31
0.0
  0
LINE
  8
0
 62
     0
 10
241.256
 20
50.7848
 30
0.0
 11
241.256
 21
53.8826
 31
0.0
  0
LINE
  8
0
 62
     0
 10
241.256
 20
53.8826
 30
0.0
 11
240.457
 21
53.8826
 31
0.0
  0
LINE
  8
0
 62
     0
 10
240.457
 20
53.8826
 30
0.0
 11
240.457
 21
54.8831
 31
0.0
  0
LINE
  8
0
 62
     0
 10
240.457
 20
54.8831
 30
0.0
 11
226.457
 21
54.8831
 31
0.0
  0
LINE
  8
0
 62
     0
 10
207.407
 20
54.8831
 30
0.0
 11
207.407
 21
53.8826
 31
0.0
  0
LINE
  8
0
 62
     0
 10
207.407
 20
53.8826
 30
0.0
 11
206.606
 21
53.8826
 31
0.0
  0
LINE
  8
0
 62
     0
 10
206.606
 20
53.8826
 30
0.0
 11
206.606
 21
50.7848
 31
0.0
  0
LINE
  8
0
 62
     0
 10
206.606
 20
50.7848
 30
0.0
 11
207.407
 21
50.7848
 31
0.0
  0
LINE
  8
0
 62
     0
 10
207.407
 20
50.7848
 30
0.0
 11
207.407
 21
44.9834
 31
0.0
  0
LINE
  8
0
 62
     0
 10
207.407
 20
44.9834
 30
0.0
 11
206.606
 21
44.9834
 31
0.0
  0
LINE
  8
0
 62
     0
 10
206.606
 20
44.9834
 30
0.0
 11
206.606
 21
41.8828
 31
0.0
  0
LINE
  8
0
 62
     0
 10
206.606
 20
41.8828
 30
0.0
 11
207.407
 21
41.8828
 31
0.0
  0
LINE
  8
0
 62
     0
 10
207.407
 20
41.8828
 30
0.0
 11
207.407
 21
40.8838
 31
0.0
  0
LINE
  8
0
 62
     0
 10
207.407
 20
40.8838
 30
0.0
 11
221.407
 21
40.8838
 31
0.0
  0
LINE
  8
0
 62
     0
 10
221.407
 20
40.8838
 30
0.0
 11
221.407
 21
41.8828
 31
0.0
  0
LINE
  8
0
 62
     0
 10
221.407
 20
41.8828
 30
0.0
 11
222.206
 21
41.8828
 31
0.0
  0
LINE
  8
0
 62
     0
 10
222.206
 20
41.8828
 30
0.0
 11
222.206
 21
44.9834
 31
0.0
  0
LINE
  8
0
 62
     0
 10
222.206
 20
44.9834
 30
0.0
 11
221.407
 21
44.9834
 31
0.0
  0
LINE
  8
0
 62
     0
 10
221.407
 20
44.9834
 30
0.0
 11
221.407
 21
50.7848
 31
0.0
  0
LINE
  8
0
 62
     0
 10
221.407
 20
50.7848
 30
0.0
 11
222.206
 21
50.7848
 31
0.0
  0
LINE
  8
0
 62
     0
 10
222.206
 20
50.7848
 30
0.0
 11
222.206
 21
53.8826
 31
0.0
  0
LINE
  8
0
 62
     0
 10
222.206
 20
53.8826
 30
0.0
 11
221.407
 21
53.8826
 31
0.0
  0
LINE
  8
0
 62
     0
 10
221.407
 20
53.8826
 30
0.0
 11
221.407
 21
54.8831
 31
0.0
  0
LINE
  8
0
 62
     0
 10
221.407
 20
54.8831
 30
0.0
 11
207.407
 21
54.8831
 31
0.0
  0
LINE
  8
0
 62
     0
 10
188.357
 20
54.8831
 30
0.0
 11
188.357
 21
53.8826
 31
0.0
  0
LINE
  8
0
 62
     0
 10
188.357
 20
53.8826
 30
0.0
 11
187.556
 21
53.8826
 31
0.0
  0
LINE
  8
0
 62
     0
 10
187.556
 20
53.8826
 30
0.0
 11
187.556
 21
50.7848
 31
0.0
  0
LINE
  8
0
 62
     0
 10
187.556
 20
50.7848
 30
0.0
 11
188.357
 21
50.7848
 31
0.0
  0
LINE
  8
0
 62
     0
 10
188.357
 20
50.7848
 30
0.0
 11
188.357
 21
44.9834
 31
0.0
  0
LINE
  8
0
 62
     0
 10
188.357
 20
44.9834
 30
0.0
 11
187.556
 21
44.9834
 31
0.0
  0
LINE
  8
0
 62
     0
 10
187.556
 20
44.9834
 30
0.0
 11
187.556
 21
41.8828
 31
0.0
  0
LINE
  8
0
 62
     0
 10
187.556
 20
41.8828
 30
0.0
 11
188.357
 21
41.8828
 31
0.0
  0
LINE
  8
0
 62
     0
 10
188.357
 20
41.8828
 30
0.0
 11
188.357
 21
40.8838
 31
0.0
  0
LINE
  8
0
 62
     0
 10
188.357
 20
40.8838
 30
0.0
 11
202.357
 21
40.8838
 31
0.0
  0
LINE
  8
0
 62
     0
 10
202.357
 20
40.8838
 30
0.0
 11
202.357
 21
41.8828
 31
0.0
  0
LINE
  8
0
 62
     0
 10
202.357
 20
41.8828
 30
0.0
 11
203.156
 21
41.8828
 31
0.0
  0
LINE
  8
0
 62
     0
 10
203.156
 20
41.8828
 30
0.0
 11
203.156
 21
44.9834
 31
0.0
  0
LINE
  8
0
 62
     0
 10
203.156
 20
44.9834
 30
0.0
 11
202.357
 21
44.9834
 31
0.0
  0
LINE
  8
0
 62
     0
 10
202.357
 20
44.9834
 30
0.0
 11
202.357
 21
50.7848
 31
0.0
  0
LINE
  8
0
 62
     0
 10
202.357
 20
50.7848
 30
0.0
 11
203.156
 21
50.7848
 31
0.0
  0
LINE
  8
0
 62
     0
 10
203.156
 20
50.7848
 30
0.0
 11
203.156
 21
53.8826
 31
0.0
  0
LINE
  8
0
 62
     0
 10
203.156
 20
53.8826
 30
0.0
 11
202.357
 21
53.8826
 31
0.0
  0
LINE
  8
0
 62
     0
 10
202.357
 20
53.8826
 30
0.0
 11
202.357
 21
54.8831
 31
0.0
  0
LINE
  8
0
 62
     0
 10
202.357
 20
54.8831
 30
0.0
 11
188.357
 21
54.8831
 31
0.0
  0
LINE
  8
0
 62
     0
 10
169.307
 20
54.8831
 30
0.0
 11
169.307
 21
53.8826
 31
0.0
  0
LINE
  8
0
 62
     0
 10
169.307
 20
53.8826
 30
0.0
 11
168.506
 21
53.8826
 31
0.0
  0
LINE
  8
0
 62
     0
 10
168.506
 20
53.8826
 30
0.0
 11
168.506
 21
50.7848
 31
0.0
  0
LINE
  8
0
 62
     0
 10
168.506
 20
50.7848
 30
0.0
 11
169.307
 21
50.7848
 31
0.0
  0
LINE
  8
0
 62
     0
 10
169.307
 20
50.7848
 30
0.0
 11
169.307
 21
44.9834
 31
0.0
  0
LINE
  8
0
 62
     0
 10
169.307
 20
44.9834
 30
0.0
 11
168.506
 21
44.9834
 31
0.0
  0
LINE
  8
0
 62
     0
 10
168.506
 20
44.9834
 30
0.0
 11
168.506
 21
41.8828
 31
0.0
  0
LINE
  8
0
 62
     0
 10
168.506
 20
41.8828
 30
0.0
 11
169.307
 21
41.8828
 31
0.0
  0
LINE
  8
0
 62
     0
 10
169.307
 20
41.8828
 30
0.0
 11
169.307
 21
40.8838
 31
0.0
  0
LINE
  8
0
 62
     0
 10
169.307
 20
40.8838
 30
0.0
 11
183.307
 21
40.8838
 31
0.0
  0
LINE
  8
0
 62
     0
 10
183.307
 20
40.8838
 30
0.0
 11
183.307
 21
41.8828
 31
0.0
  0
LINE
  8
0
 62
     0
 10
183.307
 20
41.8828
 30
0.0
 11
184.106
 21
41.8828
 31
0.0
  0
LINE
  8
0
 62
     0
 10
184.106
 20
41.8828
 30
0.0
 11
184.106
 21
44.9834
 31
0.0
  0
LINE
  8
0
 62
     0
 10
184.106
 20
44.9834
 30
0.0
 11
183.307
 21
44.9834
 31
0.0
  0
LINE
  8
0
 62
     0
 10
183.307
 20
44.9834
 30
0.0
 11
183.307
 21
50.7848
 31
0.0
  0
LINE
  8
0
 62
     0
 10
183.307
 20
50.7848
 30
0.0
 11
184.106
 21
50.7848
 31
0.0
  0
LINE
  8
0
 62
     0
 10
184.106
 20
50.7848
 30
0.0
 11
184.106
 21
53.8826
 31
0.0
  0
LINE
  8
0
 62
     0
 10
184.106
 20
53.8826
 30
0.0
 11
183.307
 21
53.8826
 31
0.0
  0
LINE
  8
0
 62
     0
 10
183.307
 20
53.8826
 30
0.0
 11
183.307
 21
54.8831
 31
0.0
  0
LINE
  8
0
 62
     0
 10
183.307
 20
54.8831
 30
0.0
 11
169.307
 21
54.8831
 31
0.0
  0
LINE
  8
0
 62
     0
 10
150.257
 20
54.8831
 30
0.0
 11
150.257
 21
53.8826
 31
0.0
  0
LINE
  8
0
 62
     0
 10
150.257
 20
53.8826
 30
0.0
 11
149.456
 21
53.8826
 31
0.0
  0
LINE
  8
0
 62
     0
 10
149.456
 20
53.8826
 30
0.0
 11
149.456
 21
50.7848
 31
0.0
  0
LINE
  8
0
 62
     0
 10
149.456
 20
50.7848
 30
0.0
 11
150.257
 21
50.7848
 31
0.0
  0
LINE
  8
0
 62
     0
 10
150.257
 20
50.7848
 30
0.0
 11
150.257
 21
44.9834
 31
0.0
  0
LINE
  8
0
 62
     0
 10
150.257
 20
44.9834
 30
0.0
 11
149.456
 21
44.9834
 31
0.0
  0
LINE
  8
0
 62
     0
 10
149.456
 20
44.9834
 30
0.0
 11
149.456
 21
41.8828
 31
0.0
  0
LINE
  8
0
 62
     0
 10
149.456
 20
41.8828
 30
0.0
 11
150.257
 21
41.8828
 31
0.0
  0
LINE
  8
0
 62
     0
 10
150.257
 20
41.8828
 30
0.0
 11
150.257
 21
40.8838
 31
0.0
  0
LINE
  8
0
 62
     0
 10
150.257
 20
40.8838
 30
0.0
 11
164.257
 21
40.8838
 31
0.0
  0
LINE
  8
0
 62
     0
 10
164.257
 20
40.8838
 30
0.0
 11
164.257
 21
41.8828
 31
0.0
  0
LINE
  8
0
 62
     0
 10
164.257
 20
41.8828
 30
0.0
 11
165.056
 21
41.8828
 31
0.0
  0
LINE
  8
0
 62
     0
 10
165.056
 20
41.8828
 30
0.0
 11
165.056
 21
44.9834
 31
0.0
  0
LINE
  8
0
 62
     0
 10
165.056
 20
44.9834
 30
0.0
 11
164.257
 21
44.9834
 31
0.0
  0
LINE
  8
0
 62
     0
 10
164.257
 20
44.9834
 30
0.0
 11
164.257
 21
50.7848
 31
0.0
  0
LINE
  8
0
 62
     0
 10
164.257
 20
50.7848
 30
0.0
 11
165.056
 21
50.7848
 31
0.0
  0
LINE
  8
0
 62
     0
 10
165.056
 20
50.7848
 30
0.0
 11
165.056
 21
53.8826
 31
0.0
  0
LINE
  8
0
 62
     0
 10
165.056
 20
53.8826
 30
0.0
 11
164.257
 21
53.8826
 31
0.0
  0
LINE
  8
0
 62
     0
 10
164.257
 20
53.8826
 30
0.0
 11
164.257
 21
54.8831
 31
0.0
  0
LINE
  8
0
 62
     0
 10
164.257
 20
54.8831
 30
0.0
 11
150.257
 21
54.8831
 31
0.0
  0
LINE
  8
0
 62
     0
 10
131.207
 20
54.8831
 30
0.0
 11
131.207
 21
53.8826
 31
0.0
  0
LINE
  8
0
 62
     0
 10
131.207
 20
53.8826
 30
0.0
 11
130.406
 21
53.8826
 31
0.0
  0
LINE
  8
0
 62
     0
 10
130.406
 20
53.8826
 30
0.0
 11
130.406
 21
50.7848
 31
0.0
  0
LINE
  8
0
 62
     0
 10
130.406
 20
50.7848
 30
0.0
 11
131.207
 21
50.7848
 31
0.0
  0
LINE
  8
0
 62
     0
 10
131.207
 20
50.7848
 30
0.0
 11
131.207
 21
44.9834
 31
0.0
  0
LINE
  8
0
 62
     0
 10
131.207
 20
44.9834
 30
0.0
 11
130.406
 21
44.9834
 31
0.0
  0
LINE
  8
0
 62
     0
 10
130.406
 20
44.9834
 30
0.0
 11
130.406
 21
41.8828
 31
0.0
  0
LINE
  8
0
 62
     0
 10
130.406
 20
41.8828
 30
0.0
 11
131.207
 21
41.8828
 31
0.0
  0
LINE
  8
0
 62
     0
 10
131.207
 20
41.8828
 30
0.0
 11
131.207
 21
40.8838
 31
0.0
  0
LINE
  8
0
 62
     0
 10
131.207
 20
40.8838
 30
0.0
 11
145.207
 21
40.8838
 31
0.0
  0
LINE
  8
0
 62
     0
 10
145.207
 20
40.8838
 30
0.0
 11
145.207
 21
41.8828
 31
0.0
  0
LINE
  8
0
 62
     0
 10
145.207
 20
41.8828
 30
0.0
 11
146.006
 21
41.8828
 31
0.0
  0
LINE
  8
0
 62
     0
 10
146.006
 20
41.8828
 30
0.0
 11
146.006
 21
44.9834
 31
0.0
  0
LINE
  8
0
 62
     0
 10
146.006
 20
44.9834
 30
0.0
 11
145.207
 21
44.9834
 31
0.0
  0
LINE
  8
0
 62
     0
 10
145.207
 20
44.9834
 30
0.0
 11
145.207
 21
50.7848
 31
0.0
  0
LINE
  8
0
 62
     0
 10
145.207
 20
50.7848
 30
0.0
 11
146.006
 21
50.7848
 31
0.0
  0
LINE
  8
0
 62
     0
 10
146.006
 20
50.7848
 30
0.0
 11
146.006
 21
53.8826
 31
0.0
  0
LINE
  8
0
 62
     0
 10
146.006
 20
53.8826
 30
0.0
 11
145.207
 21
53.8826
 31
0.0
  0
LINE
  8
0
 62
     0
 10
145.207
 20
53.8826
 30
0.0
 11
145.207
 21
54.8831
 31
0.0
  0
LINE
  8
0
 62
     0
 10
145.207
 20
54.8831
 30
0.0
 11
131.207
 21
54.8831
 31
0.0
  0
LINE
  8
0
 62
     0
 10
112.157
 20
54.8831
 30
0.0
 11
112.157
 21
53.8826
 31
0.0
  0
LINE
  8
0
 62
     0
 10
112.157
 20
53.8826
 30
0.0
 11
111.356
 21
53.8826
 31
0.0
  0
LINE
  8
0
 62
     0
 10
111.356
 20
53.8826
 30
0.0
 11
111.356
 21
50.7848
 31
0.0
  0
LINE
  8
0
 62
     0
 10
111.356
 20
50.7848
 30
0.0
 11
112.157
 21
50.7848
 31
0.0
  0
LINE
  8
0
 62
     0
 10
112.157
 20
50.7848
 30
0.0
 11
112.157
 21
44.9834
 31
0.0
  0
LINE
  8
0
 62
     0
 10
112.157
 20
44.9834
 30
0.0
 11
111.356
 21
44.9834
 31
0.0
  0
LINE
  8
0
 62
     0
 10
111.356
 20
44.9834
 30
0.0
 11
111.356
 21
41.8828
 31
0.0
  0
LINE
  8
0
 62
     0
 10
111.356
 20
41.8828
 30
0.0
 11
112.157
 21
41.8828
 31
0.0
  0
LINE
  8
0
 62
     0
 10
112.157
 20
41.8828
 30
0.0
 11
112.157
 21
40.8838
 31
0.0
  0
LINE
  8
0
 62
     0
 10
112.157
 20
40.8838
 30
0.0
 11
126.157
 21
40.8838
 31
0.0
  0
LINE
  8
0
 62
     0
 10
126.157
 20
40.8838
 30
0.0
 11
126.157
 21
41.8828
 31
0.0
  0
LINE
  8
0
 62
     0
 10
126.157
 20
41.8828
 30
0.0
 11
126.956
 21
41.8828
 31
0.0
  0
LINE
  8
0
 62
     0
 10
126.956
 20
41.8828
 30
0.0
 11
126.956
 21
44.9834
 31
0.0
  0
LINE
  8
0
 62
     0
 10
126.956
 20
44.9834
 30
0.0
 11
126.157
 21
44.9834
 31
0.0
  0
LINE
  8
0
 62
     0
 10
126.157
 20
44.9834
 30
0.0
 11
126.157
 21
50.7848
 31
0.0
  0
LINE
  8
0
 62
     0
 10
126.157
 20
50.7848
 30
0.0
 11
126.956
 21
50.7848
 31
0.0
  0
LINE
  8
0
 62
     0
 10
126.956
 20
50.7848
 30
0.0
 11
126.956
 21
53.8826
 31
0.0
  0
LINE
  8
0
 62
     0
 10
126.956
 20
53.8826
 30
0.0
 11
126.157
 21
53.8826
 31
0.0
  0
LINE
  8
0
 62
     0
 10
126.157
 20
53.8826
 30
0.0
 11
126.157
 21
54.8831
 31
0.0
  0
LINE
  8
0
 62
     0
 10
126.157
 20
54.8831
 30
0.0
 11
112.157
 21
54.8831
 31
0.0
  0
LINE
  8
0
 62
     0
 10
93.1072
 20
54.8831
 30
0.0
 11
93.1072
 21
53.8826
 31
0.0
  0
LINE
  8
0
 62
     0
 10
93.1072
 20
53.8826
 30
0.0
 11
92.3064
 21
53.8826
 31
0.0
  0
LINE
  8
0
 62
     0
 10
92.3064
 20
53.8826
 30
0.0
 11
92.3064
 21
50.7848
 31
0.0
  0
LINE
  8
0
 62
     0
 10
92.3064
 20
50.7848
 30
0.0
 11
93.1072
 21
50.7848
 31
0.0
  0
LINE
  8
0
 62
     0
 10
93.1072
 20
50.7848
 30
0.0
 11
93.1072
 21
44.9834
 31
0.0
  0
LINE
  8
0
 62
     0
 10
93.1072
 20
44.9834
 30
0.0
 11
92.3064
 21
44.9834
 31
0.0
  0
LINE
  8
0
 62
     0
 10
92.3064
 20
44.9834
 30
0.0
 11
92.3064
 21
41.8828
 31
0.0
  0
LINE
  8
0
 62
     0
 10
92.3064
 20
41.8828
 30
0.0
 11
93.1072
 21
41.8828
 31
0.0
  0
LINE
  8
0
 62
     0
 10
93.1072
 20
41.8828
 30
0.0
 11
93.1072
 21
40.8838
 31
0.0
  0
LINE
  8
0
 62
     0
 10
93.1072
 20
40.8838
 30
0.0
 11
107.107
 21
40.8838
 31
0.0
  0
LINE
  8
0
 62
     0
 10
107.107
 20
40.8838
 30
0.0
 11
107.107
 21
41.8828
 31
0.0
  0
LINE
  8
0
 62
     0
 10
107.107
 20
41.8828
 30
0.0
 11
107.906
 21
41.8828
 31
0.0
  0
LINE
  8
0
 62
     0
 10
107.906
 20
41.8828
 30
0.0
 11
107.906
 21
44.9834
 31
0.0
  0
LINE
  8
0
 62
     0
 10
107.906
 20
44.9834
 30
0.0
 11
107.107
 21
44.9834
 31
0.0
  0
LINE
  8
0
 62
     0
 10
107.107
 20
44.9834
 30
0.0
 11
107.107
 21
50.7848
 31
0.0
  0
LINE
  8
0
 62
     0
 10
107.107
 20
50.7848
 30
0.0
 11
107.906
 21
50.7848
 31
0.0
  0
LINE
  8
0
 62
     0
 10
107.906
 20
50.7848
 30
0.0
 11
107.906
 21
53.8826
 31
0.0
  0
LINE
  8
0
 62
     0
 10
107.906
 20
53.8826
 30
0.0
 11
107.107
 21
53.8826
 31
0.0
  0
LINE
  8
0
 62
     0
 10
107.107
 20
53.8826
 30
0.0
 11
107.107
 21
54.8831
 31
0.0
  0
LINE
  8
0
 62
     0
 10
107.107
 20
54.8831
 30
0.0
 11
93.1072
 21
54.8831
 31
0.0
  0
LINE
  8
0
 62
     0
 10
74.0572
 20
54.8831
 30
0.0
 11
74.0572
 21
53.8826
 31
0.0
  0
LINE
  8
0
 62
     0
 10
74.0572
 20
53.8826
 30
0.0
 11
73.2564
 21
53.8826
 31
0.0
  0
LINE
  8
0
 62
     0
 10
73.2564
 20
53.8826
 30
0.0
 11
73.2564
 21
50.7848
 31
0.0
  0
LINE
  8
0
 62
     0
 10
73.2564
 20
50.7848
 30
0.0
 11
74.0572
 21
50.7848
 31
0.0
  0
LINE
  8
0
 62
     0
 10
74.0572
 20
50.7848
 30
0.0
 11
74.0572
 21
44.9834
 31
0.0
  0
LINE
  8
0
 62
     0
 10
74.0572
 20
44.9834
 30
0.0
 11
73.2564
 21
44.9834
 31
0.0
  0
LINE
  8
0
 62
     0
 10
73.2564
 20
44.9834
 30
0.0
 11
73.2564
 21
41.8828
 31
0.0
  0
LINE
  8
0
 62
     0
 10
73.2564
 20
41.8828
 30
0.0
 11
74.0572
 21
41.8828
 31
0.0
  0
LINE
  8
0
 62
     0
 10
74.0572
 20
41.8828
 30
0.0
 11
74.0572
 21
40.8838
 31
0.0
  0
LINE
  8
0
 62
     0
 10
74.0572
 20
40.8838
 30
0.0
 11
88.0565
 21
40.8838
 31
0.0
  0
LINE
  8
0
 62
     0
 10
88.0565
 20
40.8838
 30
0.0
 11
88.0565
 21
41.8828
 31
0.0
  0
LINE
  8
0
 62
     0
 10
88.0565
 20
41.8828
 30
0.0
 11
88.8559
 21
41.8828
 31
0.0
  0
LINE
  8
0
 62
     0
 10
88.8559
 20
41.8828
 30
0.0
 11
88.8559
 21
44.9834
 31
0.0
  0
LINE
  8
0
 62
     0
 10
88.8559
 20
44.9834
 30
0.0
 11
88.0565
 21
44.9834
 31
0.0
  0
LINE
  8
0
 62
     0
 10
88.0565
 20
44.9834
 30
0.0
 11
88.0565
 21
50.7848
 31
0.0
  0
LINE
  8
0
 62
     0
 10
88.0565
 20
50.7848
 30
0.0
 11
88.8559
 21
50.7848
 31
0.0
  0
LINE
  8
0
 62
     0
 10
88.8559
 20
50.7848
 30
0.0
 11
88.8559
 21
53.8826
 31
0.0
  0
LINE
  8
0
 62
     0
 10
88.8559
 20
53.8826
 30
0.0
 11
88.0565
 21
53.8826
 31
0.0
  0
LINE
  8
0
 62
     0
 10
88.0565
 20
53.8826
 30
0.0
 11
88.0565
 21
54.8831
 31
0.0
  0
LINE
  8
0
 62
     0
 10
88.0565
 20
54.8831
 30
0.0
 11
74.0572
 21
54.8831
 31
0.0
  0
LINE
  8
0
 62
     0
 10
55.0072
 20
54.8831
 30
0.0
 11
55.0072
 21
53.8826
 31
0.0
  0
LINE
  8
0
 62
     0
 10
55.0072
 20
53.8826
 30
0.0
 11
54.2064
 21
53.8826
 31
0.0
  0
LINE
  8
0
 62
     0
 10
54.2064
 20
53.8826
 30
0.0
 11
54.2064
 21
50.7848
 31
0.0
  0
LINE
  8
0
 62
     0
 10
54.2064
 20
50.7848
 30
0.0
 11
55.0072
 21
50.7848
 31
0.0
  0
LINE
  8
0
 62
     0
 10
55.0072
 20
50.7848
 30
0.0
 11
55.0072
 21
44.9834
 31
0.0
  0
LINE
  8
0
 62
     0
 10
55.0072
 20
44.9834
 30
0.0
 11
54.2064
 21
44.9834
 31
0.0
  0
LINE
  8
0
 62
     0
 10
54.2064
 20
44.9834
 30
0.0
 11
54.2064
 21
41.8828
 31
0.0
  0
LINE
  8
0
 62
     0
 10
54.2064
 20
41.8828
 30
0.0
 11
55.0072
 21
41.8828
 31
0.0
  0
LINE
  8
0
 62
     0
 10
55.0072
 20
41.8828
 30
0.0
 11
55.0072
 21
40.8838
 31
0.0
  0
LINE
  8
0
 62
     0
 10
55.0072
 20
40.8838
 30
0.0
 11
69.0065
 21
40.8838
 31
0.0
  0
LINE
  8
0
 62
     0
 10
69.0065
 20
40.8838
 30
0.0
 11
69.0065
 21
41.8828
 31
0.0
  0
LINE
  8
0
 62
     0
 10
69.0065
 20
41.8828
 30
0.0
 11
69.8059
 21
41.8828
 31
0.0
  0
LINE
  8
0
 62
     0
 10
69.8059
 20
41.8828
 30
0.0
 11
69.8059
 21
44.9834
 31
0.0
  0
LINE
  8
0
 62
     0
 10
69.8059
 20
44.9834
 30
0.0
 11
69.0065
 21
44.9834
 31
0.0
  0
LINE
  8
0
 62
     0
 10
69.0065
 20
44.9834
 30
0.0
 11
69.0065
 21
50.7848
 31
0.0
  0
LINE
  8
0
 62
     0
 10
69.0065
 20
50.7848
 30
0.0
 11
69.8059
 21
50.7848
 31
0.0
  0
LINE
  8
0
 62
     0
 10
69.8059
 20
50.7848
 30
0.0
 11
69.8059
 21
53.8826
 31
0.0
  0
LINE
  8
0
 62
     0
 10
69.8059
 20
53.8826
 30
0.0
 11
69.0065
 21
53.8826
 31
0.0
  0
LINE
  8
0
 62
     0
 10
69.0065
 20
53.8826
 30
0.0
 11
69.0065
 21
54.8831
 31
0.0
  0
LINE
  8
0
 62
     0
 10
69.0065
 20
54.8831
 30
0.0
 11
55.0072
 21
54.8831
 31
0.0
  0
LINE
  8
0
 62
     0
 10
28.812
 20
54.8831
 30
0.0
 11
28.812
 21
53.8826
 31
0.0
  0
LINE
  8
0
 62
     0
 10
28.812
 20
53.8826
 30
0.0
 11
28.0128
 21
53.8826
 31
0.0
  0
LINE
  8
0
 62
     0
 10
28.0128
 20
53.8826
 30
0.0
 11
28.0128
 21
50.7848
 31
0.0
  0
LINE
  8
0
 62
     0
 10
28.0128
 20
50.7848
 30
0.0
 11
28.812
 21
50.7848
 31
0.0
  0
LINE
  8
0
 62
     0
 10
28.812
 20
50.7848
 30
0.0
 11
28.812
 21
44.9834
 31
0.0
  0
LINE
  8
0
 62
     0
 10
28.812
 20
44.9834
 30
0.0
 11
28.0128
 21
44.9834
 31
0.0
  0
LINE
  8
0
 62
     0
 10
28.0128
 20
44.9834
 30
0.0
 11
28.0128
 21
41.8828
 31
0.0
  0
LINE
  8
0
 62
     0
 10
28.0128
 20
41.8828
 30
0.0
 11
28.812
 21
41.8828
 31
0.0
  0
LINE
  8
0
 62
     0
 10
28.812
 20
41.8828
 30
0.0
 11
28.812
 21
40.8838
 31
0.0
  0
LINE
  8
0
 62
     0
 10
28.812
 20
40.8838
 30
0.0
 11
42.8128
 21
40.8838
 31
0.0
  0
LINE
  8
0
 62
     0
 10
42.8128
 20
40.8838
 30
0.0
 11
42.8128
 21
41.8828
 31
0.0
  0
LINE
  8
0
 62
     0
 10
42.8128
 20
41.8828
 30
0.0
 11
43.6122
 21
41.8828
 31
0.0
  0
LINE
  8
0
 62
     0
 10
43.6122
 20
41.8828
 30
0.0
 11
43.6122
 21
44.9834
 31
0.0
  0
LINE
  8
0
 62
     0
 10
43.6122
 20
44.9834
 30
0.0
 11
42.8128
 21
44.9834
 31
0.0
  0
LINE
  8
0
 62
     0
 10
42.8128
 20
44.9834
 30
0.0
 11
42.8128
 21
50.7848
 31
0.0
  0
LINE
  8
0
 62
     0
 10
42.8128
 20
50.7848
 30
0.0
 11
43.6122
 21
50.7848
 31
0.0
  0
LINE
  8
0
 62
     0
 10
43.6122
 20
50.7848
 30
0.0
 11
43.6122
 21
53.8826
 31
0.0
  0
LINE
  8
0
 62
     0
 10
43.6122
 20
53.8826
 30
0.0
 11
42.8128
 21
53.8826
 31
0.0
  0
LINE
  8
0
 62
     0
 10
42.8128
 20
53.8826
 30
0.0
 11
42.8128
 21
54.8831
 31
0.0
  0
LINE
  8
0
 62
     0
 10
42.8128
 20
54.8831
 30
0.0
 11
28.812
 21
54.8831
 31
0.0
  0
LINE
  8
0
 62
     0
 10
2.61965
 20
54.8831
 30
0.0
 11
2.61965
 21
53.8826
 31
0.0
  0
LINE
  8
0
 62
     0
 10
2.61965
 20
53.8826
 30
0.0
 11
1.81901
 21
53.8826
 31
0.0
  0
LINE
  8
0
 62
     0
 10
1.81901
 20
53.8826
 30
0.0
 11
1.81901
 21
50.7848
 31
0.0
  0
LINE
  8
0
 62
     0
 10
1.81901
 20
50.7848
 30
0.0
 11
2.61965
 21
50.7848
 31
0.0
  0
LINE
  8
0
 62
     0
 10
2.61965
 20
50.7848
 30
0.0
 11
2.61965
 21
44.9834
 31
0.0
  0
LINE
  8
0
 62
     0
 10
2.61965
 20
44.9834
 30
0.0
 11
1.81901
 21
44.9834
 31
0.0
  0
LINE
  8
0
 62
     0
 10
1.81901
 20
44.9834
 30
0.0
 11
1.81901
 21
41.8828
 31
0.0
  0
LINE
  8
0
 62
     0
 10
1.81901
 20
41.8828
 30
0.0
 11
2.61965
 21
41.8828
 31
0.0
  0
LINE
  8
0
 62
     0
 10
2.61965
 20
41.8828
 30
0.0
 11
2.61965
 21
40.8838
 31
0.0
  0
LINE
  8
0
 62
     0
 10
2.61965
 20
40.8838
 30
0.0
 11
16.6192
 21
40.8838
 31
0.0
  0
LINE
  8
0
 62
     0
 10
16.6192
 20
40.8838
 30
0.0
 11
16.6192
 21
41.8828
 31
0.0
  0
LINE
  8
0
 62
     0
 10
16.6192
 20
41.8828
 30
0.0
 11
17.4198
 21
41.8828
 31
0.0
  0
LINE
  8
0
 62
     0
 10
17.4198
 20
41.8828
 30
0.0
 11
17.4198
 21
44.9834
 31
0.0
  0
LINE
  8
0
 62
     0
 10
17.4198
 20
44.9834
 30
0.0
 11
16.6192
 21
44.9834
 31
0.0
  0
LINE
  8
0
 62
     0
 10
16.6192
 20
44.9834
 30
0.0
 11
16.6192
 21
50.7848
 31
0.0
  0
LINE
  8
0
 62
     0
 10
16.6192
 20
50.7848
 30
0.0
 11
17.4198
 21
50.7848
 31
0.0
  0
LINE
  8
0
 62
     0
 10
17.4198
 20
50.7848
 30
0.0
 11
17.4198
 21
53.8826
 31
0.0
  0
LINE
  8
0
 62
     0
 10
17.4198
 20
53.8826
 30
0.0
 11
16.6192
 21
53.8826
 31
0.0
  0
LINE
  8
0
 62
     0
 10
16.6192
 20
53.8826
 30
0.0
 11
16.6192
 21
54.8831
 31
0.0
  0
LINE
  8
0
 62
     0
 10
16.6192
 20
54.8831
 30
0.0
 11
2.61965
 21
54.8831
 31
0.0
  0
LINE
  8
0
 62
     0
 10
283.607
 20
73.9331
 30
0.0
 11
283.607
 21
72.9326
 31
0.0
  0
LINE
  8
0
 62
     0
 10
283.607
 20
72.9326
 30
0.0
 11
282.806
 21
72.9326
 31
0.0
  0
LINE
  8
0
 62
     0
 10
282.806
 20
72.9326
 30
0.0
 11
282.806
 21
69.8334
 31
0.0
  0
LINE
  8
0
 62
     0
 10
282.806
 20
69.8334
 30
0.0
 11
283.607
 21
69.8334
 31
0.0
  0
LINE
  8
0
 62
     0
 10
283.607
 20
69.8334
 30
0.0
 11
283.607
 21
64.0334
 31
0.0
  0
LINE
  8
0
 62
     0
 10
283.607
 20
64.0334
 30
0.0
 11
282.806
 21
64.0334
 31
0.0
  0
LINE
  8
0
 62
     0
 10
282.806
 20
64.0334
 30
0.0
 11
282.806
 21
60.9328
 31
0.0
  0
LINE
  8
0
 62
     0
 10
282.806
 20
60.9328
 30
0.0
 11
283.607
 21
60.9328
 31
0.0
  0
LINE
  8
0
 62
     0
 10
283.607
 20
60.9328
 30
0.0
 11
283.607
 21
59.9338
 31
0.0
  0
LINE
  8
0
 62
     0
 10
283.607
 20
59.9338
 30
0.0
 11
297.607
 21
59.9338
 31
0.0
  0
LINE
  8
0
 62
     0
 10
297.607
 20
59.9338
 30
0.0
 11
297.607
 21
60.9328
 31
0.0
  0
LINE
  8
0
 62
     0
 10
297.607
 20
60.9328
 30
0.0
 11
298.406
 21
60.9328
 31
0.0
  0
LINE
  8
0
 62
     0
 10
298.406
 20
60.9328
 30
0.0
 11
298.406
 21
64.0334
 31
0.0
  0
LINE
  8
0
 62
     0
 10
298.406
 20
64.0334
 30
0.0
 11
297.607
 21
64.0334
 31
0.0
  0
LINE
  8
0
 62
     0
 10
297.607
 20
64.0334
 30
0.0
 11
297.607
 21
69.8334
 31
0.0
  0
LINE
  8
0
 62
     0
 10
297.607
 20
69.8334
 30
0.0
 11
298.406
 21
69.8334
 31
0.0
  0
LINE
  8
0
 62
     0
 10
298.406
 20
69.8334
 30
0.0
 11
298.406
 21
72.9326
 31
0.0
  0
LINE
  8
0
 62
     0
 10
298.406
 20
72.9326
 30
0.0
 11
297.607
 21
72.9326
 31
0.0
  0
LINE
  8
0
 62
     0
 10
297.607
 20
72.9326
 30
0.0
 11
297.607
 21
73.9331
 31
0.0
  0
LINE
  8
0
 62
     0
 10
297.607
 20
73.9331
 30
0.0
 11
283.607
 21
73.9331
 31
0.0
  0
LINE
  8
0
 62
     0
 10
259.795
 20
73.9331
 30
0.0
 11
259.795
 21
72.9326
 31
0.0
  0
LINE
  8
0
 62
     0
 10
259.795
 20
72.9326
 30
0.0
 11
258.994
 21
72.9326
 31
0.0
  0
LINE
  8
0
 62
     0
 10
258.994
 20
72.9326
 30
0.0
 11
258.994
 21
69.8334
 31
0.0
  0
LINE
  8
0
 62
     0
 10
258.994
 20
69.8334
 30
0.0
 11
259.795
 21
69.8334
 31
0.0
  0
LINE
  8
0
 62
     0
 10
259.795
 20
69.8334
 30
0.0
 11
259.795
 21
64.0334
 31
0.0
  0
LINE
  8
0
 62
     0
 10
259.795
 20
64.0334
 30
0.0
 11
258.994
 21
64.0334
 31
0.0
  0
LINE
  8
0
 62
     0
 10
258.994
 20
64.0334
 30
0.0
 11
258.994
 21
60.9328
 31
0.0
  0
LINE
  8
0
 62
     0
 10
258.994
 20
60.9328
 30
0.0
 11
259.795
 21
60.9328
 31
0.0
  0
LINE
  8
0
 62
     0
 10
259.795
 20
60.9328
 30
0.0
 11
259.795
 21
59.9338
 31
0.0
  0
LINE
  8
0
 62
     0
 10
259.795
 20
59.9338
 30
0.0
 11
273.794
 21
59.9338
 31
0.0
  0
LINE
  8
0
 62
     0
 10
273.794
 20
59.9338
 30
0.0
 11
273.794
 21
60.9328
 31
0.0
  0
LINE
  8
0
 62
     0
 10
273.794
 20
60.9328
 30
0.0
 11
274.595
 21
60.9328
 31
0.0
  0
LINE
  8
0
 62
     0
 10
274.595
 20
60.9328
 30
0.0
 11
274.595
 21
64.0334
 31
0.0
  0
LINE
  8
0
 62
     0
 10
274.595
 20
64.0334
 30
0.0
 11
273.794
 21
64.0334
 31
0.0
  0
LINE
  8
0
 62
     0
 10
273.794
 20
64.0334
 30
0.0
 11
273.794
 21
69.8334
 31
0.0
  0
LINE
  8
0
 62
     0
 10
273.794
 20
69.8334
 30
0.0
 11
274.595
 21
69.8334
 31
0.0
  0
LINE
  8
0
 62
     0
 10
274.595
 20
69.8334
 30
0.0
 11
274.595
 21
72.9326
 31
0.0
  0
LINE
  8
0
 62
     0
 10
274.595
 20
72.9326
 30
0.0
 11
273.794
 21
72.9326
 31
0.0
  0
LINE
  8
0
 62
     0
 10
273.794
 20
72.9326
 30
0.0
 11
273.794
 21
73.9331
 31
0.0
  0
LINE
  8
0
 62
     0
 10
273.794
 20
73.9331
 30
0.0
 11
259.795
 21
73.9331
 31
0.0
  0
LINE
  8
0
 62
     0
 10
240.745
 20
73.9331
 30
0.0
 11
240.745
 21
72.9326
 31
0.0
  0
LINE
  8
0
 62
     0
 10
240.745
 20
72.9326
 30
0.0
 11
239.944
 21
72.9326
 31
0.0
  0
LINE
  8
0
 62
     0
 10
239.944
 20
72.9326
 30
0.0
 11
239.944
 21
69.8334
 31
0.0
  0
LINE
  8
0
 62
     0
 10
239.944
 20
69.8334
 30
0.0
 11
240.745
 21
69.8334
 31
0.0
  0
LINE
  8
0
 62
     0
 10
240.745
 20
69.8334
 30
0.0
 11
240.745
 21
64.0334
 31
0.0
  0
LINE
  8
0
 62
     0
 10
240.745
 20
64.0334
 30
0.0
 11
239.944
 21
64.0334
 31
0.0
  0
LINE
  8
0
 62
     0
 10
239.944
 20
64.0334
 30
0.0
 11
239.944
 21
60.9328
 31
0.0
  0
LINE
  8
0
 62
     0
 10
239.944
 20
60.9328
 30
0.0
 11
240.745
 21
60.9328
 31
0.0
  0
LINE
  8
0
 62
     0
 10
240.745
 20
60.9328
 30
0.0
 11
240.745
 21
59.9338
 31
0.0
  0
LINE
  8
0
 62
     0
 10
240.745
 20
59.9338
 30
0.0
 11
254.744
 21
59.9338
 31
0.0
  0
LINE
  8
0
 62
     0
 10
254.744
 20
59.9338
 30
0.0
 11
254.744
 21
60.9328
 31
0.0
  0
LINE
  8
0
 62
     0
 10
254.744
 20
60.9328
 30
0.0
 11
255.545
 21
60.9328
 31
0.0
  0
LINE
  8
0
 62
     0
 10
255.545
 20
60.9328
 30
0.0
 11
255.545
 21
64.0334
 31
0.0
  0
LINE
  8
0
 62
     0
 10
255.545
 20
64.0334
 30
0.0
 11
254.744
 21
64.0334
 31
0.0
  0
LINE
  8
0
 62
     0
 10
254.744
 20
64.0334
 30
0.0
 11
254.744
 21
69.8334
 31
0.0
  0
LINE
  8
0
 62
     0
 10
254.744
 20
69.8334
 30
0.0
 11
255.545
 21
69.8334
 31
0.0
  0
LINE
  8
0
 62
     0
 10
255.545
 20
69.8334
 30
0.0
 11
255.545
 21
72.9326
 31
0.0
  0
LINE
  8
0
 62
     0
 10
255.545
 20
72.9326
 30
0.0
 11
254.744
 21
72.9326
 31
0.0
  0
LINE
  8
0
 62
     0
 10
254.744
 20
72.9326
 30
0.0
 11
254.744
 21
73.9331
 31
0.0
  0
LINE
  8
0
 62
     0
 10
254.744
 20
73.9331
 30
0.0
 11
240.745
 21
73.9331
 31
0.0
  0
LINE
  8
0
 62
     0
 10
221.695
 20
73.9331
 30
0.0
 11
221.695
 21
72.9326
 31
0.0
  0
LINE
  8
0
 62
     0
 10
221.695
 20
72.9326
 30
0.0
 11
220.894
 21
72.9326
 31
0.0
  0
LINE
  8
0
 62
     0
 10
220.894
 20
72.9326
 30
0.0
 11
220.894
 21
69.8334
 31
0.0
  0
LINE
  8
0
 62
     0
 10
220.894
 20
69.8334
 30
0.0
 11
221.695
 21
69.8334
 31
0.0
  0
LINE
  8
0
 62
     0
 10
221.695
 20
69.8334
 30
0.0
 11
221.695
 21
64.0334
 31
0.0
  0
LINE
  8
0
 62
     0
 10
221.695
 20
64.0334
 30
0.0
 11
220.894
 21
64.0334
 31
0.0
  0
LINE
  8
0
 62
     0
 10
220.894
 20
64.0334
 30
0.0
 11
220.894
 21
60.9328
 31
0.0
  0
LINE
  8
0
 62
     0
 10
220.894
 20
60.9328
 30
0.0
 11
221.695
 21
60.9328
 31
0.0
  0
LINE
  8
0
 62
     0
 10
221.695
 20
60.9328
 30
0.0
 11
221.695
 21
59.9338
 31
0.0
  0
LINE
  8
0
 62
     0
 10
221.695
 20
59.9338
 30
0.0
 11
235.694
 21
59.9338
 31
0.0
  0
LINE
  8
0
 62
     0
 10
235.694
 20
59.9338
 30
0.0
 11
235.694
 21
60.9328
 31
0.0
  0
LINE
  8
0
 62
     0
 10
235.694
 20
60.9328
 30
0.0
 11
236.495
 21
60.9328
 31
0.0
  0
LINE
  8
0
 62
     0
 10
236.495
 20
60.9328
 30
0.0
 11
236.495
 21
64.0334
 31
0.0
  0
LINE
  8
0
 62
     0
 10
236.495
 20
64.0334
 30
0.0
 11
235.694
 21
64.0334
 31
0.0
  0
LINE
  8
0
 62
     0
 10
235.694
 20
64.0334
 30
0.0
 11
235.694
 21
69.8334
 31
0.0
  0
LINE
  8
0
 62
     0
 10
235.694
 20
69.8334
 30
0.0
 11
236.495
 21
69.8334
 31
0.0
  0
LINE
  8
0
 62
     0
 10
236.495
 20
69.8334
 30
0.0
 11
236.495
 21
72.9326
 31
0.0
  0
LINE
  8
0
 62
     0
 10
236.495
 20
72.9326
 30
0.0
 11
235.694
 21
72.9326
 31
0.0
  0
LINE
  8
0
 62
     0
 10
235.694
 20
72.9326
 30
0.0
 11
235.694
 21
73.9331
 31
0.0
  0
LINE
  8
0
 62
     0
 10
235.694
 20
73.9331
 30
0.0
 11
221.695
 21
73.9331
 31
0.0
  0
LINE
  8
0
 62
     0
 10
202.645
 20
73.9331
 30
0.0
 11
202.645
 21
72.9326
 31
0.0
  0
LINE
  8
0
 62
     0
 10
202.645
 20
72.9326
 30
0.0
 11
201.844
 21
72.9326
 31
0.0
  0
LINE
  8
0
 62
     0
 10
201.844
 20
72.9326
 30
0.0
 11
201.844
 21
69.8334
 31
0.0
  0
LINE
  8
0
 62
     0
 10
201.844
 20
69.8334
 30
0.0
 11
202.645
 21
69.8334
 31
0.0
  0
LINE
  8
0
 62
     0
 10
202.645
 20
69.8334
 30
0.0
 11
202.645
 21
64.0334
 31
0.0
  0
LINE
  8
0
 62
     0
 10
202.645
 20
64.0334
 30
0.0
 11
201.844
 21
64.0334
 31
0.0
  0
LINE
  8
0
 62
     0
 10
201.844
 20
64.0334
 30
0.0
 11
201.844
 21
60.9328
 31
0.0
  0
LINE
  8
0
 62
     0
 10
201.844
 20
60.9328
 30
0.0
 11
202.645
 21
60.9328
 31
0.0
  0
LINE
  8
0
 62
     0
 10
202.645
 20
60.9328
 30
0.0
 11
202.645
 21
59.9338
 31
0.0
  0
LINE
  8
0
 62
     0
 10
202.645
 20
59.9338
 30
0.0
 11
216.644
 21
59.9338
 31
0.0
  0
LINE
  8
0
 62
     0
 10
216.644
 20
59.9338
 30
0.0
 11
216.644
 21
60.9328
 31
0.0
  0
LINE
  8
0
 62
     0
 10
216.644
 20
60.9328
 30
0.0
 11
217.445
 21
60.9328
 31
0.0
  0
LINE
  8
0
 62
     0
 10
217.445
 20
60.9328
 30
0.0
 11
217.445
 21
64.0334
 31
0.0
  0
LINE
  8
0
 62
     0
 10
217.445
 20
64.0334
 30
0.0
 11
216.644
 21
64.0334
 31
0.0
  0
LINE
  8
0
 62
     0
 10
216.644
 20
64.0334
 30
0.0
 11
216.644
 21
69.8334
 31
0.0
  0
LINE
  8
0
 62
     0
 10
216.644
 20
69.8334
 30
0.0
 11
217.445
 21
69.8334
 31
0.0
  0
LINE
  8
0
 62
     0
 10
217.445
 20
69.8334
 30
0.0
 11
217.445
 21
72.9326
 31
0.0
  0
LINE
  8
0
 62
     0
 10
217.445
 20
72.9326
 30
0.0
 11
216.644
 21
72.9326
 31
0.0
  0
LINE
  8
0
 62
     0
 10
216.644
 20
72.9326
 30
0.0
 11
216.644
 21
73.9331
 31
0.0
  0
LINE
  8
0
 62
     0
 10
216.644
 20
73.9331
 30
0.0
 11
202.645
 21
73.9331
 31
0.0
  0
LINE
  8
0
 62
     0
 10
183.595
 20
73.9331
 30
0.0
 11
183.595
 21
72.9326
 31
0.0
  0
LINE
  8
0
 62
     0
 10
183.595
 20
72.9326
 30
0.0
 11
182.794
 21
72.9326
 31
0.0
  0
LINE
  8
0
 62
     0
 10
182.794
 20
72.9326
 30
0.0
 11
182.794
 21
69.8334
 31
0.0
  0
LINE
  8
0
 62
     0
 10
182.794
 20
69.8334
 30
0.0
 11
183.595
 21
69.8334
 31
0.0
  0
LINE
  8
0
 62
     0
 10
183.595
 20
69.8334
 30
0.0
 11
183.595
 21
64.0334
 31
0.0
  0
LINE
  8
0
 62
     0
 10
183.595
 20
64.0334
 30
0.0
 11
182.794
 21
64.0334
 31
0.0
  0
LINE
  8
0
 62
     0
 10
182.794
 20
64.0334
 30
0.0
 11
182.794
 21
60.9328
 31
0.0
  0
LINE
  8
0
 62
     0
 10
182.794
 20
60.9328
 30
0.0
 11
183.595
 21
60.9328
 31
0.0
  0
LINE
  8
0
 62
     0
 10
183.595
 20
60.9328
 30
0.0
 11
183.595
 21
59.9338
 31
0.0
  0
LINE
  8
0
 62
     0
 10
183.595
 20
59.9338
 30
0.0
 11
197.594
 21
59.9338
 31
0.0
  0
LINE
  8
0
 62
     0
 10
197.594
 20
59.9338
 30
0.0
 11
197.594
 21
60.9328
 31
0.0
  0
LINE
  8
0
 62
     0
 10
197.594
 20
60.9328
 30
0.0
 11
198.395
 21
60.9328
 31
0.0
  0
LINE
  8
0
 62
     0
 10
198.395
 20
60.9328
 30
0.0
 11
198.395
 21
64.0334
 31
0.0
  0
LINE
  8
0
 62
     0
 10
198.395
 20
64.0334
 30
0.0
 11
197.594
 21
64.0334
 31
0.0
  0
LINE
  8
0
 62
     0
 10
197.594
 20
64.0334
 30
0.0
 11
197.594
 21
69.8334
 31
0.0
  0
LINE
  8
0
 62
     0
 10
197.594
 20
69.8334
 30
0.0
 11
198.395
 21
69.8334
 31
0.0
  0
LINE
  8
0
 62
     0
 10
198.395
 20
69.8334
 30
0.0
 11
198.395
 21
72.9326
 31
0.0
  0
LINE
  8
0
 62
     0
 10
198.395
 20
72.9326
 30
0.0
 11
197.594
 21
72.9326
 31
0.0
  0
LINE
  8
0
 62
     0
 10
197.594
 20
72.9326
 30
0.0
 11
197.594
 21
73.9331
 31
0.0
  0
LINE
  8
0
 62
     0
 10
197.594
 20
73.9331
 30
0.0
 11
183.595
 21
73.9331
 31
0.0
  0
LINE
  8
0
 62
     0
 10
164.545
 20
73.9331
 30
0.0
 11
164.545
 21
72.9326
 31
0.0
  0
LINE
  8
0
 62
     0
 10
164.545
 20
72.9326
 30
0.0
 11
163.744
 21
72.9326
 31
0.0
  0
LINE
  8
0
 62
     0
 10
163.744
 20
72.9326
 30
0.0
 11
163.744
 21
69.8334
 31
0.0
  0
LINE
  8
0
 62
     0
 10
163.744
 20
69.8334
 30
0.0
 11
164.545
 21
69.8334
 31
0.0
  0
LINE
  8
0
 62
     0
 10
164.545
 20
69.8334
 30
0.0
 11
164.545
 21
64.0334
 31
0.0
  0
LINE
  8
0
 62
     0
 10
164.545
 20
64.0334
 30
0.0
 11
163.744
 21
64.0334
 31
0.0
  0
LINE
  8
0
 62
     0
 10
163.744
 20
64.0334
 30
0.0
 11
163.744
 21
60.9328
 31
0.0
  0
LINE
  8
0
 62
     0
 10
163.744
 20
60.9328
 30
0.0
 11
164.545
 21
60.9328
 31
0.0
  0
LINE
  8
0
 62
     0
 10
164.545
 20
60.9328
 30
0.0
 11
164.545
 21
59.9338
 31
0.0
  0
LINE
  8
0
 62
     0
 10
164.545
 20
59.9338
 30
0.0
 11
178.544
 21
59.9338
 31
0.0
  0
LINE
  8
0
 62
     0
 10
178.544
 20
59.9338
 30
0.0
 11
178.544
 21
60.9328
 31
0.0
  0
LINE
  8
0
 62
     0
 10
178.544
 20
60.9328
 30
0.0
 11
179.345
 21
60.9328
 31
0.0
  0
LINE
  8
0
 62
     0
 10
179.345
 20
60.9328
 30
0.0
 11
179.345
 21
64.0334
 31
0.0
  0
LINE
  8
0
 62
     0
 10
179.345
 20
64.0334
 30
0.0
 11
178.544
 21
64.0334
 31
0.0
  0
LINE
  8
0
 62
     0
 10
178.544
 20
64.0334
 30
0.0
 11
178.544
 21
69.8334
 31
0.0
  0
LINE
  8
0
 62
     0
 10
178.544
 20
69.8334
 30
0.0
 11
179.345
 21
69.8334
 31
0.0
  0
LINE
  8
0
 62
     0
 10
179.345
 20
69.8334
 30
0.0
 11
179.345
 21
72.9326
 31
0.0
  0
LINE
  8
0
 62
     0
 10
179.345
 20
72.9326
 30
0.0
 11
178.544
 21
72.9326
 31
0.0
  0
LINE
  8
0
 62
     0
 10
178.544
 20
72.9326
 30
0.0
 11
178.544
 21
73.9331
 31
0.0
  0
LINE
  8
0
 62
     0
 10
178.544
 20
73.9331
 30
0.0
 11
164.545
 21
73.9331
 31
0.0
  0
LINE
  8
0
 62
     0
 10
145.495
 20
73.9331
 30
0.0
 11
145.495
 21
72.9326
 31
0.0
  0
LINE
  8
0
 62
     0
 10
145.495
 20
72.9326
 30
0.0
 11
144.694
 21
72.9326
 31
0.0
  0
LINE
  8
0
 62
     0
 10
144.694
 20
72.9326
 30
0.0
 11
144.694
 21
69.8334
 31
0.0
  0
LINE
  8
0
 62
     0
 10
144.694
 20
69.8334
 30
0.0
 11
145.495
 21
69.8334
 31
0.0
  0
LINE
  8
0
 62
     0
 10
145.495
 20
69.8334
 30
0.0
 11
145.495
 21
64.0334
 31
0.0
  0
LINE
  8
0
 62
     0
 10
145.495
 20
64.0334
 30
0.0
 11
144.694
 21
64.0334
 31
0.0
  0
LINE
  8
0
 62
     0
 10
144.694
 20
64.0334
 30
0.0
 11
144.694
 21
60.9328
 31
0.0
  0
LINE
  8
0
 62
     0
 10
144.694
 20
60.9328
 30
0.0
 11
145.495
 21
60.9328
 31
0.0
  0
LINE
  8
0
 62
     0
 10
145.495
 20
60.9328
 30
0.0
 11
145.495
 21
59.9338
 31
0.0
  0
LINE
  8
0
 62
     0
 10
145.495
 20
59.9338
 30
0.0
 11
159.494
 21
59.9338
 31
0.0
  0
LINE
  8
0
 62
     0
 10
159.494
 20
59.9338
 30
0.0
 11
159.494
 21
60.9328
 31
0.0
  0
LINE
  8
0
 62
     0
 10
159.494
 20
60.9328
 30
0.0
 11
160.295
 21
60.9328
 31
0.0
  0
LINE
  8
0
 62
     0
 10
160.295
 20
60.9328
 30
0.0
 11
160.295
 21
64.0334
 31
0.0
  0
LINE
  8
0
 62
     0
 10
160.295
 20
64.0334
 30
0.0
 11
159.494
 21
64.0334
 31
0.0
  0
LINE
  8
0
 62
     0
 10
159.494
 20
64.0334
 30
0.0
 11
159.494
 21
69.8334
 31
0.0
  0
LINE
  8
0
 62
     0
 10
159.494
 20
69.8334
 30
0.0
 11
160.295
 21
69.8334
 31
0.0
  0
LINE
  8
0
 62
     0
 10
160.295
 20
69.8334
 30
0.0
 11
160.295
 21
72.9326
 31
0.0
  0
LINE
  8
0
 62
     0
 10
160.295
 20
72.9326
 30
0.0
 11
159.494
 21
72.9326
 31
0.0
  0
LINE
  8
0
 62
     0
 10
159.494
 20
72.9326
 30
0.0
 11
159.494
 21
73.9331
 31
0.0
  0
LINE
  8
0
 62
     0
 10
159.494
 20
73.9331
 30
0.0
 11
145.495
 21
73.9331
 31
0.0
  0
LINE
  8
0
 62
     0
 10
126.445
 20
73.9331
 30
0.0
 11
126.445
 21
72.9326
 31
0.0
  0
LINE
  8
0
 62
     0
 10
126.445
 20
72.9326
 30
0.0
 11
125.644
 21
72.9326
 31
0.0
  0
LINE
  8
0
 62
     0
 10
125.644
 20
72.9326
 30
0.0
 11
125.644
 21
69.8334
 31
0.0
  0
LINE
  8
0
 62
     0
 10
125.644
 20
69.8334
 30
0.0
 11
126.445
 21
69.8334
 31
0.0
  0
LINE
  8
0
 62
     0
 10
126.445
 20
69.8334
 30
0.0
 11
126.445
 21
64.0334
 31
0.0
  0
LINE
  8
0
 62
     0
 10
126.445
 20
64.0334
 30
0.0
 11
125.644
 21
64.0334
 31
0.0
  0
LINE
  8
0
 62
     0
 10
125.644
 20
64.0334
 30
0.0
 11
125.644
 21
60.9328
 31
0.0
  0
LINE
  8
0
 62
     0
 10
125.644
 20
60.9328
 30
0.0
 11
126.445
 21
60.9328
 31
0.0
  0
LINE
  8
0
 62
     0
 10
126.445
 20
60.9328
 30
0.0
 11
126.445
 21
59.9338
 31
0.0
  0
LINE
  8
0
 62
     0
 10
126.445
 20
59.9338
 30
0.0
 11
140.444
 21
59.9338
 31
0.0
  0
LINE
  8
0
 62
     0
 10
140.444
 20
59.9338
 30
0.0
 11
140.444
 21
60.9328
 31
0.0
  0
LINE
  8
0
 62
     0
 10
140.444
 20
60.9328
 30
0.0
 11
141.245
 21
60.9328
 31
0.0
  0
LINE
  8
0
 62
     0
 10
141.245
 20
60.9328
 30
0.0
 11
141.245
 21
64.0334
 31
0.0
  0
LINE
  8
0
 62
     0
 10
141.245
 20
64.0334
 30
0.0
 11
140.444
 21
64.0334
 31
0.0
  0
LINE
  8
0
 62
     0
 10
140.444
 20
64.0334
 30
0.0
 11
140.444
 21
69.8334
 31
0.0
  0
LINE
  8
0
 62
     0
 10
140.444
 20
69.8334
 30
0.0
 11
141.245
 21
69.8334
 31
0.0
  0
LINE
  8
0
 62
     0
 10
141.245
 20
69.8334
 30
0.0
 11
141.245
 21
72.9326
 31
0.0
  0
LINE
  8
0
 62
     0
 10
141.245
 20
72.9326
 30
0.0
 11
140.444
 21
72.9326
 31
0.0
  0
LINE
  8
0
 62
     0
 10
140.444
 20
72.9326
 30
0.0
 11
140.444
 21
73.9331
 31
0.0
  0
LINE
  8
0
 62
     0
 10
140.444
 20
73.9331
 30
0.0
 11
126.445
 21
73.9331
 31
0.0
  0
LINE
  8
0
 62
     0
 10
107.395
 20
73.9331
 30
0.0
 11
107.395
 21
72.9326
 31
0.0
  0
LINE
  8
0
 62
     0
 10
107.395
 20
72.9326
 30
0.0
 11
106.594
 21
72.9326
 31
0.0
  0
LINE
  8
0
 62
     0
 10
106.594
 20
72.9326
 30
0.0
 11
106.594
 21
69.8334
 31
0.0
  0
LINE
  8
0
 62
     0
 10
106.594
 20
69.8334
 30
0.0
 11
107.395
 21
69.8334
 31
0.0
  0
LINE
  8
0
 62
     0
 10
107.395
 20
69.8334
 30
0.0
 11
107.395
 21
64.0334
 31
0.0
  0
LINE
  8
0
 62
     0
 10
107.395
 20
64.0334
 30
0.0
 11
106.594
 21
64.0334
 31
0.0
  0
LINE
  8
0
 62
     0
 10
106.594
 20
64.0334
 30
0.0
 11
106.594
 21
60.9328
 31
0.0
  0
LINE
  8
0
 62
     0
 10
106.594
 20
60.9328
 30
0.0
 11
107.395
 21
60.9328
 31
0.0
  0
LINE
  8
0
 62
     0
 10
107.395
 20
60.9328
 30
0.0
 11
107.395
 21
59.9338
 31
0.0
  0
LINE
  8
0
 62
     0
 10
107.395
 20
59.9338
 30
0.0
 11
121.394
 21
59.9338
 31
0.0
  0
LINE
  8
0
 62
     0
 10
121.394
 20
59.9338
 30
0.0
 11
121.394
 21
60.9328
 31
0.0
  0
LINE
  8
0
 62
     0
 10
121.394
 20
60.9328
 30
0.0
 11
122.195
 21
60.9328
 31
0.0
  0
LINE
  8
0
 62
     0
 10
122.195
 20
60.9328
 30
0.0
 11
122.195
 21
64.0334
 31
0.0
  0
LINE
  8
0
 62
     0
 10
122.195
 20
64.0334
 30
0.0
 11
121.394
 21
64.0334
 31
0.0
  0
LINE
  8
0
 62
     0
 10
121.394
 20
64.0334
 30
0.0
 11
121.394
 21
69.8334
 31
0.0
  0
LINE
  8
0
 62
     0
 10
121.394
 20
69.8334
 30
0.0
 11
122.195
 21
69.8334
 31
0.0
  0
LINE
  8
0
 62
     0
 10
122.195
 20
69.8334
 30
0.0
 11
122.195
 21
72.9326
 31
0.0
  0
LINE
  8
0
 62
     0
 10
122.195
 20
72.9326
 30
0.0
 11
121.394
 21
72.9326
 31
0.0
  0
LINE
  8
0
 62
     0
 10
121.394
 20
72.9326
 30
0.0
 11
121.394
 21
73.9331
 31
0.0
  0
LINE
  8
0
 62
     0
 10
121.394
 20
73.9331
 30
0.0
 11
107.395
 21
73.9331
 31
0.0
  0
LINE
  8
0
 62
     0
 10
88.3447
 20
73.9331
 30
0.0
 11
88.3447
 21
72.9326
 31
0.0
  0
LINE
  8
0
 62
     0
 10
88.3447
 20
72.9326
 30
0.0
 11
87.5439
 21
72.9326
 31
0.0
  0
LINE
  8
0
 62
     0
 10
87.5439
 20
72.9326
 30
0.0
 11
87.5439
 21
69.8334
 31
0.0
  0
LINE
  8
0
 62
     0
 10
87.5439
 20
69.8334
 30
0.0
 11
88.3447
 21
69.8334
 31
0.0
  0
LINE
  8
0
 62
     0
 10
88.3447
 20
69.8334
 30
0.0
 11
88.3447
 21
64.0334
 31
0.0
  0
LINE
  8
0
 62
     0
 10
88.3447
 20
64.0334
 30
0.0
 11
87.5439
 21
64.0334
 31
0.0
  0
LINE
  8
0
 62
     0
 10
87.5439
 20
64.0334
 30
0.0
 11
87.5439
 21
60.9328
 31
0.0
  0
LINE
  8
0
 62
     0
 10
87.5439
 20
60.9328
 30
0.0
 11
88.3447
 21
60.9328
 31
0.0
  0
LINE
  8
0
 62
     0
 10
88.3447
 20
60.9328
 30
0.0
 11
88.3447
 21
59.9338
 31
0.0
  0
LINE
  8
0
 62
     0
 10
88.3447
 20
59.9338
 30
0.0
 11
102.344
 21
59.9338
 31
0.0
  0
LINE
  8
0
 62
     0
 10
102.344
 20
59.9338
 30
0.0
 11
102.344
 21
60.9328
 31
0.0
  0
LINE
  8
0
 62
     0
 10
102.344
 20
60.9328
 30
0.0
 11
103.145
 21
60.9328
 31
0.0
  0
LINE
  8
0
 62
     0
 10
103.145
 20
60.9328
 30
0.0
 11
103.145
 21
64.0334
 31
0.0
  0
LINE
  8
0
 62
     0
 10
103.145
 20
64.0334
 30
0.0
 11
102.344
 21
64.0334
 31
0.0
  0
LINE
  8
0
 62
     0
 10
102.344
 20
64.0334
 30
0.0
 11
102.344
 21
69.8334
 31
0.0
  0
LINE
  8
0
 62
     0
 10
102.344
 20
69.8334
 30
0.0
 11
103.145
 21
69.8334
 31
0.0
  0
LINE
  8
0
 62
     0
 10
103.145
 20
69.8334
 30
0.0
 11
103.145
 21
72.9326
 31
0.0
  0
LINE
  8
0
 62
     0
 10
103.145
 20
72.9326
 30
0.0
 11
102.344
 21
72.9326
 31
0.0
  0
LINE
  8
0
 62
     0
 10
102.344
 20
72.9326
 30
0.0
 11
102.344
 21
73.9331
 31
0.0
  0
LINE
  8
0
 62
     0
 10
102.344
 20
73.9331
 30
0.0
 11
88.3447
 21
73.9331
 31
0.0
  0
LINE
  8
0
 62
     0
 10
69.2947
 20
73.9331
 30
0.0
 11
69.2947
 21
72.9326
 31
0.0
  0
LINE
  8
0
 62
     0
 10
69.2947
 20
72.9326
 30
0.0
 11
68.4939
 21
72.9326
 31
0.0
  0
LINE
  8
0
 62
     0
 10
68.4939
 20
72.9326
 30
0.0
 11
68.4939
 21
69.8334
 31
0.0
  0
LINE
  8
0
 62
     0
 10
68.4939
 20
69.8334
 30
0.0
 11
69.2947
 21
69.8334
 31
0.0
  0
LINE
  8
0
 62
     0
 10
69.2947
 20
69.8334
 30
0.0
 11
69.2947
 21
64.0334
 31
0.0
  0
LINE
  8
0
 62
     0
 10
69.2947
 20
64.0334
 30
0.0
 11
68.4939
 21
64.0334
 31
0.0
  0
LINE
  8
0
 62
     0
 10
68.4939
 20
64.0334
 30
0.0
 11
68.4939
 21
60.9328
 31
0.0
  0
LINE
  8
0
 62
     0
 10
68.4939
 20
60.9328
 30
0.0
 11
69.2947
 21
60.9328
 31
0.0
  0
LINE
  8
0
 62
     0
 10
69.2947
 20
60.9328
 30
0.0
 11
69.2947
 21
59.9338
 31
0.0
  0
LINE
  8
0
 62
     0
 10
69.2947
 20
59.9338
 30
0.0
 11
83.294
 21
59.9338
 31
0.0
  0
LINE
  8
0
 62
     0
 10
83.294
 20
59.9338
 30
0.0
 11
83.294
 21
60.9328
 31
0.0
  0
LINE
  8
0
 62
     0
 10
83.294
 20
60.9328
 30
0.0
 11
84.0948
 21
60.9328
 31
0.0
  0
LINE
  8
0
 62
     0
 10
84.0948
 20
60.9328
 30
0.0
 11
84.0948
 21
64.0334
 31
0.0
  0
LINE
  8
0
 62
     0
 10
84.0948
 20
64.0334
 30
0.0
 11
83.294
 21
64.0334
 31
0.0
  0
LINE
  8
0
 62
     0
 10
83.294
 20
64.0334
 30
0.0
 11
83.294
 21
69.8334
 31
0.0
  0
LINE
  8
0
 62
     0
 10
83.294
 20
69.8334
 30
0.0
 11
84.0948
 21
69.8334
 31
0.0
  0
LINE
  8
0
 62
     0
 10
84.0948
 20
69.8334
 30
0.0
 11
84.0948
 21
72.9326
 31
0.0
  0
LINE
  8
0
 62
     0
 10
84.0948
 20
72.9326
 30
0.0
 11
83.294
 21
72.9326
 31
0.0
  0
LINE
  8
0
 62
     0
 10
83.294
 20
72.9326
 30
0.0
 11
83.294
 21
73.9331
 31
0.0
  0
LINE
  8
0
 62
     0
 10
83.294
 20
73.9331
 30
0.0
 11
69.2947
 21
73.9331
 31
0.0
  0
LINE
  8
0
 62
     0
 10
50.2447
 20
73.9331
 30
0.0
 11
50.2447
 21
72.9326
 31
0.0
  0
LINE
  8
0
 62
     0
 10
50.2447
 20
72.9326
 30
0.0
 11
49.4439
 21
72.9326
 31
0.0
  0
LINE
  8
0
 62
     0
 10
49.4439
 20
72.9326
 30
0.0
 11
49.4439
 21
69.8334
 31
0.0
  0
LINE
  8
0
 62
     0
 10
49.4439
 20
69.8334
 30
0.0
 11
50.2447
 21
69.8334
 31
0.0
  0
LINE
  8
0
 62
     0
 10
50.2447
 20
69.8334
 30
0.0
 11
50.2447
 21
64.0334
 31
0.0
  0
LINE
  8
0
 62
     0
 10
50.2447
 20
64.0334
 30
0.0
 11
49.4439
 21
64.0334
 31
0.0
  0
LINE
  8
0
 62
     0
 10
49.4439
 20
64.0334
 30
0.0
 11
49.4439
 21
60.9328
 31
0.0
  0
LINE
  8
0
 62
     0
 10
49.4439
 20
60.9328
 30
0.0
 11
50.2447
 21
60.9328
 31
0.0
  0
LINE
  8
0
 62
     0
 10
50.2447
 20
60.9328
 30
0.0
 11
50.2447
 21
59.9338
 31
0.0
  0
LINE
  8
0
 62
     0
 10
50.2447
 20
59.9338
 30
0.0
 11
64.244
 21
59.9338
 31
0.0
  0
LINE
  8
0
 62
     0
 10
64.244
 20
59.9338
 30
0.0
 11
64.244
 21
60.9328
 31
0.0
  0
LINE
  8
0
 62
     0
 10
64.244
 20
60.9328
 30
0.0
 11
65.0448
 21
60.9328
 31
0.0
  0
LINE
  8
0
 62
     0
 10
65.0448
 20
60.9328
 30
0.0
 11
65.0448
 21
64.0334
 31
0.0
  0
LINE
  8
0
 62
     0
 10
65.0448
 20
64.0334
 30
0.0
 11
64.244
 21
64.0334
 31
0.0
  0
LINE
  8
0
 62
     0
 10
64.244
 20
64.0334
 30
0.0
 11
64.244
 21
69.8334
 31
0.0
  0
LINE
  8
0
 62
     0
 10
64.244
 20
69.8334
 30
0.0
 11
65.0448
 21
69.8334
 31
0.0
  0
LINE
  8
0
 62
     0
 10
65.0448
 20
69.8334
 30
0.0
 11
65.0448
 21
72.9326
 31
0.0
  0
LINE
  8
0
 62
     0
 10
65.0448
 20
72.9326
 30
0.0
 11
64.244
 21
72.9326
 31
0.0
  0
LINE
  8
0
 62
     0
 10
64.244
 20
72.9326
 30
0.0
 11
64.244
 21
73.9331
 31
0.0
  0
LINE
  8
0
 62
     0
 10
64.244
 20
73.9331
 30
0.0
 11
50.2447
 21
73.9331
 31
0.0
  0
LINE
  8
0
 62
     0
 10
26.4322
 20
73.9331
 30
0.0
 11
26.4322
 21
72.9326
 31
0.0
  0
LINE
  8
0
 62
     0
 10
26.4322
 20
72.9326
 30
0.0
 11
25.6315
 21
72.9326
 31
0.0
  0
LINE
  8
0
 62
     0
 10
25.6315
 20
72.9326
 30
0.0
 11
25.6315
 21
69.8334
 31
0.0
  0
LINE
  8
0
 62
     0
 10
25.6315
 20
69.8334
 30
0.0
 11
26.4322
 21
69.8334
 31
0.0
  0
LINE
  8
0
 62
     0
 10
26.4322
 20
69.8334
 30
0.0
 11
26.4322
 21
64.0334
 31
0.0
  0
LINE
  8
0
 62
     0
 10
26.4322
 20
64.0334
 30
0.0
 11
25.6315
 21
64.0334
 31
0.0
  0
LINE
  8
0
 62
     0
 10
25.6315
 20
64.0334
 30
0.0
 11
25.6315
 21
60.9328
 31
0.0
  0
LINE
  8
0
 62
     0
 10
25.6315
 20
60.9328
 30
0.0
 11
26.4322
 21
60.9328
 31
0.0
  0
LINE
  8
0
 62
     0
 10
26.4322
 20
60.9328
 30
0.0
 11
26.4322
 21
59.9338
 31
0.0
  0
LINE
  8
0
 62
     0
 10
26.4322
 20
59.9338
 30
0.0
 11
40.4315
 21
59.9338
 31
0.0
  0
LINE
  8
0
 62
     0
 10
40.4315
 20
59.9338
 30
0.0
 11
40.4315
 21
60.9328
 31
0.0
  0
LINE
  8
0
 62
     0
 10
40.4315
 20
60.9328
 30
0.0
 11
41.2309
 21
60.9328
 31
0.0
  0
LINE
  8
0
 62
     0
 10
41.2309
 20
60.9328
 30
0.0
 11
41.2309
 21
64.0334
 31
0.0
  0
LINE
  8
0
 62
     0
 10
41.2309
 20
64.0334
 30
0.0
 11
40.4315
 21
64.0334
 31
0.0
  0
LINE
  8
0
 62
     0
 10
40.4315
 20
64.0334
 30
0.0
 11
40.4315
 21
69.8334
 31
0.0
  0
LINE
  8
0
 62
     0
 10
40.4315
 20
69.8334
 30
0.0
 11
41.2309
 21
69.8334
 31
0.0
  0
LINE
  8
0
 62
     0
 10
41.2309
 20
69.8334
 30
0.0
 11
41.2309
 21
72.9326
 31
0.0
  0
LINE
  8
0
 62
     0
 10
41.2309
 20
72.9326
 30
0.0
 11
40.4315
 21
72.9326
 31
0.0
  0
LINE
  8
0
 62
     0
 10
40.4315
 20
72.9326
 30
0.0
 11
40.4315
 21
73.9331
 31
0.0
  0
LINE
  8
0
 62
     0
 10
40.4315
 20
73.9331
 30
0.0
 11
26.4322
 21
73.9331
 31
0.0
  0
LINE
  8
0
 62
     0
 10
2.61965
 20
73.9331
 30
0.0
 11
2.61965
 21
72.9326
 31
0.0
  0
LINE
  8
0
 62
     0
 10
2.61965
 20
72.9326
 30
0.0
 11
1.81901
 21
72.9326
 31
0.0
  0
LINE
  8
0
 62
     0
 10
1.81901
 20
72.9326
 30
0.0
 11
1.81901
 21
69.8334
 31
0.0
  0
LINE
  8
0
 62
     0
 10
1.81901
 20
69.8334
 30
0.0
 11
2.61965
 21
69.8334
 31
0.0
  0
LINE
  8
0
 62
     0
 10
2.61965
 20
69.8334
 30
0.0
 11
2.61965
 21
64.0334
 31
0.0
  0
LINE
  8
0
 62
     0
 10
2.61965
 20
64.0334
 30
0.0
 11
1.81901
 21
64.0334
 31
0.0
  0
LINE
  8
0
 62
     0
 10
1.81901
 20
64.0334
 30
0.0
 11
1.81901
 21
60.9328
 31
0.0
  0
LINE
  8
0
 62
     0
 10
1.81901
 20
60.9328
 30
0.0
 11
2.61965
 21
60.9328
 31
0.0
  0
LINE
  8
0
 62
     0
 10
2.61965
 20
60.9328
 30
0.0
 11
2.61965
 21
59.9338
 31
0.0
  0
LINE
  8
0
 62
     0
 10
2.61965
 20
59.9338
 30
0.0
 11
16.6192
 21
59.9338
 31
0.0
  0
LINE
  8
0
 62
     0
 10
16.6192
 20
59.9338
 30
0.0
 11
16.6192
 21
60.9328
 31
0.0
  0
LINE
  8
0
 62
     0
 10
16.6192
 20
60.9328
 30
0.0
 11
17.4198
 21
60.9328
 31
0.0
  0
LINE
  8
0
 62
     0
 10
17.4198
 20
60.9328
 30
0.0
 11
17.4198
 21
64.0334
 31
0.0
  0
LINE
  8
0
 62
     0
 10
17.4198
 20
64.0334
 30
0.0
 11
16.6192
 21
64.0334
 31
0.0
  0
LINE
  8
0
 62
     0
 10
16.6192
 20
64.0334
 30
0.0
 11
16.6192
 21
69.8334
 31
0.0
  0
LINE
  8
0
 62
     0
 10
16.6192
 20
69.8334
 30
0.0
 11
17.4198
 21
69.8334
 31
0.0
  0
LINE
  8
0
 62
     0
 10
17.4198
 20
69.8334
 30
0.0
 11
17.4198
 21
72.9326
 31
0.0
  0
LINE
  8
0
 62
     0
 10
17.4198
 20
72.9326
 30
0.0
 11
16.6192
 21
72.9326
 31
0.0
  0
LINE
  8
0
 62
     0
 10
16.6192
 20
72.9326
 30
0.0
 11
16.6192
 21
73.9331
 31
0.0
  0
LINE
  8
0
 62
     0
 10
16.6192
 20
73.9331
 30
0.0
 11
2.61965
 21
73.9331
 31
0.0
  0
LINE
  8
0
 62
     0
 10
278.845
 20
92.9831
 30
0.0
 11
278.845
 21
91.9826
 31
0.0
  0
LINE
  8
0
 62
     0
 10
278.845
 20
91.9826
 30
0.0
 11
278.044
 21
91.9826
 31
0.0
  0
LINE
  8
0
 62
     0
 10
278.044
 20
91.9826
 30
0.0
 11
278.044
 21
88.8834
 31
0.0
  0
LINE
  8
0
 62
     0
 10
278.044
 20
88.8834
 30
0.0
 11
278.845
 21
88.8834
 31
0.0
  0
LINE
  8
0
 62
     0
 10
278.845
 20
88.8834
 30
0.0
 11
278.845
 21
88.2826
 31
0.0
  0
LINE
  8
0
 62
     0
 10
278.845
 20
88.2826
 30
0.0
 11
277.319
 21
88.2826
 31
0.0
  0
LINE
  8
0
 62
     0
 10
277.319
 20
88.2826
 30
0.0
 11
277.319
 21
91.5127
 31
0.0
  0
LINE
  8
0
 62
     0
 10
277.319
 20
91.5127
 30
0.0
 11
275.594
 21
91.5127
 31
0.0
  0
LINE
  8
0
 62
     0
 10
275.594
 20
91.5127
 30
0.0
 11
275.594
 21
92.4334
 31
0.0
  0
LINE
  8
0
 62
     0
 10
275.594
 20
92.4334
 30
0.0
 11
272.295
 21
92.4334
 31
0.0
  0
LINE
  8
0
 62
     0
 10
272.295
 20
92.4334
 30
0.0
 11
272.295
 21
91.5127
 31
0.0
  0
LINE
  8
0
 62
     0
 10
272.295
 20
91.5127
 30
0.0
 11
270.57
 21
91.5127
 31
0.0
  0
LINE
  8
0
 62
     0
 10
270.57
 20
91.5127
 30
0.0
 11
270.57
 21
88.2826
 31
0.0
  0
LINE
  8
0
 62
     0
 10
270.57
 20
88.2826
 30
0.0
 11
269.744
 21
88.2826
 31
0.0
  0
LINE
  8
0
 62
     0
 10
269.744
 20
88.2826
 30
0.0
 11
269.744
 21
85.4837
 31
0.0
  0
LINE
  8
0
 62
     0
 10
269.744
 20
85.4837
 30
0.0
 11
270.57
 21
85.4837
 31
0.0
  0
LINE
  8
0
 62
     0
 10
270.57
 20
85.4837
 30
0.0
 11
270.57
 21
79.2138
 31
0.0
  0
LINE
  8
0
 62
     0
 10
270.57
 20
79.2138
 30
0.0
 11
272.295
 21
79.2138
 31
0.0
  0
LINE
  8
0
 62
     0
 10
272.295
 20
79.2138
 30
0.0
 11
272.295
 21
78.2327
 31
0.0
  0
LINE
  8
0
 62
     0
 10
272.295
 20
78.2327
 30
0.0
 11
275.594
 21
78.2327
 31
0.0
  0
LINE
  8
0
 62
     0
 10
275.594
 20
78.2327
 30
0.0
 11
275.594
 21
79.2138
 31
0.0
  0
LINE
  8
0
 62
     0
 10
275.594
 20
79.2138
 30
0.0
 11
277.319
 21
79.2138
 31
0.0
  0
LINE
  8
0
 62
     0
 10
277.319
 20
79.2138
 30
0.0
 11
277.319
 21
83.6828
 31
0.0
  0
LINE
  8
0
 62
     0
 10
277.319
 20
83.6828
 30
0.0
 11
278.845
 21
83.6828
 31
0.0
  0
LINE
  8
0
 62
     0
 10
278.845
 20
83.6828
 30
0.0
 11
278.845
 21
83.0834
 31
0.0
  0
LINE
  8
0
 62
     0
 10
278.845
 20
83.0834
 30
0.0
 11
278.044
 21
83.0834
 31
0.0
  0
LINE
  8
0
 62
     0
 10
278.044
 20
83.0834
 30
0.0
 11
278.044
 21
79.9828
 31
0.0
  0
LINE
  8
0
 62
     0
 10
278.044
 20
79.9828
 30
0.0
 11
278.845
 21
79.9828
 31
0.0
  0
LINE
  8
0
 62
     0
 10
278.845
 20
79.9828
 30
0.0
 11
278.845
 21
78.9838
 31
0.0
  0
LINE
  8
0
 62
     0
 10
278.845
 20
78.9838
 30
0.0
 11
292.844
 21
78.9838
 31
0.0
  0
LINE
  8
0
 62
     0
 10
292.844
 20
78.9838
 30
0.0
 11
292.844
 21
79.9828
 31
0.0
  0
LINE
  8
0
 62
     0
 10
292.844
 20
79.9828
 30
0.0
 11
293.645
 21
79.9828
 31
0.0
  0
LINE
  8
0
 62
     0
 10
293.645
 20
79.9828
 30
0.0
 11
293.645
 21
83.0834
 31
0.0
  0
LINE
  8
0
 62
     0
 10
293.645
 20
83.0834
 30
0.0
 11
292.844
 21
83.0834
 31
0.0
  0
LINE
  8
0
 62
     0
 10
292.844
 20
83.0834
 30
0.0
 11
292.844
 21
83.6828
 31
0.0
  0
LINE
  8
0
 62
     0
 10
292.844
 20
83.6828
 30
0.0
 11
294.37
 21
83.6828
 31
0.0
  0
LINE
  8
0
 62
     0
 10
294.37
 20
83.6828
 30
0.0
 11
294.37
 21
79.2138
 31
0.0
  0
LINE
  8
0
 62
     0
 10
294.37
 20
79.2138
 30
0.0
 11
296.095
 21
79.2138
 31
0.0
  0
LINE
  8
0
 62
     0
 10
296.095
 20
79.2138
 30
0.0
 11
296.095
 21
78.2327
 31
0.0
  0
LINE
  8
0
 62
     0
 10
296.095
 20
78.2327
 30
0.0
 11
299.394
 21
78.2327
 31
0.0
  0
LINE
  8
0
 62
     0
 10
299.394
 20
78.2327
 30
0.0
 11
299.394
 21
79.2138
 31
0.0
  0
LINE
  8
0
 62
     0
 10
299.394
 20
79.2138
 30
0.0
 11
301.119
 21
79.2138
 31
0.0
  0
LINE
  8
0
 62
     0
 10
301.119
 20
79.2138
 30
0.0
 11
301.119
 21
85.4837
 31
0.0
  0
LINE
  8
0
 62
     0
 10
301.119
 20
85.4837
 30
0.0
 11
301.945
 21
85.4837
 31
0.0
  0
LINE
  8
0
 62
     0
 10
301.945
 20
85.4837
 30
0.0
 11
301.945
 21
88.2826
 31
0.0
  0
LINE
  8
0
 62
     0
 10
301.945
 20
88.2826
 30
0.0
 11
301.119
 21
88.2826
 31
0.0
  0
LINE
  8
0
 62
     0
 10
301.119
 20
88.2826
 30
0.0
 11
301.119
 21
91.5127
 31
0.0
  0
LINE
  8
0
 62
     0
 10
301.119
 20
91.5127
 30
0.0
 11
299.394
 21
91.5127
 31
0.0
  0
LINE
  8
0
 62
     0
 10
299.394
 20
91.5127
 30
0.0
 11
299.394
 21
92.4334
 31
0.0
  0
LINE
  8
0
 62
     0
 10
299.394
 20
92.4334
 30
0.0
 11
296.095
 21
92.4334
 31
0.0
  0
LINE
  8
0
 62
     0
 10
296.095
 20
92.4334
 30
0.0
 11
296.095
 21
91.5127
 31
0.0
  0
LINE
  8
0
 62
     0
 10
296.095
 20
91.5127
 30
0.0
 11
294.37
 21
91.5127
 31
0.0
  0
LINE
  8
0
 62
     0
 10
294.37
 20
91.5127
 30
0.0
 11
294.37
 21
88.2826
 31
0.0
  0
LINE
  8
0
 62
     0
 10
294.37
 20
88.2826
 30
0.0
 11
292.844
 21
88.2826
 31
0.0
  0
LINE
  8
0
 62
     0
 10
292.844
 20
88.2826
 30
0.0
 11
292.844
 21
88.8834
 31
0.0
  0
LINE
  8
0
 62
     0
 10
292.844
 20
88.8834
 30
0.0
 11
293.645
 21
88.8834
 31
0.0
  0
LINE
  8
0
 62
     0
 10
293.645
 20
88.8834
 30
0.0
 11
293.645
 21
91.9826
 31
0.0
  0
LINE
  8
0
 62
     0
 10
293.645
 20
91.9826
 30
0.0
 11
292.844
 21
91.9826
 31
0.0
  0
LINE
  8
0
 62
     0
 10
292.844
 20
91.9826
 30
0.0
 11
292.844
 21
92.9831
 31
0.0
  0
LINE
  8
0
 62
     0
 10
292.844
 20
92.9831
 30
0.0
 11
278.845
 21
92.9831
 31
0.0
  0
LINE
  8
0
 62
     0
 10
250.27
 20
92.9831
 30
0.0
 11
250.27
 21
91.9826
 31
0.0
  0
LINE
  8
0
 62
     0
 10
250.27
 20
91.9826
 30
0.0
 11
249.469
 21
91.9826
 31
0.0
  0
LINE
  8
0
 62
     0
 10
249.469
 20
91.9826
 30
0.0
 11
249.469
 21
88.8834
 31
0.0
  0
LINE
  8
0
 62
     0
 10
249.469
 20
88.8834
 30
0.0
 11
250.27
 21
88.8834
 31
0.0
  0
LINE
  8
0
 62
     0
 10
250.27
 20
88.8834
 30
0.0
 11
250.27
 21
83.0834
 31
0.0
  0
LINE
  8
0
 62
     0
 10
250.27
 20
83.0834
 30
0.0
 11
249.469
 21
83.0834
 31
0.0
  0
LINE
  8
0
 62
     0
 10
249.469
 20
83.0834
 30
0.0
 11
249.469
 21
79.9828
 31
0.0
  0
LINE
  8
0
 62
     0
 10
249.469
 20
79.9828
 30
0.0
 11
250.27
 21
79.9828
 31
0.0
  0
LINE
  8
0
 62
     0
 10
250.27
 20
79.9828
 30
0.0
 11
250.27
 21
78.9838
 31
0.0
  0
LINE
  8
0
 62
     0
 10
250.27
 20
78.9838
 30
0.0
 11
264.269
 21
78.9838
 31
0.0
  0
LINE
  8
0
 62
     0
 10
264.269
 20
78.9838
 30
0.0
 11
264.269
 21
79.9828
 31
0.0
  0
LINE
  8
0
 62
     0
 10
264.269
 20
79.9828
 30
0.0
 11
265.07
 21
79.9828
 31
0.0
  0
LINE
  8
0
 62
     0
 10
265.07
 20
79.9828
 30
0.0
 11
265.07
 21
83.0834
 31
0.0
  0
LINE
  8
0
 62
     0
 10
265.07
 20
83.0834
 30
0.0
 11
264.269
 21
83.0834
 31
0.0
  0
LINE
  8
0
 62
     0
 10
264.269
 20
83.0834
 30
0.0
 11
264.269
 21
88.8834
 31
0.0
  0
LINE
  8
0
 62
     0
 10
264.269
 20
88.8834
 30
0.0
 11
265.07
 21
88.8834
 31
0.0
  0
LINE
  8
0
 62
     0
 10
265.07
 20
88.8834
 30
0.0
 11
265.07
 21
91.9826
 31
0.0
  0
LINE
  8
0
 62
     0
 10
265.07
 20
91.9826
 30
0.0
 11
264.269
 21
91.9826
 31
0.0
  0
LINE
  8
0
 62
     0
 10
264.269
 20
91.9826
 30
0.0
 11
264.269
 21
92.9831
 31
0.0
  0
LINE
  8
0
 62
     0
 10
264.269
 20
92.9831
 30
0.0
 11
250.27
 21
92.9831
 31
0.0
  0
LINE
  8
0
 62
     0
 10
231.22
 20
92.9831
 30
0.0
 11
231.22
 21
91.9826
 31
0.0
  0
LINE
  8
0
 62
     0
 10
231.22
 20
91.9826
 30
0.0
 11
230.419
 21
91.9826
 31
0.0
  0
LINE
  8
0
 62
     0
 10
230.419
 20
91.9826
 30
0.0
 11
230.419
 21
88.8834
 31
0.0
  0
LINE
  8
0
 62
     0
 10
230.419
 20
88.8834
 30
0.0
 11
231.22
 21
88.8834
 31
0.0
  0
LINE
  8
0
 62
     0
 10
231.22
 20
88.8834
 30
0.0
 11
231.22
 21
83.0834
 31
0.0
  0
LINE
  8
0
 62
     0
 10
231.22
 20
83.0834
 30
0.0
 11
230.419
 21
83.0834
 31
0.0
  0
LINE
  8
0
 62
     0
 10
230.419
 20
83.0834
 30
0.0
 11
230.419
 21
79.9828
 31
0.0
  0
LINE
  8
0
 62
     0
 10
230.419
 20
79.9828
 30
0.0
 11
231.22
 21
79.9828
 31
0.0
  0
LINE
  8
0
 62
     0
 10
231.22
 20
79.9828
 30
0.0
 11
231.22
 21
78.9838
 31
0.0
  0
LINE
  8
0
 62
     0
 10
231.22
 20
78.9838
 30
0.0
 11
245.219
 21
78.9838
 31
0.0
  0
LINE
  8
0
 62
     0
 10
245.219
 20
78.9838
 30
0.0
 11
245.219
 21
79.9828
 31
0.0
  0
LINE
  8
0
 62
     0
 10
245.219
 20
79.9828
 30
0.0
 11
246.02
 21
79.9828
 31
0.0
  0
LINE
  8
0
 62
     0
 10
246.02
 20
79.9828
 30
0.0
 11
246.02
 21
83.0834
 31
0.0
  0
LINE
  8
0
 62
     0
 10
246.02
 20
83.0834
 30
0.0
 11
245.219
 21
83.0834
 31
0.0
  0
LINE
  8
0
 62
     0
 10
245.219
 20
83.0834
 30
0.0
 11
245.219
 21
88.8834
 31
0.0
  0
LINE
  8
0
 62
     0
 10
245.219
 20
88.8834
 30
0.0
 11
246.02
 21
88.8834
 31
0.0
  0
LINE
  8
0
 62
     0
 10
246.02
 20
88.8834
 30
0.0
 11
246.02
 21
91.9826
 31
0.0
  0
LINE
  8
0
 62
     0
 10
246.02
 20
91.9826
 30
0.0
 11
245.219
 21
91.9826
 31
0.0
  0
LINE
  8
0
 62
     0
 10
245.219
 20
91.9826
 30
0.0
 11
245.219
 21
92.9831
 31
0.0
  0
LINE
  8
0
 62
     0
 10
245.219
 20
92.9831
 30
0.0
 11
231.22
 21
92.9831
 31
0.0
  0
LINE
  8
0
 62
     0
 10
212.17
 20
92.9831
 30
0.0
 11
212.17
 21
91.9826
 31
0.0
  0
LINE
  8
0
 62
     0
 10
212.17
 20
91.9826
 30
0.0
 11
211.369
 21
91.9826
 31
0.0
  0
LINE
  8
0
 62
     0
 10
211.369
 20
91.9826
 30
0.0
 11
211.369
 21
88.8834
 31
0.0
  0
LINE
  8
0
 62
     0
 10
211.369
 20
88.8834
 30
0.0
 11
212.17
 21
88.8834
 31
0.0
  0
LINE
  8
0
 62
     0
 10
212.17
 20
88.8834
 30
0.0
 11
212.17
 21
83.0834
 31
0.0
  0
LINE
  8
0
 62
     0
 10
212.17
 20
83.0834
 30
0.0
 11
211.369
 21
83.0834
 31
0.0
  0
LINE
  8
0
 62
     0
 10
211.369
 20
83.0834
 30
0.0
 11
211.369
 21
79.9828
 31
0.0
  0
LINE
  8
0
 62
     0
 10
211.369
 20
79.9828
 30
0.0
 11
212.17
 21
79.9828
 31
0.0
  0
LINE
  8
0
 62
     0
 10
212.17
 20
79.9828
 30
0.0
 11
212.17
 21
78.9838
 31
0.0
  0
LINE
  8
0
 62
     0
 10
212.17
 20
78.9838
 30
0.0
 11
226.169
 21
78.9838
 31
0.0
  0
LINE
  8
0
 62
     0
 10
226.169
 20
78.9838
 30
0.0
 11
226.169
 21
79.9828
 31
0.0
  0
LINE
  8
0
 62
     0
 10
226.169
 20
79.9828
 30
0.0
 11
226.97
 21
79.9828
 31
0.0
  0
LINE
  8
0
 62
     0
 10
226.97
 20
79.9828
 30
0.0
 11
226.97
 21
83.0834
 31
0.0
  0
LINE
  8
0
 62
     0
 10
226.97
 20
83.0834
 30
0.0
 11
226.169
 21
83.0834
 31
0.0
  0
LINE
  8
0
 62
     0
 10
226.169
 20
83.0834
 30
0.0
 11
226.169
 21
88.8834
 31
0.0
  0
LINE
  8
0
 62
     0
 10
226.169
 20
88.8834
 30
0.0
 11
226.97
 21
88.8834
 31
0.0
  0
LINE
  8
0
 62
     0
 10
226.97
 20
88.8834
 30
0.0
 11
226.97
 21
91.9826
 31
0.0
  0
LINE
  8
0
 62
     0
 10
226.97
 20
91.9826
 30
0.0
 11
226.169
 21
91.9826
 31
0.0
  0
LINE
  8
0
 62
     0
 10
226.169
 20
91.9826
 30
0.0
 11
226.169
 21
92.9831
 31
0.0
  0
LINE
  8
0
 62
     0
 10
226.169
 20
92.9831
 30
0.0
 11
212.17
 21
92.9831
 31
0.0
  0
LINE
  8
0
 62
     0
 10
193.12
 20
92.9831
 30
0.0
 11
193.12
 21
91.9826
 31
0.0
  0
LINE
  8
0
 62
     0
 10
193.12
 20
91.9826
 30
0.0
 11
192.319
 21
91.9826
 31
0.0
  0
LINE
  8
0
 62
     0
 10
192.319
 20
91.9826
 30
0.0
 11
192.319
 21
88.8834
 31
0.0
  0
LINE
  8
0
 62
     0
 10
192.319
 20
88.8834
 30
0.0
 11
193.12
 21
88.8834
 31
0.0
  0
LINE
  8
0
 62
     0
 10
193.12
 20
88.8834
 30
0.0
 11
193.12
 21
83.0834
 31
0.0
  0
LINE
  8
0
 62
     0
 10
193.12
 20
83.0834
 30
0.0
 11
192.319
 21
83.0834
 31
0.0
  0
LINE
  8
0
 62
     0
 10
192.319
 20
83.0834
 30
0.0
 11
192.319
 21
79.9828
 31
0.0
  0
LINE
  8
0
 62
     0
 10
192.319
 20
79.9828
 30
0.0
 11
193.12
 21
79.9828
 31
0.0
  0
LINE
  8
0
 62
     0
 10
193.12
 20
79.9828
 30
0.0
 11
193.12
 21
78.9838
 31
0.0
  0
LINE
  8
0
 62
     0
 10
193.12
 20
78.9838
 30
0.0
 11
207.119
 21
78.9838
 31
0.0
  0
LINE
  8
0
 62
     0
 10
207.119
 20
78.9838
 30
0.0
 11
207.119
 21
79.9828
 31
0.0
  0
LINE
  8
0
 62
     0
 10
207.119
 20
79.9828
 30
0.0
 11
207.92
 21
79.9828
 31
0.0
  0
LINE
  8
0
 62
     0
 10
207.92
 20
79.9828
 30
0.0
 11
207.92
 21
83.0834
 31
0.0
  0
LINE
  8
0
 62
     0
 10
207.92
 20
83.0834
 30
0.0
 11
207.119
 21
83.0834
 31
0.0
  0
LINE
  8
0
 62
     0
 10
207.119
 20
83.0834
 30
0.0
 11
207.119
 21
88.8834
 31
0.0
  0
LINE
  8
0
 62
     0
 10
207.119
 20
88.8834
 30
0.0
 11
207.92
 21
88.8834
 31
0.0
  0
LINE
  8
0
 62
     0
 10
207.92
 20
88.8834
 30
0.0
 11
207.92
 21
91.9826
 31
0.0
  0
LINE
  8
0
 62
     0
 10
207.92
 20
91.9826
 30
0.0
 11
207.119
 21
91.9826
 31
0.0
  0
LINE
  8
0
 62
     0
 10
207.119
 20
91.9826
 30
0.0
 11
207.119
 21
92.9831
 31
0.0
  0
LINE
  8
0
 62
     0
 10
207.119
 20
92.9831
 30
0.0
 11
193.12
 21
92.9831
 31
0.0
  0
LINE
  8
0
 62
     0
 10
174.07
 20
92.9831
 30
0.0
 11
174.07
 21
91.9826
 31
0.0
  0
LINE
  8
0
 62
     0
 10
174.07
 20
91.9826
 30
0.0
 11
173.269
 21
91.9826
 31
0.0
  0
LINE
  8
0
 62
     0
 10
173.269
 20
91.9826
 30
0.0
 11
173.269
 21
88.8834
 31
0.0
  0
LINE
  8
0
 62
     0
 10
173.269
 20
88.8834
 30
0.0
 11
174.07
 21
88.8834
 31
0.0
  0
LINE
  8
0
 62
     0
 10
174.07
 20
88.8834
 30
0.0
 11
174.07
 21
83.0834
 31
0.0
  0
LINE
  8
0
 62
     0
 10
174.07
 20
83.0834
 30
0.0
 11
173.269
 21
83.0834
 31
0.0
  0
LINE
  8
0
 62
     0
 10
173.269
 20
83.0834
 30
0.0
 11
173.269
 21
79.9828
 31
0.0
  0
LINE
  8
0
 62
     0
 10
173.269
 20
79.9828
 30
0.0
 11
174.07
 21
79.9828
 31
0.0
  0
LINE
  8
0
 62
     0
 10
174.07
 20
79.9828
 30
0.0
 11
174.07
 21
78.9838
 31
0.0
  0
LINE
  8
0
 62
     0
 10
174.07
 20
78.9838
 30
0.0
 11
188.069
 21
78.9838
 31
0.0
  0
LINE
  8
0
 62
     0
 10
188.069
 20
78.9838
 30
0.0
 11
188.069
 21
79.9828
 31
0.0
  0
LINE
  8
0
 62
     0
 10
188.069
 20
79.9828
 30
0.0
 11
188.87
 21
79.9828
 31
0.0
  0
LINE
  8
0
 62
     0
 10
188.87
 20
79.9828
 30
0.0
 11
188.87
 21
83.0834
 31
0.0
  0
LINE
  8
0
 62
     0
 10
188.87
 20
83.0834
 30
0.0
 11
188.069
 21
83.0834
 31
0.0
  0
LINE
  8
0
 62
     0
 10
188.069
 20
83.0834
 30
0.0
 11
188.069
 21
88.8834
 31
0.0
  0
LINE
  8
0
 62
     0
 10
188.069
 20
88.8834
 30
0.0
 11
188.87
 21
88.8834
 31
0.0
  0
LINE
  8
0
 62
     0
 10
188.87
 20
88.8834
 30
0.0
 11
188.87
 21
91.9826
 31
0.0
  0
LINE
  8
0
 62
     0
 10
188.87
 20
91.9826
 30
0.0
 11
188.069
 21
91.9826
 31
0.0
  0
LINE
  8
0
 62
     0
 10
188.069
 20
91.9826
 30
0.0
 11
188.069
 21
92.9831
 31
0.0
  0
LINE
  8
0
 62
     0
 10
188.069
 20
92.9831
 30
0.0
 11
174.07
 21
92.9831
 31
0.0
  0
LINE
  8
0
 62
     0
 10
155.02
 20
92.9831
 30
0.0
 11
155.02
 21
91.9826
 31
0.0
  0
LINE
  8
0
 62
     0
 10
155.02
 20
91.9826
 30
0.0
 11
154.219
 21
91.9826
 31
0.0
  0
LINE
  8
0
 62
     0
 10
154.219
 20
91.9826
 30
0.0
 11
154.219
 21
88.8834
 31
0.0
  0
LINE
  8
0
 62
     0
 10
154.219
 20
88.8834
 30
0.0
 11
155.02
 21
88.8834
 31
0.0
  0
LINE
  8
0
 62
     0
 10
155.02
 20
88.8834
 30
0.0
 11
155.02
 21
83.0834
 31
0.0
  0
LINE
  8
0
 62
     0
 10
155.02
 20
83.0834
 30
0.0
 11
154.219
 21
83.0834
 31
0.0
  0
LINE
  8
0
 62
     0
 10
154.219
 20
83.0834
 30
0.0
 11
154.219
 21
79.9828
 31
0.0
  0
LINE
  8
0
 62
     0
 10
154.219
 20
79.9828
 30
0.0
 11
155.02
 21
79.9828
 31
0.0
  0
LINE
  8
0
 62
     0
 10
155.02
 20
79.9828
 30
0.0
 11
155.02
 21
78.9838
 31
0.0
  0
LINE
  8
0
 62
     0
 10
155.02
 20
78.9838
 30
0.0
 11
169.019
 21
78.9838
 31
0.0
  0
LINE
  8
0
 62
     0
 10
169.019
 20
78.9838
 30
0.0
 11
169.019
 21
79.9828
 31
0.0
  0
LINE
  8
0
 62
     0
 10
169.019
 20
79.9828
 30
0.0
 11
169.82
 21
79.9828
 31
0.0
  0
LINE
  8
0
 62
     0
 10
169.82
 20
79.9828
 30
0.0
 11
169.82
 21
83.0834
 31
0.0
  0
LINE
  8
0
 62
     0
 10
169.82
 20
83.0834
 30
0.0
 11
169.019
 21
83.0834
 31
0.0
  0
LINE
  8
0
 62
     0
 10
169.019
 20
83.0834
 30
0.0
 11
169.019
 21
88.8834
 31
0.0
  0
LINE
  8
0
 62
     0
 10
169.019
 20
88.8834
 30
0.0
 11
169.82
 21
88.8834
 31
0.0
  0
LINE
  8
0
 62
     0
 10
169.82
 20
88.8834
 30
0.0
 11
169.82
 21
91.9826
 31
0.0
  0
LINE
  8
0
 62
     0
 10
169.82
 20
91.9826
 30
0.0
 11
169.019
 21
91.9826
 31
0.0
  0
LINE
  8
0
 62
     0
 10
169.019
 20
91.9826
 30
0.0
 11
169.019
 21
92.9831
 31
0.0
  0
LINE
  8
0
 62
     0
 10
169.019
 20
92.9831
 30
0.0
 11
155.02
 21
92.9831
 31
0.0
  0
LINE
  8
0
 62
     0
 10
135.97
 20
92.9831
 30
0.0
 11
135.97
 21
91.9826
 31
0.0
  0
LINE
  8
0
 62
     0
 10
135.97
 20
91.9826
 30
0.0
 11
135.169
 21
91.9826
 31
0.0
  0
LINE
  8
0
 62
     0
 10
135.169
 20
91.9826
 30
0.0
 11
135.169
 21
88.8834
 31
0.0
  0
LINE
  8
0
 62
     0
 10
135.169
 20
88.8834
 30
0.0
 11
135.97
 21
88.8834
 31
0.0
  0
LINE
  8
0
 62
     0
 10
135.97
 20
88.8834
 30
0.0
 11
135.97
 21
83.0834
 31
0.0
  0
LINE
  8
0
 62
     0
 10
135.97
 20
83.0834
 30
0.0
 11
135.169
 21
83.0834
 31
0.0
  0
LINE
  8
0
 62
     0
 10
135.169
 20
83.0834
 30
0.0
 11
135.169
 21
79.9828
 31
0.0
  0
LINE
  8
0
 62
     0
 10
135.169
 20
79.9828
 30
0.0
 11
135.97
 21
79.9828
 31
0.0
  0
LINE
  8
0
 62
     0
 10
135.97
 20
79.9828
 30
0.0
 11
135.97
 21
78.9838
 31
0.0
  0
LINE
  8
0
 62
     0
 10
135.97
 20
78.9838
 30
0.0
 11
149.969
 21
78.9838
 31
0.0
  0
LINE
  8
0
 62
     0
 10
149.969
 20
78.9838
 30
0.0
 11
149.969
 21
79.9828
 31
0.0
  0
LINE
  8
0
 62
     0
 10
149.969
 20
79.9828
 30
0.0
 11
150.77
 21
79.9828
 31
0.0
  0
LINE
  8
0
 62
     0
 10
150.77
 20
79.9828
 30
0.0
 11
150.77
 21
83.0834
 31
0.0
  0
LINE
  8
0
 62
     0
 10
150.77
 20
83.0834
 30
0.0
 11
149.969
 21
83.0834
 31
0.0
  0
LINE
  8
0
 62
     0
 10
149.969
 20
83.0834
 30
0.0
 11
149.969
 21
88.8834
 31
0.0
  0
LINE
  8
0
 62
     0
 10
149.969
 20
88.8834
 30
0.0
 11
150.77
 21
88.8834
 31
0.0
  0
LINE
  8
0
 62
     0
 10
150.77
 20
88.8834
 30
0.0
 11
150.77
 21
91.9826
 31
0.0
  0
LINE
  8
0
 62
     0
 10
150.77
 20
91.9826
 30
0.0
 11
149.969
 21
91.9826
 31
0.0
  0
LINE
  8
0
 62
     0
 10
149.969
 20
91.9826
 30
0.0
 11
149.969
 21
92.9831
 31
0.0
  0
LINE
  8
0
 62
     0
 10
149.969
 20
92.9831
 30
0.0
 11
135.97
 21
92.9831
 31
0.0
  0
LINE
  8
0
 62
     0
 10
116.918
 20
92.9831
 30
0.0
 11
116.918
 21
91.9826
 31
0.0
  0
LINE
  8
0
 62
     0
 10
116.918
 20
91.9826
 30
0.0
 11
116.119
 21
91.9826
 31
0.0
  0
LINE
  8
0
 62
     0
 10
116.119
 20
91.9826
 30
0.0
 11
116.119
 21
88.8834
 31
0.0
  0
LINE
  8
0
 62
     0
 10
116.119
 20
88.8834
 30
0.0
 11
116.918
 21
88.8834
 31
0.0
  0
LINE
  8
0
 62
     0
 10
116.918
 20
88.8834
 30
0.0
 11
116.918
 21
83.0834
 31
0.0
  0
LINE
  8
0
 62
     0
 10
116.918
 20
83.0834
 30
0.0
 11
116.119
 21
83.0834
 31
0.0
  0
LINE
  8
0
 62
     0
 10
116.119
 20
83.0834
 30
0.0
 11
116.119
 21
79.9828
 31
0.0
  0
LINE
  8
0
 62
     0
 10
116.119
 20
79.9828
 30
0.0
 11
116.918
 21
79.9828
 31
0.0
  0
LINE
  8
0
 62
     0
 10
116.918
 20
79.9828
 30
0.0
 11
116.918
 21
78.9838
 31
0.0
  0
LINE
  8
0
 62
     0
 10
116.918
 20
78.9838
 30
0.0
 11
130.919
 21
78.9838
 31
0.0
  0
LINE
  8
0
 62
     0
 10
130.919
 20
78.9838
 30
0.0
 11
130.919
 21
79.9828
 31
0.0
  0
LINE
  8
0
 62
     0
 10
130.919
 20
79.9828
 30
0.0
 11
131.72
 21
79.9828
 31
0.0
  0
LINE
  8
0
 62
     0
 10
131.72
 20
79.9828
 30
0.0
 11
131.72
 21
83.0834
 31
0.0
  0
LINE
  8
0
 62
     0
 10
131.72
 20
83.0834
 30
0.0
 11
130.919
 21
83.0834
 31
0.0
  0
LINE
  8
0
 62
     0
 10
130.919
 20
83.0834
 30
0.0
 11
130.919
 21
88.8834
 31
0.0
  0
LINE
  8
0
 62
     0
 10
130.919
 20
88.8834
 30
0.0
 11
131.72
 21
88.8834
 31
0.0
  0
LINE
  8
0
 62
     0
 10
131.72
 20
88.8834
 30
0.0
 11
131.72
 21
91.9826
 31
0.0
  0
LINE
  8
0
 62
     0
 10
131.72
 20
91.9826
 30
0.0
 11
130.919
 21
91.9826
 31
0.0
  0
LINE
  8
0
 62
     0
 10
130.919
 20
91.9826
 30
0.0
 11
130.919
 21
92.9831
 31
0.0
  0
LINE
  8
0
 62
     0
 10
130.919
 20
92.9831
 30
0.0
 11
116.918
 21
92.9831
 31
0.0
  0
LINE
  8
0
 62
     0
 10
97.8683
 20
92.9831
 30
0.0
 11
97.8683
 21
91.9826
 31
0.0
  0
LINE
  8
0
 62
     0
 10
97.8683
 20
91.9826
 30
0.0
 11
97.0689
 21
91.9826
 31
0.0
  0
LINE
  8
0
 62
     0
 10
97.0689
 20
91.9826
 30
0.0
 11
97.0689
 21
88.8834
 31
0.0
  0
LINE
  8
0
 62
     0
 10
97.0689
 20
88.8834
 30
0.0
 11
97.8683
 21
88.8834
 31
0.0
  0
LINE
  8
0
 62
     0
 10
97.8683
 20
88.8834
 30
0.0
 11
97.8683
 21
83.0834
 31
0.0
  0
LINE
  8
0
 62
     0
 10
97.8683
 20
83.0834
 30
0.0
 11
97.0689
 21
83.0834
 31
0.0
  0
LINE
  8
0
 62
     0
 10
97.0689
 20
83.0834
 30
0.0
 11
97.0689
 21
79.9828
 31
0.0
  0
LINE
  8
0
 62
     0
 10
97.0689
 20
79.9828
 30
0.0
 11
97.8683
 21
79.9828
 31
0.0
  0
LINE
  8
0
 62
     0
 10
97.8683
 20
79.9828
 30
0.0
 11
97.8683
 21
78.9838
 31
0.0
  0
LINE
  8
0
 62
     0
 10
97.8683
 20
78.9838
 30
0.0
 11
111.869
 21
78.9838
 31
0.0
  0
LINE
  8
0
 62
     0
 10
111.869
 20
78.9838
 30
0.0
 11
111.869
 21
79.9828
 31
0.0
  0
LINE
  8
0
 62
     0
 10
111.869
 20
79.9828
 30
0.0
 11
112.668
 21
79.9828
 31
0.0
  0
LINE
  8
0
 62
     0
 10
112.668
 20
79.9828
 30
0.0
 11
112.668
 21
83.0834
 31
0.0
  0
LINE
  8
0
 62
     0
 10
112.668
 20
83.0834
 30
0.0
 11
111.869
 21
83.0834
 31
0.0
  0
LINE
  8
0
 62
     0
 10
111.869
 20
83.0834
 30
0.0
 11
111.869
 21
88.8834
 31
0.0
  0
LINE
  8
0
 62
     0
 10
111.869
 20
88.8834
 30
0.0
 11
112.668
 21
88.8834
 31
0.0
  0
LINE
  8
0
 62
     0
 10
112.668
 20
88.8834
 30
0.0
 11
112.668
 21
91.9826
 31
0.0
  0
LINE
  8
0
 62
     0
 10
112.668
 20
91.9826
 30
0.0
 11
111.869
 21
91.9826
 31
0.0
  0
LINE
  8
0
 62
     0
 10
111.869
 20
91.9826
 30
0.0
 11
111.869
 21
92.9831
 31
0.0
  0
LINE
  8
0
 62
     0
 10
111.869
 20
92.9831
 30
0.0
 11
97.8683
 21
92.9831
 31
0.0
  0
LINE
  8
0
 62
     0
 10
78.8197
 20
92.9831
 30
0.0
 11
78.8197
 21
91.9826
 31
0.0
  0
LINE
  8
0
 62
     0
 10
78.8197
 20
91.9826
 30
0.0
 11
78.0189
 21
91.9826
 31
0.0
  0
LINE
  8
0
 62
     0
 10
78.0189
 20
91.9826
 30
0.0
 11
78.0189
 21
88.8834
 31
0.0
  0
LINE
  8
0
 62
     0
 10
78.0189
 20
88.8834
 30
0.0
 11
78.8197
 21
88.8834
 31
0.0
  0
LINE
  8
0
 62
     0
 10
78.8197
 20
88.8834
 30
0.0
 11
78.8197
 21
83.0834
 31
0.0
  0
LINE
  8
0
 62
     0
 10
78.8197
 20
83.0834
 30
0.0
 11
78.0189
 21
83.0834
 31
0.0
  0
LINE
  8
0
 62
     0
 10
78.0189
 20
83.0834
 30
0.0
 11
78.0189
 21
79.9828
 31
0.0
  0
LINE
  8
0
 62
     0
 10
78.0189
 20
79.9828
 30
0.0
 11
78.8197
 21
79.9828
 31
0.0
  0
LINE
  8
0
 62
     0
 10
78.8197
 20
79.9828
 30
0.0
 11
78.8197
 21
78.9838
 31
0.0
  0
LINE
  8
0
 62
     0
 10
78.8197
 20
78.9838
 30
0.0
 11
92.819
 21
78.9838
 31
0.0
  0
LINE
  8
0
 62
     0
 10
92.819
 20
78.9838
 30
0.0
 11
92.819
 21
79.9828
 31
0.0
  0
LINE
  8
0
 62
     0
 10
92.819
 20
79.9828
 30
0.0
 11
93.6184
 21
79.9828
 31
0.0
  0
LINE
  8
0
 62
     0
 10
93.6184
 20
79.9828
 30
0.0
 11
93.6184
 21
83.0834
 31
0.0
  0
LINE
  8
0
 62
     0
 10
93.6184
 20
83.0834
 30
0.0
 11
92.819
 21
83.0834
 31
0.0
  0
LINE
  8
0
 62
     0
 10
92.819
 20
83.0834
 30
0.0
 11
92.819
 21
88.8834
 31
0.0
  0
LINE
  8
0
 62
     0
 10
92.819
 20
88.8834
 30
0.0
 11
93.6184
 21
88.8834
 31
0.0
  0
LINE
  8
0
 62
     0
 10
93.6184
 20
88.8834
 30
0.0
 11
93.6184
 21
91.9826
 31
0.0
  0
LINE
  8
0
 62
     0
 10
93.6184
 20
91.9826
 30
0.0
 11
92.819
 21
91.9826
 31
0.0
  0
LINE
  8
0
 62
     0
 10
92.819
 20
91.9826
 30
0.0
 11
92.819
 21
92.9831
 31
0.0
  0
LINE
  8
0
 62
     0
 10
92.819
 20
92.9831
 30
0.0
 11
78.8197
 21
92.9831
 31
0.0
  0
LINE
  8
0
 62
     0
 10
59.7697
 20
92.9831
 30
0.0
 11
59.7697
 21
91.9826
 31
0.0
  0
LINE
  8
0
 62
     0
 10
59.7697
 20
91.9826
 30
0.0
 11
58.9689
 21
91.9826
 31
0.0
  0
LINE
  8
0
 62
     0
 10
58.9689
 20
91.9826
 30
0.0
 11
58.9689
 21
88.8834
 31
0.0
  0
LINE
  8
0
 62
     0
 10
58.9689
 20
88.8834
 30
0.0
 11
59.7697
 21
88.8834
 31
0.0
  0
LINE
  8
0
 62
     0
 10
59.7697
 20
88.8834
 30
0.0
 11
59.7697
 21
83.0834
 31
0.0
  0
LINE
  8
0
 62
     0
 10
59.7697
 20
83.0834
 30
0.0
 11
58.9689
 21
83.0834
 31
0.0
  0
LINE
  8
0
 62
     0
 10
58.9689
 20
83.0834
 30
0.0
 11
58.9689
 21
79.9828
 31
0.0
  0
LINE
  8
0
 62
     0
 10
58.9689
 20
79.9828
 30
0.0
 11
59.7697
 21
79.9828
 31
0.0
  0
LINE
  8
0
 62
     0
 10
59.7697
 20
79.9828
 30
0.0
 11
59.7697
 21
78.9838
 31
0.0
  0
LINE
  8
0
 62
     0
 10
59.7697
 20
78.9838
 30
0.0
 11
73.769
 21
78.9838
 31
0.0
  0
LINE
  8
0
 62
     0
 10
73.769
 20
78.9838
 30
0.0
 11
73.769
 21
79.9828
 31
0.0
  0
LINE
  8
0
 62
     0
 10
73.769
 20
79.9828
 30
0.0
 11
74.5698
 21
79.9828
 31
0.0
  0
LINE
  8
0
 62
     0
 10
74.5698
 20
79.9828
 30
0.0
 11
74.5698
 21
83.0834
 31
0.0
  0
LINE
  8
0
 62
     0
 10
74.5698
 20
83.0834
 30
0.0
 11
73.769
 21
83.0834
 31
0.0
  0
LINE
  8
0
 62
     0
 10
73.769
 20
83.0834
 30
0.0
 11
73.769
 21
88.8834
 31
0.0
  0
LINE
  8
0
 62
     0
 10
73.769
 20
88.8834
 30
0.0
 11
74.5698
 21
88.8834
 31
0.0
  0
LINE
  8
0
 62
     0
 10
74.5698
 20
88.8834
 30
0.0
 11
74.5698
 21
91.9826
 31
0.0
  0
LINE
  8
0
 62
     0
 10
74.5698
 20
91.9826
 30
0.0
 11
73.769
 21
91.9826
 31
0.0
  0
LINE
  8
0
 62
     0
 10
73.769
 20
91.9826
 30
0.0
 11
73.769
 21
92.9831
 31
0.0
  0
LINE
  8
0
 62
     0
 10
73.769
 20
92.9831
 30
0.0
 11
59.7697
 21
92.9831
 31
0.0
  0
LINE
  8
0
 62
     0
 10
40.7197
 20
92.9831
 30
0.0
 11
40.7197
 21
91.9826
 31
0.0
  0
LINE
  8
0
 62
     0
 10
40.7197
 20
91.9826
 30
0.0
 11
39.9189
 21
91.9826
 31
0.0
  0
LINE
  8
0
 62
     0
 10
39.9189
 20
91.9826
 30
0.0
 11
39.9189
 21
88.8834
 31
0.0
  0
LINE
  8
0
 62
     0
 10
39.9189
 20
88.8834
 30
0.0
 11
40.7197
 21
88.8834
 31
0.0
  0
LINE
  8
0
 62
     0
 10
40.7197
 20
88.8834
 30
0.0
 11
40.7197
 21
83.0834
 31
0.0
  0
LINE
  8
0
 62
     0
 10
40.7197
 20
83.0834
 30
0.0
 11
39.9189
 21
83.0834
 31
0.0
  0
LINE
  8
0
 62
     0
 10
39.9189
 20
83.0834
 30
0.0
 11
39.9189
 21
79.9828
 31
0.0
  0
LINE
  8
0
 62
     0
 10
39.9189
 20
79.9828
 30
0.0
 11
40.7197
 21
79.9828
 31
0.0
  0
LINE
  8
0
 62
     0
 10
40.7197
 20
79.9828
 30
0.0
 11
40.7197
 21
78.9838
 31
0.0
  0
LINE
  8
0
 62
     0
 10
40.7197
 20
78.9838
 30
0.0
 11
54.719
 21
78.9838
 31
0.0
  0
LINE
  8
0
 62
     0
 10
54.719
 20
78.9838
 30
0.0
 11
54.719
 21
79.9828
 31
0.0
  0
LINE
  8
0
 62
     0
 10
54.719
 20
79.9828
 30
0.0
 11
55.5198
 21
79.9828
 31
0.0
  0
LINE
  8
0
 62
     0
 10
55.5198
 20
79.9828
 30
0.0
 11
55.5198
 21
83.0834
 31
0.0
  0
LINE
  8
0
 62
     0
 10
55.5198
 20
83.0834
 30
0.0
 11
54.719
 21
83.0834
 31
0.0
  0
LINE
  8
0
 62
     0
 10
54.719
 20
83.0834
 30
0.0
 11
54.719
 21
88.8834
 31
0.0
  0
LINE
  8
0
 62
     0
 10
54.719
 20
88.8834
 30
0.0
 11
55.5198
 21
88.8834
 31
0.0
  0
LINE
  8
0
 62
     0
 10
55.5198
 20
88.8834
 30
0.0
 11
55.5198
 21
91.9826
 31
0.0
  0
LINE
  8
0
 62
     0
 10
55.5198
 20
91.9826
 30
0.0
 11
54.719
 21
91.9826
 31
0.0
  0
LINE
  8
0
 62
     0
 10
54.719
 20
91.9826
 30
0.0
 11
54.719
 21
92.9831
 31
0.0
  0
LINE
  8
0
 62
     0
 10
54.719
 20
92.9831
 30
0.0
 11
40.7197
 21
92.9831
 31
0.0
  0
LINE
  8
0
 62
     0
 10
21.6697
 20
92.9831
 30
0.0
 11
21.6697
 21
91.9826
 31
0.0
  0
LINE
  8
0
 62
     0
 10
21.6697
 20
91.9826
 30
0.0
 11
20.869
 21
91.9826
 31
0.0
  0
LINE
  8
0
 62
     0
 10
20.869
 20
91.9826
 30
0.0
 11
20.869
 21
88.8834
 31
0.0
  0
LINE
  8
0
 62
     0
 10
20.869
 20
88.8834
 30
0.0
 11
21.6697
 21
88.8834
 31
0.0
  0
LINE
  8
0
 62
     0
 10
21.6697
 20
88.8834
 30
0.0
 11
21.6697
 21
83.0834
 31
0.0
  0
LINE
  8
0
 62
     0
 10
21.6697
 20
83.0834
 30
0.0
 11
20.869
 21
83.0834
 31
0.0
  0
LINE
  8
0
 62
     0
 10
20.869
 20
83.0834
 30
0.0
 11
20.869
 21
79.9828
 31
0.0
  0
LINE
  8
0
 62
     0
 10
20.869
 20
79.9828
 30
0.0
 11
21.6697
 21
79.9828
 31
0.0
  0
LINE
  8
0
 62
     0
 10
21.6697
 20
79.9828
 30
0.0
 11
21.6697
 21
78.9838
 31
0.0
  0
LINE
  8
0
 62
     0
 10
21.6697
 20
78.9838
 30
0.0
 11
35.669
 21
78.9838
 31
0.0
  0
LINE
  8
0
 62
     0
 10
35.669
 20
78.9838
 30
0.0
 11
35.669
 21
79.9828
 31
0.0
  0
LINE
  8
0
 62
     0
 10
35.669
 20
79.9828
 30
0.0
 11
36.4698
 21
79.9828
 31
0.0
  0
LINE
  8
0
 62
     0
 10
36.4698
 20
79.9828
 30
0.0
 11
36.4698
 21
83.0834
 31
0.0
  0
LINE
  8
0
 62
     0
 10
36.4698
 20
83.0834
 30
0.0
 11
35.669
 21
83.0834
 31
0.0
  0
LINE
  8
0
 62
     0
 10
35.669
 20
83.0834
 30
0.0
 11
35.669
 21
88.8834
 31
0.0
  0
LINE
  8
0
 62
     0
 10
35.669
 20
88.8834
 30
0.0
 11
36.4698
 21
88.8834
 31
0.0
  0
LINE
  8
0
 62
     0
 10
36.4698
 20
88.8834
 30
0.0
 11
36.4698
 21
91.9826
 31
0.0
  0
LINE
  8
0
 62
     0
 10
36.4698
 20
91.9826
 30
0.0
 11
35.669
 21
91.9826
 31
0.0
  0
LINE
  8
0
 62
     0
 10
35.669
 20
91.9826
 30
0.0
 11
35.669
 21
92.9831
 31
0.0
  0
LINE
  8
0
 62
     0
 10
35.669
 20
92.9831
 30
0.0
 11
21.6697
 21
92.9831
 31
0.0
  0
LINE
  8
0
 62
     0
 10
2.61965
 20
92.9831
 30
0.0
 11
2.61965
 21
91.9826
 31
0.0
  0
LINE
  8
0
 62
     0
 10
2.61965
 20
91.9826
 30
0.0
 11
1.81901
 21
91.9826
 31
0.0
  0
LINE
  8
0
 62
     0
 10
1.81901
 20
91.9826
 30
0.0
 11
1.81901
 21
88.8834
 31
0.0
  0
LINE
  8
0
 62
     0
 10
1.81901
 20
88.8834
 30
0.0
 11
2.61965
 21
88.8834
 31
0.0
  0
LINE
  8
0
 62
     0
 10
2.61965
 20
88.8834
 30
0.0
 11
2.61965
 21
83.0834
 31
0.0
  0
LINE
  8
0
 62
     0
 10
2.61965
 20
83.0834
 30
0.0
 11
1.81901
 21
83.0834
 31
0.0
  0
LINE
  8
0
 62
     0
 10
1.81901
 20
83.0834
 30
0.0
 11
1.81901
 21
79.9828
 31
0.0
  0
LINE
  8
0
 62
     0
 10
1.81901
 20
79.9828
 30
0.0
 11
2.61965
 21
79.9828
 31
0.0
  0
LINE
  8
0
 62
     0
 10
2.61965
 20
79.9828
 30
0.0
 11
2.61965
 21
78.9838
 31
0.0
  0
LINE
  8
0
 62
     0
 10
2.61965
 20
78.9838
 30
0.0
 11
16.6192
 21
78.9838
 31
0.0
  0
LINE
  8
0
 62
     0
 10
16.6192
 20
78.9838
 30
0.0
 11
16.6192
 21
79.9828
 31
0.0
  0
LINE
  8
0
 62
     0
 10
16.6192
 20
79.9828
 30
0.0
 11
17.4198
 21
79.9828
 31
0.0
  0
LINE
  8
0
 62
     0
 10
17.4198
 20
79.9828
 30
0.0
 11
17.4198
 21
83.0834
 31
0.0
  0
LINE
  8
0
 62
     0
 10
17.4198
 20
83.0834
 30
0.0
 11
16.6192
 21
83.0834
 31
0.0
  0
LINE
  8
0
 62
     0
 10
16.6192
 20
83.0834
 30
0.0
 11
16.6192
 21
88.8834
 31
0.0
  0
LINE
  8
0
 62
     0
 10
16.6192
 20
88.8834
 30
0.0
 11
17.4198
 21
88.8834
 31
0.0
  0
LINE
  8
0
 62
     0
 10
17.4198
 20
88.8834
 30
0.0
 11
17.4198
 21
91.9826
 31
0.0
  0
LINE
  8
0
 62
     0
 10
17.4198
 20
91.9826
 30
0.0
 11
16.6192
 21
91.9826
 31
0.0
  0
LINE
  8
0
 62
     0
 10
16.6192
 20
91.9826
 30
0.0
 11
16.6192
 21
92.9831
 31
0.0
  0
LINE
  8
0
 62
     0
 10
16.6192
 20
92.9831
 30
0.0
 11
2.61965
 21
92.9831
 31
0.0
  0
LINE
  8
0
 62
     0
 10
288.37
 20
112.033
 30
0.0
 11
288.37
 21
111.033
 31
0.0
  0
LINE
  8
0
 62
     0
 10
288.37
 20
111.033
 30
0.0
 11
287.569
 21
111.033
 31
0.0
  0
LINE
  8
0
 62
     0
 10
287.569
 20
111.033
 30
0.0
 11
287.569
 21
107.933
 31
0.0
  0
LINE
  8
0
 62
     0
 10
287.569
 20
107.933
 30
0.0
 11
288.37
 21
107.933
 31
0.0
  0
LINE
  8
0
 62
     0
 10
288.37
 20
107.933
 30
0.0
 11
288.37
 21
102.133
 31
0.0
  0
LINE
  8
0
 62
     0
 10
288.37
 20
102.133
 30
0.0
 11
287.569
 21
102.133
 31
0.0
  0
LINE
  8
0
 62
     0
 10
287.569
 20
102.133
 30
0.0
 11
287.569
 21
99.0328
 31
0.0
  0
LINE
  8
0
 62
     0
 10
287.569
 20
99.0328
 30
0.0
 11
288.37
 21
99.0328
 31
0.0
  0
LINE
  8
0
 62
     0
 10
288.37
 20
99.0328
 30
0.0
 11
288.37
 21
98.0338
 31
0.0
  0
LINE
  8
0
 62
     0
 10
288.37
 20
98.0338
 30
0.0
 11
302.369
 21
98.0338
 31
0.0
  0
LINE
  8
0
 62
     0
 10
302.369
 20
98.0338
 30
0.0
 11
302.369
 21
99.0328
 31
0.0
  0
LINE
  8
0
 62
     0
 10
302.369
 20
99.0328
 30
0.0
 11
303.17
 21
99.0328
 31
0.0
  0
LINE
  8
0
 62
     0
 10
303.17
 20
99.0328
 30
0.0
 11
303.17
 21
102.133
 31
0.0
  0
LINE
  8
0
 62
     0
 10
303.17
 20
102.133
 30
0.0
 11
302.369
 21
102.133
 31
0.0
  0
LINE
  8
0
 62
     0
 10
302.369
 20
102.133
 30
0.0
 11
302.369
 21
107.933
 31
0.0
  0
LINE
  8
0
 62
     0
 10
302.369
 20
107.933
 30
0.0
 11
303.17
 21
107.933
 31
0.0
  0
LINE
  8
0
 62
     0
 10
303.17
 20
107.933
 30
0.0
 11
303.17
 21
111.033
 31
0.0
  0
LINE
  8
0
 62
     0
 10
303.17
 20
111.033
 30
0.0
 11
302.369
 21
111.033
 31
0.0
  0
LINE
  8
0
 62
     0
 10
302.369
 20
111.033
 30
0.0
 11
302.369
 21
112.033
 31
0.0
  0
LINE
  8
0
 62
     0
 10
302.369
 20
112.033
 30
0.0
 11
288.37
 21
112.033
 31
0.0
  0
LINE
  8
0
 62
     0
 10
269.32
 20
112.033
 30
0.0
 11
269.32
 21
111.033
 31
0.0
  0
LINE
  8
0
 62
     0
 10
269.32
 20
111.033
 30
0.0
 11
268.519
 21
111.033
 31
0.0
  0
LINE
  8
0
 62
     0
 10
268.519
 20
111.033
 30
0.0
 11
268.519
 21
107.933
 31
0.0
  0
LINE
  8
0
 62
     0
 10
268.519
 20
107.933
 30
0.0
 11
269.32
 21
107.933
 31
0.0
  0
LINE
  8
0
 62
     0
 10
269.32
 20
107.933
 30
0.0
 11
269.32
 21
102.133
 31
0.0
  0
LINE
  8
0
 62
     0
 10
269.32
 20
102.133
 30
0.0
 11
268.519
 21
102.133
 31
0.0
  0
LINE
  8
0
 62
     0
 10
268.519
 20
102.133
 30
0.0
 11
268.519
 21
99.0328
 31
0.0
  0
LINE
  8
0
 62
     0
 10
268.519
 20
99.0328
 30
0.0
 11
269.32
 21
99.0328
 31
0.0
  0
LINE
  8
0
 62
     0
 10
269.32
 20
99.0328
 30
0.0
 11
269.32
 21
98.0338
 31
0.0
  0
LINE
  8
0
 62
     0
 10
269.32
 20
98.0338
 30
0.0
 11
283.319
 21
98.0338
 31
0.0
  0
LINE
  8
0
 62
     0
 10
283.319
 20
98.0338
 30
0.0
 11
283.319
 21
99.0328
 31
0.0
  0
LINE
  8
0
 62
     0
 10
283.319
 20
99.0328
 30
0.0
 11
284.12
 21
99.0328
 31
0.0
  0
LINE
  8
0
 62
     0
 10
284.12
 20
99.0328
 30
0.0
 11
284.12
 21
102.133
 31
0.0
  0
LINE
  8
0
 62
     0
 10
284.12
 20
102.133
 30
0.0
 11
283.319
 21
102.133
 31
0.0
  0
LINE
  8
0
 62
     0
 10
283.319
 20
102.133
 30
0.0
 11
283.319
 21
107.933
 31
0.0
  0
LINE
  8
0
 62
     0
 10
283.319
 20
107.933
 30
0.0
 11
284.12
 21
107.933
 31
0.0
  0
LINE
  8
0
 62
     0
 10
284.12
 20
107.933
 30
0.0
 11
284.12
 21
111.033
 31
0.0
  0
LINE
  8
0
 62
     0
 10
284.12
 20
111.033
 30
0.0
 11
283.319
 21
111.033
 31
0.0
  0
LINE
  8
0
 62
     0
 10
283.319
 20
111.033
 30
0.0
 11
283.319
 21
112.033
 31
0.0
  0
LINE
  8
0
 62
     0
 10
283.319
 20
112.033
 30
0.0
 11
269.32
 21
112.033
 31
0.0
  0
LINE
  8
0
 62
     0
 10
250.27
 20
112.033
 30
0.0
 11
250.27
 21
111.033
 31
0.0
  0
LINE
  8
0
 62
     0
 10
250.27
 20
111.033
 30
0.0
 11
249.469
 21
111.033
 31
0.0
  0
LINE
  8
0
 62
     0
 10
249.469
 20
111.033
 30
0.0
 11
249.469
 21
107.933
 31
0.0
  0
LINE
  8
0
 62
     0
 10
249.469
 20
107.933
 30
0.0
 11
250.27
 21
107.933
 31
0.0
  0
LINE
  8
0
 62
     0
 10
250.27
 20
107.933
 30
0.0
 11
250.27
 21
102.133
 31
0.0
  0
LINE
  8
0
 62
     0
 10
250.27
 20
102.133
 30
0.0
 11
249.469
 21
102.133
 31
0.0
  0
LINE
  8
0
 62
     0
 10
249.469
 20
102.133
 30
0.0
 11
249.469
 21
99.0328
 31
0.0
  0
LINE
  8
0
 62
     0
 10
249.469
 20
99.0328
 30
0.0
 11
250.27
 21
99.0328
 31
0.0
  0
LINE
  8
0
 62
     0
 10
250.27
 20
99.0328
 30
0.0
 11
250.27
 21
98.0338
 31
0.0
  0
LINE
  8
0
 62
     0
 10
250.27
 20
98.0338
 30
0.0
 11
264.269
 21
98.0338
 31
0.0
  0
LINE
  8
0
 62
     0
 10
264.269
 20
98.0338
 30
0.0
 11
264.269
 21
99.0328
 31
0.0
  0
LINE
  8
0
 62
     0
 10
264.269
 20
99.0328
 30
0.0
 11
265.07
 21
99.0328
 31
0.0
  0
LINE
  8
0
 62
     0
 10
265.07
 20
99.0328
 30
0.0
 11
265.07
 21
102.133
 31
0.0
  0
LINE
  8
0
 62
     0
 10
265.07
 20
102.133
 30
0.0
 11
264.269
 21
102.133
 31
0.0
  0
LINE
  8
0
 62
     0
 10
264.269
 20
102.133
 30
0.0
 11
264.269
 21
107.933
 31
0.0
  0
LINE
  8
0
 62
     0
 10
264.269
 20
107.933
 30
0.0
 11
265.07
 21
107.933
 31
0.0
  0
LINE
  8
0
 62
     0
 10
265.07
 20
107.933
 30
0.0
 11
265.07
 21
111.033
 31
0.0
  0
LINE
  8
0
 62
     0
 10
265.07
 20
111.033
 30
0.0
 11
264.269
 21
111.033
 31
0.0
  0
LINE
  8
0
 62
     0
 10
264.269
 20
111.033
 30
0.0
 11
264.269
 21
112.033
 31
0.0
  0
LINE
  8
0
 62
     0
 10
264.269
 20
112.033
 30
0.0
 11
250.27
 21
112.033
 31
0.0
  0
LINE
  8
0
 62
     0
 10
231.22
 20
112.033
 30
0.0
 11
231.22
 21
111.033
 31
0.0
  0
LINE
  8
0
 62
     0
 10
231.22
 20
111.033
 30
0.0
 11
230.419
 21
111.033
 31
0.0
  0
LINE
  8
0
 62
     0
 10
230.419
 20
111.033
 30
0.0
 11
230.419
 21
107.933
 31
0.0
  0
LINE
  8
0
 62
     0
 10
230.419
 20
107.933
 30
0.0
 11
231.22
 21
107.933
 31
0.0
  0
LINE
  8
0
 62
     0
 10
231.22
 20
107.933
 30
0.0
 11
231.22
 21
102.133
 31
0.0
  0
LINE
  8
0
 62
     0
 10
231.22
 20
102.133
 30
0.0
 11
230.419
 21
102.133
 31
0.0
  0
LINE
  8
0
 62
     0
 10
230.419
 20
102.133
 30
0.0
 11
230.419
 21
99.0328
 31
0.0
  0
LINE
  8
0
 62
     0
 10
230.419
 20
99.0328
 30
0.0
 11
231.22
 21
99.0328
 31
0.0
  0
LINE
  8
0
 62
     0
 10
231.22
 20
99.0328
 30
0.0
 11
231.22
 21
98.0338
 31
0.0
  0
LINE
  8
0
 62
     0
 10
231.22
 20
98.0338
 30
0.0
 11
245.219
 21
98.0338
 31
0.0
  0
LINE
  8
0
 62
     0
 10
245.219
 20
98.0338
 30
0.0
 11
245.219
 21
99.0328
 31
0.0
  0
LINE
  8
0
 62
     0
 10
245.219
 20
99.0328
 30
0.0
 11
246.02
 21
99.0328
 31
0.0
  0
LINE
  8
0
 62
     0
 10
246.02
 20
99.0328
 30
0.0
 11
246.02
 21
102.133
 31
0.0
  0
LINE
  8
0
 62
     0
 10
246.02
 20
102.133
 30
0.0
 11
245.219
 21
102.133
 31
0.0
  0
LINE
  8
0
 62
     0
 10
245.219
 20
102.133
 30
0.0
 11
245.219
 21
107.933
 31
0.0
  0
LINE
  8
0
 62
     0
 10
245.219
 20
107.933
 30
0.0
 11
246.02
 21
107.933
 31
0.0
  0
LINE
  8
0
 62
     0
 10
246.02
 20
107.933
 30
0.0
 11
246.02
 21
111.033
 31
0.0
  0
LINE
  8
0
 62
     0
 10
246.02
 20
111.033
 30
0.0
 11
245.219
 21
111.033
 31
0.0
  0
LINE
  8
0
 62
     0
 10
245.219
 20
111.033
 30
0.0
 11
245.219
 21
112.033
 31
0.0
  0
LINE
  8
0
 62
     0
 10
245.219
 20
112.033
 30
0.0
 11
231.22
 21
112.033
 31
0.0
  0
LINE
  8
0
 62
     0
 10
212.17
 20
112.033
 30
0.0
 11
212.17
 21
111.033
 31
0.0
  0
LINE
  8
0
 62
     0
 10
212.17
 20
111.033
 30
0.0
 11
211.369
 21
111.033
 31
0.0
  0
LINE
  8
0
 62
     0
 10
211.369
 20
111.033
 30
0.0
 11
211.369
 21
107.933
 31
0.0
  0
LINE
  8
0
 62
     0
 10
211.369
 20
107.933
 30
0.0
 11
212.17
 21
107.933
 31
0.0
  0
LINE
  8
0
 62
     0
 10
212.17
 20
107.933
 30
0.0
 11
212.17
 21
102.133
 31
0.0
  0
LINE
  8
0
 62
     0
 10
212.17
 20
102.133
 30
0.0
 11
211.369
 21
102.133
 31
0.0
  0
LINE
  8
0
 62
     0
 10
211.369
 20
102.133
 30
0.0
 11
211.369
 21
99.0328
 31
0.0
  0
LINE
  8
0
 62
     0
 10
211.369
 20
99.0328
 30
0.0
 11
212.17
 21
99.0328
 31
0.0
  0
LINE
  8
0
 62
     0
 10
212.17
 20
99.0328
 30
0.0
 11
212.17
 21
98.0338
 31
0.0
  0
LINE
  8
0
 62
     0
 10
212.17
 20
98.0338
 30
0.0
 11
226.169
 21
98.0338
 31
0.0
  0
LINE
  8
0
 62
     0
 10
226.169
 20
98.0338
 30
0.0
 11
226.169
 21
99.0328
 31
0.0
  0
LINE
  8
0
 62
     0
 10
226.169
 20
99.0328
 30
0.0
 11
226.97
 21
99.0328
 31
0.0
  0
LINE
  8
0
 62
     0
 10
226.97
 20
99.0328
 30
0.0
 11
226.97
 21
102.133
 31
0.0
  0
LINE
  8
0
 62
     0
 10
226.97
 20
102.133
 30
0.0
 11
226.169
 21
102.133
 31
0.0
  0
LINE
  8
0
 62
     0
 10
226.169
 20
102.133
 30
0.0
 11
226.169
 21
107.933
 31
0.0
  0
LINE
  8
0
 62
     0
 10
226.169
 20
107.933
 30
0.0
 11
226.97
 21
107.933
 31
0.0
  0
LINE
  8
0
 62
     0
 10
226.97
 20
107.933
 30
0.0
 11
226.97
 21
111.033
 31
0.0
  0
LINE
  8
0
 62
     0
 10
226.97
 20
111.033
 30
0.0
 11
226.169
 21
111.033
 31
0.0
  0
LINE
  8
0
 62
     0
 10
226.169
 20
111.033
 30
0.0
 11
226.169
 21
112.033
 31
0.0
  0
LINE
  8
0
 62
     0
 10
226.169
 20
112.033
 30
0.0
 11
212.17
 21
112.033
 31
0.0
  0
LINE
  8
0
 62
     0
 10
193.12
 20
112.033
 30
0.0
 11
193.12
 21
111.033
 31
0.0
  0
LINE
  8
0
 62
     0
 10
193.12
 20
111.033
 30
0.0
 11
192.319
 21
111.033
 31
0.0
  0
LINE
  8
0
 62
     0
 10
192.319
 20
111.033
 30
0.0
 11
192.319
 21
107.933
 31
0.0
  0
LINE
  8
0
 62
     0
 10
192.319
 20
107.933
 30
0.0
 11
193.12
 21
107.933
 31
0.0
  0
LINE
  8
0
 62
     0
 10
193.12
 20
107.933
 30
0.0
 11
193.12
 21
102.133
 31
0.0
  0
LINE
  8
0
 62
     0
 10
193.12
 20
102.133
 30
0.0
 11
192.319
 21
102.133
 31
0.0
  0
LINE
  8
0
 62
     0
 10
192.319
 20
102.133
 30
0.0
 11
192.319
 21
99.0328
 31
0.0
  0
LINE
  8
0
 62
     0
 10
192.319
 20
99.0328
 30
0.0
 11
193.12
 21
99.0328
 31
0.0
  0
LINE
  8
0
 62
     0
 10
193.12
 20
99.0328
 30
0.0
 11
193.12
 21
98.0338
 31
0.0
  0
LINE
  8
0
 62
     0
 10
193.12
 20
98.0338
 30
0.0
 11
207.119
 21
98.0338
 31
0.0
  0
LINE
  8
0
 62
     0
 10
207.119
 20
98.0338
 30
0.0
 11
207.119
 21
99.0328
 31
0.0
  0
LINE
  8
0
 62
     0
 10
207.119
 20
99.0328
 30
0.0
 11
207.92
 21
99.0328
 31
0.0
  0
LINE
  8
0
 62
     0
 10
207.92
 20
99.0328
 30
0.0
 11
207.92
 21
102.133
 31
0.0
  0
LINE
  8
0
 62
     0
 10
207.92
 20
102.133
 30
0.0
 11
207.119
 21
102.133
 31
0.0
  0
LINE
  8
0
 62
     0
 10
207.119
 20
102.133
 30
0.0
 11
207.119
 21
107.933
 31
0.0
  0
LINE
  8
0
 62
     0
 10
207.119
 20
107.933
 30
0.0
 11
207.92
 21
107.933
 31
0.0
  0
LINE
  8
0
 62
     0
 10
207.92
 20
107.933
 30
0.0
 11
207.92
 21
111.033
 31
0.0
  0
LINE
  8
0
 62
     0
 10
207.92
 20
111.033
 30
0.0
 11
207.119
 21
111.033
 31
0.0
  0
LINE
  8
0
 62
     0
 10
207.119
 20
111.033
 30
0.0
 11
207.119
 21
112.033
 31
0.0
  0
LINE
  8
0
 62
     0
 10
207.119
 20
112.033
 30
0.0
 11
193.12
 21
112.033
 31
0.0
  0
LINE
  8
0
 62
     0
 10
174.07
 20
112.033
 30
0.0
 11
174.07
 21
111.033
 31
0.0
  0
LINE
  8
0
 62
     0
 10
174.07
 20
111.033
 30
0.0
 11
173.269
 21
111.033
 31
0.0
  0
LINE
  8
0
 62
     0
 10
173.269
 20
111.033
 30
0.0
 11
173.269
 21
107.933
 31
0.0
  0
LINE
  8
0
 62
     0
 10
173.269
 20
107.933
 30
0.0
 11
174.07
 21
107.933
 31
0.0
  0
LINE
  8
0
 62
     0
 10
174.07
 20
107.933
 30
0.0
 11
174.07
 21
102.133
 31
0.0
  0
LINE
  8
0
 62
     0
 10
174.07
 20
102.133
 30
0.0
 11
173.269
 21
102.133
 31
0.0
  0
LINE
  8
0
 62
     0
 10
173.269
 20
102.133
 30
0.0
 11
173.269
 21
99.0328
 31
0.0
  0
LINE
  8
0
 62
     0
 10
173.269
 20
99.0328
 30
0.0
 11
174.07
 21
99.0328
 31
0.0
  0
LINE
  8
0
 62
     0
 10
174.07
 20
99.0328
 30
0.0
 11
174.07
 21
98.0338
 31
0.0
  0
LINE
  8
0
 62
     0
 10
174.07
 20
98.0338
 30
0.0
 11
188.069
 21
98.0338
 31
0.0
  0
LINE
  8
0
 62
     0
 10
188.069
 20
98.0338
 30
0.0
 11
188.069
 21
99.0328
 31
0.0
  0
LINE
  8
0
 62
     0
 10
188.069
 20
99.0328
 30
0.0
 11
188.87
 21
99.0328
 31
0.0
  0
LINE
  8
0
 62
     0
 10
188.87
 20
99.0328
 30
0.0
 11
188.87
 21
102.133
 31
0.0
  0
LINE
  8
0
 62
     0
 10
188.87
 20
102.133
 30
0.0
 11
188.069
 21
102.133
 31
0.0
  0
LINE
  8
0
 62
     0
 10
188.069
 20
102.133
 30
0.0
 11
188.069
 21
107.933
 31
0.0
  0
LINE
  8
0
 62
     0
 10
188.069
 20
107.933
 30
0.0
 11
188.87
 21
107.933
 31
0.0
  0
LINE
  8
0
 62
     0
 10
188.87
 20
107.933
 30
0.0
 11
188.87
 21
111.033
 31
0.0
  0
LINE
  8
0
 62
     0
 10
188.87
 20
111.033
 30
0.0
 11
188.069
 21
111.033
 31
0.0
  0
LINE
  8
0
 62
     0
 10
188.069
 20
111.033
 30
0.0
 11
188.069
 21
112.033
 31
0.0
  0
LINE
  8
0
 62
     0
 10
188.069
 20
112.033
 30
0.0
 11
174.07
 21
112.033
 31
0.0
  0
LINE
  8
0
 62
     0
 10
155.02
 20
112.033
 30
0.0
 11
155.02
 21
111.033
 31
0.0
  0
LINE
  8
0
 62
     0
 10
155.02
 20
111.033
 30
0.0
 11
154.219
 21
111.033
 31
0.0
  0
LINE
  8
0
 62
     0
 10
154.219
 20
111.033
 30
0.0
 11
154.219
 21
107.933
 31
0.0
  0
LINE
  8
0
 62
     0
 10
154.219
 20
107.933
 30
0.0
 11
155.02
 21
107.933
 31
0.0
  0
LINE
  8
0
 62
     0
 10
155.02
 20
107.933
 30
0.0
 11
155.02
 21
102.133
 31
0.0
  0
LINE
  8
0
 62
     0
 10
155.02
 20
102.133
 30
0.0
 11
154.219
 21
102.133
 31
0.0
  0
LINE
  8
0
 62
     0
 10
154.219
 20
102.133
 30
0.0
 11
154.219
 21
99.0328
 31
0.0
  0
LINE
  8
0
 62
     0
 10
154.219
 20
99.0328
 30
0.0
 11
155.02
 21
99.0328
 31
0.0
  0
LINE
  8
0
 62
     0
 10
155.02
 20
99.0328
 30
0.0
 11
155.02
 21
98.0338
 31
0.0
  0
LINE
  8
0
 62
     0
 10
155.02
 20
98.0338
 30
0.0
 11
169.019
 21
98.0338
 31
0.0
  0
LINE
  8
0
 62
     0
 10
169.019
 20
98.0338
 30
0.0
 11
169.019
 21
99.0328
 31
0.0
  0
LINE
  8
0
 62
     0
 10
169.019
 20
99.0328
 30
0.0
 11
169.82
 21
99.0328
 31
0.0
  0
LINE
  8
0
 62
     0
 10
169.82
 20
99.0328
 30
0.0
 11
169.82
 21
102.133
 31
0.0
  0
LINE
  8
0
 62
     0
 10
169.82
 20
102.133
 30
0.0
 11
169.019
 21
102.133
 31
0.0
  0
LINE
  8
0
 62
     0
 10
169.019
 20
102.133
 30
0.0
 11
169.019
 21
107.933
 31
0.0
  0
LINE
  8
0
 62
     0
 10
169.019
 20
107.933
 30
0.0
 11
169.82
 21
107.933
 31
0.0
  0
LINE
  8
0
 62
     0
 10
169.82
 20
107.933
 30
0.0
 11
169.82
 21
111.033
 31
0.0
  0
LINE
  8
0
 62
     0
 10
169.82
 20
111.033
 30
0.0
 11
169.019
 21
111.033
 31
0.0
  0
LINE
  8
0
 62
     0
 10
169.019
 20
111.033
 30
0.0
 11
169.019
 21
112.033
 31
0.0
  0
LINE
  8
0
 62
     0
 10
169.019
 20
112.033
 30
0.0
 11
155.02
 21
112.033
 31
0.0
  0
LINE
  8
0
 62
     0
 10
135.97
 20
112.033
 30
0.0
 11
135.97
 21
111.033
 31
0.0
  0
LINE
  8
0
 62
     0
 10
135.97
 20
111.033
 30
0.0
 11
135.169
 21
111.033
 31
0.0
  0
LINE
  8
0
 62
     0
 10
135.169
 20
111.033
 30
0.0
 11
135.169
 21
107.933
 31
0.0
  0
LINE
  8
0
 62
     0
 10
135.169
 20
107.933
 30
0.0
 11
135.97
 21
107.933
 31
0.0
  0
LINE
  8
0
 62
     0
 10
135.97
 20
107.933
 30
0.0
 11
135.97
 21
102.133
 31
0.0
  0
LINE
  8
0
 62
     0
 10
135.97
 20
102.133
 30
0.0
 11
135.169
 21
102.133
 31
0.0
  0
LINE
  8
0
 62
     0
 10
135.169
 20
102.133
 30
0.0
 11
135.169
 21
99.0328
 31
0.0
  0
LINE
  8
0
 62
     0
 10
135.169
 20
99.0328
 30
0.0
 11
135.97
 21
99.0328
 31
0.0
  0
LINE
  8
0
 62
     0
 10
135.97
 20
99.0328
 30
0.0
 11
135.97
 21
98.0338
 31
0.0
  0
LINE
  8
0
 62
     0
 10
135.97
 20
98.0338
 30
0.0
 11
149.969
 21
98.0338
 31
0.0
  0
LINE
  8
0
 62
     0
 10
149.969
 20
98.0338
 30
0.0
 11
149.969
 21
99.0328
 31
0.0
  0
LINE
  8
0
 62
     0
 10
149.969
 20
99.0328
 30
0.0
 11
150.77
 21
99.0328
 31
0.0
  0
LINE
  8
0
 62
     0
 10
150.77
 20
99.0328
 30
0.0
 11
150.77
 21
102.133
 31
0.0
  0
LINE
  8
0
 62
     0
 10
150.77
 20
102.133
 30
0.0
 11
149.969
 21
102.133
 31
0.0
  0
LINE
  8
0
 62
     0
 10
149.969
 20
102.133
 30
0.0
 11
149.969
 21
107.933
 31
0.0
  0
LINE
  8
0
 62
     0
 10
149.969
 20
107.933
 30
0.0
 11
150.77
 21
107.933
 31
0.0
  0
LINE
  8
0
 62
     0
 10
150.77
 20
107.933
 30
0.0
 11
150.77
 21
111.033
 31
0.0
  0
LINE
  8
0
 62
     0
 10
150.77
 20
111.033
 30
0.0
 11
149.969
 21
111.033
 31
0.0
  0
LINE
  8
0
 62
     0
 10
149.969
 20
111.033
 30
0.0
 11
149.969
 21
112.033
 31
0.0
  0
LINE
  8
0
 62
     0
 10
149.969
 20
112.033
 30
0.0
 11
135.97
 21
112.033
 31
0.0
  0
LINE
  8
0
 62
     0
 10
116.918
 20
112.033
 30
0.0
 11
116.918
 21
111.033
 31
0.0
  0
LINE
  8
0
 62
     0
 10
116.918
 20
111.033
 30
0.0
 11
116.119
 21
111.033
 31
0.0
  0
LINE
  8
0
 62
     0
 10
116.119
 20
111.033
 30
0.0
 11
116.119
 21
107.933
 31
0.0
  0
LINE
  8
0
 62
     0
 10
116.119
 20
107.933
 30
0.0
 11
116.918
 21
107.933
 31
0.0
  0
LINE
  8
0
 62
     0
 10
116.918
 20
107.933
 30
0.0
 11
116.918
 21
102.133
 31
0.0
  0
LINE
  8
0
 62
     0
 10
116.918
 20
102.133
 30
0.0
 11
116.119
 21
102.133
 31
0.0
  0
LINE
  8
0
 62
     0
 10
116.119
 20
102.133
 30
0.0
 11
116.119
 21
99.0328
 31
0.0
  0
LINE
  8
0
 62
     0
 10
116.119
 20
99.0328
 30
0.0
 11
116.918
 21
99.0328
 31
0.0
  0
LINE
  8
0
 62
     0
 10
116.918
 20
99.0328
 30
0.0
 11
116.918
 21
98.0338
 31
0.0
  0
LINE
  8
0
 62
     0
 10
116.918
 20
98.0338
 30
0.0
 11
130.919
 21
98.0338
 31
0.0
  0
LINE
  8
0
 62
     0
 10
130.919
 20
98.0338
 30
0.0
 11
130.919
 21
99.0328
 31
0.0
  0
LINE
  8
0
 62
     0
 10
130.919
 20
99.0328
 30
0.0
 11
131.72
 21
99.0328
 31
0.0
  0
LINE
  8
0
 62
     0
 10
131.72
 20
99.0328
 30
0.0
 11
131.72
 21
102.133
 31
0.0
  0
LINE
  8
0
 62
     0
 10
131.72
 20
102.133
 30
0.0
 11
130.919
 21
102.133
 31
0.0
  0
LINE
  8
0
 62
     0
 10
130.919
 20
102.133
 30
0.0
 11
130.919
 21
107.933
 31
0.0
  0
LINE
  8
0
 62
     0
 10
130.919
 20
107.933
 30
0.0
 11
131.72
 21
107.933
 31
0.0
  0
LINE
  8
0
 62
     0
 10
131.72
 20
107.933
 30
0.0
 11
131.72
 21
111.033
 31
0.0
  0
LINE
  8
0
 62
     0
 10
131.72
 20
111.033
 30
0.0
 11
130.919
 21
111.033
 31
0.0
  0
LINE
  8
0
 62
     0
 10
130.919
 20
111.033
 30
0.0
 11
130.919
 21
112.033
 31
0.0
  0
LINE
  8
0
 62
     0
 10
130.919
 20
112.033
 30
0.0
 11
116.918
 21
112.033
 31
0.0
  0
LINE
  8
0
 62
     0
 10
97.8683
 20
112.033
 30
0.0
 11
97.8683
 21
111.033
 31
0.0
  0
LINE
  8
0
 62
     0
 10
97.8683
 20
111.033
 30
0.0
 11
97.0689
 21
111.033
 31
0.0
  0
LINE
  8
0
 62
     0
 10
97.0689
 20
111.033
 30
0.0
 11
97.0689
 21
107.933
 31
0.0
  0
LINE
  8
0
 62
     0
 10
97.0689
 20
107.933
 30
0.0
 11
97.8683
 21
107.933
 31
0.0
  0
LINE
  8
0
 62
     0
 10
97.8683
 20
107.933
 30
0.0
 11
97.8683
 21
102.133
 31
0.0
  0
LINE
  8
0
 62
     0
 10
97.8683
 20
102.133
 30
0.0
 11
97.0689
 21
102.133
 31
0.0
  0
LINE
  8
0
 62
     0
 10
97.0689
 20
102.133
 30
0.0
 11
97.0689
 21
99.0328
 31
0.0
  0
LINE
  8
0
 62
     0
 10
97.0689
 20
99.0328
 30
0.0
 11
97.8683
 21
99.0328
 31
0.0
  0
LINE
  8
0
 62
     0
 10
97.8683
 20
99.0328
 30
0.0
 11
97.8683
 21
98.0338
 31
0.0
  0
LINE
  8
0
 62
     0
 10
97.8683
 20
98.0338
 30
0.0
 11
111.869
 21
98.0338
 31
0.0
  0
LINE
  8
0
 62
     0
 10
111.869
 20
98.0338
 30
0.0
 11
111.869
 21
99.0328
 31
0.0
  0
LINE
  8
0
 62
     0
 10
111.869
 20
99.0328
 30
0.0
 11
112.668
 21
99.0328
 31
0.0
  0
LINE
  8
0
 62
     0
 10
112.668
 20
99.0328
 30
0.0
 11
112.668
 21
102.133
 31
0.0
  0
LINE
  8
0
 62
     0
 10
112.668
 20
102.133
 30
0.0
 11
111.869
 21
102.133
 31
0.0
  0
LINE
  8
0
 62
     0
 10
111.869
 20
102.133
 30
0.0
 11
111.869
 21
107.933
 31
0.0
  0
LINE
  8
0
 62
     0
 10
111.869
 20
107.933
 30
0.0
 11
112.668
 21
107.933
 31
0.0
  0
LINE
  8
0
 62
     0
 10
112.668
 20
107.933
 30
0.0
 11
112.668
 21
111.033
 31
0.0
  0
LINE
  8
0
 62
     0
 10
112.668
 20
111.033
 30
0.0
 11
111.869
 21
111.033
 31
0.0
  0
LINE
  8
0
 62
     0
 10
111.869
 20
111.033
 30
0.0
 11
111.869
 21
112.033
 31
0.0
  0
LINE
  8
0
 62
     0
 10
111.869
 20
112.033
 30
0.0
 11
97.8683
 21
112.033
 31
0.0
  0
LINE
  8
0
 62
     0
 10
78.8197
 20
112.033
 30
0.0
 11
78.8197
 21
111.033
 31
0.0
  0
LINE
  8
0
 62
     0
 10
78.8197
 20
111.033
 30
0.0
 11
78.0189
 21
111.033
 31
0.0
  0
LINE
  8
0
 62
     0
 10
78.0189
 20
111.033
 30
0.0
 11
78.0189
 21
107.933
 31
0.0
  0
LINE
  8
0
 62
     0
 10
78.0189
 20
107.933
 30
0.0
 11
78.8197
 21
107.933
 31
0.0
  0
LINE
  8
0
 62
     0
 10
78.8197
 20
107.933
 30
0.0
 11
78.8197
 21
102.133
 31
0.0
  0
LINE
  8
0
 62
     0
 10
78.8197
 20
102.133
 30
0.0
 11
78.0189
 21
102.133
 31
0.0
  0
LINE
  8
0
 62
     0
 10
78.0189
 20
102.133
 30
0.0
 11
78.0189
 21
99.0328
 31
0.0
  0
LINE
  8
0
 62
     0
 10
78.0189
 20
99.0328
 30
0.0
 11
78.8197
 21
99.0328
 31
0.0
  0
LINE
  8
0
 62
     0
 10
78.8197
 20
99.0328
 30
0.0
 11
78.8197
 21
98.0338
 31
0.0
  0
LINE
  8
0
 62
     0
 10
78.8197
 20
98.0338
 30
0.0
 11
92.819
 21
98.0338
 31
0.0
  0
LINE
  8
0
 62
     0
 10
92.819
 20
98.0338
 30
0.0
 11
92.819
 21
99.0328
 31
0.0
  0
LINE
  8
0
 62
     0
 10
92.819
 20
99.0328
 30
0.0
 11
93.6184
 21
99.0328
 31
0.0
  0
LINE
  8
0
 62
     0
 10
93.6184
 20
99.0328
 30
0.0
 11
93.6184
 21
102.133
 31
0.0
  0
LINE
  8
0
 62
     0
 10
93.6184
 20
102.133
 30
0.0
 11
92.819
 21
102.133
 31
0.0
  0
LINE
  8
0
 62
     0
 10
92.819
 20
102.133
 30
0.0
 11
92.819
 21
107.933
 31
0.0
  0
LINE
  8
0
 62
     0
 10
92.819
 20
107.933
 30
0.0
 11
93.6184
 21
107.933
 31
0.0
  0
LINE
  8
0
 62
     0
 10
93.6184
 20
107.933
 30
0.0
 11
93.6184
 21
111.033
 31
0.0
  0
LINE
  8
0
 62
     0
 10
93.6184
 20
111.033
 30
0.0
 11
92.819
 21
111.033
 31
0.0
  0
LINE
  8
0
 62
     0
 10
92.819
 20
111.033
 30
0.0
 11
92.819
 21
112.033
 31
0.0
  0
LINE
  8
0
 62
     0
 10
92.819
 20
112.033
 30
0.0
 11
78.8197
 21
112.033
 31
0.0
  0
LINE
  8
0
 62
     0
 10
59.7697
 20
112.033
 30
0.0
 11
59.7697
 21
111.033
 31
0.0
  0
LINE
  8
0
 62
     0
 10
59.7697
 20
111.033
 30
0.0
 11
58.9689
 21
111.033
 31
0.0
  0
LINE
  8
0
 62
     0
 10
58.9689
 20
111.033
 30
0.0
 11
58.9689
 21
107.933
 31
0.0
  0
LINE
  8
0
 62
     0
 10
58.9689
 20
107.933
 30
0.0
 11
59.7697
 21
107.933
 31
0.0
  0
LINE
  8
0
 62
     0
 10
59.7697
 20
107.933
 30
0.0
 11
59.7697
 21
102.133
 31
0.0
  0
LINE
  8
0
 62
     0
 10
59.7697
 20
102.133
 30
0.0
 11
58.9689
 21
102.133
 31
0.0
  0
LINE
  8
0
 62
     0
 10
58.9689
 20
102.133
 30
0.0
 11
58.9689
 21
99.0328
 31
0.0
  0
LINE
  8
0
 62
     0
 10
58.9689
 20
99.0328
 30
0.0
 11
59.7697
 21
99.0328
 31
0.0
  0
LINE
  8
0
 62
     0
 10
59.7697
 20
99.0328
 30
0.0
 11
59.7697
 21
98.0338
 31
0.0
  0
LINE
  8
0
 62
     0
 10
59.7697
 20
98.0338
 30
0.0
 11
73.769
 21
98.0338
 31
0.0
  0
LINE
  8
0
 62
     0
 10
73.769
 20
98.0338
 30
0.0
 11
73.769
 21
99.0328
 31
0.0
  0
LINE
  8
0
 62
     0
 10
73.769
 20
99.0328
 30
0.0
 11
74.5698
 21
99.0328
 31
0.0
  0
LINE
  8
0
 62
     0
 10
74.5698
 20
99.0328
 30
0.0
 11
74.5698
 21
102.133
 31
0.0
  0
LINE
  8
0
 62
     0
 10
74.5698
 20
102.133
 30
0.0
 11
73.769
 21
102.133
 31
0.0
  0
LINE
  8
0
 62
     0
 10
73.769
 20
102.133
 30
0.0
 11
73.769
 21
107.933
 31
0.0
  0
LINE
  8
0
 62
     0
 10
73.769
 20
107.933
 30
0.0
 11
74.5698
 21
107.933
 31
0.0
  0
LINE
  8
0
 62
     0
 10
74.5698
 20
107.933
 30
0.0
 11
74.5698
 21
111.033
 31
0.0
  0
LINE
  8
0
 62
     0
 10
74.5698
 20
111.033
 30
0.0
 11
73.769
 21
111.033
 31
0.0
  0
LINE
  8
0
 62
     0
 10
73.769
 20
111.033
 30
0.0
 11
73.769
 21
112.033
 31
0.0
  0
LINE
  8
0
 62
     0
 10
73.769
 20
112.033
 30
0.0
 11
59.7697
 21
112.033
 31
0.0
  0
LINE
  8
0
 62
     0
 10
40.7197
 20
112.033
 30
0.0
 11
40.7197
 21
111.033
 31
0.0
  0
LINE
  8
0
 62
     0
 10
40.7197
 20
111.033
 30
0.0
 11
39.9189
 21
111.033
 31
0.0
  0
LINE
  8
0
 62
     0
 10
39.9189
 20
111.033
 30
0.0
 11
39.9189
 21
107.933
 31
0.0
  0
LINE
  8
0
 62
     0
 10
39.9189
 20
107.933
 30
0.0
 11
40.7197
 21
107.933
 31
0.0
  0
LINE
  8
0
 62
     0
 10
40.7197
 20
107.933
 30
0.0
 11
40.7197
 21
102.133
 31
0.0
  0
LINE
  8
0
 62
     0
 10
40.7197
 20
102.133
 30
0.0
 11
39.9189
 21
102.133
 31
0.0
  0
LINE
  8
0
 62
     0
 10
39.9189
 20
102.133
 30
0.0
 11
39.9189
 21
99.0328
 31
0.0
  0
LINE
  8
0
 62
     0
 10
39.9189
 20
99.0328
 30
0.0
 11
40.7197
 21
99.0328
 31
0.0
  0
LINE
  8
0
 62
     0
 10
40.7197
 20
99.0328
 30
0.0
 11
40.7197
 21
98.0338
 31
0.0
  0
LINE
  8
0
 62
     0
 10
40.7197
 20
98.0338
 30
0.0
 11
54.719
 21
98.0338
 31
0.0
  0
LINE
  8
0
 62
     0
 10
54.719
 20
98.0338
 30
0.0
 11
54.719
 21
99.0328
 31
0.0
  0
LINE
  8
0
 62
     0
 10
54.719
 20
99.0328
 30
0.0
 11
55.5198
 21
99.0328
 31
0.0
  0
LINE
  8
0
 62
     0
 10
55.5198
 20
99.0328
 30
0.0
 11
55.5198
 21
102.133
 31
0.0
  0
LINE
  8
0
 62
     0
 10
55.5198
 20
102.133
 30
0.0
 11
54.719
 21
102.133
 31
0.0
  0
LINE
  8
0
 62
     0
 10
54.719
 20
102.133
 30
0.0
 11
54.719
 21
107.933
 31
0.0
  0
LINE
  8
0
 62
     0
 10
54.719
 20
107.933
 30
0.0
 11
55.5198
 21
107.933
 31
0.0
  0
LINE
  8
0
 62
     0
 10
55.5198
 20
107.933
 30
0.0
 11
55.5198
 21
111.033
 31
0.0
  0
LINE
  8
0
 62
     0
 10
55.5198
 20
111.033
 30
0.0
 11
54.719
 21
111.033
 31
0.0
  0
LINE
  8
0
 62
     0
 10
54.719
 20
111.033
 30
0.0
 11
54.719
 21
112.033
 31
0.0
  0
LINE
  8
0
 62
     0
 10
54.719
 20
112.033
 30
0.0
 11
40.7197
 21
112.033
 31
0.0
  0
LINE
  8
0
 62
     0
 10
21.6697
 20
112.033
 30
0.0
 11
21.6697
 21
111.033
 31
0.0
  0
LINE
  8
0
 62
     0
 10
21.6697
 20
111.033
 30
0.0
 11
20.869
 21
111.033
 31
0.0
  0
LINE
  8
0
 62
     0
 10
20.869
 20
111.033
 30
0.0
 11
20.869
 21
107.933
 31
0.0
  0
LINE
  8
0
 62
     0
 10
20.869
 20
107.933
 30
0.0
 11
21.6697
 21
107.933
 31
0.0
  0
LINE
  8
0
 62
     0
 10
21.6697
 20
107.933
 30
0.0
 11
21.6697
 21
102.133
 31
0.0
  0
LINE
  8
0
 62
     0
 10
21.6697
 20
102.133
 30
0.0
 11
20.869
 21
102.133
 31
0.0
  0
LINE
  8
0
 62
     0
 10
20.869
 20
102.133
 30
0.0
 11
20.869
 21
99.0328
 31
0.0
  0
LINE
  8
0
 62
     0
 10
20.869
 20
99.0328
 30
0.0
 11
21.6697
 21
99.0328
 31
0.0
  0
LINE
  8
0
 62
     0
 10
21.6697
 20
99.0328
 30
0.0
 11
21.6697
 21
98.0338
 31
0.0
  0
LINE
  8
0
 62
     0
 10
21.6697
 20
98.0338
 30
0.0
 11
35.669
 21
98.0338
 31
0.0
  0
LINE
  8
0
 62
     0
 10
35.669
 20
98.0338
 30
0.0
 11
35.669
 21
99.0328
 31
0.0
  0
LINE
  8
0
 62
     0
 10
35.669
 20
99.0328
 30
0.0
 11
36.4698
 21
99.0328
 31
0.0
  0
LINE
  8
0
 62
     0
 10
36.4698
 20
99.0328
 30
0.0
 11
36.4698
 21
102.133
 31
0.0
  0
LINE
  8
0
 62
     0
 10
36.4698
 20
102.133
 30
0.0
 11
35.669
 21
102.133
 31
0.0
  0
LINE
  8
0
 62
     0
 10
35.669
 20
102.133
 30
0.0
 11
35.669
 21
107.933
 31
0.0
  0
LINE
  8
0
 62
     0
 10
35.669
 20
107.933
 30
0.0
 11
36.4698
 21
107.933
 31
0.0
  0
LINE
  8
0
 62
     0
 10
36.4698
 20
107.933
 30
0.0
 11
36.4698
 21
111.033
 31
0.0
  0
LINE
  8
0
 62
     0
 10
36.4698
 20
111.033
 30
0.0
 11
35.669
 21
111.033
 31
0.0
  0
LINE
  8
0
 62
     0
 10
35.669
 20
111.033
 30
0.0
 11
35.669
 21
112.033
 31
0.0
  0
LINE
  8
0
 62
     0
 10
35.669
 20
112.033
 30
0.0
 11
21.6697
 21
112.033
 31
0.0
  0
LINE
  8
0
 62
     0
 10
2.61965
 20
112.033
 30
0.0
 11
2.61965
 21
111.033
 31
0.0
  0
LINE
  8
0
 62
     0
 10
2.61965
 20
111.033
 30
0.0
 11
1.81901
 21
111.033
 31
0.0
  0
LINE
  8
0
 62
     0
 10
1.81901
 20
111.033
 30
0.0
 11
1.81901
 21
107.933
 31
0.0
  0
LINE
  8
0
 62
     0
 10
1.81901
 20
107.933
 30
0.0
 11
2.61965
 21
107.933
 31
0.0
  0
LINE
  8
0
 62
     0
 10
2.61965
 20
107.933
 30
0.0
 11
2.61965
 21
102.133
 31
0.0
  0
LINE
  8
0
 62
     0
 10
2.61965
 20
102.133
 30
0.0
 11
1.81901
 21
102.133
 31
0.0
  0
LINE
  8
0
 62
     0
 10
1.81901
 20
102.133
 30
0.0
 11
1.81901
 21
99.0328
 31
0.0
  0
LINE
  8
0
 62
     0
 10
1.81901
 20
99.0328
 30
0.0
 11
2.61965
 21
99.0328
 31
0.0
  0
LINE
  8
0
 62
     0
 10
2.61965
 20
99.0328
 30
0.0
 11
2.61965
 21
98.0338
 31
0.0
  0
LINE
  8
0
 62
     0
 10
2.61965
 20
98.0338
 30
0.0
 11
16.6192
 21
98.0338
 31
0.0
  0
LINE
  8
0
 62
     0
 10
16.6192
 20
98.0338
 30
0.0
 11
16.6192
 21
99.0328
 31
0.0
  0
LINE
  8
0
 62
     0
 10
16.6192
 20
99.0328
 30
0.0
 11
17.4198
 21
99.0328
 31
0.0
  0
LINE
  8
0
 62
     0
 10
17.4198
 20
99.0328
 30
0.0
 11
17.4198
 21
102.133
 31
0.0
  0
LINE
  8
0
 62
     0
 10
17.4198
 20
102.133
 30
0.0
 11
16.6192
 21
102.133
 31
0.0
  0
LINE
  8
0
 62
     0
 10
16.6192
 20
102.133
 30
0.0
 11
16.6192
 21
107.933
 31
0.0
  0
LINE
  8
0
 62
     0
 10
16.6192
 20
107.933
 30
0.0
 11
17.4198
 21
107.933
 31
0.0
  0
LINE
  8
0
 62
     0
 10
17.4198
 20
107.933
 30
0.0
 11
17.4198
 21
111.033
 31
0.0
  0
LINE
  8
0
 62
     0
 10
17.4198
 20
111.033
 30
0.0
 11
16.6192
 21
111.033
 31
0.0
  0
LINE
  8
0
 62
     0
 10
16.6192
 20
111.033
 30
0.0
 11
16.6192
 21
112.033
 31
0.0
  0
LINE
  8
0
 62
     0
 10
16.6192
 20
112.033
 30
0.0
 11
2.61965
 21
112.033
 31
0.0
  0
ENDSEC
  0
EOF
